<svg width="1300" height="297" viewBox="0 0 1300 297" fill="none" xmlns="http://www.w3.org/2000/svg">
<path d="M1300 20C1300 8.9543 1291.05 0 1280 0H20C8.95435 0 0 8.95431 0 20V240H1300V20Z" fill="#FAFAFB"/>
<path d="M54.8389 71.6611H56.1816C56.1458 72.1364 56.014 72.5579 55.7861 72.9258C55.5583 73.2904 55.2409 73.5768 54.834 73.7852C54.4271 73.9935 53.9339 74.0977 53.3545 74.0977C52.9085 74.0977 52.5065 74.0195 52.1484 73.8633C51.7936 73.7038 51.4893 73.4775 51.2354 73.1846C50.9847 72.8883 50.7926 72.5335 50.6592 72.1201C50.5257 71.7035 50.459 71.2363 50.459 70.7188V70.1768C50.459 69.6592 50.5273 69.1921 50.6641 68.7754C50.8008 68.3587 50.9961 68.0039 51.25 67.7109C51.5072 67.4147 51.8148 67.1868 52.1729 67.0273C52.5342 66.8678 52.9378 66.7881 53.3838 66.7881C53.9632 66.7881 54.4531 66.8955 54.8535 67.1104C55.2539 67.3219 55.5648 67.6133 55.7861 67.9844C56.0075 68.3555 56.141 68.7819 56.1865 69.2637H54.8438C54.8177 68.9642 54.7526 68.7103 54.6484 68.502C54.5475 68.2936 54.3945 68.1357 54.1895 68.0283C53.9876 67.9176 53.7191 67.8623 53.3838 67.8623C53.1234 67.8623 52.8939 67.9111 52.6953 68.0088C52.5 68.1064 52.3372 68.2529 52.207 68.4482C52.0768 68.6403 51.9792 68.8812 51.9141 69.1709C51.849 69.4574 51.8164 69.7894 51.8164 70.167V70.7188C51.8164 71.0801 51.8457 71.404 51.9043 71.6904C51.9629 71.9769 52.054 72.2194 52.1777 72.418C52.3014 72.6165 52.4609 72.7679 52.6562 72.8721C52.8516 72.9762 53.0843 73.0283 53.3545 73.0283C53.6833 73.0283 53.9502 72.9762 54.1553 72.8721C54.3636 72.7679 54.5215 72.6149 54.6289 72.4131C54.7396 72.2113 54.8096 71.9606 54.8389 71.6611ZM63.9785 70.2646V70.6309C63.9785 71.168 63.9069 71.6514 63.7637 72.0811C63.6204 72.5075 63.417 72.8704 63.1533 73.1699C62.8896 73.4694 62.5755 73.6989 62.2109 73.8584C61.8464 74.0179 61.4411 74.0977 60.9951 74.0977C60.5557 74.0977 60.152 74.0179 59.7842 73.8584C59.4196 73.6989 59.1038 73.4694 58.8369 73.1699C58.57 72.8704 58.3633 72.5075 58.2168 72.0811C58.0703 71.6514 57.9971 71.168 57.9971 70.6309V70.2646C57.9971 69.7243 58.0703 69.2409 58.2168 68.8145C58.3633 68.388 58.5684 68.0251 58.832 67.7256C59.0957 67.4229 59.4098 67.1917 59.7744 67.0322C60.1423 66.8727 60.5459 66.793 60.9854 66.793C61.4313 66.793 61.8366 66.8727 62.2012 67.0322C62.5658 67.1917 62.8799 67.4229 63.1436 67.7256C63.4105 68.0251 63.6156 68.388 63.7588 68.8145C63.9053 69.2409 63.9785 69.7243 63.9785 70.2646ZM62.6211 70.6309V70.2549C62.6211 69.8675 62.5853 69.5273 62.5137 69.2344C62.4421 68.9382 62.3363 68.6891 62.1963 68.4873C62.0563 68.2855 61.8838 68.1341 61.6787 68.0332C61.4736 67.929 61.2425 67.877 60.9854 67.877C60.7249 67.877 60.4938 67.929 60.292 68.0332C60.0934 68.1341 59.9242 68.2855 59.7842 68.4873C59.6442 68.6891 59.5368 68.9382 59.4619 69.2344C59.3903 69.5273 59.3545 69.8675 59.3545 70.2549V70.6309C59.3545 71.015 59.3903 71.3551 59.4619 71.6514C59.5368 71.9476 59.6442 72.1982 59.7842 72.4033C59.9274 72.6051 60.0999 72.7581 60.3018 72.8623C60.5036 72.9665 60.7347 73.0186 60.9951 73.0186C61.2555 73.0186 61.4867 72.9665 61.6885 72.8623C61.8903 72.7581 62.0596 72.6051 62.1963 72.4033C62.3363 72.1982 62.4421 71.9476 62.5137 71.6514C62.5853 71.3551 62.6211 71.015 62.6211 70.6309ZM70.6279 72.9453V74H67.0537V72.9453H70.6279ZM67.459 66.8906V74H66.1162V66.8906H67.459ZM77.0859 66.8906L78.5068 69.4248L79.9326 66.8906H81.4756L79.3662 70.416L81.5293 74H79.9717L78.5068 71.417L77.0469 74H75.4844L77.6475 70.416L75.5381 66.8906H77.0859Z" fill="#303C4B"/>
<path fill-rule="evenodd" clip-rule="evenodd" d="M93.92 67L96.34 69.7657H91.5L93.92 67ZM96.34 72.5314L93.92 75.2971L91.5 72.5314H96.34Z" fill="#9EA3AA"/>
<path d="M259.438 71.6611H260.781C260.745 72.1364 260.614 72.5579 260.386 72.9258C260.158 73.2904 259.84 73.5768 259.434 73.7852C259.027 73.9935 258.534 74.0977 257.954 74.0977C257.508 74.0977 257.106 74.0195 256.748 73.8633C256.393 73.7038 256.089 73.4775 255.835 73.1846C255.584 72.8883 255.392 72.5335 255.259 72.1201C255.125 71.7035 255.059 71.2363 255.059 70.7188V70.1768C255.059 69.6592 255.127 69.1921 255.264 68.7754C255.4 68.3587 255.596 68.0039 255.85 67.7109C256.107 67.4147 256.414 67.1868 256.772 67.0273C257.134 66.8678 257.537 66.7881 257.983 66.7881C258.563 66.7881 259.053 66.8955 259.453 67.1104C259.854 67.3219 260.164 67.6133 260.386 67.9844C260.607 68.3555 260.741 68.7819 260.786 69.2637H259.443C259.417 68.9642 259.352 68.7103 259.248 68.502C259.147 68.2936 258.994 68.1357 258.789 68.0283C258.587 67.9176 258.319 67.8623 257.983 67.8623C257.723 67.8623 257.493 67.9111 257.295 68.0088C257.1 68.1064 256.937 68.2529 256.807 68.4482C256.676 68.6403 256.579 68.8812 256.514 69.1709C256.449 69.4574 256.416 69.7894 256.416 70.167V70.7188C256.416 71.0801 256.445 71.404 256.504 71.6904C256.562 71.9769 256.654 72.2194 256.777 72.418C256.901 72.6165 257.061 72.7679 257.256 72.8721C257.451 72.9762 257.684 73.0283 257.954 73.0283C258.283 73.0283 258.55 72.9762 258.755 72.8721C258.963 72.7679 259.121 72.6149 259.229 72.4131C259.339 72.2113 259.409 71.9606 259.438 71.6611ZM268.578 70.2646V70.6309C268.578 71.168 268.507 71.6514 268.363 72.0811C268.22 72.5075 268.017 72.8704 267.753 73.1699C267.489 73.4694 267.175 73.6989 266.811 73.8584C266.446 74.0179 266.041 74.0977 265.595 74.0977C265.155 74.0977 264.752 74.0179 264.384 73.8584C264.019 73.6989 263.703 73.4694 263.437 73.1699C263.17 72.8704 262.963 72.5075 262.816 72.0811C262.67 71.6514 262.597 71.168 262.597 70.6309V70.2646C262.597 69.7243 262.67 69.2409 262.816 68.8145C262.963 68.388 263.168 68.0251 263.432 67.7256C263.695 67.4229 264.009 67.1917 264.374 67.0322C264.742 66.8727 265.146 66.793 265.585 66.793C266.031 66.793 266.436 66.8727 266.801 67.0322C267.165 67.1917 267.479 67.4229 267.743 67.7256C268.01 68.0251 268.215 68.388 268.358 68.8145C268.505 69.2409 268.578 69.7243 268.578 70.2646ZM267.221 70.6309V70.2549C267.221 69.8675 267.185 69.5273 267.113 69.2344C267.042 68.9382 266.936 68.6891 266.796 68.4873C266.656 68.2855 266.483 68.1341 266.278 68.0332C266.073 67.929 265.842 67.877 265.585 67.877C265.325 67.877 265.093 67.929 264.892 68.0332C264.693 68.1341 264.524 68.2855 264.384 68.4873C264.244 68.6891 264.136 68.9382 264.062 69.2344C263.99 69.5273 263.954 69.8675 263.954 70.2549V70.6309C263.954 71.015 263.99 71.3551 264.062 71.6514C264.136 71.9476 264.244 72.1982 264.384 72.4033C264.527 72.6051 264.7 72.7581 264.901 72.8623C265.103 72.9665 265.334 73.0186 265.595 73.0186C265.855 73.0186 266.086 72.9665 266.288 72.8623C266.49 72.7581 266.659 72.6051 266.796 72.4033C266.936 72.1982 267.042 71.9476 267.113 71.6514C267.185 71.3551 267.221 71.015 267.221 70.6309ZM275.228 72.9453V74H271.653V72.9453H275.228ZM272.059 66.8906V74H270.716V66.8906H272.059ZM281.686 66.8906L283.106 69.4248L284.532 66.8906H286.075L283.966 70.416L286.129 74H284.571L283.106 71.417L281.646 74H280.084L282.247 70.416L280.138 66.8906H281.686Z" fill="#303C4B"/>
<path fill-rule="evenodd" clip-rule="evenodd" d="M298.52 67L300.94 69.7657H296.1L298.52 67ZM300.94 72.5314L298.52 75.2971L296.1 72.5314H300.94Z" fill="#9EA3AA"/>
<path d="M464.039 71.6611H465.382C465.346 72.1364 465.214 72.5579 464.986 72.9258C464.758 73.2904 464.441 73.5768 464.034 73.7852C463.627 73.9935 463.134 74.0977 462.555 74.0977C462.109 74.0977 461.707 74.0195 461.349 73.8633C460.994 73.7038 460.689 73.4775 460.436 73.1846C460.185 72.8883 459.993 72.5335 459.859 72.1201C459.726 71.7035 459.659 71.2363 459.659 70.7188V70.1768C459.659 69.6592 459.728 69.1921 459.864 68.7754C460.001 68.3587 460.196 68.0039 460.45 67.7109C460.707 67.4147 461.015 67.1868 461.373 67.0273C461.734 66.8678 462.138 66.7881 462.584 66.7881C463.163 66.7881 463.653 66.8955 464.054 67.1104C464.454 67.3219 464.765 67.6133 464.986 67.9844C465.208 68.3555 465.341 68.7819 465.387 69.2637H464.044C464.018 68.9642 463.953 68.7103 463.849 68.502C463.748 68.2936 463.595 68.1357 463.39 68.0283C463.188 67.9176 462.919 67.8623 462.584 67.8623C462.324 67.8623 462.094 67.9111 461.896 68.0088C461.7 68.1064 461.537 68.2529 461.407 68.4482C461.277 68.6403 461.179 68.8812 461.114 69.1709C461.049 69.4574 461.017 69.7894 461.017 70.167V70.7188C461.017 71.0801 461.046 71.404 461.104 71.6904C461.163 71.9769 461.254 72.2194 461.378 72.418C461.502 72.6165 461.661 72.7679 461.856 72.8721C462.052 72.9762 462.285 73.0283 462.555 73.0283C462.883 73.0283 463.15 72.9762 463.355 72.8721C463.564 72.7679 463.722 72.6149 463.829 72.4131C463.94 72.2113 464.01 71.9606 464.039 71.6611ZM473.179 70.2646V70.6309C473.179 71.168 473.107 71.6514 472.964 72.0811C472.821 72.5075 472.617 72.8704 472.354 73.1699C472.09 73.4694 471.776 73.6989 471.411 73.8584C471.047 74.0179 470.641 74.0977 470.195 74.0977C469.756 74.0977 469.352 74.0179 468.984 73.8584C468.62 73.6989 468.304 73.4694 468.037 73.1699C467.77 72.8704 467.563 72.5075 467.417 72.0811C467.271 71.6514 467.197 71.168 467.197 70.6309V70.2646C467.197 69.7243 467.271 69.2409 467.417 68.8145C467.563 68.388 467.769 68.0251 468.032 67.7256C468.296 67.4229 468.61 67.1917 468.975 67.0322C469.342 66.8727 469.746 66.793 470.186 66.793C470.632 66.793 471.037 66.8727 471.401 67.0322C471.766 67.1917 472.08 67.4229 472.344 67.7256C472.611 68.0251 472.816 68.388 472.959 68.8145C473.105 69.2409 473.179 69.7243 473.179 70.2646ZM471.821 70.6309V70.2549C471.821 69.8675 471.785 69.5273 471.714 69.2344C471.642 68.9382 471.536 68.6891 471.396 68.4873C471.257 68.2855 471.084 68.1341 470.879 68.0332C470.674 67.929 470.443 67.877 470.186 67.877C469.925 67.877 469.694 67.929 469.492 68.0332C469.294 68.1341 469.124 68.2855 468.984 68.4873C468.844 68.6891 468.737 68.9382 468.662 69.2344C468.59 69.5273 468.555 69.8675 468.555 70.2549V70.6309C468.555 71.015 468.59 71.3551 468.662 71.6514C468.737 71.9476 468.844 72.1982 468.984 72.4033C469.128 72.6051 469.3 72.7581 469.502 72.8623C469.704 72.9665 469.935 73.0186 470.195 73.0186C470.456 73.0186 470.687 72.9665 470.889 72.8623C471.09 72.7581 471.26 72.6051 471.396 72.4033C471.536 72.1982 471.642 71.9476 471.714 71.6514C471.785 71.3551 471.821 71.015 471.821 70.6309ZM479.828 72.9453V74H476.254V72.9453H479.828ZM476.659 66.8906V74H475.316V66.8906H476.659ZM486.286 66.8906L487.707 69.4248L489.133 66.8906H490.676L488.566 70.416L490.729 74H489.172L487.707 71.417L486.247 74H484.685L486.848 70.416L484.738 66.8906H486.286Z" fill="#303C4B"/>
<path fill-rule="evenodd" clip-rule="evenodd" d="M503.12 67L505.54 69.7657H500.7L503.12 67ZM505.54 72.5314L503.12 75.2971L500.7 72.5314H505.54Z" fill="#9EA3AA"/>
<path d="M668.639 71.6611H669.981C669.946 72.1364 669.814 72.5579 669.586 72.9258C669.358 73.2904 669.041 73.5768 668.634 73.7852C668.227 73.9935 667.734 74.0977 667.154 74.0977C666.708 74.0977 666.306 74.0195 665.948 73.8633C665.593 73.7038 665.289 73.4775 665.035 73.1846C664.785 72.8883 664.592 72.5335 664.459 72.1201C664.326 71.7035 664.259 71.2363 664.259 70.7188V70.1768C664.259 69.6592 664.327 69.1921 664.464 68.7754C664.601 68.3587 664.796 68.0039 665.05 67.7109C665.307 67.4147 665.615 67.1868 665.973 67.0273C666.334 66.8678 666.738 66.7881 667.184 66.7881C667.763 66.7881 668.253 66.8955 668.653 67.1104C669.054 67.3219 669.365 67.6133 669.586 67.9844C669.807 68.3555 669.941 68.7819 669.986 69.2637H668.644C668.618 68.9642 668.552 68.7103 668.448 68.502C668.347 68.2936 668.194 68.1357 667.989 68.0283C667.787 67.9176 667.519 67.8623 667.184 67.8623C666.923 67.8623 666.694 67.9111 666.495 68.0088C666.3 68.1064 666.137 68.2529 666.007 68.4482C665.877 68.6403 665.779 68.8812 665.714 69.1709C665.649 69.4574 665.616 69.7894 665.616 70.167V70.7188C665.616 71.0801 665.646 71.404 665.704 71.6904C665.763 71.9769 665.854 72.2194 665.978 72.418C666.101 72.6165 666.261 72.7679 666.456 72.8721C666.651 72.9762 666.884 73.0283 667.154 73.0283C667.483 73.0283 667.75 72.9762 667.955 72.8721C668.163 72.7679 668.321 72.6149 668.429 72.4131C668.539 72.2113 668.609 71.9606 668.639 71.6611ZM677.778 70.2646V70.6309C677.778 71.168 677.707 71.6514 677.563 72.0811C677.42 72.5075 677.217 72.8704 676.953 73.1699C676.689 73.4694 676.375 73.6989 676.011 73.8584C675.646 74.0179 675.241 74.0977 674.795 74.0977C674.355 74.0977 673.952 74.0179 673.584 73.8584C673.219 73.6989 672.904 73.4694 672.637 73.1699C672.37 72.8704 672.163 72.5075 672.017 72.0811C671.87 71.6514 671.797 71.168 671.797 70.6309V70.2646C671.797 69.7243 671.87 69.2409 672.017 68.8145C672.163 68.388 672.368 68.0251 672.632 67.7256C672.896 67.4229 673.21 67.1917 673.574 67.0322C673.942 66.8727 674.346 66.793 674.785 66.793C675.231 66.793 675.636 66.8727 676.001 67.0322C676.366 67.1917 676.68 67.4229 676.943 67.7256C677.21 68.0251 677.415 68.388 677.559 68.8145C677.705 69.2409 677.778 69.7243 677.778 70.2646ZM676.421 70.6309V70.2549C676.421 69.8675 676.385 69.5273 676.313 69.2344C676.242 68.9382 676.136 68.6891 675.996 68.4873C675.856 68.2855 675.684 68.1341 675.479 68.0332C675.273 67.929 675.042 67.877 674.785 67.877C674.525 67.877 674.294 67.929 674.092 68.0332C673.893 68.1341 673.724 68.2855 673.584 68.4873C673.444 68.6891 673.337 68.9382 673.262 69.2344C673.19 69.5273 673.154 69.8675 673.154 70.2549V70.6309C673.154 71.015 673.19 71.3551 673.262 71.6514C673.337 71.9476 673.444 72.1982 673.584 72.4033C673.727 72.6051 673.9 72.7581 674.102 72.8623C674.303 72.9665 674.535 73.0186 674.795 73.0186C675.055 73.0186 675.286 72.9665 675.488 72.8623C675.69 72.7581 675.859 72.6051 675.996 72.4033C676.136 72.1982 676.242 71.9476 676.313 71.6514C676.385 71.3551 676.421 71.015 676.421 70.6309ZM684.428 72.9453V74H680.854V72.9453H684.428ZM681.259 66.8906V74H679.916V66.8906H681.259ZM690.886 66.8906L692.307 69.4248L693.732 66.8906H695.275L693.166 70.416L695.329 74H693.771L692.307 71.417L690.847 74H689.284L691.447 70.416L689.338 66.8906H690.886Z" fill="#303C4B"/>
<path fill-rule="evenodd" clip-rule="evenodd" d="M707.72 67L710.14 69.7657H705.3L707.72 67ZM710.14 72.5314L707.72 75.2971L705.3 72.5314H710.14Z" fill="#9EA3AA"/>
<path d="M873.239 71.6611H874.582C874.546 72.1364 874.414 72.5579 874.187 72.9258C873.959 73.2904 873.641 73.5768 873.234 73.7852C872.827 73.9935 872.334 74.0977 871.755 74.0977C871.309 74.0977 870.907 74.0195 870.549 73.8633C870.194 73.7038 869.89 73.4775 869.636 73.1846C869.385 72.8883 869.193 72.5335 869.06 72.1201C868.926 71.7035 868.859 71.2363 868.859 70.7188V70.1768C868.859 69.6592 868.928 69.1921 869.064 68.7754C869.201 68.3587 869.396 68.0039 869.65 67.7109C869.908 67.4147 870.215 67.1868 870.573 67.0273C870.935 66.8678 871.338 66.7881 871.784 66.7881C872.364 66.7881 872.854 66.8955 873.254 67.1104C873.654 67.3219 873.965 67.6133 874.187 67.9844C874.408 68.3555 874.541 68.7819 874.587 69.2637H873.244C873.218 68.9642 873.153 68.7103 873.049 68.502C872.948 68.2936 872.795 68.1357 872.59 68.0283C872.388 67.9176 872.119 67.8623 871.784 67.8623C871.524 67.8623 871.294 67.9111 871.096 68.0088C870.9 68.1064 870.738 68.2529 870.607 68.4482C870.477 68.6403 870.38 68.8812 870.314 69.1709C870.249 69.4574 870.217 69.7894 870.217 70.167V70.7188C870.217 71.0801 870.246 71.404 870.305 71.6904C870.363 71.9769 870.454 72.2194 870.578 72.418C870.702 72.6165 870.861 72.7679 871.057 72.8721C871.252 72.9762 871.485 73.0283 871.755 73.0283C872.084 73.0283 872.351 72.9762 872.556 72.8721C872.764 72.7679 872.922 72.6149 873.029 72.4131C873.14 72.2113 873.21 71.9606 873.239 71.6611ZM882.379 70.2646V70.6309C882.379 71.168 882.307 71.6514 882.164 72.0811C882.021 72.5075 881.817 72.8704 881.554 73.1699C881.29 73.4694 880.976 73.6989 880.611 73.8584C880.247 74.0179 879.841 74.0977 879.396 74.0977C878.956 74.0977 878.552 74.0179 878.185 73.8584C877.82 73.6989 877.504 73.4694 877.237 73.1699C876.97 72.8704 876.764 72.5075 876.617 72.0811C876.471 71.6514 876.397 71.168 876.397 70.6309V70.2646C876.397 69.7243 876.471 69.2409 876.617 68.8145C876.764 68.388 876.969 68.0251 877.232 67.7256C877.496 67.4229 877.81 67.1917 878.175 67.0322C878.543 66.8727 878.946 66.793 879.386 66.793C879.832 66.793 880.237 66.8727 880.602 67.0322C880.966 67.1917 881.28 67.4229 881.544 67.7256C881.811 68.0251 882.016 68.388 882.159 68.8145C882.306 69.2409 882.379 69.7243 882.379 70.2646ZM881.021 70.6309V70.2549C881.021 69.8675 880.986 69.5273 880.914 69.2344C880.842 68.9382 880.737 68.6891 880.597 68.4873C880.457 68.2855 880.284 68.1341 880.079 68.0332C879.874 67.929 879.643 67.877 879.386 67.877C879.125 67.877 878.894 67.929 878.692 68.0332C878.494 68.1341 878.325 68.2855 878.185 68.4873C878.045 68.6891 877.937 68.9382 877.862 69.2344C877.791 69.5273 877.755 69.8675 877.755 70.2549V70.6309C877.755 71.015 877.791 71.3551 877.862 71.6514C877.937 71.9476 878.045 72.1982 878.185 72.4033C878.328 72.6051 878.5 72.7581 878.702 72.8623C878.904 72.9665 879.135 73.0186 879.396 73.0186C879.656 73.0186 879.887 72.9665 880.089 72.8623C880.291 72.7581 880.46 72.6051 880.597 72.4033C880.737 72.1982 880.842 71.9476 880.914 71.6514C880.986 71.3551 881.021 71.015 881.021 70.6309ZM889.028 72.9453V74H885.454V72.9453H889.028ZM885.859 66.8906V74H884.517V66.8906H885.859ZM895.486 66.8906L896.907 69.4248L898.333 66.8906H899.876L897.767 70.416L899.93 74H898.372L896.907 71.417L895.447 74H893.885L896.048 70.416L893.938 66.8906H895.486Z" fill="#303C4B"/>
<path fill-rule="evenodd" clip-rule="evenodd" d="M912.32 67L914.74 69.7657H909.9L912.32 67ZM914.74 72.5314L912.32 75.2971L909.9 72.5314H914.74Z" fill="#9EA3AA"/>
<path d="M1266 143.5H1266.5V143V99C1266.5 96.5147 1264.49 94.5 1262 94.5H38C35.5147 94.5 33.5 96.5147 33.5 99V143V143.5H34H1266Z" fill="white"/>
<path d="M51.0387 124V114.545H52.4652V122.772H56.7493V124H51.0387ZM61.2527 124.143C60.5879 124.143 60.0078 123.991 59.5123 123.686C59.0167 123.381 58.632 122.955 58.3581 122.407C58.0842 121.859 57.9473 121.219 57.9473 120.487C57.9473 119.751 58.0842 119.108 58.3581 118.557C58.632 118.006 59.0167 117.578 59.5123 117.274C60.0078 116.969 60.5879 116.817 61.2527 116.817C61.9174 116.817 62.4976 116.969 62.9931 117.274C63.4886 117.578 63.8733 118.006 64.1472 118.557C64.4211 119.108 64.5581 119.751 64.5581 120.487C64.5581 121.219 64.4211 121.859 64.1472 122.407C63.8733 122.955 63.4886 123.381 62.9931 123.686C62.4976 123.991 61.9174 124.143 61.2527 124.143ZM61.2573 122.984C61.6882 122.984 62.0452 122.871 62.3283 122.643C62.6114 122.415 62.8207 122.112 62.9561 121.733C63.0946 121.355 63.1639 120.938 63.1639 120.482C63.1639 120.03 63.0946 119.614 62.9561 119.236C62.8207 118.854 62.6114 118.548 62.3283 118.317C62.0452 118.086 61.6882 117.971 61.2573 117.971C60.8233 117.971 60.4632 118.086 60.177 118.317C59.8939 118.548 59.6831 118.854 59.5446 119.236C59.4092 119.614 59.3414 120.03 59.3414 120.482C59.3414 120.938 59.4092 121.355 59.5446 121.733C59.6831 122.112 59.8939 122.415 60.177 122.643C60.4632 122.871 60.8233 122.984 61.2573 122.984ZM66.0988 124V116.909H67.433V118.036H67.5068C67.6361 117.654 67.8638 117.354 68.1901 117.135C68.5194 116.914 68.8918 116.803 69.3073 116.803C69.3934 116.803 69.495 116.806 69.6119 116.812C69.732 116.818 69.8258 116.826 69.8936 116.835V118.156C69.8382 118.14 69.7397 118.123 69.5981 118.105C69.4565 118.083 69.315 118.072 69.1734 118.072C68.8472 118.072 68.5563 118.142 68.3009 118.28C68.0485 118.416 67.8485 118.605 67.7007 118.848C67.553 119.088 67.4791 119.362 67.4791 119.67V124H66.0988ZM73.8903 124.143C73.1916 124.143 72.59 123.994 72.0852 123.695C71.5836 123.394 71.1958 122.971 70.9219 122.426C70.651 121.878 70.5156 121.236 70.5156 120.501C70.5156 119.774 70.651 119.134 70.9219 118.58C71.1958 118.026 71.5774 117.594 72.0668 117.283C72.5592 116.972 73.1347 116.817 73.7933 116.817C74.1934 116.817 74.5812 116.883 74.9567 117.015C75.3321 117.148 75.6692 117.355 75.9677 117.638C76.2662 117.922 76.5017 118.289 76.674 118.742C76.8464 119.191 76.9325 119.737 76.9325 120.381V120.87H71.2958V119.836H75.5799C75.5799 119.473 75.506 119.151 75.3583 118.871C75.2106 118.588 75.0028 118.365 74.7351 118.202C74.4704 118.039 74.1596 117.957 73.8026 117.957C73.4148 117.957 73.0762 118.052 72.7869 118.243C72.5007 118.431 72.2791 118.677 72.1222 118.982C71.9683 119.283 71.8913 119.611 71.8913 119.965V120.773C71.8913 121.247 71.9744 121.65 72.1406 121.983C72.3099 122.315 72.5453 122.569 72.8469 122.744C73.1486 122.917 73.5009 123.003 73.9041 123.003C74.1657 123.003 74.4042 122.966 74.6197 122.892C74.8351 122.815 75.0213 122.701 75.1783 122.55C75.3352 122.4 75.4553 122.213 75.5384 121.992L76.8448 122.227C76.7402 122.612 76.5524 122.949 76.2816 123.238C76.0138 123.525 75.6768 123.748 75.2706 123.908C74.8674 124.065 74.4073 124.143 73.8903 124.143ZM78.464 124V116.909H79.789V118.063H79.8767C80.0244 117.672 80.266 117.368 80.6015 117.149C80.9369 116.928 81.3386 116.817 81.8064 116.817C82.2803 116.817 82.6773 116.928 82.9974 117.149C83.3206 117.371 83.5591 117.675 83.713 118.063H83.7868C83.9561 117.685 84.2254 117.383 84.5947 117.158C84.964 116.931 85.4041 116.817 85.915 116.817C86.5583 116.817 87.083 117.018 87.4893 117.422C87.8986 117.825 88.1032 118.433 88.1032 119.245V124H86.7229V119.374C86.7229 118.894 86.5921 118.546 86.3305 118.331C86.0689 118.116 85.7565 118.008 85.3934 118.008C84.944 118.008 84.5947 118.146 84.3454 118.423C84.0961 118.697 83.9715 119.05 83.9715 119.48V124H82.5958V119.287C82.5958 118.902 82.4758 118.593 82.2357 118.359C81.9957 118.125 81.6833 118.008 81.2986 118.008C81.037 118.008 80.7954 118.077 80.5738 118.216C80.3553 118.351 80.1783 118.54 80.0429 118.783C79.9105 119.027 79.8444 119.308 79.8444 119.628V124H78.464ZM93.3937 124V116.909H94.7741V124H93.3937ZM94.0908 115.815C93.8508 115.815 93.6446 115.735 93.4722 115.575C93.3029 115.412 93.2183 115.218 93.2183 114.993C93.2183 114.766 93.3029 114.572 93.4722 114.412C93.6446 114.248 93.8508 114.167 94.0908 114.167C94.3309 114.167 94.5355 114.248 94.7048 114.412C94.8772 114.572 94.9633 114.766 94.9633 114.993C94.9633 115.218 94.8772 115.412 94.7048 115.575C94.5355 115.735 94.3309 115.815 94.0908 115.815ZM96.631 126.659V116.909H97.979V118.059H98.0945C98.1745 117.911 98.2899 117.74 98.4407 117.546C98.5915 117.352 98.8008 117.183 99.0685 117.038C99.3363 116.891 99.6902 116.817 100.13 116.817C100.703 116.817 101.214 116.961 101.663 117.251C102.112 117.54 102.465 117.957 102.72 118.502C102.979 119.047 103.108 119.702 103.108 120.468C103.108 121.235 102.98 121.892 102.725 122.44C102.469 122.984 102.118 123.404 101.672 123.7C101.226 123.992 100.717 124.138 100.144 124.138C99.7133 124.138 99.3609 124.066 99.087 123.922C98.8162 123.777 98.6038 123.608 98.4499 123.414C98.296 123.22 98.1776 123.047 98.0945 122.897H98.0114V126.659H96.631ZM97.9837 120.455C97.9837 120.953 98.056 121.39 98.2006 121.766C98.3453 122.141 98.5546 122.435 98.8285 122.647C99.1024 122.857 99.4379 122.961 99.8349 122.961C100.247 122.961 100.592 122.852 100.869 122.634C101.146 122.412 101.355 122.112 101.497 121.733C101.641 121.355 101.714 120.929 101.714 120.455C101.714 119.987 101.643 119.567 101.501 119.194C101.363 118.822 101.154 118.528 100.874 118.312C100.597 118.097 100.25 117.989 99.8349 117.989C99.4348 117.989 99.0962 118.092 98.8192 118.299C98.5453 118.505 98.3376 118.793 98.196 119.162C98.0545 119.531 97.9837 119.962 97.9837 120.455ZM109.968 118.64L108.717 118.862C108.665 118.702 108.582 118.549 108.468 118.405C108.357 118.26 108.206 118.142 108.015 118.049C107.824 117.957 107.586 117.911 107.3 117.911C106.909 117.911 106.583 117.999 106.321 118.174C106.059 118.346 105.929 118.569 105.929 118.843C105.929 119.08 106.016 119.271 106.192 119.416C106.367 119.56 106.65 119.679 107.041 119.771L108.168 120.03C108.82 120.181 109.306 120.413 109.626 120.727C109.946 121.041 110.107 121.449 110.107 121.95C110.107 122.375 109.983 122.754 109.737 123.086C109.494 123.415 109.154 123.674 108.717 123.862C108.283 124.049 107.78 124.143 107.207 124.143C106.413 124.143 105.766 123.974 105.264 123.635C104.762 123.294 104.454 122.809 104.341 122.181L105.675 121.978C105.758 122.326 105.929 122.589 106.187 122.767C106.446 122.943 106.783 123.031 107.198 123.031C107.651 123.031 108.012 122.937 108.283 122.749C108.554 122.558 108.689 122.326 108.689 122.052C108.689 121.83 108.606 121.644 108.44 121.493C108.277 121.342 108.026 121.229 107.688 121.152L106.487 120.888C105.826 120.738 105.336 120.498 105.019 120.168C104.705 119.839 104.548 119.422 104.548 118.917C104.548 118.499 104.665 118.132 104.899 117.819C105.133 117.505 105.456 117.26 105.869 117.085C106.281 116.906 106.753 116.817 107.286 116.817C108.052 116.817 108.655 116.983 109.096 117.315C109.536 117.645 109.826 118.086 109.968 118.64ZM116.116 121.059V116.909H117.501V124H116.144V122.772H116.07C115.907 123.151 115.645 123.466 115.285 123.718C114.928 123.968 114.483 124.092 113.951 124.092C113.495 124.092 113.092 123.992 112.741 123.792C112.394 123.589 112.12 123.289 111.92 122.892C111.723 122.495 111.624 122.004 111.624 121.419V116.909H113.005V121.253C113.005 121.736 113.138 122.121 113.406 122.407C113.674 122.694 114.022 122.837 114.449 122.837C114.708 122.837 114.965 122.772 115.22 122.643C115.479 122.513 115.693 122.318 115.862 122.056C116.034 121.795 116.119 121.462 116.116 121.059ZM119.356 124V116.909H120.681V118.063H120.768C120.916 117.672 121.158 117.368 121.493 117.149C121.829 116.928 122.23 116.817 122.698 116.817C123.172 116.817 123.569 116.928 123.889 117.149C124.212 117.371 124.451 117.675 124.605 118.063H124.678C124.848 117.685 125.117 117.383 125.486 117.158C125.856 116.931 126.296 116.817 126.807 116.817C127.45 116.817 127.975 117.018 128.381 117.422C128.79 117.825 128.995 118.433 128.995 119.245V124H127.615V119.374C127.615 118.894 127.484 118.546 127.222 118.331C126.961 118.116 126.648 118.008 126.285 118.008C125.836 118.008 125.486 118.146 125.237 118.423C124.988 118.697 124.863 119.05 124.863 119.48V124H123.487V119.287C123.487 118.902 123.367 118.593 123.127 118.359C122.887 118.125 122.575 118.008 122.19 118.008C121.929 118.008 121.687 118.077 121.465 118.216C121.247 118.351 121.07 118.54 120.934 118.783C120.802 119.027 120.736 119.308 120.736 119.628V124H119.356ZM136.94 124.138C136.367 124.138 135.856 123.992 135.407 123.7C134.961 123.404 134.61 122.984 134.355 122.44C134.102 121.892 133.976 121.235 133.976 120.468C133.976 119.702 134.104 119.047 134.359 118.502C134.618 117.957 134.972 117.54 135.421 117.251C135.87 116.961 136.38 116.817 136.949 116.817C137.389 116.817 137.743 116.891 138.011 117.038C138.282 117.183 138.491 117.352 138.639 117.546C138.789 117.74 138.906 117.911 138.99 118.059H139.073V114.545H140.453V124H139.105V122.897H138.99C138.906 123.047 138.786 123.22 138.629 123.414C138.476 123.608 138.263 123.777 137.992 123.922C137.722 124.066 137.371 124.138 136.94 124.138ZM137.244 122.961C137.642 122.961 137.977 122.857 138.251 122.647C138.528 122.435 138.737 122.141 138.879 121.766C139.023 121.39 139.096 120.953 139.096 120.455C139.096 119.962 139.025 119.531 138.883 119.162C138.742 118.793 138.534 118.505 138.26 118.299C137.986 118.092 137.648 117.989 137.244 117.989C136.829 117.989 136.483 118.097 136.206 118.312C135.929 118.528 135.72 118.822 135.578 119.194C135.439 119.567 135.37 119.987 135.37 120.455C135.37 120.929 135.441 121.355 135.583 121.733C135.724 122.112 135.933 122.412 136.21 122.634C136.49 122.852 136.835 122.961 137.244 122.961ZM145.41 124.143C144.745 124.143 144.165 123.991 143.669 123.686C143.174 123.381 142.789 122.955 142.515 122.407C142.241 121.859 142.104 121.219 142.104 120.487C142.104 119.751 142.241 119.108 142.515 118.557C142.789 118.006 143.174 117.578 143.669 117.274C144.165 116.969 144.745 116.817 145.41 116.817C146.075 116.817 146.655 116.969 147.15 117.274C147.646 117.578 148.031 118.006 148.304 118.557C148.578 119.108 148.715 119.751 148.715 120.487C148.715 121.219 148.578 121.859 148.304 122.407C148.031 122.955 147.646 123.381 147.15 123.686C146.655 123.991 146.075 124.143 145.41 124.143ZM145.415 122.984C145.845 122.984 146.202 122.871 146.486 122.643C146.769 122.415 146.978 122.112 147.113 121.733C147.252 121.355 147.321 120.938 147.321 120.482C147.321 120.03 147.252 119.614 147.113 119.236C146.978 118.854 146.769 118.548 146.486 118.317C146.202 118.086 145.845 117.971 145.415 117.971C144.981 117.971 144.62 118.086 144.334 118.317C144.051 118.548 143.84 118.854 143.702 119.236C143.566 119.614 143.499 120.03 143.499 120.482C143.499 120.938 143.566 121.355 143.702 121.733C143.84 122.112 144.051 122.415 144.334 122.643C144.62 122.871 144.981 122.984 145.415 122.984ZM151.636 114.545V124H150.256V114.545H151.636ZM156.48 124.143C155.815 124.143 155.235 123.991 154.74 123.686C154.244 123.381 153.86 122.955 153.586 122.407C153.312 121.859 153.175 121.219 153.175 120.487C153.175 119.751 153.312 119.108 153.586 118.557C153.86 118.006 154.244 117.578 154.74 117.274C155.235 116.969 155.815 116.817 156.48 116.817C157.145 116.817 157.725 116.969 158.221 117.274C158.716 117.578 159.101 118.006 159.375 118.557C159.649 119.108 159.786 119.751 159.786 120.487C159.786 121.219 159.649 121.859 159.375 122.407C159.101 122.955 158.716 123.381 158.221 123.686C157.725 123.991 157.145 124.143 156.48 124.143ZM156.485 122.984C156.916 122.984 157.273 122.871 157.556 122.643C157.839 122.415 158.048 122.112 158.184 121.733C158.322 121.355 158.391 120.938 158.391 120.482C158.391 120.03 158.322 119.614 158.184 119.236C158.048 118.854 157.839 118.548 157.556 118.317C157.273 118.086 156.916 117.971 156.485 117.971C156.051 117.971 155.691 118.086 155.405 118.317C155.121 118.548 154.911 118.854 154.772 119.236C154.637 119.614 154.569 120.03 154.569 120.482C154.569 120.938 154.637 121.355 154.772 121.733C154.911 122.112 155.121 122.415 155.405 122.643C155.691 122.871 156.051 122.984 156.485 122.984ZM161.326 124V116.909H162.661V118.036H162.734C162.864 117.654 163.091 117.354 163.418 117.135C163.747 116.914 164.119 116.803 164.535 116.803C164.621 116.803 164.723 116.806 164.839 116.812C164.96 116.818 165.053 116.826 165.121 116.835V118.156C165.066 118.14 164.967 118.123 164.826 118.105C164.684 118.083 164.542 118.072 164.401 118.072C164.075 118.072 163.784 118.142 163.528 118.28C163.276 118.416 163.076 118.605 162.928 118.848C162.781 119.088 162.707 119.362 162.707 119.67V124H161.326ZM175.07 118.64L173.819 118.862C173.766 118.702 173.683 118.549 173.569 118.405C173.458 118.26 173.308 118.142 173.117 118.049C172.926 117.957 172.688 117.911 172.401 117.911C172.01 117.911 171.684 117.999 171.423 118.174C171.161 118.346 171.03 118.569 171.03 118.843C171.03 119.08 171.118 119.271 171.293 119.416C171.469 119.56 171.752 119.679 172.143 119.771L173.269 120.03C173.922 120.181 174.408 120.413 174.728 120.727C175.048 121.041 175.208 121.449 175.208 121.95C175.208 122.375 175.085 122.754 174.839 123.086C174.596 123.415 174.256 123.674 173.819 123.862C173.385 124.049 172.881 124.143 172.309 124.143C171.515 124.143 170.867 123.974 170.365 123.635C169.864 123.294 169.556 122.809 169.442 122.181L170.776 121.978C170.859 122.326 171.03 122.589 171.289 122.767C171.547 122.943 171.884 123.031 172.3 123.031C172.752 123.031 173.114 122.937 173.385 122.749C173.655 122.558 173.791 122.326 173.791 122.052C173.791 121.83 173.708 121.644 173.542 121.493C173.378 121.342 173.128 121.229 172.789 121.152L171.589 120.888C170.927 120.738 170.438 120.498 170.121 120.168C169.807 119.839 169.65 119.422 169.65 118.917C169.65 118.499 169.767 118.132 170.001 117.819C170.235 117.505 170.558 117.26 170.97 117.085C171.383 116.906 171.855 116.817 172.387 116.817C173.154 116.817 173.757 116.983 174.197 117.315C174.637 117.645 174.928 118.086 175.07 118.64ZM176.726 124V116.909H178.106V124H176.726ZM177.423 115.815C177.183 115.815 176.977 115.735 176.804 115.575C176.635 115.412 176.55 115.218 176.55 114.993C176.55 114.766 176.635 114.572 176.804 114.412C176.977 114.248 177.183 114.167 177.423 114.167C177.663 114.167 177.868 114.248 178.037 114.412C178.209 114.572 178.295 114.766 178.295 114.993C178.295 115.218 178.209 115.412 178.037 115.575C177.868 115.735 177.663 115.815 177.423 115.815ZM183.273 116.909V118.017H179.4V116.909H183.273ZM180.439 115.21H181.819V121.918C181.819 122.186 181.859 122.387 181.939 122.523C182.019 122.655 182.122 122.746 182.248 122.795C182.377 122.841 182.518 122.864 182.668 122.864C182.779 122.864 182.876 122.857 182.959 122.841C183.042 122.826 183.107 122.814 183.153 122.804L183.402 123.945C183.322 123.975 183.208 124.006 183.061 124.037C182.913 124.071 182.728 124.089 182.507 124.092C182.144 124.098 181.805 124.034 181.491 123.898C181.177 123.763 180.923 123.554 180.729 123.271C180.536 122.987 180.439 122.632 180.439 122.204V115.21ZM185.723 124.088C185.471 124.088 185.254 123.998 185.072 123.82C184.891 123.638 184.8 123.42 184.8 123.164C184.8 122.912 184.891 122.697 185.072 122.518C185.254 122.337 185.471 122.246 185.723 122.246C185.976 122.246 186.193 122.337 186.374 122.518C186.556 122.697 186.647 122.912 186.647 123.164C186.647 123.334 186.603 123.489 186.517 123.631C186.434 123.769 186.323 123.88 186.185 123.963C186.046 124.046 185.893 124.088 185.723 124.088ZM189.172 124.088C188.919 124.088 188.702 123.998 188.521 123.82C188.339 123.638 188.248 123.42 188.248 123.164C188.248 122.912 188.339 122.697 188.521 122.518C188.702 122.337 188.919 122.246 189.172 122.246C189.424 122.246 189.641 122.337 189.823 122.518C190.004 122.697 190.095 122.912 190.095 123.164C190.095 123.334 190.052 123.489 189.966 123.631C189.883 123.769 189.772 123.88 189.633 123.963C189.495 124.046 189.341 124.088 189.172 124.088ZM192.625 124.088C192.373 124.088 192.156 123.998 191.974 123.82C191.792 123.638 191.702 123.42 191.702 123.164C191.702 122.912 191.792 122.697 191.974 122.518C192.156 122.337 192.373 122.246 192.625 122.246C192.877 122.246 193.094 122.337 193.276 122.518C193.457 122.697 193.548 122.912 193.548 123.164C193.548 123.334 193.505 123.489 193.419 123.631C193.336 123.769 193.225 123.88 193.087 123.963C192.948 124.046 192.794 124.088 192.625 124.088Z" fill="#142735"/>
<path d="M258.488 113.758V123H257.282V113.758H258.488ZM261.458 113.758V114.761H254.317V113.758H261.458ZM264.867 123.127C264.389 123.127 263.955 123.047 263.566 122.886C263.181 122.721 262.849 122.49 262.569 122.194C262.294 121.898 262.083 121.546 261.935 121.14C261.786 120.734 261.712 120.29 261.712 119.807V119.541C261.712 118.982 261.795 118.485 261.96 118.049C262.125 117.609 262.349 117.236 262.633 116.932C262.916 116.627 263.238 116.396 263.598 116.24C263.957 116.083 264.33 116.005 264.715 116.005C265.206 116.005 265.629 116.09 265.984 116.259C266.344 116.428 266.638 116.665 266.867 116.97C267.095 117.27 267.264 117.626 267.375 118.036C267.485 118.442 267.54 118.887 267.54 119.369V119.896H262.411V118.938H266.365V118.849C266.348 118.544 266.285 118.248 266.175 117.96C266.069 117.672 265.9 117.435 265.667 117.249C265.434 117.063 265.117 116.97 264.715 116.97C264.448 116.97 264.203 117.027 263.979 117.141C263.754 117.251 263.562 117.416 263.401 117.636C263.24 117.856 263.115 118.125 263.026 118.442C262.938 118.76 262.893 119.126 262.893 119.541V119.807C262.893 120.133 262.938 120.44 263.026 120.728C263.119 121.011 263.253 121.261 263.426 121.477C263.604 121.692 263.818 121.862 264.067 121.984C264.321 122.107 264.609 122.168 264.931 122.168C265.345 122.168 265.697 122.084 265.984 121.915C266.272 121.745 266.524 121.519 266.74 121.235L267.451 121.8C267.303 122.025 267.114 122.238 266.886 122.441C266.657 122.645 266.376 122.81 266.042 122.937C265.711 123.063 265.32 123.127 264.867 123.127ZM269.704 116.132L271.208 118.633L272.732 116.132H274.109L271.862 119.521L274.179 123H272.821L271.234 120.423L269.647 123H268.282L270.593 119.521L268.352 116.132H269.704ZM278.235 116.132V117.033H274.522V116.132H278.235ZM275.779 114.462H276.953V121.299C276.953 121.532 276.989 121.707 277.061 121.826C277.133 121.944 277.226 122.022 277.34 122.061C277.455 122.099 277.577 122.118 277.708 122.118C277.806 122.118 277.907 122.109 278.013 122.092C278.123 122.071 278.206 122.054 278.261 122.042L278.267 123C278.174 123.03 278.051 123.057 277.899 123.083C277.751 123.112 277.571 123.127 277.359 123.127C277.072 123.127 276.807 123.07 276.566 122.956C276.325 122.841 276.132 122.651 275.988 122.384C275.849 122.113 275.779 121.75 275.779 121.292V114.462ZM281.016 113.758V123H279.791V113.758H281.016ZM284.888 117.916V118.918H280.749V117.916H284.888ZM285.516 113.758V114.761H280.749V113.758H285.516ZM288.074 116.132V123H286.894V116.132H288.074ZM286.805 114.31C286.805 114.12 286.862 113.959 286.976 113.828C287.095 113.696 287.268 113.631 287.497 113.631C287.721 113.631 287.892 113.696 288.011 113.828C288.133 113.959 288.195 114.12 288.195 114.31C288.195 114.492 288.133 114.649 288.011 114.78C287.892 114.907 287.721 114.97 287.497 114.97C287.268 114.97 287.095 114.907 286.976 114.78C286.862 114.649 286.805 114.492 286.805 114.31ZM292.81 123.127C292.331 123.127 291.898 123.047 291.508 122.886C291.123 122.721 290.791 122.49 290.512 122.194C290.237 121.898 290.025 121.546 289.877 121.14C289.729 120.734 289.655 120.29 289.655 119.807V119.541C289.655 118.982 289.737 118.485 289.902 118.049C290.067 117.609 290.292 117.236 290.575 116.932C290.859 116.627 291.18 116.396 291.54 116.24C291.9 116.083 292.272 116.005 292.657 116.005C293.148 116.005 293.571 116.09 293.927 116.259C294.286 116.428 294.581 116.665 294.809 116.97C295.038 117.27 295.207 117.626 295.317 118.036C295.427 118.442 295.482 118.887 295.482 119.369V119.896H290.353V118.938H294.308V118.849C294.291 118.544 294.227 118.248 294.117 117.96C294.011 117.672 293.842 117.435 293.609 117.249C293.377 117.063 293.059 116.97 292.657 116.97C292.391 116.97 292.145 117.027 291.921 117.141C291.697 117.251 291.504 117.416 291.343 117.636C291.182 117.856 291.058 118.125 290.969 118.442C290.88 118.76 290.835 119.126 290.835 119.541V119.807C290.835 120.133 290.88 120.44 290.969 120.728C291.062 121.011 291.195 121.261 291.369 121.477C291.546 121.692 291.76 121.862 292.01 121.984C292.264 122.107 292.551 122.168 292.873 122.168C293.288 122.168 293.639 122.084 293.927 121.915C294.215 121.745 294.466 121.519 294.682 121.235L295.393 121.8C295.245 122.025 295.057 122.238 294.828 122.441C294.6 122.645 294.318 122.81 293.984 122.937C293.654 123.063 293.262 123.127 292.81 123.127ZM298.129 113.25V123H296.948V113.25H298.129ZM304.343 121.667V113.25H305.524V123H304.445L304.343 121.667ZM299.722 119.642V119.509C299.722 118.984 299.786 118.508 299.913 118.081C300.044 117.649 300.228 117.279 300.465 116.97C300.706 116.661 300.992 116.424 301.322 116.259C301.656 116.09 302.028 116.005 302.439 116.005C302.871 116.005 303.247 116.081 303.569 116.233C303.895 116.382 304.17 116.599 304.394 116.887C304.623 117.171 304.802 117.514 304.934 117.916C305.065 118.318 305.156 118.772 305.207 119.28V119.864C305.16 120.368 305.069 120.821 304.934 121.223C304.802 121.625 304.623 121.967 304.394 122.251C304.17 122.535 303.895 122.752 303.569 122.905C303.243 123.053 302.862 123.127 302.426 123.127C302.024 123.127 301.656 123.04 301.322 122.867C300.992 122.693 300.706 122.45 300.465 122.137C300.228 121.824 300.044 121.455 299.913 121.032C299.786 120.605 299.722 120.141 299.722 119.642ZM300.903 119.509V119.642C300.903 119.985 300.937 120.306 301.004 120.607C301.076 120.907 301.186 121.172 301.334 121.4C301.483 121.629 301.671 121.809 301.899 121.94C302.128 122.067 302.401 122.13 302.718 122.13C303.108 122.13 303.427 122.048 303.677 121.883C303.931 121.718 304.134 121.5 304.286 121.229C304.438 120.958 304.557 120.664 304.642 120.347V118.817C304.591 118.584 304.517 118.36 304.419 118.144C304.326 117.924 304.204 117.729 304.051 117.56C303.903 117.387 303.719 117.249 303.499 117.147C303.283 117.046 303.027 116.995 302.731 116.995C302.409 116.995 302.132 117.063 301.899 117.198C301.671 117.329 301.483 117.511 301.334 117.744C301.186 117.973 301.076 118.239 301.004 118.544C300.937 118.844 300.903 119.166 300.903 119.509Z" fill="#555F6B"/>
<path d="M462.488 113.758V123H461.282V113.758H462.488ZM465.458 113.758V114.761H458.317V113.758H465.458ZM468.867 123.127C468.389 123.127 467.955 123.047 467.566 122.886C467.181 122.721 466.849 122.49 466.569 122.194C466.294 121.898 466.083 121.546 465.935 121.14C465.786 120.734 465.712 120.29 465.712 119.807V119.541C465.712 118.982 465.795 118.485 465.96 118.049C466.125 117.609 466.349 117.236 466.633 116.932C466.916 116.627 467.238 116.396 467.598 116.24C467.957 116.083 468.33 116.005 468.715 116.005C469.206 116.005 469.629 116.09 469.984 116.259C470.344 116.428 470.638 116.665 470.867 116.97C471.095 117.27 471.264 117.626 471.375 118.036C471.485 118.442 471.54 118.887 471.54 119.369V119.896H466.411V118.938H470.365V118.849C470.348 118.544 470.285 118.248 470.175 117.96C470.069 117.672 469.9 117.435 469.667 117.249C469.434 117.063 469.117 116.97 468.715 116.97C468.448 116.97 468.203 117.027 467.979 117.141C467.754 117.251 467.562 117.416 467.401 117.636C467.24 117.856 467.115 118.125 467.026 118.442C466.938 118.76 466.893 119.126 466.893 119.541V119.807C466.893 120.133 466.938 120.44 467.026 120.728C467.119 121.011 467.253 121.261 467.426 121.477C467.604 121.692 467.818 121.862 468.067 121.984C468.321 122.107 468.609 122.168 468.931 122.168C469.345 122.168 469.697 122.084 469.984 121.915C470.272 121.745 470.524 121.519 470.74 121.235L471.451 121.8C471.303 122.025 471.114 122.238 470.886 122.441C470.657 122.645 470.376 122.81 470.042 122.937C469.711 123.063 469.32 123.127 468.867 123.127ZM473.704 116.132L475.208 118.633L476.732 116.132H478.109L475.862 119.521L478.179 123H476.821L475.234 120.423L473.647 123H472.282L474.593 119.521L472.352 116.132H473.704ZM482.235 116.132V117.033H478.522V116.132H482.235ZM479.779 114.462H480.953V121.299C480.953 121.532 480.989 121.707 481.061 121.826C481.133 121.944 481.226 122.022 481.34 122.061C481.455 122.099 481.577 122.118 481.708 122.118C481.806 122.118 481.907 122.109 482.013 122.092C482.123 122.071 482.206 122.054 482.261 122.042L482.267 123C482.174 123.03 482.051 123.057 481.899 123.083C481.751 123.112 481.571 123.127 481.359 123.127C481.072 123.127 480.807 123.07 480.566 122.956C480.325 122.841 480.132 122.651 479.988 122.384C479.849 122.113 479.779 121.75 479.779 121.292V114.462ZM485.016 113.758V123H483.791V113.758H485.016ZM488.888 117.916V118.918H484.749V117.916H488.888ZM489.516 113.758V114.761H484.749V113.758H489.516ZM492.074 116.132V123H490.894V116.132H492.074ZM490.805 114.31C490.805 114.12 490.862 113.959 490.976 113.828C491.095 113.696 491.268 113.631 491.497 113.631C491.721 113.631 491.892 113.696 492.011 113.828C492.133 113.959 492.195 114.12 492.195 114.31C492.195 114.492 492.133 114.649 492.011 114.78C491.892 114.907 491.721 114.97 491.497 114.97C491.268 114.97 491.095 114.907 490.976 114.78C490.862 114.649 490.805 114.492 490.805 114.31ZM496.81 123.127C496.331 123.127 495.898 123.047 495.508 122.886C495.123 122.721 494.791 122.49 494.512 122.194C494.237 121.898 494.025 121.546 493.877 121.14C493.729 120.734 493.655 120.29 493.655 119.807V119.541C493.655 118.982 493.737 118.485 493.902 118.049C494.067 117.609 494.292 117.236 494.575 116.932C494.859 116.627 495.18 116.396 495.54 116.24C495.9 116.083 496.272 116.005 496.657 116.005C497.148 116.005 497.571 116.09 497.927 116.259C498.286 116.428 498.581 116.665 498.809 116.97C499.038 117.27 499.207 117.626 499.317 118.036C499.427 118.442 499.482 118.887 499.482 119.369V119.896H494.353V118.938H498.308V118.849C498.291 118.544 498.227 118.248 498.117 117.96C498.011 117.672 497.842 117.435 497.609 117.249C497.377 117.063 497.059 116.97 496.657 116.97C496.391 116.97 496.145 117.027 495.921 117.141C495.697 117.251 495.504 117.416 495.343 117.636C495.182 117.856 495.058 118.125 494.969 118.442C494.88 118.76 494.835 119.126 494.835 119.541V119.807C494.835 120.133 494.88 120.44 494.969 120.728C495.062 121.011 495.195 121.261 495.369 121.477C495.546 121.692 495.76 121.862 496.01 121.984C496.264 122.107 496.551 122.168 496.873 122.168C497.288 122.168 497.639 122.084 497.927 121.915C498.215 121.745 498.466 121.519 498.682 121.235L499.393 121.8C499.245 122.025 499.057 122.238 498.828 122.441C498.6 122.645 498.318 122.81 497.984 122.937C497.654 123.063 497.262 123.127 496.81 123.127ZM502.129 113.25V123H500.948V113.25H502.129ZM508.343 121.667V113.25H509.524V123H508.445L508.343 121.667ZM503.722 119.642V119.509C503.722 118.984 503.786 118.508 503.913 118.081C504.044 117.649 504.228 117.279 504.465 116.97C504.706 116.661 504.992 116.424 505.322 116.259C505.656 116.09 506.028 116.005 506.439 116.005C506.871 116.005 507.247 116.081 507.569 116.233C507.895 116.382 508.17 116.599 508.394 116.887C508.623 117.171 508.802 117.514 508.934 117.916C509.065 118.318 509.156 118.772 509.207 119.28V119.864C509.16 120.368 509.069 120.821 508.934 121.223C508.802 121.625 508.623 121.967 508.394 122.251C508.17 122.535 507.895 122.752 507.569 122.905C507.243 123.053 506.862 123.127 506.426 123.127C506.024 123.127 505.656 123.04 505.322 122.867C504.992 122.693 504.706 122.45 504.465 122.137C504.228 121.824 504.044 121.455 503.913 121.032C503.786 120.605 503.722 120.141 503.722 119.642ZM504.903 119.509V119.642C504.903 119.985 504.937 120.306 505.004 120.607C505.076 120.907 505.186 121.172 505.334 121.4C505.483 121.629 505.671 121.809 505.899 121.94C506.128 122.067 506.401 122.13 506.718 122.13C507.108 122.13 507.427 122.048 507.677 121.883C507.931 121.718 508.134 121.5 508.286 121.229C508.438 120.958 508.557 120.664 508.642 120.347V118.817C508.591 118.584 508.517 118.36 508.419 118.144C508.326 117.924 508.204 117.729 508.051 117.56C507.903 117.387 507.719 117.249 507.499 117.147C507.283 117.046 507.027 116.995 506.731 116.995C506.409 116.995 506.132 117.063 505.899 117.198C505.671 117.329 505.483 117.511 505.334 117.744C505.186 117.973 505.076 118.239 505.004 118.544C504.937 118.844 504.903 119.166 504.903 119.509Z" fill="#555F6B"/>
<path d="M666.488 113.758V123H665.282V113.758H666.488ZM669.458 113.758V114.761H662.317V113.758H669.458ZM672.867 123.127C672.389 123.127 671.955 123.047 671.566 122.886C671.181 122.721 670.849 122.49 670.569 122.194C670.294 121.898 670.083 121.546 669.935 121.14C669.786 120.734 669.712 120.29 669.712 119.807V119.541C669.712 118.982 669.795 118.485 669.96 118.049C670.125 117.609 670.349 117.236 670.633 116.932C670.916 116.627 671.238 116.396 671.598 116.24C671.957 116.083 672.33 116.005 672.715 116.005C673.206 116.005 673.629 116.09 673.984 116.259C674.344 116.428 674.638 116.665 674.867 116.97C675.095 117.27 675.264 117.626 675.375 118.036C675.485 118.442 675.54 118.887 675.54 119.369V119.896H670.411V118.938H674.365V118.849C674.348 118.544 674.285 118.248 674.175 117.96C674.069 117.672 673.9 117.435 673.667 117.249C673.434 117.063 673.117 116.97 672.715 116.97C672.448 116.97 672.203 117.027 671.979 117.141C671.754 117.251 671.562 117.416 671.401 117.636C671.24 117.856 671.115 118.125 671.026 118.442C670.938 118.76 670.893 119.126 670.893 119.541V119.807C670.893 120.133 670.938 120.44 671.026 120.728C671.119 121.011 671.253 121.261 671.426 121.477C671.604 121.692 671.818 121.862 672.067 121.984C672.321 122.107 672.609 122.168 672.931 122.168C673.345 122.168 673.697 122.084 673.984 121.915C674.272 121.745 674.524 121.519 674.74 121.235L675.451 121.8C675.303 122.025 675.114 122.238 674.886 122.441C674.657 122.645 674.376 122.81 674.042 122.937C673.711 123.063 673.32 123.127 672.867 123.127ZM677.704 116.132L679.208 118.633L680.732 116.132H682.109L679.862 119.521L682.179 123H680.821L679.234 120.423L677.647 123H676.282L678.593 119.521L676.352 116.132H677.704ZM686.235 116.132V117.033H682.522V116.132H686.235ZM683.779 114.462H684.953V121.299C684.953 121.532 684.989 121.707 685.061 121.826C685.133 121.944 685.226 122.022 685.34 122.061C685.455 122.099 685.577 122.118 685.708 122.118C685.806 122.118 685.907 122.109 686.013 122.092C686.123 122.071 686.206 122.054 686.261 122.042L686.267 123C686.174 123.03 686.051 123.057 685.899 123.083C685.751 123.112 685.571 123.127 685.359 123.127C685.072 123.127 684.807 123.07 684.566 122.956C684.325 122.841 684.132 122.651 683.988 122.384C683.849 122.113 683.779 121.75 683.779 121.292V114.462ZM689.016 113.758V123H687.791V113.758H689.016ZM692.888 117.916V118.918H688.749V117.916H692.888ZM693.516 113.758V114.761H688.749V113.758H693.516ZM696.074 116.132V123H694.894V116.132H696.074ZM694.805 114.31C694.805 114.12 694.862 113.959 694.976 113.828C695.095 113.696 695.268 113.631 695.497 113.631C695.721 113.631 695.892 113.696 696.011 113.828C696.133 113.959 696.195 114.12 696.195 114.31C696.195 114.492 696.133 114.649 696.011 114.78C695.892 114.907 695.721 114.97 695.497 114.97C695.268 114.97 695.095 114.907 694.976 114.78C694.862 114.649 694.805 114.492 694.805 114.31ZM700.81 123.127C700.331 123.127 699.898 123.047 699.508 122.886C699.123 122.721 698.791 122.49 698.512 122.194C698.237 121.898 698.025 121.546 697.877 121.14C697.729 120.734 697.655 120.29 697.655 119.807V119.541C697.655 118.982 697.737 118.485 697.902 118.049C698.067 117.609 698.292 117.236 698.575 116.932C698.859 116.627 699.18 116.396 699.54 116.24C699.9 116.083 700.272 116.005 700.657 116.005C701.148 116.005 701.571 116.09 701.927 116.259C702.286 116.428 702.581 116.665 702.809 116.97C703.038 117.27 703.207 117.626 703.317 118.036C703.427 118.442 703.482 118.887 703.482 119.369V119.896H698.353V118.938H702.308V118.849C702.291 118.544 702.227 118.248 702.117 117.96C702.011 117.672 701.842 117.435 701.609 117.249C701.377 117.063 701.059 116.97 700.657 116.97C700.391 116.97 700.145 117.027 699.921 117.141C699.697 117.251 699.504 117.416 699.343 117.636C699.182 117.856 699.058 118.125 698.969 118.442C698.88 118.76 698.835 119.126 698.835 119.541V119.807C698.835 120.133 698.88 120.44 698.969 120.728C699.062 121.011 699.195 121.261 699.369 121.477C699.546 121.692 699.76 121.862 700.01 121.984C700.264 122.107 700.551 122.168 700.873 122.168C701.288 122.168 701.639 122.084 701.927 121.915C702.215 121.745 702.466 121.519 702.682 121.235L703.393 121.8C703.245 122.025 703.057 122.238 702.828 122.441C702.6 122.645 702.318 122.81 701.984 122.937C701.654 123.063 701.262 123.127 700.81 123.127ZM706.129 113.25V123H704.948V113.25H706.129ZM712.343 121.667V113.25H713.524V123H712.445L712.343 121.667ZM707.722 119.642V119.509C707.722 118.984 707.786 118.508 707.913 118.081C708.044 117.649 708.228 117.279 708.465 116.97C708.706 116.661 708.992 116.424 709.322 116.259C709.656 116.09 710.028 116.005 710.439 116.005C710.871 116.005 711.247 116.081 711.569 116.233C711.895 116.382 712.17 116.599 712.394 116.887C712.623 117.171 712.802 117.514 712.934 117.916C713.065 118.318 713.156 118.772 713.207 119.28V119.864C713.16 120.368 713.069 120.821 712.934 121.223C712.802 121.625 712.623 121.967 712.394 122.251C712.17 122.535 711.895 122.752 711.569 122.905C711.243 123.053 710.862 123.127 710.426 123.127C710.024 123.127 709.656 123.04 709.322 122.867C708.992 122.693 708.706 122.45 708.465 122.137C708.228 121.824 708.044 121.455 707.913 121.032C707.786 120.605 707.722 120.141 707.722 119.642ZM708.903 119.509V119.642C708.903 119.985 708.937 120.306 709.004 120.607C709.076 120.907 709.186 121.172 709.334 121.4C709.483 121.629 709.671 121.809 709.899 121.94C710.128 122.067 710.401 122.13 710.718 122.13C711.108 122.13 711.427 122.048 711.677 121.883C711.931 121.718 712.134 121.5 712.286 121.229C712.438 120.958 712.557 120.664 712.642 120.347V118.817C712.591 118.584 712.517 118.36 712.419 118.144C712.326 117.924 712.204 117.729 712.051 117.56C711.903 117.387 711.719 117.249 711.499 117.147C711.283 117.046 711.027 116.995 710.731 116.995C710.409 116.995 710.132 117.063 709.899 117.198C709.671 117.329 709.483 117.511 709.334 117.744C709.186 117.973 709.076 118.239 709.004 118.544C708.937 118.844 708.903 119.166 708.903 119.509Z" fill="#555F6B"/>
<path d="M867.866 113.758L870.088 117.3L872.31 113.758H873.738L870.818 118.334L873.808 123H872.367L870.088 119.388L867.809 123H866.368L869.358 118.334L866.438 113.758H867.866ZM876.017 113.758L878.238 117.3L880.46 113.758H881.888L878.968 118.334L881.958 123H880.517L878.238 119.388L875.959 123H874.519L877.508 118.334L874.588 113.758H876.017ZM887.284 113.758L883.431 123.793H882.421L886.281 113.758H887.284ZM889.537 113.758L891.759 117.3L893.98 113.758H895.409L892.489 118.334L895.479 123H894.038L891.759 119.388L889.48 123H888.039L891.029 118.334L888.109 113.758H889.537ZM897.688 113.758L899.909 117.3L902.131 113.758H903.559L900.639 118.334L903.629 123H902.188L899.909 119.388L897.63 123H896.189L899.179 118.334L896.259 113.758H897.688ZM908.955 113.758L905.102 123.793H904.092L907.952 113.758H908.955ZM911.208 113.758L913.43 117.3L915.651 113.758H917.08L914.16 118.334L917.149 123H915.708L913.43 119.388L911.151 123H909.71L912.7 118.334L909.78 113.758H911.208ZM919.358 113.758L921.58 117.3L923.802 113.758H925.23L922.31 118.334L925.3 123H923.859L921.58 119.388L919.301 123H917.86L920.85 118.334L917.93 113.758H919.358ZM927.509 113.758L929.73 117.3L931.952 113.758H933.38L930.46 118.334L933.45 123H932.009L929.73 119.388L927.452 123H926.011L929 118.334L926.081 113.758H927.509ZM935.659 113.758L937.881 117.3L940.103 113.758H941.531L938.611 118.334L941.601 123H940.16L937.881 119.388L935.602 123H934.161L937.151 118.334L934.231 113.758H935.659Z" fill="#555F6B"/>
<rect x="1058.5" y="104.5" width="57" height="29" rx="1.5" fill="white"/>
<path d="M1115 105L1059 133M1059 105L1115 133" stroke="#C2C6CA"/>
<rect x="1058.5" y="104.5" width="57" height="29" rx="1.5" stroke="#C2C6CA"/>
<rect x="1124.5" y="104.5" width="57" height="29" rx="1.5" fill="white"/>
<path d="M1181 105L1125 133M1125 105L1181 133" stroke="#C2C6CA"/>
<rect x="1124.5" y="104.5" width="57" height="29" rx="1.5" stroke="#C2C6CA"/>
<path d="M1217 108L1195 130M1195 108L1217 130" stroke="#C2C6CA"/>
<rect x="1194.5" y="107.5" width="23" height="23" rx="1.5" stroke="#C2C6CA"/>
<path d="M1257 108L1235 130M1235 108L1257 130" stroke="#C2C6CA"/>
<rect x="1234.5" y="107.5" width="23" height="23" rx="1.5" stroke="#C2C6CA"/>
<path d="M1266 143.5H1266.5V143V99C1266.5 96.5147 1264.49 94.5 1262 94.5H38C35.5147 94.5 33.5 96.5147 33.5 99V143V143.5H34H1266Z" stroke="#E7E8EA"/>
<path d="M1266 192.5H1266.5V192V148C1266.5 145.515 1264.49 143.5 1262 143.5H38C35.5147 143.5 33.5 145.515 33.5 148V192V192.5H34H1266Z" fill="white"/>
<path d="M51.0387 173V163.545H52.4652V171.772H56.7493V173H51.0387ZM61.2527 173.143C60.5879 173.143 60.0078 172.991 59.5123 172.686C59.0167 172.381 58.632 171.955 58.3581 171.407C58.0842 170.859 57.9473 170.219 57.9473 169.487C57.9473 168.751 58.0842 168.108 58.3581 167.557C58.632 167.006 59.0167 166.578 59.5123 166.274C60.0078 165.969 60.5879 165.817 61.2527 165.817C61.9174 165.817 62.4976 165.969 62.9931 166.274C63.4886 166.578 63.8733 167.006 64.1472 167.557C64.4211 168.108 64.5581 168.751 64.5581 169.487C64.5581 170.219 64.4211 170.859 64.1472 171.407C63.8733 171.955 63.4886 172.381 62.9931 172.686C62.4976 172.991 61.9174 173.143 61.2527 173.143ZM61.2573 171.984C61.6882 171.984 62.0452 171.871 62.3283 171.643C62.6114 171.415 62.8207 171.112 62.9561 170.733C63.0946 170.355 63.1639 169.938 63.1639 169.482C63.1639 169.03 63.0946 168.614 62.9561 168.236C62.8207 167.854 62.6114 167.548 62.3283 167.317C62.0452 167.086 61.6882 166.971 61.2573 166.971C60.8233 166.971 60.4632 167.086 60.177 167.317C59.8939 167.548 59.6831 167.854 59.5446 168.236C59.4092 168.614 59.3414 169.03 59.3414 169.482C59.3414 169.938 59.4092 170.355 59.5446 170.733C59.6831 171.112 59.8939 171.415 60.177 171.643C60.4632 171.871 60.8233 171.984 61.2573 171.984ZM66.0988 173V165.909H67.433V167.036H67.5068C67.6361 166.654 67.8638 166.354 68.1901 166.135C68.5194 165.914 68.8918 165.803 69.3073 165.803C69.3934 165.803 69.495 165.806 69.6119 165.812C69.732 165.818 69.8258 165.826 69.8936 165.835V167.156C69.8382 167.14 69.7397 167.123 69.5981 167.105C69.4565 167.083 69.315 167.072 69.1734 167.072C68.8472 167.072 68.5563 167.142 68.3009 167.28C68.0485 167.416 67.8485 167.605 67.7007 167.848C67.553 168.088 67.4791 168.362 67.4791 168.67V173H66.0988ZM73.8903 173.143C73.1916 173.143 72.59 172.994 72.0852 172.695C71.5836 172.394 71.1958 171.971 70.9219 171.426C70.651 170.878 70.5156 170.236 70.5156 169.501C70.5156 168.774 70.651 168.134 70.9219 167.58C71.1958 167.026 71.5774 166.594 72.0668 166.283C72.5592 165.972 73.1347 165.817 73.7933 165.817C74.1934 165.817 74.5812 165.883 74.9567 166.015C75.3321 166.148 75.6692 166.355 75.9677 166.638C76.2662 166.922 76.5017 167.289 76.674 167.742C76.8464 168.191 76.9325 168.737 76.9325 169.381V169.87H71.2958V168.836H75.5799C75.5799 168.473 75.506 168.151 75.3583 167.871C75.2106 167.588 75.0028 167.365 74.7351 167.202C74.4704 167.039 74.1596 166.957 73.8026 166.957C73.4148 166.957 73.0762 167.052 72.7869 167.243C72.5007 167.431 72.2791 167.677 72.1222 167.982C71.9683 168.283 71.8913 168.611 71.8913 168.965V169.773C71.8913 170.247 71.9744 170.65 72.1406 170.983C72.3099 171.315 72.5453 171.569 72.8469 171.744C73.1486 171.917 73.5009 172.003 73.9041 172.003C74.1657 172.003 74.4042 171.966 74.6197 171.892C74.8351 171.815 75.0213 171.701 75.1783 171.55C75.3352 171.4 75.4553 171.213 75.5384 170.992L76.8448 171.227C76.7402 171.612 76.5524 171.949 76.2816 172.238C76.0138 172.525 75.6768 172.748 75.2706 172.908C74.8674 173.065 74.4073 173.143 73.8903 173.143ZM78.464 173V165.909H79.789V167.063H79.8767C80.0244 166.672 80.266 166.368 80.6015 166.149C80.9369 165.928 81.3386 165.817 81.8064 165.817C82.2803 165.817 82.6773 165.928 82.9974 166.149C83.3206 166.371 83.5591 166.675 83.713 167.063H83.7868C83.9561 166.685 84.2254 166.383 84.5947 166.158C84.964 165.931 85.4041 165.817 85.915 165.817C86.5583 165.817 87.083 166.018 87.4893 166.422C87.8986 166.825 88.1032 167.433 88.1032 168.245V173H86.7229V168.374C86.7229 167.894 86.5921 167.546 86.3305 167.331C86.0689 167.116 85.7565 167.008 85.3934 167.008C84.944 167.008 84.5947 167.146 84.3454 167.423C84.0961 167.697 83.9715 168.05 83.9715 168.48V173H82.5958V168.287C82.5958 167.902 82.4758 167.593 82.2357 167.359C81.9957 167.125 81.6833 167.008 81.2986 167.008C81.037 167.008 80.7954 167.077 80.5738 167.216C80.3553 167.351 80.1783 167.54 80.0429 167.783C79.9105 168.027 79.8444 168.308 79.8444 168.628V173H78.464ZM93.3937 173V165.909H94.7741V173H93.3937ZM94.0908 164.815C93.8508 164.815 93.6446 164.735 93.4722 164.575C93.3029 164.412 93.2183 164.218 93.2183 163.993C93.2183 163.766 93.3029 163.572 93.4722 163.412C93.6446 163.248 93.8508 163.167 94.0908 163.167C94.3309 163.167 94.5355 163.248 94.7048 163.412C94.8772 163.572 94.9633 163.766 94.9633 163.993C94.9633 164.218 94.8772 164.412 94.7048 164.575C94.5355 164.735 94.3309 164.815 94.0908 164.815ZM96.631 175.659V165.909H97.979V167.059H98.0945C98.1745 166.911 98.2899 166.74 98.4407 166.546C98.5915 166.352 98.8008 166.183 99.0685 166.038C99.3363 165.891 99.6902 165.817 100.13 165.817C100.703 165.817 101.214 165.961 101.663 166.251C102.112 166.54 102.465 166.957 102.72 167.502C102.979 168.047 103.108 168.702 103.108 169.468C103.108 170.235 102.98 170.892 102.725 171.44C102.469 171.984 102.118 172.404 101.672 172.7C101.226 172.992 100.717 173.138 100.144 173.138C99.7133 173.138 99.3609 173.066 99.087 172.922C98.8162 172.777 98.6038 172.608 98.4499 172.414C98.296 172.22 98.1776 172.047 98.0945 171.897H98.0114V175.659H96.631ZM97.9837 169.455C97.9837 169.953 98.056 170.39 98.2006 170.766C98.3453 171.141 98.5546 171.435 98.8285 171.647C99.1024 171.857 99.4379 171.961 99.8349 171.961C100.247 171.961 100.592 171.852 100.869 171.634C101.146 171.412 101.355 171.112 101.497 170.733C101.641 170.355 101.714 169.929 101.714 169.455C101.714 168.987 101.643 168.567 101.501 168.194C101.363 167.822 101.154 167.528 100.874 167.312C100.597 167.097 100.25 166.989 99.8349 166.989C99.4348 166.989 99.0962 167.092 98.8192 167.299C98.5453 167.505 98.3376 167.793 98.196 168.162C98.0545 168.531 97.9837 168.962 97.9837 169.455ZM109.968 167.64L108.717 167.862C108.665 167.702 108.582 167.549 108.468 167.405C108.357 167.26 108.206 167.142 108.015 167.049C107.824 166.957 107.586 166.911 107.3 166.911C106.909 166.911 106.583 166.999 106.321 167.174C106.059 167.346 105.929 167.569 105.929 167.843C105.929 168.08 106.016 168.271 106.192 168.416C106.367 168.56 106.65 168.679 107.041 168.771L108.168 169.03C108.82 169.181 109.306 169.413 109.626 169.727C109.946 170.041 110.107 170.449 110.107 170.95C110.107 171.375 109.983 171.754 109.737 172.086C109.494 172.415 109.154 172.674 108.717 172.862C108.283 173.049 107.78 173.143 107.207 173.143C106.413 173.143 105.766 172.974 105.264 172.635C104.762 172.294 104.454 171.809 104.341 171.181L105.675 170.978C105.758 171.326 105.929 171.589 106.187 171.767C106.446 171.943 106.783 172.031 107.198 172.031C107.651 172.031 108.012 171.937 108.283 171.749C108.554 171.558 108.689 171.326 108.689 171.052C108.689 170.83 108.606 170.644 108.44 170.493C108.277 170.342 108.026 170.229 107.688 170.152L106.487 169.888C105.826 169.738 105.336 169.498 105.019 169.168C104.705 168.839 104.548 168.422 104.548 167.917C104.548 167.499 104.665 167.132 104.899 166.819C105.133 166.505 105.456 166.26 105.869 166.085C106.281 165.906 106.753 165.817 107.286 165.817C108.052 165.817 108.655 165.983 109.096 166.315C109.536 166.645 109.826 167.086 109.968 167.64ZM116.116 170.059V165.909H117.501V173H116.144V171.772H116.07C115.907 172.151 115.645 172.466 115.285 172.718C114.928 172.968 114.483 173.092 113.951 173.092C113.495 173.092 113.092 172.992 112.741 172.792C112.394 172.589 112.12 172.289 111.92 171.892C111.723 171.495 111.624 171.004 111.624 170.419V165.909H113.005V170.253C113.005 170.736 113.138 171.121 113.406 171.407C113.674 171.694 114.022 171.837 114.449 171.837C114.708 171.837 114.965 171.772 115.22 171.643C115.479 171.513 115.693 171.318 115.862 171.056C116.034 170.795 116.119 170.462 116.116 170.059ZM119.356 173V165.909H120.681V167.063H120.768C120.916 166.672 121.158 166.368 121.493 166.149C121.829 165.928 122.23 165.817 122.698 165.817C123.172 165.817 123.569 165.928 123.889 166.149C124.212 166.371 124.451 166.675 124.605 167.063H124.678C124.848 166.685 125.117 166.383 125.486 166.158C125.856 165.931 126.296 165.817 126.807 165.817C127.45 165.817 127.975 166.018 128.381 166.422C128.79 166.825 128.995 167.433 128.995 168.245V173H127.615V168.374C127.615 167.894 127.484 167.546 127.222 167.331C126.961 167.116 126.648 167.008 126.285 167.008C125.836 167.008 125.486 167.146 125.237 167.423C124.988 167.697 124.863 168.05 124.863 168.48V173H123.487V168.287C123.487 167.902 123.367 167.593 123.127 167.359C122.887 167.125 122.575 167.008 122.19 167.008C121.929 167.008 121.687 167.077 121.465 167.216C121.247 167.351 121.07 167.54 120.934 167.783C120.802 168.027 120.736 168.308 120.736 168.628V173H119.356ZM136.94 173.138C136.367 173.138 135.856 172.992 135.407 172.7C134.961 172.404 134.61 171.984 134.355 171.44C134.102 170.892 133.976 170.235 133.976 169.468C133.976 168.702 134.104 168.047 134.359 167.502C134.618 166.957 134.972 166.54 135.421 166.251C135.87 165.961 136.38 165.817 136.949 165.817C137.389 165.817 137.743 165.891 138.011 166.038C138.282 166.183 138.491 166.352 138.639 166.546C138.789 166.74 138.906 166.911 138.99 167.059H139.073V163.545H140.453V173H139.105V171.897H138.99C138.906 172.047 138.786 172.22 138.629 172.414C138.476 172.608 138.263 172.777 137.992 172.922C137.722 173.066 137.371 173.138 136.94 173.138ZM137.244 171.961C137.642 171.961 137.977 171.857 138.251 171.647C138.528 171.435 138.737 171.141 138.879 170.766C139.023 170.39 139.096 169.953 139.096 169.455C139.096 168.962 139.025 168.531 138.883 168.162C138.742 167.793 138.534 167.505 138.26 167.299C137.986 167.092 137.648 166.989 137.244 166.989C136.829 166.989 136.483 167.097 136.206 167.312C135.929 167.528 135.72 167.822 135.578 168.194C135.439 168.567 135.37 168.987 135.37 169.455C135.37 169.929 135.441 170.355 135.583 170.733C135.724 171.112 135.933 171.412 136.21 171.634C136.49 171.852 136.835 171.961 137.244 171.961ZM145.41 173.143C144.745 173.143 144.165 172.991 143.669 172.686C143.174 172.381 142.789 171.955 142.515 171.407C142.241 170.859 142.104 170.219 142.104 169.487C142.104 168.751 142.241 168.108 142.515 167.557C142.789 167.006 143.174 166.578 143.669 166.274C144.165 165.969 144.745 165.817 145.41 165.817C146.075 165.817 146.655 165.969 147.15 166.274C147.646 166.578 148.031 167.006 148.304 167.557C148.578 168.108 148.715 168.751 148.715 169.487C148.715 170.219 148.578 170.859 148.304 171.407C148.031 171.955 147.646 172.381 147.15 172.686C146.655 172.991 146.075 173.143 145.41 173.143ZM145.415 171.984C145.845 171.984 146.202 171.871 146.486 171.643C146.769 171.415 146.978 171.112 147.113 170.733C147.252 170.355 147.321 169.938 147.321 169.482C147.321 169.03 147.252 168.614 147.113 168.236C146.978 167.854 146.769 167.548 146.486 167.317C146.202 167.086 145.845 166.971 145.415 166.971C144.981 166.971 144.62 167.086 144.334 167.317C144.051 167.548 143.84 167.854 143.702 168.236C143.566 168.614 143.499 169.03 143.499 169.482C143.499 169.938 143.566 170.355 143.702 170.733C143.84 171.112 144.051 171.415 144.334 171.643C144.62 171.871 144.981 171.984 145.415 171.984ZM151.636 163.545V173H150.256V163.545H151.636ZM156.48 173.143C155.815 173.143 155.235 172.991 154.74 172.686C154.244 172.381 153.86 171.955 153.586 171.407C153.312 170.859 153.175 170.219 153.175 169.487C153.175 168.751 153.312 168.108 153.586 167.557C153.86 167.006 154.244 166.578 154.74 166.274C155.235 165.969 155.815 165.817 156.48 165.817C157.145 165.817 157.725 165.969 158.221 166.274C158.716 166.578 159.101 167.006 159.375 167.557C159.649 168.108 159.786 168.751 159.786 169.487C159.786 170.219 159.649 170.859 159.375 171.407C159.101 171.955 158.716 172.381 158.221 172.686C157.725 172.991 157.145 173.143 156.48 173.143ZM156.485 171.984C156.916 171.984 157.273 171.871 157.556 171.643C157.839 171.415 158.048 171.112 158.184 170.733C158.322 170.355 158.391 169.938 158.391 169.482C158.391 169.03 158.322 168.614 158.184 168.236C158.048 167.854 157.839 167.548 157.556 167.317C157.273 167.086 156.916 166.971 156.485 166.971C156.051 166.971 155.691 167.086 155.405 167.317C155.121 167.548 154.911 167.854 154.772 168.236C154.637 168.614 154.569 169.03 154.569 169.482C154.569 169.938 154.637 170.355 154.772 170.733C154.911 171.112 155.121 171.415 155.405 171.643C155.691 171.871 156.051 171.984 156.485 171.984ZM161.326 173V165.909H162.661V167.036H162.734C162.864 166.654 163.091 166.354 163.418 166.135C163.747 165.914 164.119 165.803 164.535 165.803C164.621 165.803 164.723 165.806 164.839 165.812C164.96 165.818 165.053 165.826 165.121 165.835V167.156C165.066 167.14 164.967 167.123 164.826 167.105C164.684 167.083 164.542 167.072 164.401 167.072C164.075 167.072 163.784 167.142 163.528 167.28C163.276 167.416 163.076 167.605 162.928 167.848C162.781 168.088 162.707 168.362 162.707 168.67V173H161.326ZM175.07 167.64L173.819 167.862C173.766 167.702 173.683 167.549 173.569 167.405C173.458 167.26 173.308 167.142 173.117 167.049C172.926 166.957 172.688 166.911 172.401 166.911C172.01 166.911 171.684 166.999 171.423 167.174C171.161 167.346 171.03 167.569 171.03 167.843C171.03 168.08 171.118 168.271 171.293 168.416C171.469 168.56 171.752 168.679 172.143 168.771L173.269 169.03C173.922 169.181 174.408 169.413 174.728 169.727C175.048 170.041 175.208 170.449 175.208 170.95C175.208 171.375 175.085 171.754 174.839 172.086C174.596 172.415 174.256 172.674 173.819 172.862C173.385 173.049 172.881 173.143 172.309 173.143C171.515 173.143 170.867 172.974 170.365 172.635C169.864 172.294 169.556 171.809 169.442 171.181L170.776 170.978C170.859 171.326 171.03 171.589 171.289 171.767C171.547 171.943 171.884 172.031 172.3 172.031C172.752 172.031 173.114 171.937 173.385 171.749C173.655 171.558 173.791 171.326 173.791 171.052C173.791 170.83 173.708 170.644 173.542 170.493C173.378 170.342 173.128 170.229 172.789 170.152L171.589 169.888C170.927 169.738 170.438 169.498 170.121 169.168C169.807 168.839 169.65 168.422 169.65 167.917C169.65 167.499 169.767 167.132 170.001 166.819C170.235 166.505 170.558 166.26 170.97 166.085C171.383 165.906 171.855 165.817 172.387 165.817C173.154 165.817 173.757 165.983 174.197 166.315C174.637 166.645 174.928 167.086 175.07 167.64ZM176.726 173V165.909H178.106V173H176.726ZM177.423 164.815C177.183 164.815 176.977 164.735 176.804 164.575C176.635 164.412 176.55 164.218 176.55 163.993C176.55 163.766 176.635 163.572 176.804 163.412C176.977 163.248 177.183 163.167 177.423 163.167C177.663 163.167 177.868 163.248 178.037 163.412C178.209 163.572 178.295 163.766 178.295 163.993C178.295 164.218 178.209 164.412 178.037 164.575C177.868 164.735 177.663 164.815 177.423 164.815ZM183.273 165.909V167.017H179.4V165.909H183.273ZM180.439 164.21H181.819V170.918C181.819 171.186 181.859 171.387 181.939 171.523C182.019 171.655 182.122 171.746 182.248 171.795C182.377 171.841 182.518 171.864 182.668 171.864C182.779 171.864 182.876 171.857 182.959 171.841C183.042 171.826 183.107 171.814 183.153 171.804L183.402 172.945C183.322 172.975 183.208 173.006 183.061 173.037C182.913 173.071 182.728 173.089 182.507 173.092C182.144 173.098 181.805 173.034 181.491 172.898C181.177 172.763 180.923 172.554 180.729 172.271C180.536 171.987 180.439 171.632 180.439 171.204V164.21ZM185.723 173.088C185.471 173.088 185.254 172.998 185.072 172.82C184.891 172.638 184.8 172.42 184.8 172.164C184.8 171.912 184.891 171.697 185.072 171.518C185.254 171.337 185.471 171.246 185.723 171.246C185.976 171.246 186.193 171.337 186.374 171.518C186.556 171.697 186.647 171.912 186.647 172.164C186.647 172.334 186.603 172.489 186.517 172.631C186.434 172.769 186.323 172.88 186.185 172.963C186.046 173.046 185.893 173.088 185.723 173.088ZM189.172 173.088C188.919 173.088 188.702 172.998 188.521 172.82C188.339 172.638 188.248 172.42 188.248 172.164C188.248 171.912 188.339 171.697 188.521 171.518C188.702 171.337 188.919 171.246 189.172 171.246C189.424 171.246 189.641 171.337 189.823 171.518C190.004 171.697 190.095 171.912 190.095 172.164C190.095 172.334 190.052 172.489 189.966 172.631C189.883 172.769 189.772 172.88 189.633 172.963C189.495 173.046 189.341 173.088 189.172 173.088ZM192.625 173.088C192.373 173.088 192.156 172.998 191.974 172.82C191.792 172.638 191.702 172.42 191.702 172.164C191.702 171.912 191.792 171.697 191.974 171.518C192.156 171.337 192.373 171.246 192.625 171.246C192.877 171.246 193.094 171.337 193.276 171.518C193.457 171.697 193.548 171.912 193.548 172.164C193.548 172.334 193.505 172.489 193.419 172.631C193.336 172.769 193.225 172.88 193.087 172.963C192.948 173.046 192.794 173.088 192.625 173.088Z" fill="#142735"/>
<path d="M258.488 162.758V172H257.282V162.758H258.488ZM261.458 162.758V163.761H254.317V162.758H261.458ZM264.867 172.127C264.389 172.127 263.955 172.047 263.566 171.886C263.181 171.721 262.849 171.49 262.569 171.194C262.294 170.898 262.083 170.546 261.935 170.14C261.786 169.734 261.712 169.29 261.712 168.807V168.541C261.712 167.982 261.795 167.485 261.96 167.049C262.125 166.609 262.349 166.236 262.633 165.932C262.916 165.627 263.238 165.396 263.598 165.24C263.957 165.083 264.33 165.005 264.715 165.005C265.206 165.005 265.629 165.09 265.984 165.259C266.344 165.428 266.638 165.665 266.867 165.97C267.095 166.27 267.264 166.626 267.375 167.036C267.485 167.442 267.54 167.887 267.54 168.369V168.896H262.411V167.938H266.365V167.849C266.348 167.544 266.285 167.248 266.175 166.96C266.069 166.672 265.9 166.435 265.667 166.249C265.434 166.063 265.117 165.97 264.715 165.97C264.448 165.97 264.203 166.027 263.979 166.141C263.754 166.251 263.562 166.416 263.401 166.636C263.24 166.856 263.115 167.125 263.026 167.442C262.938 167.76 262.893 168.126 262.893 168.541V168.807C262.893 169.133 262.938 169.44 263.026 169.728C263.119 170.011 263.253 170.261 263.426 170.477C263.604 170.692 263.818 170.862 264.067 170.984C264.321 171.107 264.609 171.168 264.931 171.168C265.345 171.168 265.697 171.084 265.984 170.915C266.272 170.745 266.524 170.519 266.74 170.235L267.451 170.8C267.303 171.025 267.114 171.238 266.886 171.441C266.657 171.645 266.376 171.81 266.042 171.937C265.711 172.063 265.32 172.127 264.867 172.127ZM269.704 165.132L271.208 167.633L272.732 165.132H274.109L271.862 168.521L274.179 172H272.821L271.234 169.423L269.647 172H268.282L270.593 168.521L268.352 165.132H269.704ZM278.235 165.132V166.033H274.522V165.132H278.235ZM275.779 163.462H276.953V170.299C276.953 170.532 276.989 170.707 277.061 170.826C277.133 170.944 277.226 171.022 277.34 171.061C277.455 171.099 277.577 171.118 277.708 171.118C277.806 171.118 277.907 171.109 278.013 171.092C278.123 171.071 278.206 171.054 278.261 171.042L278.267 172C278.174 172.03 278.051 172.057 277.899 172.083C277.751 172.112 277.571 172.127 277.359 172.127C277.072 172.127 276.807 172.07 276.566 171.956C276.325 171.841 276.132 171.651 275.988 171.384C275.849 171.113 275.779 170.75 275.779 170.292V163.462ZM281.016 162.758V172H279.791V162.758H281.016ZM284.888 166.916V167.918H280.749V166.916H284.888ZM285.516 162.758V163.761H280.749V162.758H285.516ZM288.074 165.132V172H286.894V165.132H288.074ZM286.805 163.31C286.805 163.12 286.862 162.959 286.976 162.828C287.095 162.696 287.268 162.631 287.497 162.631C287.721 162.631 287.892 162.696 288.011 162.828C288.133 162.959 288.195 163.12 288.195 163.31C288.195 163.492 288.133 163.649 288.011 163.78C287.892 163.907 287.721 163.97 287.497 163.97C287.268 163.97 287.095 163.907 286.976 163.78C286.862 163.649 286.805 163.492 286.805 163.31ZM292.81 172.127C292.331 172.127 291.898 172.047 291.508 171.886C291.123 171.721 290.791 171.49 290.512 171.194C290.237 170.898 290.025 170.546 289.877 170.14C289.729 169.734 289.655 169.29 289.655 168.807V168.541C289.655 167.982 289.737 167.485 289.902 167.049C290.067 166.609 290.292 166.236 290.575 165.932C290.859 165.627 291.18 165.396 291.54 165.24C291.9 165.083 292.272 165.005 292.657 165.005C293.148 165.005 293.571 165.09 293.927 165.259C294.286 165.428 294.581 165.665 294.809 165.97C295.038 166.27 295.207 166.626 295.317 167.036C295.427 167.442 295.482 167.887 295.482 168.369V168.896H290.353V167.938H294.308V167.849C294.291 167.544 294.227 167.248 294.117 166.96C294.011 166.672 293.842 166.435 293.609 166.249C293.377 166.063 293.059 165.97 292.657 165.97C292.391 165.97 292.145 166.027 291.921 166.141C291.697 166.251 291.504 166.416 291.343 166.636C291.182 166.856 291.058 167.125 290.969 167.442C290.88 167.76 290.835 168.126 290.835 168.541V168.807C290.835 169.133 290.88 169.44 290.969 169.728C291.062 170.011 291.195 170.261 291.369 170.477C291.546 170.692 291.76 170.862 292.01 170.984C292.264 171.107 292.551 171.168 292.873 171.168C293.288 171.168 293.639 171.084 293.927 170.915C294.215 170.745 294.466 170.519 294.682 170.235L295.393 170.8C295.245 171.025 295.057 171.238 294.828 171.441C294.6 171.645 294.318 171.81 293.984 171.937C293.654 172.063 293.262 172.127 292.81 172.127ZM298.129 162.25V172H296.948V162.25H298.129ZM304.343 170.667V162.25H305.524V172H304.445L304.343 170.667ZM299.722 168.642V168.509C299.722 167.984 299.786 167.508 299.913 167.081C300.044 166.649 300.228 166.279 300.465 165.97C300.706 165.661 300.992 165.424 301.322 165.259C301.656 165.09 302.028 165.005 302.439 165.005C302.871 165.005 303.247 165.081 303.569 165.233C303.895 165.382 304.17 165.599 304.394 165.887C304.623 166.171 304.802 166.514 304.934 166.916C305.065 167.318 305.156 167.772 305.207 168.28V168.864C305.16 169.368 305.069 169.821 304.934 170.223C304.802 170.625 304.623 170.967 304.394 171.251C304.17 171.535 303.895 171.752 303.569 171.905C303.243 172.053 302.862 172.127 302.426 172.127C302.024 172.127 301.656 172.04 301.322 171.867C300.992 171.693 300.706 171.45 300.465 171.137C300.228 170.824 300.044 170.455 299.913 170.032C299.786 169.605 299.722 169.141 299.722 168.642ZM300.903 168.509V168.642C300.903 168.985 300.937 169.306 301.004 169.607C301.076 169.907 301.186 170.172 301.334 170.4C301.483 170.629 301.671 170.809 301.899 170.94C302.128 171.067 302.401 171.13 302.718 171.13C303.108 171.13 303.427 171.048 303.677 170.883C303.931 170.718 304.134 170.5 304.286 170.229C304.438 169.958 304.557 169.664 304.642 169.347V167.817C304.591 167.584 304.517 167.36 304.419 167.144C304.326 166.924 304.204 166.729 304.051 166.56C303.903 166.387 303.719 166.249 303.499 166.147C303.283 166.046 303.027 165.995 302.731 165.995C302.409 165.995 302.132 166.063 301.899 166.198C301.671 166.329 301.483 166.511 301.334 166.744C301.186 166.973 301.076 167.239 301.004 167.544C300.937 167.844 300.903 168.166 300.903 168.509Z" fill="#555F6B"/>
<path d="M462.488 162.758V172H461.282V162.758H462.488ZM465.458 162.758V163.761H458.317V162.758H465.458ZM468.867 172.127C468.389 172.127 467.955 172.047 467.566 171.886C467.181 171.721 466.849 171.49 466.569 171.194C466.294 170.898 466.083 170.546 465.935 170.14C465.786 169.734 465.712 169.29 465.712 168.807V168.541C465.712 167.982 465.795 167.485 465.96 167.049C466.125 166.609 466.349 166.236 466.633 165.932C466.916 165.627 467.238 165.396 467.598 165.24C467.957 165.083 468.33 165.005 468.715 165.005C469.206 165.005 469.629 165.09 469.984 165.259C470.344 165.428 470.638 165.665 470.867 165.97C471.095 166.27 471.264 166.626 471.375 167.036C471.485 167.442 471.54 167.887 471.54 168.369V168.896H466.411V167.938H470.365V167.849C470.348 167.544 470.285 167.248 470.175 166.96C470.069 166.672 469.9 166.435 469.667 166.249C469.434 166.063 469.117 165.97 468.715 165.97C468.448 165.97 468.203 166.027 467.979 166.141C467.754 166.251 467.562 166.416 467.401 166.636C467.24 166.856 467.115 167.125 467.026 167.442C466.938 167.76 466.893 168.126 466.893 168.541V168.807C466.893 169.133 466.938 169.44 467.026 169.728C467.119 170.011 467.253 170.261 467.426 170.477C467.604 170.692 467.818 170.862 468.067 170.984C468.321 171.107 468.609 171.168 468.931 171.168C469.345 171.168 469.697 171.084 469.984 170.915C470.272 170.745 470.524 170.519 470.74 170.235L471.451 170.8C471.303 171.025 471.114 171.238 470.886 171.441C470.657 171.645 470.376 171.81 470.042 171.937C469.711 172.063 469.32 172.127 468.867 172.127ZM473.704 165.132L475.208 167.633L476.732 165.132H478.109L475.862 168.521L478.179 172H476.821L475.234 169.423L473.647 172H472.282L474.593 168.521L472.352 165.132H473.704ZM482.235 165.132V166.033H478.522V165.132H482.235ZM479.779 163.462H480.953V170.299C480.953 170.532 480.989 170.707 481.061 170.826C481.133 170.944 481.226 171.022 481.34 171.061C481.455 171.099 481.577 171.118 481.708 171.118C481.806 171.118 481.907 171.109 482.013 171.092C482.123 171.071 482.206 171.054 482.261 171.042L482.267 172C482.174 172.03 482.051 172.057 481.899 172.083C481.751 172.112 481.571 172.127 481.359 172.127C481.072 172.127 480.807 172.07 480.566 171.956C480.325 171.841 480.132 171.651 479.988 171.384C479.849 171.113 479.779 170.75 479.779 170.292V163.462ZM485.016 162.758V172H483.791V162.758H485.016ZM488.888 166.916V167.918H484.749V166.916H488.888ZM489.516 162.758V163.761H484.749V162.758H489.516ZM492.074 165.132V172H490.894V165.132H492.074ZM490.805 163.31C490.805 163.12 490.862 162.959 490.976 162.828C491.095 162.696 491.268 162.631 491.497 162.631C491.721 162.631 491.892 162.696 492.011 162.828C492.133 162.959 492.195 163.12 492.195 163.31C492.195 163.492 492.133 163.649 492.011 163.78C491.892 163.907 491.721 163.97 491.497 163.97C491.268 163.97 491.095 163.907 490.976 163.78C490.862 163.649 490.805 163.492 490.805 163.31ZM496.81 172.127C496.331 172.127 495.898 172.047 495.508 171.886C495.123 171.721 494.791 171.49 494.512 171.194C494.237 170.898 494.025 170.546 493.877 170.14C493.729 169.734 493.655 169.29 493.655 168.807V168.541C493.655 167.982 493.737 167.485 493.902 167.049C494.067 166.609 494.292 166.236 494.575 165.932C494.859 165.627 495.18 165.396 495.54 165.24C495.9 165.083 496.272 165.005 496.657 165.005C497.148 165.005 497.571 165.09 497.927 165.259C498.286 165.428 498.581 165.665 498.809 165.97C499.038 166.27 499.207 166.626 499.317 167.036C499.427 167.442 499.482 167.887 499.482 168.369V168.896H494.353V167.938H498.308V167.849C498.291 167.544 498.227 167.248 498.117 166.96C498.011 166.672 497.842 166.435 497.609 166.249C497.377 166.063 497.059 165.97 496.657 165.97C496.391 165.97 496.145 166.027 495.921 166.141C495.697 166.251 495.504 166.416 495.343 166.636C495.182 166.856 495.058 167.125 494.969 167.442C494.88 167.76 494.835 168.126 494.835 168.541V168.807C494.835 169.133 494.88 169.44 494.969 169.728C495.062 170.011 495.195 170.261 495.369 170.477C495.546 170.692 495.76 170.862 496.01 170.984C496.264 171.107 496.551 171.168 496.873 171.168C497.288 171.168 497.639 171.084 497.927 170.915C498.215 170.745 498.466 170.519 498.682 170.235L499.393 170.8C499.245 171.025 499.057 171.238 498.828 171.441C498.6 171.645 498.318 171.81 497.984 171.937C497.654 172.063 497.262 172.127 496.81 172.127ZM502.129 162.25V172H500.948V162.25H502.129ZM508.343 170.667V162.25H509.524V172H508.445L508.343 170.667ZM503.722 168.642V168.509C503.722 167.984 503.786 167.508 503.913 167.081C504.044 166.649 504.228 166.279 504.465 165.97C504.706 165.661 504.992 165.424 505.322 165.259C505.656 165.09 506.028 165.005 506.439 165.005C506.871 165.005 507.247 165.081 507.569 165.233C507.895 165.382 508.17 165.599 508.394 165.887C508.623 166.171 508.802 166.514 508.934 166.916C509.065 167.318 509.156 167.772 509.207 168.28V168.864C509.16 169.368 509.069 169.821 508.934 170.223C508.802 170.625 508.623 170.967 508.394 171.251C508.17 171.535 507.895 171.752 507.569 171.905C507.243 172.053 506.862 172.127 506.426 172.127C506.024 172.127 505.656 172.04 505.322 171.867C504.992 171.693 504.706 171.45 504.465 171.137C504.228 170.824 504.044 170.455 503.913 170.032C503.786 169.605 503.722 169.141 503.722 168.642ZM504.903 168.509V168.642C504.903 168.985 504.937 169.306 505.004 169.607C505.076 169.907 505.186 170.172 505.334 170.4C505.483 170.629 505.671 170.809 505.899 170.94C506.128 171.067 506.401 171.13 506.718 171.13C507.108 171.13 507.427 171.048 507.677 170.883C507.931 170.718 508.134 170.5 508.286 170.229C508.438 169.958 508.557 169.664 508.642 169.347V167.817C508.591 167.584 508.517 167.36 508.419 167.144C508.326 166.924 508.204 166.729 508.051 166.56C507.903 166.387 507.719 166.249 507.499 166.147C507.283 166.046 507.027 165.995 506.731 165.995C506.409 165.995 506.132 166.063 505.899 166.198C505.671 166.329 505.483 166.511 505.334 166.744C505.186 166.973 505.076 167.239 505.004 167.544C504.937 167.844 504.903 168.166 504.903 168.509Z" fill="#555F6B"/>
<path d="M666.488 162.758V172H665.282V162.758H666.488ZM669.458 162.758V163.761H662.317V162.758H669.458ZM672.867 172.127C672.389 172.127 671.955 172.047 671.566 171.886C671.181 171.721 670.849 171.49 670.569 171.194C670.294 170.898 670.083 170.546 669.935 170.14C669.786 169.734 669.712 169.29 669.712 168.807V168.541C669.712 167.982 669.795 167.485 669.96 167.049C670.125 166.609 670.349 166.236 670.633 165.932C670.916 165.627 671.238 165.396 671.598 165.24C671.957 165.083 672.33 165.005 672.715 165.005C673.206 165.005 673.629 165.09 673.984 165.259C674.344 165.428 674.638 165.665 674.867 165.97C675.095 166.27 675.264 166.626 675.375 167.036C675.485 167.442 675.54 167.887 675.54 168.369V168.896H670.411V167.938H674.365V167.849C674.348 167.544 674.285 167.248 674.175 166.96C674.069 166.672 673.9 166.435 673.667 166.249C673.434 166.063 673.117 165.97 672.715 165.97C672.448 165.97 672.203 166.027 671.979 166.141C671.754 166.251 671.562 166.416 671.401 166.636C671.24 166.856 671.115 167.125 671.026 167.442C670.938 167.76 670.893 168.126 670.893 168.541V168.807C670.893 169.133 670.938 169.44 671.026 169.728C671.119 170.011 671.253 170.261 671.426 170.477C671.604 170.692 671.818 170.862 672.067 170.984C672.321 171.107 672.609 171.168 672.931 171.168C673.345 171.168 673.697 171.084 673.984 170.915C674.272 170.745 674.524 170.519 674.74 170.235L675.451 170.8C675.303 171.025 675.114 171.238 674.886 171.441C674.657 171.645 674.376 171.81 674.042 171.937C673.711 172.063 673.32 172.127 672.867 172.127ZM677.704 165.132L679.208 167.633L680.732 165.132H682.109L679.862 168.521L682.179 172H680.821L679.234 169.423L677.647 172H676.282L678.593 168.521L676.352 165.132H677.704ZM686.235 165.132V166.033H682.522V165.132H686.235ZM683.779 163.462H684.953V170.299C684.953 170.532 684.989 170.707 685.061 170.826C685.133 170.944 685.226 171.022 685.34 171.061C685.455 171.099 685.577 171.118 685.708 171.118C685.806 171.118 685.907 171.109 686.013 171.092C686.123 171.071 686.206 171.054 686.261 171.042L686.267 172C686.174 172.03 686.051 172.057 685.899 172.083C685.751 172.112 685.571 172.127 685.359 172.127C685.072 172.127 684.807 172.07 684.566 171.956C684.325 171.841 684.132 171.651 683.988 171.384C683.849 171.113 683.779 170.75 683.779 170.292V163.462ZM689.016 162.758V172H687.791V162.758H689.016ZM692.888 166.916V167.918H688.749V166.916H692.888ZM693.516 162.758V163.761H688.749V162.758H693.516ZM696.074 165.132V172H694.894V165.132H696.074ZM694.805 163.31C694.805 163.12 694.862 162.959 694.976 162.828C695.095 162.696 695.268 162.631 695.497 162.631C695.721 162.631 695.892 162.696 696.011 162.828C696.133 162.959 696.195 163.12 696.195 163.31C696.195 163.492 696.133 163.649 696.011 163.78C695.892 163.907 695.721 163.97 695.497 163.97C695.268 163.97 695.095 163.907 694.976 163.78C694.862 163.649 694.805 163.492 694.805 163.31ZM700.81 172.127C700.331 172.127 699.898 172.047 699.508 171.886C699.123 171.721 698.791 171.49 698.512 171.194C698.237 170.898 698.025 170.546 697.877 170.14C697.729 169.734 697.655 169.29 697.655 168.807V168.541C697.655 167.982 697.737 167.485 697.902 167.049C698.067 166.609 698.292 166.236 698.575 165.932C698.859 165.627 699.18 165.396 699.54 165.24C699.9 165.083 700.272 165.005 700.657 165.005C701.148 165.005 701.571 165.09 701.927 165.259C702.286 165.428 702.581 165.665 702.809 165.97C703.038 166.27 703.207 166.626 703.317 167.036C703.427 167.442 703.482 167.887 703.482 168.369V168.896H698.353V167.938H702.308V167.849C702.291 167.544 702.227 167.248 702.117 166.96C702.011 166.672 701.842 166.435 701.609 166.249C701.377 166.063 701.059 165.97 700.657 165.97C700.391 165.97 700.145 166.027 699.921 166.141C699.697 166.251 699.504 166.416 699.343 166.636C699.182 166.856 699.058 167.125 698.969 167.442C698.88 167.76 698.835 168.126 698.835 168.541V168.807C698.835 169.133 698.88 169.44 698.969 169.728C699.062 170.011 699.195 170.261 699.369 170.477C699.546 170.692 699.76 170.862 700.01 170.984C700.264 171.107 700.551 171.168 700.873 171.168C701.288 171.168 701.639 171.084 701.927 170.915C702.215 170.745 702.466 170.519 702.682 170.235L703.393 170.8C703.245 171.025 703.057 171.238 702.828 171.441C702.6 171.645 702.318 171.81 701.984 171.937C701.654 172.063 701.262 172.127 700.81 172.127ZM706.129 162.25V172H704.948V162.25H706.129ZM712.343 170.667V162.25H713.524V172H712.445L712.343 170.667ZM707.722 168.642V168.509C707.722 167.984 707.786 167.508 707.913 167.081C708.044 166.649 708.228 166.279 708.465 165.97C708.706 165.661 708.992 165.424 709.322 165.259C709.656 165.09 710.028 165.005 710.439 165.005C710.871 165.005 711.247 165.081 711.569 165.233C711.895 165.382 712.17 165.599 712.394 165.887C712.623 166.171 712.802 166.514 712.934 166.916C713.065 167.318 713.156 167.772 713.207 168.28V168.864C713.16 169.368 713.069 169.821 712.934 170.223C712.802 170.625 712.623 170.967 712.394 171.251C712.17 171.535 711.895 171.752 711.569 171.905C711.243 172.053 710.862 172.127 710.426 172.127C710.024 172.127 709.656 172.04 709.322 171.867C708.992 171.693 708.706 171.45 708.465 171.137C708.228 170.824 708.044 170.455 707.913 170.032C707.786 169.605 707.722 169.141 707.722 168.642ZM708.903 168.509V168.642C708.903 168.985 708.937 169.306 709.004 169.607C709.076 169.907 709.186 170.172 709.334 170.4C709.483 170.629 709.671 170.809 709.899 170.94C710.128 171.067 710.401 171.13 710.718 171.13C711.108 171.13 711.427 171.048 711.677 170.883C711.931 170.718 712.134 170.5 712.286 170.229C712.438 169.958 712.557 169.664 712.642 169.347V167.817C712.591 167.584 712.517 167.36 712.419 167.144C712.326 166.924 712.204 166.729 712.051 166.56C711.903 166.387 711.719 166.249 711.499 166.147C711.283 166.046 711.027 165.995 710.731 165.995C710.409 165.995 710.132 166.063 709.899 166.198C709.671 166.329 709.483 166.511 709.334 166.744C709.186 166.973 709.076 167.239 709.004 167.544C708.937 167.844 708.903 168.166 708.903 168.509Z" fill="#555F6B"/>
<path d="M867.866 162.758L870.088 166.3L872.31 162.758H873.738L870.818 167.334L873.808 172H872.367L870.088 168.388L867.809 172H866.368L869.358 167.334L866.438 162.758H867.866ZM876.017 162.758L878.238 166.3L880.46 162.758H881.888L878.968 167.334L881.958 172H880.517L878.238 168.388L875.959 172H874.519L877.508 167.334L874.588 162.758H876.017ZM887.284 162.758L883.431 172.793H882.421L886.281 162.758H887.284ZM889.537 162.758L891.759 166.3L893.98 162.758H895.409L892.489 167.334L895.479 172H894.038L891.759 168.388L889.48 172H888.039L891.029 167.334L888.109 162.758H889.537ZM897.688 162.758L899.909 166.3L902.131 162.758H903.559L900.639 167.334L903.629 172H902.188L899.909 168.388L897.63 172H896.189L899.179 167.334L896.259 162.758H897.688ZM908.955 162.758L905.102 172.793H904.092L907.952 162.758H908.955ZM911.208 162.758L913.43 166.3L915.651 162.758H917.08L914.16 167.334L917.149 172H915.708L913.43 168.388L911.151 172H909.71L912.7 167.334L909.78 162.758H911.208ZM919.358 162.758L921.58 166.3L923.802 162.758H925.23L922.31 167.334L925.3 172H923.859L921.58 168.388L919.301 172H917.86L920.85 167.334L917.93 162.758H919.358ZM927.509 162.758L929.73 166.3L931.952 162.758H933.38L930.46 167.334L933.45 172H932.009L929.73 168.388L927.452 172H926.011L929 167.334L926.081 162.758H927.509ZM935.659 162.758L937.881 166.3L940.103 162.758H941.531L938.611 167.334L941.601 172H940.16L937.881 168.388L935.602 172H934.161L937.151 167.334L934.231 162.758H935.659Z" fill="#555F6B"/>
<rect x="1058.5" y="153.5" width="57" height="29" rx="1.5" fill="white"/>
<path d="M1115 154L1059 182M1059 154L1115 182" stroke="#C2C6CA"/>
<rect x="1058.5" y="153.5" width="57" height="29" rx="1.5" stroke="#C2C6CA"/>
<rect x="1124.5" y="153.5" width="57" height="29" rx="1.5" fill="white"/>
<path d="M1181 154L1125 182M1125 154L1181 182" stroke="#C2C6CA"/>
<rect x="1124.5" y="153.5" width="57" height="29" rx="1.5" stroke="#C2C6CA"/>
<path d="M1217 157L1195 179M1195 157L1217 179" stroke="#C2C6CA"/>
<rect x="1194.5" y="156.5" width="23" height="23" rx="1.5" stroke="#C2C6CA"/>
<path d="M1257 157L1235 179M1235 157L1257 179" stroke="#C2C6CA"/>
<rect x="1234.5" y="156.5" width="23" height="23" rx="1.5" stroke="#C2C6CA"/>
<path d="M1266 192.5H1266.5V192V148C1266.5 145.515 1264.49 143.5 1262 143.5H38C35.5147 143.5 33.5 145.515 33.5 148V192V192.5H34H1266Z" stroke="#E7E8EA"/>
<path d="M0 248H1300V277C1300 288.046 1291.05 297 1280 297H20C8.9543 297 0 288.046 0 277V248Z" fill="#E65454"/>
<path d="M33.6491 267.351C33.4243 267.126 33.1195 267 32.8017 267C32.4839 267 32.1791 267.126 31.9543 267.351L28.0075 271.298L24.0607 267.351C23.8346 267.133 23.5319 267.012 23.2176 267.015C22.9033 267.017 22.6027 267.143 22.3805 267.366C22.1583 267.588 22.0322 267.888 22.0295 268.203C22.0268 268.517 22.1476 268.82 22.3659 269.046L26.3127 272.993L22.3659 276.939C22.2514 277.05 22.1601 277.182 22.0973 277.328C22.0345 277.475 22.0014 277.632 22 277.791C21.9987 277.95 22.029 278.108 22.0893 278.255C22.1495 278.403 22.2385 278.536 22.351 278.649C22.4636 278.761 22.5974 278.85 22.7447 278.911C22.892 278.971 23.0498 279.001 23.209 279C23.3681 278.999 23.5254 278.966 23.6716 278.903C23.8178 278.84 23.9501 278.749 24.0607 278.634L28.0075 274.687L31.9543 278.634C32.1804 278.852 32.4831 278.973 32.7974 278.97C33.1116 278.968 33.4123 278.842 33.6345 278.619C33.8567 278.397 33.9828 278.097 33.9855 277.782C33.9882 277.468 33.8674 277.165 33.6491 276.939L29.7022 272.993L33.6491 269.046C33.8738 268.821 34 268.516 34 268.198C34 267.88 33.8738 267.576 33.6491 267.351Z" fill="#142735"/>
<path d="M51.0625 278H48.1449V268.545H51.1918C52.1089 268.545 52.8937 268.735 53.5462 269.113C54.1986 269.489 54.6987 270.029 55.0465 270.734C55.3943 271.435 55.5682 272.276 55.5682 273.254C55.5682 274.239 55.3928 275.087 55.0419 275.798C54.6911 276.506 54.1802 277.051 53.5092 277.432C52.8383 277.811 52.0227 278 51.0625 278ZM49.2898 276.984H50.9886C51.7704 276.984 52.4182 276.834 52.9322 276.532C53.4461 276.23 53.8293 275.801 54.0817 275.244C54.334 274.687 54.4602 274.024 54.4602 273.254C54.4602 272.491 54.3356 271.834 54.0863 271.283C53.837 270.729 53.4646 270.304 52.9691 270.009C52.4736 269.71 51.8565 269.561 51.1179 269.561H49.2898V276.984ZM60.2216 278.148C59.5814 278.148 59.0198 277.995 58.5366 277.691C58.0565 277.386 57.681 276.96 57.4102 276.412C57.1424 275.864 57.0085 275.224 57.0085 274.491C57.0085 273.753 57.1424 273.108 57.4102 272.557C57.681 272.006 58.0565 271.578 58.5366 271.274C59.0198 270.969 59.5814 270.817 60.2216 270.817C60.8617 270.817 61.4219 270.969 61.902 271.274C62.3852 271.578 62.7607 272.006 63.0284 272.557C63.2992 273.108 63.4347 273.753 63.4347 274.491C63.4347 275.224 63.2992 275.864 63.0284 276.412C62.7607 276.96 62.3852 277.386 61.902 277.691C61.4219 277.995 60.8617 278.148 60.2216 278.148ZM60.2216 277.169C60.7079 277.169 61.108 277.044 61.4219 276.795C61.7358 276.546 61.9682 276.218 62.119 275.812C62.2698 275.406 62.3452 274.965 62.3452 274.491C62.3452 274.018 62.2698 273.576 62.119 273.167C61.9682 272.757 61.7358 272.426 61.4219 272.174C61.108 271.922 60.7079 271.795 60.2216 271.795C59.7353 271.795 59.3352 271.922 59.0213 272.174C58.7074 272.426 58.475 272.757 58.3242 273.167C58.1734 273.576 58.098 274.018 58.098 274.491C58.098 274.965 58.1734 275.406 58.3242 275.812C58.475 276.218 58.7074 276.546 59.0213 276.795C59.3352 277.044 59.7353 277.169 60.2216 277.169ZM66.1872 273.734V278H65.0977V270.909H66.1503V272.017H66.2426C66.4088 271.657 66.6612 271.368 66.9997 271.149C67.3383 270.928 67.7753 270.817 68.3108 270.817C68.7909 270.817 69.211 270.915 69.5711 271.112C69.9312 271.306 70.2113 271.602 70.4113 271.999C70.6114 272.393 70.7114 272.891 70.7114 273.494V278H69.6219V273.568C69.6219 273.011 69.4772 272.577 69.1879 272.266C68.8986 271.952 68.5016 271.795 67.9969 271.795C67.6491 271.795 67.3383 271.871 67.0644 272.022C66.7935 272.172 66.5796 272.393 66.4227 272.682C66.2657 272.971 66.1872 273.322 66.1872 273.734ZM73.6625 268.545V269.376C73.6625 269.629 73.6163 269.898 73.524 270.184C73.4347 270.467 73.3024 270.743 73.127 271.011C72.9546 271.275 72.7453 271.506 72.4991 271.703L71.9082 271.223C72.1021 270.946 72.2698 270.658 72.4114 270.36C72.556 270.058 72.6284 269.737 72.6284 269.395V268.545H73.6625ZM78.3759 270.909V271.832H74.7012V270.909H78.3759ZM75.7722 269.21H76.8617V275.969C76.8617 276.277 76.9063 276.507 76.9956 276.661C77.0879 276.812 77.2048 276.914 77.3464 276.966C77.4911 277.015 77.6434 277.04 77.8034 277.04C77.9235 277.04 78.022 277.034 78.0989 277.021C78.1758 277.006 78.2374 276.994 78.2836 276.984L78.5051 277.963C78.4313 277.991 78.3282 278.018 78.1958 278.046C78.0635 278.077 77.8958 278.092 77.6926 278.092C77.3849 278.092 77.0833 278.026 76.7878 277.894C76.4954 277.761 76.2523 277.56 76.0584 277.289C75.8676 277.018 75.7722 276.677 75.7722 276.264V269.21Z" fill="#142735"/>
</svg>
