<svg width="845" height="461" viewBox="0 0 845 461" fill="none" xmlns="http://www.w3.org/2000/svg">
<g clip-path="url(#clip0_123_3903)">
<path d="M411 20C411 8.9543 402.046 0 391 0H20C8.95432 0 0 8.95431 0 20V404H411V20Z" fill="#F3F4F4"/>
<rect x="12" y="-108" width="390" height="494" rx="16" fill="white"/>
<rect x="60" y="300" width="294" height="50" rx="2" fill="#055FD2"/>
<path d="M169.836 326.586V318.625H171.789V326.586C171.789 327.341 171.628 327.984 171.305 328.516C170.982 329.047 170.542 329.453 169.984 329.734C169.427 330.016 168.794 330.156 168.086 330.156C167.362 330.156 166.719 330.034 166.156 329.789C165.599 329.544 165.161 329.169 164.844 328.664C164.526 328.159 164.367 327.518 164.367 326.742H166.336C166.336 327.19 166.406 327.552 166.547 327.828C166.693 328.099 166.896 328.297 167.156 328.422C167.422 328.542 167.732 328.602 168.086 328.602C168.424 328.602 168.724 328.526 168.984 328.375C169.25 328.219 169.458 327.992 169.609 327.695C169.76 327.393 169.836 327.023 169.836 326.586ZM177.586 330.156C176.961 330.156 176.396 330.055 175.891 329.852C175.391 329.643 174.964 329.354 174.609 328.984C174.26 328.615 173.992 328.18 173.805 327.68C173.617 327.18 173.523 326.641 173.523 326.062V325.75C173.523 325.089 173.62 324.49 173.812 323.953C174.005 323.417 174.273 322.958 174.617 322.578C174.961 322.193 175.367 321.898 175.836 321.695C176.305 321.492 176.812 321.391 177.359 321.391C177.964 321.391 178.492 321.492 178.945 321.695C179.398 321.898 179.773 322.185 180.07 322.555C180.372 322.919 180.596 323.354 180.742 323.859C180.893 324.365 180.969 324.922 180.969 325.531V326.336H174.438V324.984H179.109V324.836C179.099 324.497 179.031 324.18 178.906 323.883C178.786 323.586 178.602 323.346 178.352 323.164C178.102 322.982 177.768 322.891 177.352 322.891C177.039 322.891 176.76 322.958 176.516 323.094C176.276 323.224 176.076 323.414 175.914 323.664C175.753 323.914 175.628 324.216 175.539 324.57C175.456 324.919 175.414 325.312 175.414 325.75V326.062C175.414 326.432 175.464 326.776 175.562 327.094C175.667 327.406 175.818 327.68 176.016 327.914C176.214 328.148 176.453 328.333 176.734 328.469C177.016 328.599 177.336 328.664 177.695 328.664C178.148 328.664 178.552 328.573 178.906 328.391C179.26 328.208 179.568 327.951 179.828 327.617L180.82 328.578C180.638 328.844 180.401 329.099 180.109 329.344C179.818 329.583 179.461 329.779 179.039 329.93C178.622 330.081 178.138 330.156 177.586 330.156ZM188.305 323.266V330H186.422V321.547H188.195L188.305 323.266ZM188 325.461L187.359 325.453C187.359 324.87 187.432 324.331 187.578 323.836C187.724 323.341 187.938 322.911 188.219 322.547C188.5 322.177 188.849 321.893 189.266 321.695C189.688 321.492 190.174 321.391 190.727 321.391C191.112 321.391 191.464 321.448 191.781 321.562C192.104 321.672 192.383 321.846 192.617 322.086C192.857 322.326 193.039 322.633 193.164 323.008C193.294 323.383 193.359 323.836 193.359 324.367V330H191.477V324.531C191.477 324.12 191.414 323.797 191.289 323.562C191.169 323.328 190.995 323.161 190.766 323.062C190.542 322.958 190.273 322.906 189.961 322.906C189.607 322.906 189.305 322.974 189.055 323.109C188.81 323.245 188.609 323.43 188.453 323.664C188.297 323.898 188.182 324.169 188.109 324.477C188.036 324.784 188 325.112 188 325.461ZM193.242 324.961L192.359 325.156C192.359 324.646 192.43 324.164 192.57 323.711C192.716 323.253 192.927 322.852 193.203 322.508C193.484 322.159 193.831 321.885 194.242 321.688C194.654 321.49 195.125 321.391 195.656 321.391C196.089 321.391 196.474 321.451 196.812 321.57C197.156 321.685 197.448 321.867 197.688 322.117C197.927 322.367 198.109 322.693 198.234 323.094C198.359 323.49 198.422 323.969 198.422 324.531V330H196.531V324.523C196.531 324.096 196.469 323.766 196.344 323.531C196.224 323.297 196.052 323.135 195.828 323.047C195.604 322.953 195.336 322.906 195.023 322.906C194.732 322.906 194.474 322.961 194.25 323.07C194.031 323.174 193.846 323.323 193.695 323.516C193.544 323.703 193.43 323.919 193.352 324.164C193.279 324.409 193.242 324.674 193.242 324.961ZM201.414 318V319.102C201.414 319.43 201.354 319.771 201.234 320.125C201.12 320.474 200.958 320.81 200.75 321.133C200.542 321.451 200.302 321.727 200.031 321.961L199.086 321.367C199.299 321.044 199.471 320.703 199.602 320.344C199.737 319.979 199.805 319.57 199.805 319.117V318H201.414ZM205.094 321.547V330H203.203V321.547H205.094ZM203.078 319.328C203.078 319.042 203.172 318.805 203.359 318.617C203.552 318.424 203.818 318.328 204.156 318.328C204.49 318.328 204.753 318.424 204.945 318.617C205.138 318.805 205.234 319.042 205.234 319.328C205.234 319.609 205.138 319.844 204.945 320.031C204.753 320.219 204.49 320.312 204.156 320.312C203.818 320.312 203.552 320.219 203.359 320.031C203.172 319.844 203.078 319.609 203.078 319.328ZM209.023 323.352V330H207.141V321.547H208.914L209.023 323.352ZM208.688 325.461L208.078 325.453C208.083 324.854 208.167 324.305 208.328 323.805C208.495 323.305 208.724 322.875 209.016 322.516C209.312 322.156 209.667 321.88 210.078 321.688C210.49 321.49 210.948 321.391 211.453 321.391C211.859 321.391 212.227 321.448 212.555 321.562C212.888 321.672 213.172 321.852 213.406 322.102C213.646 322.352 213.828 322.677 213.953 323.078C214.078 323.474 214.141 323.961 214.141 324.539V330H212.25V324.531C212.25 324.125 212.19 323.805 212.07 323.57C211.956 323.331 211.786 323.161 211.562 323.062C211.344 322.958 211.07 322.906 210.742 322.906C210.419 322.906 210.13 322.974 209.875 323.109C209.62 323.245 209.404 323.43 209.227 323.664C209.055 323.898 208.922 324.169 208.828 324.477C208.734 324.784 208.688 325.112 208.688 325.461ZM220.805 327.711C220.805 327.523 220.758 327.354 220.664 327.203C220.57 327.047 220.391 326.906 220.125 326.781C219.865 326.656 219.479 326.542 218.969 326.438C218.521 326.339 218.109 326.221 217.734 326.086C217.365 325.945 217.047 325.776 216.781 325.578C216.516 325.38 216.31 325.146 216.164 324.875C216.018 324.604 215.945 324.292 215.945 323.938C215.945 323.594 216.021 323.268 216.172 322.961C216.323 322.654 216.539 322.383 216.82 322.148C217.102 321.914 217.443 321.729 217.844 321.594C218.25 321.458 218.703 321.391 219.203 321.391C219.911 321.391 220.518 321.51 221.023 321.75C221.534 321.984 221.924 322.305 222.195 322.711C222.466 323.112 222.602 323.565 222.602 324.07H220.719C220.719 323.846 220.661 323.638 220.547 323.445C220.438 323.247 220.271 323.089 220.047 322.969C219.823 322.844 219.542 322.781 219.203 322.781C218.88 322.781 218.612 322.833 218.398 322.938C218.19 323.036 218.034 323.167 217.93 323.328C217.831 323.49 217.781 323.667 217.781 323.859C217.781 324 217.807 324.128 217.859 324.242C217.917 324.352 218.01 324.453 218.141 324.547C218.271 324.635 218.448 324.719 218.672 324.797C218.901 324.875 219.188 324.951 219.531 325.023C220.177 325.159 220.732 325.333 221.195 325.547C221.664 325.755 222.023 326.026 222.273 326.359C222.523 326.688 222.648 327.104 222.648 327.609C222.648 327.984 222.568 328.328 222.406 328.641C222.25 328.948 222.021 329.216 221.719 329.445C221.417 329.669 221.055 329.844 220.633 329.969C220.216 330.094 219.747 330.156 219.227 330.156C218.461 330.156 217.812 330.021 217.281 329.75C216.75 329.474 216.346 329.122 216.07 328.695C215.799 328.263 215.664 327.815 215.664 327.352H217.484C217.505 327.701 217.602 327.979 217.773 328.188C217.951 328.391 218.169 328.539 218.43 328.633C218.695 328.721 218.969 328.766 219.25 328.766C219.589 328.766 219.872 328.721 220.102 328.633C220.331 328.539 220.505 328.414 220.625 328.258C220.745 328.096 220.805 327.914 220.805 327.711ZM227.75 328.656C228.057 328.656 228.333 328.596 228.578 328.477C228.828 328.352 229.029 328.18 229.18 327.961C229.336 327.742 229.422 327.49 229.438 327.203H231.211C231.201 327.75 231.039 328.247 230.727 328.695C230.414 329.143 230 329.5 229.484 329.766C228.969 330.026 228.398 330.156 227.773 330.156C227.128 330.156 226.565 330.047 226.086 329.828C225.607 329.604 225.208 329.297 224.891 328.906C224.573 328.516 224.333 328.065 224.172 327.555C224.016 327.044 223.938 326.497 223.938 325.914V325.641C223.938 325.057 224.016 324.51 224.172 324C224.333 323.484 224.573 323.031 224.891 322.641C225.208 322.25 225.607 321.945 226.086 321.727C226.565 321.503 227.125 321.391 227.766 321.391C228.443 321.391 229.036 321.526 229.547 321.797C230.057 322.062 230.458 322.435 230.75 322.914C231.047 323.388 231.201 323.94 231.211 324.57H229.438C229.422 324.258 229.344 323.977 229.203 323.727C229.068 323.471 228.875 323.268 228.625 323.117C228.38 322.966 228.086 322.891 227.742 322.891C227.362 322.891 227.047 322.969 226.797 323.125C226.547 323.276 226.352 323.484 226.211 323.75C226.07 324.01 225.969 324.305 225.906 324.633C225.849 324.956 225.82 325.292 225.82 325.641V325.914C225.82 326.263 225.849 326.602 225.906 326.93C225.964 327.258 226.062 327.552 226.203 327.812C226.349 328.068 226.547 328.273 226.797 328.43C227.047 328.581 227.365 328.656 227.75 328.656ZM234.547 323.156V330H232.664V321.547H234.461L234.547 323.156ZM237.133 321.492L237.117 323.242C237.003 323.221 236.878 323.206 236.742 323.195C236.612 323.185 236.482 323.18 236.352 323.18C236.029 323.18 235.745 323.227 235.5 323.32C235.255 323.409 235.049 323.539 234.883 323.711C234.721 323.878 234.596 324.081 234.508 324.32C234.419 324.56 234.367 324.828 234.352 325.125L233.922 325.156C233.922 324.625 233.974 324.133 234.078 323.68C234.182 323.227 234.339 322.828 234.547 322.484C234.76 322.141 235.026 321.872 235.344 321.68C235.667 321.487 236.039 321.391 236.461 321.391C236.576 321.391 236.698 321.401 236.828 321.422C236.964 321.443 237.065 321.466 237.133 321.492ZM240.328 321.547V330H238.438V321.547H240.328ZM238.312 319.328C238.312 319.042 238.406 318.805 238.594 318.617C238.786 318.424 239.052 318.328 239.391 318.328C239.724 318.328 239.987 318.424 240.18 318.617C240.372 318.805 240.469 319.042 240.469 319.328C240.469 319.609 240.372 319.844 240.18 320.031C239.987 320.219 239.724 320.312 239.391 320.312C239.052 320.312 238.786 320.219 238.594 320.031C238.406 319.844 238.312 319.609 238.312 319.328ZM247.133 327.711C247.133 327.523 247.086 327.354 246.992 327.203C246.898 327.047 246.719 326.906 246.453 326.781C246.193 326.656 245.807 326.542 245.297 326.438C244.849 326.339 244.438 326.221 244.062 326.086C243.693 325.945 243.375 325.776 243.109 325.578C242.844 325.38 242.638 325.146 242.492 324.875C242.346 324.604 242.273 324.292 242.273 323.938C242.273 323.594 242.349 323.268 242.5 322.961C242.651 322.654 242.867 322.383 243.148 322.148C243.43 321.914 243.771 321.729 244.172 321.594C244.578 321.458 245.031 321.391 245.531 321.391C246.24 321.391 246.846 321.51 247.352 321.75C247.862 321.984 248.253 322.305 248.523 322.711C248.794 323.112 248.93 323.565 248.93 324.07H247.047C247.047 323.846 246.99 323.638 246.875 323.445C246.766 323.247 246.599 323.089 246.375 322.969C246.151 322.844 245.87 322.781 245.531 322.781C245.208 322.781 244.94 322.833 244.727 322.938C244.518 323.036 244.362 323.167 244.258 323.328C244.159 323.49 244.109 323.667 244.109 323.859C244.109 324 244.135 324.128 244.188 324.242C244.245 324.352 244.339 324.453 244.469 324.547C244.599 324.635 244.776 324.719 245 324.797C245.229 324.875 245.516 324.951 245.859 325.023C246.505 325.159 247.06 325.333 247.523 325.547C247.992 325.755 248.352 326.026 248.602 326.359C248.852 326.688 248.977 327.104 248.977 327.609C248.977 327.984 248.896 328.328 248.734 328.641C248.578 328.948 248.349 329.216 248.047 329.445C247.745 329.669 247.383 329.844 246.961 329.969C246.544 330.094 246.076 330.156 245.555 330.156C244.789 330.156 244.141 330.021 243.609 329.75C243.078 329.474 242.674 329.122 242.398 328.695C242.128 328.263 241.992 327.815 241.992 327.352H243.812C243.833 327.701 243.93 327.979 244.102 328.188C244.279 328.391 244.497 328.539 244.758 328.633C245.023 328.721 245.297 328.766 245.578 328.766C245.917 328.766 246.201 328.721 246.43 328.633C246.659 328.539 246.833 328.414 246.953 328.258C247.073 328.096 247.133 327.914 247.133 327.711Z" fill="white"/>
<rect x="60" y="202" width="294" height="50" rx="2" fill="#055FD2"/>
<path d="M155.336 228.586V220.625H157.289V228.586C157.289 229.341 157.128 229.984 156.805 230.516C156.482 231.047 156.042 231.453 155.484 231.734C154.927 232.016 154.294 232.156 153.586 232.156C152.862 232.156 152.219 232.034 151.656 231.789C151.099 231.544 150.661 231.169 150.344 230.664C150.026 230.159 149.867 229.518 149.867 228.742H151.836C151.836 229.19 151.906 229.552 152.047 229.828C152.193 230.099 152.396 230.297 152.656 230.422C152.922 230.542 153.232 230.602 153.586 230.602C153.924 230.602 154.224 230.526 154.484 230.375C154.75 230.219 154.958 229.992 155.109 229.695C155.26 229.393 155.336 229.023 155.336 228.586ZM163.086 232.156C162.461 232.156 161.896 232.055 161.391 231.852C160.891 231.643 160.464 231.354 160.109 230.984C159.76 230.615 159.492 230.18 159.305 229.68C159.117 229.18 159.023 228.641 159.023 228.062V227.75C159.023 227.089 159.12 226.49 159.312 225.953C159.505 225.417 159.773 224.958 160.117 224.578C160.461 224.193 160.867 223.898 161.336 223.695C161.805 223.492 162.312 223.391 162.859 223.391C163.464 223.391 163.992 223.492 164.445 223.695C164.898 223.898 165.273 224.185 165.57 224.555C165.872 224.919 166.096 225.354 166.242 225.859C166.393 226.365 166.469 226.922 166.469 227.531V228.336H159.938V226.984H164.609V226.836C164.599 226.497 164.531 226.18 164.406 225.883C164.286 225.586 164.102 225.346 163.852 225.164C163.602 224.982 163.268 224.891 162.852 224.891C162.539 224.891 162.26 224.958 162.016 225.094C161.776 225.224 161.576 225.414 161.414 225.664C161.253 225.914 161.128 226.216 161.039 226.57C160.956 226.919 160.914 227.312 160.914 227.75V228.062C160.914 228.432 160.964 228.776 161.062 229.094C161.167 229.406 161.318 229.68 161.516 229.914C161.714 230.148 161.953 230.333 162.234 230.469C162.516 230.599 162.836 230.664 163.195 230.664C163.648 230.664 164.052 230.573 164.406 230.391C164.76 230.208 165.068 229.951 165.328 229.617L166.32 230.578C166.138 230.844 165.901 231.099 165.609 231.344C165.318 231.583 164.961 231.779 164.539 231.93C164.122 232.081 163.638 232.156 163.086 232.156ZM173.805 225.266V232H171.922V223.547H173.695L173.805 225.266ZM173.5 227.461L172.859 227.453C172.859 226.87 172.932 226.331 173.078 225.836C173.224 225.341 173.438 224.911 173.719 224.547C174 224.177 174.349 223.893 174.766 223.695C175.188 223.492 175.674 223.391 176.227 223.391C176.612 223.391 176.964 223.448 177.281 223.562C177.604 223.672 177.883 223.846 178.117 224.086C178.357 224.326 178.539 224.633 178.664 225.008C178.794 225.383 178.859 225.836 178.859 226.367V232H176.977V226.531C176.977 226.12 176.914 225.797 176.789 225.562C176.669 225.328 176.495 225.161 176.266 225.062C176.042 224.958 175.773 224.906 175.461 224.906C175.107 224.906 174.805 224.974 174.555 225.109C174.31 225.245 174.109 225.43 173.953 225.664C173.797 225.898 173.682 226.169 173.609 226.477C173.536 226.784 173.5 227.112 173.5 227.461ZM178.742 226.961L177.859 227.156C177.859 226.646 177.93 226.164 178.07 225.711C178.216 225.253 178.427 224.852 178.703 224.508C178.984 224.159 179.331 223.885 179.742 223.688C180.154 223.49 180.625 223.391 181.156 223.391C181.589 223.391 181.974 223.451 182.312 223.57C182.656 223.685 182.948 223.867 183.188 224.117C183.427 224.367 183.609 224.693 183.734 225.094C183.859 225.49 183.922 225.969 183.922 226.531V232H182.031V226.523C182.031 226.096 181.969 225.766 181.844 225.531C181.724 225.297 181.552 225.135 181.328 225.047C181.104 224.953 180.836 224.906 180.523 224.906C180.232 224.906 179.974 224.961 179.75 225.07C179.531 225.174 179.346 225.323 179.195 225.516C179.044 225.703 178.93 225.919 178.852 226.164C178.779 226.409 178.742 226.674 178.742 226.961ZM189.586 232.156C188.961 232.156 188.396 232.055 187.891 231.852C187.391 231.643 186.964 231.354 186.609 230.984C186.26 230.615 185.992 230.18 185.805 229.68C185.617 229.18 185.523 228.641 185.523 228.062V227.75C185.523 227.089 185.62 226.49 185.812 225.953C186.005 225.417 186.273 224.958 186.617 224.578C186.961 224.193 187.367 223.898 187.836 223.695C188.305 223.492 188.812 223.391 189.359 223.391C189.964 223.391 190.492 223.492 190.945 223.695C191.398 223.898 191.773 224.185 192.07 224.555C192.372 224.919 192.596 225.354 192.742 225.859C192.893 226.365 192.969 226.922 192.969 227.531V228.336H186.438V226.984H191.109V226.836C191.099 226.497 191.031 226.18 190.906 225.883C190.786 225.586 190.602 225.346 190.352 225.164C190.102 224.982 189.768 224.891 189.352 224.891C189.039 224.891 188.76 224.958 188.516 225.094C188.276 225.224 188.076 225.414 187.914 225.664C187.753 225.914 187.628 226.216 187.539 226.57C187.456 226.919 187.414 227.312 187.414 227.75V228.062C187.414 228.432 187.464 228.776 187.562 229.094C187.667 229.406 187.818 229.68 188.016 229.914C188.214 230.148 188.453 230.333 188.734 230.469C189.016 230.599 189.336 230.664 189.695 230.664C190.148 230.664 190.552 230.573 190.906 230.391C191.26 230.208 191.568 229.951 191.828 229.617L192.82 230.578C192.638 230.844 192.401 231.099 192.109 231.344C191.818 231.583 191.461 231.779 191.039 231.93C190.622 232.081 190.138 232.156 189.586 232.156ZM201.875 230.656C202.182 230.656 202.458 230.596 202.703 230.477C202.953 230.352 203.154 230.18 203.305 229.961C203.461 229.742 203.547 229.49 203.562 229.203H205.336C205.326 229.75 205.164 230.247 204.852 230.695C204.539 231.143 204.125 231.5 203.609 231.766C203.094 232.026 202.523 232.156 201.898 232.156C201.253 232.156 200.69 232.047 200.211 231.828C199.732 231.604 199.333 231.297 199.016 230.906C198.698 230.516 198.458 230.065 198.297 229.555C198.141 229.044 198.062 228.497 198.062 227.914V227.641C198.062 227.057 198.141 226.51 198.297 226C198.458 225.484 198.698 225.031 199.016 224.641C199.333 224.25 199.732 223.945 200.211 223.727C200.69 223.503 201.25 223.391 201.891 223.391C202.568 223.391 203.161 223.526 203.672 223.797C204.182 224.062 204.583 224.435 204.875 224.914C205.172 225.388 205.326 225.94 205.336 226.57H203.562C203.547 226.258 203.469 225.977 203.328 225.727C203.193 225.471 203 225.268 202.75 225.117C202.505 224.966 202.211 224.891 201.867 224.891C201.487 224.891 201.172 224.969 200.922 225.125C200.672 225.276 200.477 225.484 200.336 225.75C200.195 226.01 200.094 226.305 200.031 226.633C199.974 226.956 199.945 227.292 199.945 227.641V227.914C199.945 228.263 199.974 228.602 200.031 228.93C200.089 229.258 200.188 229.552 200.328 229.812C200.474 230.068 200.672 230.273 200.922 230.43C201.172 230.581 201.49 230.656 201.875 230.656ZM206.422 227.867V227.688C206.422 227.078 206.51 226.513 206.688 225.992C206.865 225.466 207.12 225.01 207.453 224.625C207.792 224.234 208.203 223.932 208.688 223.719C209.177 223.5 209.729 223.391 210.344 223.391C210.964 223.391 211.516 223.5 212 223.719C212.49 223.932 212.904 224.234 213.242 224.625C213.581 225.01 213.839 225.466 214.016 225.992C214.193 226.513 214.281 227.078 214.281 227.688V227.867C214.281 228.477 214.193 229.042 214.016 229.562C213.839 230.083 213.581 230.539 213.242 230.93C212.904 231.315 212.492 231.617 212.008 231.836C211.523 232.049 210.974 232.156 210.359 232.156C209.74 232.156 209.185 232.049 208.695 231.836C208.211 231.617 207.799 231.315 207.461 230.93C207.122 230.539 206.865 230.083 206.688 229.562C206.51 229.042 206.422 228.477 206.422 227.867ZM208.305 227.688V227.867C208.305 228.247 208.344 228.607 208.422 228.945C208.5 229.284 208.622 229.581 208.789 229.836C208.956 230.091 209.169 230.292 209.43 230.438C209.69 230.583 210 230.656 210.359 230.656C210.708 230.656 211.01 230.583 211.266 230.438C211.526 230.292 211.74 230.091 211.906 229.836C212.073 229.581 212.195 229.284 212.273 228.945C212.357 228.607 212.398 228.247 212.398 227.867V227.688C212.398 227.312 212.357 226.958 212.273 226.625C212.195 226.286 212.07 225.987 211.898 225.727C211.732 225.466 211.518 225.263 211.258 225.117C211.003 224.966 210.698 224.891 210.344 224.891C209.99 224.891 209.682 224.966 209.422 225.117C209.167 225.263 208.956 225.466 208.789 225.727C208.622 225.987 208.5 226.286 208.422 226.625C208.344 226.958 208.305 227.312 208.305 227.688ZM217.727 225.352V232H215.844V223.547H217.617L217.727 225.352ZM217.391 227.461L216.781 227.453C216.786 226.854 216.87 226.305 217.031 225.805C217.198 225.305 217.427 224.875 217.719 224.516C218.016 224.156 218.37 223.88 218.781 223.688C219.193 223.49 219.651 223.391 220.156 223.391C220.562 223.391 220.93 223.448 221.258 223.562C221.591 223.672 221.875 223.852 222.109 224.102C222.349 224.352 222.531 224.677 222.656 225.078C222.781 225.474 222.844 225.961 222.844 226.539V232H220.953V226.531C220.953 226.125 220.893 225.805 220.773 225.57C220.659 225.331 220.49 225.161 220.266 225.062C220.047 224.958 219.773 224.906 219.445 224.906C219.122 224.906 218.833 224.974 218.578 225.109C218.323 225.245 218.107 225.43 217.93 225.664C217.758 225.898 217.625 226.169 217.531 226.477C217.438 226.784 217.391 227.112 217.391 227.461ZM226.633 225.352V232H224.75V223.547H226.523L226.633 225.352ZM226.297 227.461L225.688 227.453C225.693 226.854 225.776 226.305 225.938 225.805C226.104 225.305 226.333 224.875 226.625 224.516C226.922 224.156 227.276 223.88 227.688 223.688C228.099 223.49 228.557 223.391 229.062 223.391C229.469 223.391 229.836 223.448 230.164 223.562C230.497 223.672 230.781 223.852 231.016 224.102C231.255 224.352 231.438 224.677 231.562 225.078C231.688 225.474 231.75 225.961 231.75 226.539V232H229.859V226.531C229.859 226.125 229.799 225.805 229.68 225.57C229.565 225.331 229.396 225.161 229.172 225.062C228.953 224.958 228.68 224.906 228.352 224.906C228.029 224.906 227.74 224.974 227.484 225.109C227.229 225.245 227.013 225.43 226.836 225.664C226.664 225.898 226.531 226.169 226.438 226.477C226.344 226.784 226.297 227.112 226.297 227.461ZM237.398 232.156C236.773 232.156 236.208 232.055 235.703 231.852C235.203 231.643 234.776 231.354 234.422 230.984C234.073 230.615 233.805 230.18 233.617 229.68C233.43 229.18 233.336 228.641 233.336 228.062V227.75C233.336 227.089 233.432 226.49 233.625 225.953C233.818 225.417 234.086 224.958 234.43 224.578C234.773 224.193 235.18 223.898 235.648 223.695C236.117 223.492 236.625 223.391 237.172 223.391C237.776 223.391 238.305 223.492 238.758 223.695C239.211 223.898 239.586 224.185 239.883 224.555C240.185 224.919 240.409 225.354 240.555 225.859C240.706 226.365 240.781 226.922 240.781 227.531V228.336H234.25V226.984H238.922V226.836C238.911 226.497 238.844 226.18 238.719 225.883C238.599 225.586 238.414 225.346 238.164 225.164C237.914 224.982 237.581 224.891 237.164 224.891C236.852 224.891 236.573 224.958 236.328 225.094C236.089 225.224 235.888 225.414 235.727 225.664C235.565 225.914 235.44 226.216 235.352 226.57C235.268 226.919 235.227 227.312 235.227 227.75V228.062C235.227 228.432 235.276 228.776 235.375 229.094C235.479 229.406 235.63 229.68 235.828 229.914C236.026 230.148 236.266 230.333 236.547 230.469C236.828 230.599 237.148 230.664 237.508 230.664C237.961 230.664 238.365 230.573 238.719 230.391C239.073 230.208 239.38 229.951 239.641 229.617L240.633 230.578C240.451 230.844 240.214 231.099 239.922 231.344C239.63 231.583 239.273 231.779 238.852 231.93C238.435 232.081 237.951 232.156 237.398 232.156ZM245.703 230.656C246.01 230.656 246.286 230.596 246.531 230.477C246.781 230.352 246.982 230.18 247.133 229.961C247.289 229.742 247.375 229.49 247.391 229.203H249.164C249.154 229.75 248.992 230.247 248.68 230.695C248.367 231.143 247.953 231.5 247.438 231.766C246.922 232.026 246.352 232.156 245.727 232.156C245.081 232.156 244.518 232.047 244.039 231.828C243.56 231.604 243.161 231.297 242.844 230.906C242.526 230.516 242.286 230.065 242.125 229.555C241.969 229.044 241.891 228.497 241.891 227.914V227.641C241.891 227.057 241.969 226.51 242.125 226C242.286 225.484 242.526 225.031 242.844 224.641C243.161 224.25 243.56 223.945 244.039 223.727C244.518 223.503 245.078 223.391 245.719 223.391C246.396 223.391 246.99 223.526 247.5 223.797C248.01 224.062 248.411 224.435 248.703 224.914C249 225.388 249.154 225.94 249.164 226.57H247.391C247.375 226.258 247.297 225.977 247.156 225.727C247.021 225.471 246.828 225.268 246.578 225.117C246.333 224.966 246.039 224.891 245.695 224.891C245.315 224.891 245 224.969 244.75 225.125C244.5 225.276 244.305 225.484 244.164 225.75C244.023 226.01 243.922 226.305 243.859 226.633C243.802 226.956 243.773 227.292 243.773 227.641V227.914C243.773 228.263 243.802 228.602 243.859 228.93C243.917 229.258 244.016 229.552 244.156 229.812C244.302 230.068 244.5 230.273 244.75 230.43C245 230.581 245.318 230.656 245.703 230.656ZM254.484 223.547V224.922H249.719V223.547H254.484ZM251.094 221.477H252.977V229.664C252.977 229.924 253.013 230.125 253.086 230.266C253.164 230.401 253.271 230.492 253.406 230.539C253.542 230.586 253.701 230.609 253.883 230.609C254.013 230.609 254.138 230.602 254.258 230.586C254.378 230.57 254.474 230.555 254.547 230.539L254.555 231.977C254.398 232.023 254.216 232.065 254.008 232.102C253.805 232.138 253.57 232.156 253.305 232.156C252.872 232.156 252.49 232.081 252.156 231.93C251.823 231.773 251.562 231.521 251.375 231.172C251.188 230.823 251.094 230.359 251.094 229.781V221.477ZM259.664 232.156C259.039 232.156 258.474 232.055 257.969 231.852C257.469 231.643 257.042 231.354 256.688 230.984C256.339 230.615 256.07 230.18 255.883 229.68C255.695 229.18 255.602 228.641 255.602 228.062V227.75C255.602 227.089 255.698 226.49 255.891 225.953C256.083 225.417 256.352 224.958 256.695 224.578C257.039 224.193 257.445 223.898 257.914 223.695C258.383 223.492 258.891 223.391 259.438 223.391C260.042 223.391 260.57 223.492 261.023 223.695C261.477 223.898 261.852 224.185 262.148 224.555C262.451 224.919 262.674 225.354 262.82 225.859C262.971 226.365 263.047 226.922 263.047 227.531V228.336H256.516V226.984H261.188V226.836C261.177 226.497 261.109 226.18 260.984 225.883C260.865 225.586 260.68 225.346 260.43 225.164C260.18 224.982 259.846 224.891 259.43 224.891C259.117 224.891 258.839 224.958 258.594 225.094C258.354 225.224 258.154 225.414 257.992 225.664C257.831 225.914 257.706 226.216 257.617 226.57C257.534 226.919 257.492 227.312 257.492 227.75V228.062C257.492 228.432 257.542 228.776 257.641 229.094C257.745 229.406 257.896 229.68 258.094 229.914C258.292 230.148 258.531 230.333 258.812 230.469C259.094 230.599 259.414 230.664 259.773 230.664C260.227 230.664 260.63 230.573 260.984 230.391C261.339 230.208 261.646 229.951 261.906 229.617L262.898 230.578C262.716 230.844 262.479 231.099 262.188 231.344C261.896 231.583 261.539 231.779 261.117 231.93C260.701 232.081 260.216 232.156 259.664 232.156Z" fill="white"/>
<rect x="60" y="10" width="59" height="16" rx="2" fill="#E7E8EA"/>
<rect x="60" y="28" width="294" height="48" rx="2" fill="#F3F4F4"/>
<rect x="60" y="98" width="59" height="16" rx="2" fill="#E7E8EA"/>
<rect x="60" y="116" width="294" height="48" rx="2" fill="#F3F4F4"/>
<rect x="106" y="268" width="202" height="16" rx="2" fill="#E7E8EA"/>
</g>
<path d="M0 412H412V441C412 452.046 403.046 461 392 461H20C8.95431 461 0 452.046 0 441V412Z" fill="#E65454"/>
<path d="M33.6491 431.351C33.4243 431.126 33.1195 431 32.8017 431C32.4839 431 32.1791 431.126 31.9543 431.351L28.0075 435.298L24.0607 431.351C23.8346 431.133 23.5319 431.012 23.2176 431.015C22.9033 431.017 22.6027 431.143 22.3805 431.366C22.1583 431.588 22.0322 431.888 22.0295 432.203C22.0268 432.517 22.1476 432.82 22.3659 433.046L26.3127 436.993L22.3659 440.939C22.2514 441.05 22.1601 441.182 22.0973 441.328C22.0345 441.475 22.0014 441.632 22 441.791C21.9987 441.95 22.029 442.108 22.0893 442.255C22.1495 442.403 22.2385 442.536 22.351 442.649C22.4636 442.761 22.5974 442.85 22.7447 442.911C22.892 442.971 23.0498 443.001 23.209 443C23.3681 442.999 23.5254 442.966 23.6716 442.903C23.8178 442.84 23.9501 442.749 24.0607 442.634L28.0075 438.687L31.9543 442.634C32.1804 442.852 32.4831 442.973 32.7974 442.97C33.1116 442.968 33.4123 442.842 33.6345 442.619C33.8567 442.397 33.9828 442.097 33.9855 441.782C33.9882 441.468 33.8674 441.165 33.6491 440.939L29.7022 436.993L33.6491 433.046C33.8738 432.821 34 432.516 34 432.198C34 431.88 33.8738 431.576 33.6491 431.351Z" fill="#142735"/>
<path d="M51.0625 442H48.1449V432.545H51.1918C52.1089 432.545 52.8937 432.735 53.5462 433.113C54.1986 433.489 54.6987 434.029 55.0465 434.734C55.3943 435.435 55.5682 436.276 55.5682 437.254C55.5682 438.239 55.3928 439.087 55.0419 439.798C54.6911 440.506 54.1802 441.051 53.5092 441.432C52.8383 441.811 52.0227 442 51.0625 442ZM49.2898 440.984H50.9886C51.7704 440.984 52.4182 440.834 52.9322 440.532C53.4461 440.23 53.8293 439.801 54.0817 439.244C54.334 438.687 54.4602 438.024 54.4602 437.254C54.4602 436.491 54.3356 435.834 54.0863 435.283C53.837 434.729 53.4646 434.304 52.9691 434.009C52.4736 433.71 51.8565 433.561 51.1179 433.561H49.2898V440.984ZM60.2216 442.148C59.5814 442.148 59.0198 441.995 58.5366 441.691C58.0565 441.386 57.681 440.96 57.4102 440.412C57.1424 439.864 57.0085 439.224 57.0085 438.491C57.0085 437.753 57.1424 437.108 57.4102 436.557C57.681 436.006 58.0565 435.578 58.5366 435.274C59.0198 434.969 59.5814 434.817 60.2216 434.817C60.8617 434.817 61.4219 434.969 61.902 435.274C62.3852 435.578 62.7607 436.006 63.0284 436.557C63.2992 437.108 63.4347 437.753 63.4347 438.491C63.4347 439.224 63.2992 439.864 63.0284 440.412C62.7607 440.96 62.3852 441.386 61.902 441.691C61.4219 441.995 60.8617 442.148 60.2216 442.148ZM60.2216 441.169C60.7079 441.169 61.108 441.044 61.4219 440.795C61.7358 440.546 61.9682 440.218 62.119 439.812C62.2698 439.406 62.3452 438.965 62.3452 438.491C62.3452 438.018 62.2698 437.576 62.119 437.167C61.9682 436.757 61.7358 436.426 61.4219 436.174C61.108 435.922 60.7079 435.795 60.2216 435.795C59.7353 435.795 59.3352 435.922 59.0213 436.174C58.7074 436.426 58.475 436.757 58.3242 437.167C58.1734 437.576 58.098 438.018 58.098 438.491C58.098 438.965 58.1734 439.406 58.3242 439.812C58.475 440.218 58.7074 440.546 59.0213 440.795C59.3352 441.044 59.7353 441.169 60.2216 441.169ZM66.1872 437.734V442H65.0977V434.909H66.1503V436.017H66.2426C66.4088 435.657 66.6612 435.368 66.9997 435.149C67.3383 434.928 67.7753 434.817 68.3108 434.817C68.7909 434.817 69.211 434.915 69.5711 435.112C69.9312 435.306 70.2113 435.602 70.4113 435.999C70.6114 436.393 70.7114 436.891 70.7114 437.494V442H69.6219V437.568C69.6219 437.011 69.4772 436.577 69.1879 436.266C68.8986 435.952 68.5016 435.795 67.9969 435.795C67.6491 435.795 67.3383 435.871 67.0644 436.022C66.7935 436.172 66.5796 436.393 66.4227 436.682C66.2657 436.971 66.1872 437.322 66.1872 437.734ZM73.6625 432.545V433.376C73.6625 433.629 73.6163 433.898 73.524 434.184C73.4347 434.467 73.3024 434.743 73.127 435.011C72.9546 435.275 72.7453 435.506 72.4991 435.703L71.9082 435.223C72.1021 434.946 72.2698 434.658 72.4114 434.36C72.556 434.058 72.6284 433.737 72.6284 433.395V432.545H73.6625ZM78.3759 434.909V435.832H74.7012V434.909H78.3759ZM75.7722 433.21H76.8617V439.969C76.8617 440.277 76.9063 440.507 76.9956 440.661C77.0879 440.812 77.2048 440.914 77.3464 440.966C77.4911 441.015 77.6434 441.04 77.8034 441.04C77.9235 441.04 78.022 441.034 78.0989 441.021C78.1758 441.006 78.2374 440.994 78.2836 440.984L78.5051 441.963C78.4313 441.991 78.3282 442.018 78.1958 442.046C78.0635 442.077 77.8958 442.092 77.6926 442.092C77.3849 442.092 77.0833 442.026 76.7878 441.894C76.4954 441.761 76.2523 441.56 76.0584 441.289C75.8676 441.018 75.7722 440.677 75.7722 440.264V433.21Z" fill="#142735"/>
<g clip-path="url(#clip1_123_3903)">
<path d="M845 20C845 8.9543 836.046 0 825 0H454C442.954 0 434 8.95431 434 20V404H845V20Z" fill="#F3F4F4"/>
<rect x="445" y="-42" width="390" height="428" rx="16" fill="white"/>
<rect x="493" y="268" width="294" height="50" rx="2" fill="#055FD2"/>
<path d="M588.336 294.586V286.625H590.289V294.586C590.289 295.341 590.128 295.984 589.805 296.516C589.482 297.047 589.042 297.453 588.484 297.734C587.927 298.016 587.294 298.156 586.586 298.156C585.862 298.156 585.219 298.034 584.656 297.789C584.099 297.544 583.661 297.169 583.344 296.664C583.026 296.159 582.867 295.518 582.867 294.742H584.836C584.836 295.19 584.906 295.552 585.047 295.828C585.193 296.099 585.396 296.297 585.656 296.422C585.922 296.542 586.232 296.602 586.586 296.602C586.924 296.602 587.224 296.526 587.484 296.375C587.75 296.219 587.958 295.992 588.109 295.695C588.26 295.393 588.336 295.023 588.336 294.586ZM596.086 298.156C595.461 298.156 594.896 298.055 594.391 297.852C593.891 297.643 593.464 297.354 593.109 296.984C592.76 296.615 592.492 296.18 592.305 295.68C592.117 295.18 592.023 294.641 592.023 294.062V293.75C592.023 293.089 592.12 292.49 592.312 291.953C592.505 291.417 592.773 290.958 593.117 290.578C593.461 290.193 593.867 289.898 594.336 289.695C594.805 289.492 595.312 289.391 595.859 289.391C596.464 289.391 596.992 289.492 597.445 289.695C597.898 289.898 598.273 290.185 598.57 290.555C598.872 290.919 599.096 291.354 599.242 291.859C599.393 292.365 599.469 292.922 599.469 293.531V294.336H592.938V292.984H597.609V292.836C597.599 292.497 597.531 292.18 597.406 291.883C597.286 291.586 597.102 291.346 596.852 291.164C596.602 290.982 596.268 290.891 595.852 290.891C595.539 290.891 595.26 290.958 595.016 291.094C594.776 291.224 594.576 291.414 594.414 291.664C594.253 291.914 594.128 292.216 594.039 292.57C593.956 292.919 593.914 293.312 593.914 293.75V294.062C593.914 294.432 593.964 294.776 594.062 295.094C594.167 295.406 594.318 295.68 594.516 295.914C594.714 296.148 594.953 296.333 595.234 296.469C595.516 296.599 595.836 296.664 596.195 296.664C596.648 296.664 597.052 296.573 597.406 296.391C597.76 296.208 598.068 295.951 598.328 295.617L599.32 296.578C599.138 296.844 598.901 297.099 598.609 297.344C598.318 297.583 597.961 297.779 597.539 297.93C597.122 298.081 596.638 298.156 596.086 298.156ZM606.805 291.266V298H604.922V289.547H606.695L606.805 291.266ZM606.5 293.461L605.859 293.453C605.859 292.87 605.932 292.331 606.078 291.836C606.224 291.341 606.438 290.911 606.719 290.547C607 290.177 607.349 289.893 607.766 289.695C608.188 289.492 608.674 289.391 609.227 289.391C609.612 289.391 609.964 289.448 610.281 289.562C610.604 289.672 610.883 289.846 611.117 290.086C611.357 290.326 611.539 290.633 611.664 291.008C611.794 291.383 611.859 291.836 611.859 292.367V298H609.977V292.531C609.977 292.12 609.914 291.797 609.789 291.562C609.669 291.328 609.495 291.161 609.266 291.062C609.042 290.958 608.773 290.906 608.461 290.906C608.107 290.906 607.805 290.974 607.555 291.109C607.31 291.245 607.109 291.43 606.953 291.664C606.797 291.898 606.682 292.169 606.609 292.477C606.536 292.784 606.5 293.112 606.5 293.461ZM611.742 292.961L610.859 293.156C610.859 292.646 610.93 292.164 611.07 291.711C611.216 291.253 611.427 290.852 611.703 290.508C611.984 290.159 612.331 289.885 612.742 289.688C613.154 289.49 613.625 289.391 614.156 289.391C614.589 289.391 614.974 289.451 615.312 289.57C615.656 289.685 615.948 289.867 616.188 290.117C616.427 290.367 616.609 290.693 616.734 291.094C616.859 291.49 616.922 291.969 616.922 292.531V298H615.031V292.523C615.031 292.096 614.969 291.766 614.844 291.531C614.724 291.297 614.552 291.135 614.328 291.047C614.104 290.953 613.836 290.906 613.523 290.906C613.232 290.906 612.974 290.961 612.75 291.07C612.531 291.174 612.346 291.323 612.195 291.516C612.044 291.703 611.93 291.919 611.852 292.164C611.779 292.409 611.742 292.674 611.742 292.961ZM622.586 298.156C621.961 298.156 621.396 298.055 620.891 297.852C620.391 297.643 619.964 297.354 619.609 296.984C619.26 296.615 618.992 296.18 618.805 295.68C618.617 295.18 618.523 294.641 618.523 294.062V293.75C618.523 293.089 618.62 292.49 618.812 291.953C619.005 291.417 619.273 290.958 619.617 290.578C619.961 290.193 620.367 289.898 620.836 289.695C621.305 289.492 621.812 289.391 622.359 289.391C622.964 289.391 623.492 289.492 623.945 289.695C624.398 289.898 624.773 290.185 625.07 290.555C625.372 290.919 625.596 291.354 625.742 291.859C625.893 292.365 625.969 292.922 625.969 293.531V294.336H619.438V292.984H624.109V292.836C624.099 292.497 624.031 292.18 623.906 291.883C623.786 291.586 623.602 291.346 623.352 291.164C623.102 290.982 622.768 290.891 622.352 290.891C622.039 290.891 621.76 290.958 621.516 291.094C621.276 291.224 621.076 291.414 620.914 291.664C620.753 291.914 620.628 292.216 620.539 292.57C620.456 292.919 620.414 293.312 620.414 293.75V294.062C620.414 294.432 620.464 294.776 620.562 295.094C620.667 295.406 620.818 295.68 621.016 295.914C621.214 296.148 621.453 296.333 621.734 296.469C622.016 296.599 622.336 296.664 622.695 296.664C623.148 296.664 623.552 296.573 623.906 296.391C624.26 296.208 624.568 295.951 624.828 295.617L625.82 296.578C625.638 296.844 625.401 297.099 625.109 297.344C624.818 297.583 624.461 297.779 624.039 297.93C623.622 298.081 623.138 298.156 622.586 298.156ZM634.875 296.656C635.182 296.656 635.458 296.596 635.703 296.477C635.953 296.352 636.154 296.18 636.305 295.961C636.461 295.742 636.547 295.49 636.562 295.203H638.336C638.326 295.75 638.164 296.247 637.852 296.695C637.539 297.143 637.125 297.5 636.609 297.766C636.094 298.026 635.523 298.156 634.898 298.156C634.253 298.156 633.69 298.047 633.211 297.828C632.732 297.604 632.333 297.297 632.016 296.906C631.698 296.516 631.458 296.065 631.297 295.555C631.141 295.044 631.062 294.497 631.062 293.914V293.641C631.062 293.057 631.141 292.51 631.297 292C631.458 291.484 631.698 291.031 632.016 290.641C632.333 290.25 632.732 289.945 633.211 289.727C633.69 289.503 634.25 289.391 634.891 289.391C635.568 289.391 636.161 289.526 636.672 289.797C637.182 290.062 637.583 290.435 637.875 290.914C638.172 291.388 638.326 291.94 638.336 292.57H636.562C636.547 292.258 636.469 291.977 636.328 291.727C636.193 291.471 636 291.268 635.75 291.117C635.505 290.966 635.211 290.891 634.867 290.891C634.487 290.891 634.172 290.969 633.922 291.125C633.672 291.276 633.477 291.484 633.336 291.75C633.195 292.01 633.094 292.305 633.031 292.633C632.974 292.956 632.945 293.292 632.945 293.641V293.914C632.945 294.263 632.974 294.602 633.031 294.93C633.089 295.258 633.188 295.552 633.328 295.812C633.474 296.068 633.672 296.273 633.922 296.43C634.172 296.581 634.49 296.656 634.875 296.656ZM639.422 293.867V293.688C639.422 293.078 639.51 292.513 639.688 291.992C639.865 291.466 640.12 291.01 640.453 290.625C640.792 290.234 641.203 289.932 641.688 289.719C642.177 289.5 642.729 289.391 643.344 289.391C643.964 289.391 644.516 289.5 645 289.719C645.49 289.932 645.904 290.234 646.242 290.625C646.581 291.01 646.839 291.466 647.016 291.992C647.193 292.513 647.281 293.078 647.281 293.688V293.867C647.281 294.477 647.193 295.042 647.016 295.562C646.839 296.083 646.581 296.539 646.242 296.93C645.904 297.315 645.492 297.617 645.008 297.836C644.523 298.049 643.974 298.156 643.359 298.156C642.74 298.156 642.185 298.049 641.695 297.836C641.211 297.617 640.799 297.315 640.461 296.93C640.122 296.539 639.865 296.083 639.688 295.562C639.51 295.042 639.422 294.477 639.422 293.867ZM641.305 293.688V293.867C641.305 294.247 641.344 294.607 641.422 294.945C641.5 295.284 641.622 295.581 641.789 295.836C641.956 296.091 642.169 296.292 642.43 296.438C642.69 296.583 643 296.656 643.359 296.656C643.708 296.656 644.01 296.583 644.266 296.438C644.526 296.292 644.74 296.091 644.906 295.836C645.073 295.581 645.195 295.284 645.273 294.945C645.357 294.607 645.398 294.247 645.398 293.867V293.688C645.398 293.312 645.357 292.958 645.273 292.625C645.195 292.286 645.07 291.987 644.898 291.727C644.732 291.466 644.518 291.263 644.258 291.117C644.003 290.966 643.698 290.891 643.344 290.891C642.99 290.891 642.682 290.966 642.422 291.117C642.167 291.263 641.956 291.466 641.789 291.727C641.622 291.987 641.5 292.286 641.422 292.625C641.344 292.958 641.305 293.312 641.305 293.688ZM650.727 291.352V298H648.844V289.547H650.617L650.727 291.352ZM650.391 293.461L649.781 293.453C649.786 292.854 649.87 292.305 650.031 291.805C650.198 291.305 650.427 290.875 650.719 290.516C651.016 290.156 651.37 289.88 651.781 289.688C652.193 289.49 652.651 289.391 653.156 289.391C653.562 289.391 653.93 289.448 654.258 289.562C654.591 289.672 654.875 289.852 655.109 290.102C655.349 290.352 655.531 290.677 655.656 291.078C655.781 291.474 655.844 291.961 655.844 292.539V298H653.953V292.531C653.953 292.125 653.893 291.805 653.773 291.57C653.659 291.331 653.49 291.161 653.266 291.062C653.047 290.958 652.773 290.906 652.445 290.906C652.122 290.906 651.833 290.974 651.578 291.109C651.323 291.245 651.107 291.43 650.93 291.664C650.758 291.898 650.625 292.169 650.531 292.477C650.438 292.784 650.391 293.112 650.391 293.461ZM659.633 291.352V298H657.75V289.547H659.523L659.633 291.352ZM659.297 293.461L658.688 293.453C658.693 292.854 658.776 292.305 658.938 291.805C659.104 291.305 659.333 290.875 659.625 290.516C659.922 290.156 660.276 289.88 660.688 289.688C661.099 289.49 661.557 289.391 662.062 289.391C662.469 289.391 662.836 289.448 663.164 289.562C663.497 289.672 663.781 289.852 664.016 290.102C664.255 290.352 664.438 290.677 664.562 291.078C664.688 291.474 664.75 291.961 664.75 292.539V298H662.859V292.531C662.859 292.125 662.799 291.805 662.68 291.57C662.565 291.331 662.396 291.161 662.172 291.062C661.953 290.958 661.68 290.906 661.352 290.906C661.029 290.906 660.74 290.974 660.484 291.109C660.229 291.245 660.013 291.43 659.836 291.664C659.664 291.898 659.531 292.169 659.438 292.477C659.344 292.784 659.297 293.112 659.297 293.461ZM670.398 298.156C669.773 298.156 669.208 298.055 668.703 297.852C668.203 297.643 667.776 297.354 667.422 296.984C667.073 296.615 666.805 296.18 666.617 295.68C666.43 295.18 666.336 294.641 666.336 294.062V293.75C666.336 293.089 666.432 292.49 666.625 291.953C666.818 291.417 667.086 290.958 667.43 290.578C667.773 290.193 668.18 289.898 668.648 289.695C669.117 289.492 669.625 289.391 670.172 289.391C670.776 289.391 671.305 289.492 671.758 289.695C672.211 289.898 672.586 290.185 672.883 290.555C673.185 290.919 673.409 291.354 673.555 291.859C673.706 292.365 673.781 292.922 673.781 293.531V294.336H667.25V292.984H671.922V292.836C671.911 292.497 671.844 292.18 671.719 291.883C671.599 291.586 671.414 291.346 671.164 291.164C670.914 290.982 670.581 290.891 670.164 290.891C669.852 290.891 669.573 290.958 669.328 291.094C669.089 291.224 668.888 291.414 668.727 291.664C668.565 291.914 668.44 292.216 668.352 292.57C668.268 292.919 668.227 293.312 668.227 293.75V294.062C668.227 294.432 668.276 294.776 668.375 295.094C668.479 295.406 668.63 295.68 668.828 295.914C669.026 296.148 669.266 296.333 669.547 296.469C669.828 296.599 670.148 296.664 670.508 296.664C670.961 296.664 671.365 296.573 671.719 296.391C672.073 296.208 672.38 295.951 672.641 295.617L673.633 296.578C673.451 296.844 673.214 297.099 672.922 297.344C672.63 297.583 672.273 297.779 671.852 297.93C671.435 298.081 670.951 298.156 670.398 298.156ZM678.703 296.656C679.01 296.656 679.286 296.596 679.531 296.477C679.781 296.352 679.982 296.18 680.133 295.961C680.289 295.742 680.375 295.49 680.391 295.203H682.164C682.154 295.75 681.992 296.247 681.68 296.695C681.367 297.143 680.953 297.5 680.438 297.766C679.922 298.026 679.352 298.156 678.727 298.156C678.081 298.156 677.518 298.047 677.039 297.828C676.56 297.604 676.161 297.297 675.844 296.906C675.526 296.516 675.286 296.065 675.125 295.555C674.969 295.044 674.891 294.497 674.891 293.914V293.641C674.891 293.057 674.969 292.51 675.125 292C675.286 291.484 675.526 291.031 675.844 290.641C676.161 290.25 676.56 289.945 677.039 289.727C677.518 289.503 678.078 289.391 678.719 289.391C679.396 289.391 679.99 289.526 680.5 289.797C681.01 290.062 681.411 290.435 681.703 290.914C682 291.388 682.154 291.94 682.164 292.57H680.391C680.375 292.258 680.297 291.977 680.156 291.727C680.021 291.471 679.828 291.268 679.578 291.117C679.333 290.966 679.039 290.891 678.695 290.891C678.315 290.891 678 290.969 677.75 291.125C677.5 291.276 677.305 291.484 677.164 291.75C677.023 292.01 676.922 292.305 676.859 292.633C676.802 292.956 676.773 293.292 676.773 293.641V293.914C676.773 294.263 676.802 294.602 676.859 294.93C676.917 295.258 677.016 295.552 677.156 295.812C677.302 296.068 677.5 296.273 677.75 296.43C678 296.581 678.318 296.656 678.703 296.656ZM687.484 289.547V290.922H682.719V289.547H687.484ZM684.094 287.477H685.977V295.664C685.977 295.924 686.013 296.125 686.086 296.266C686.164 296.401 686.271 296.492 686.406 296.539C686.542 296.586 686.701 296.609 686.883 296.609C687.013 296.609 687.138 296.602 687.258 296.586C687.378 296.57 687.474 296.555 687.547 296.539L687.555 297.977C687.398 298.023 687.216 298.065 687.008 298.102C686.805 298.138 686.57 298.156 686.305 298.156C685.872 298.156 685.49 298.081 685.156 297.93C684.823 297.773 684.562 297.521 684.375 297.172C684.188 296.823 684.094 296.359 684.094 295.781V287.477ZM692.664 298.156C692.039 298.156 691.474 298.055 690.969 297.852C690.469 297.643 690.042 297.354 689.688 296.984C689.339 296.615 689.07 296.18 688.883 295.68C688.695 295.18 688.602 294.641 688.602 294.062V293.75C688.602 293.089 688.698 292.49 688.891 291.953C689.083 291.417 689.352 290.958 689.695 290.578C690.039 290.193 690.445 289.898 690.914 289.695C691.383 289.492 691.891 289.391 692.438 289.391C693.042 289.391 693.57 289.492 694.023 289.695C694.477 289.898 694.852 290.185 695.148 290.555C695.451 290.919 695.674 291.354 695.82 291.859C695.971 292.365 696.047 292.922 696.047 293.531V294.336H689.516V292.984H694.188V292.836C694.177 292.497 694.109 292.18 693.984 291.883C693.865 291.586 693.68 291.346 693.43 291.164C693.18 290.982 692.846 290.891 692.43 290.891C692.117 290.891 691.839 290.958 691.594 291.094C691.354 291.224 691.154 291.414 690.992 291.664C690.831 291.914 690.706 292.216 690.617 292.57C690.534 292.919 690.492 293.312 690.492 293.75V294.062C690.492 294.432 690.542 294.776 690.641 295.094C690.745 295.406 690.896 295.68 691.094 295.914C691.292 296.148 691.531 296.333 691.812 296.469C692.094 296.599 692.414 296.664 692.773 296.664C693.227 296.664 693.63 296.573 693.984 296.391C694.339 296.208 694.646 295.951 694.906 295.617L695.898 296.578C695.716 296.844 695.479 297.099 695.188 297.344C694.896 297.583 694.539 297.779 694.117 297.93C693.701 298.081 693.216 298.156 692.664 298.156Z" fill="white"/>
<rect x="534" y="358" width="202" height="16" rx="2" fill="#F3F4F4"/>
<rect x="534" y="330" width="202" height="16" rx="2" fill="#E7E8EA"/>
<rect x="493" y="76" width="59" height="16" rx="2" fill="#E7E8EA"/>
<rect x="493" y="94" width="294" height="48" rx="2" fill="#F3F4F4"/>
<rect x="493" y="164" width="59" height="16" rx="2" fill="#E7E8EA"/>
<rect x="493" y="182" width="294" height="48" rx="2" fill="#F3F4F4"/>
<rect x="587" y="9" width="96" height="29" rx="2" fill="#E7E8EA"/>
</g>
<path d="M434 412H845V441C845 452.046 836.046 461 825 461H454C442.954 461 434 452.046 434 441V412Z" fill="#A0E659"/>
<path d="M467.649 431.351C467.424 431.126 467.12 431 466.802 431C466.484 431 466.179 431.126 465.954 431.351L462.007 435.298L458.061 431.351C457.835 431.133 457.532 431.012 457.218 431.015C456.903 431.017 456.603 431.143 456.381 431.366C456.158 431.588 456.032 431.888 456.03 432.203C456.027 432.517 456.148 432.82 456.366 433.046L460.313 436.993L456.366 440.939C456.251 441.05 456.16 441.182 456.097 441.328C456.034 441.475 456.001 441.632 456 441.791C455.999 441.95 456.029 442.108 456.089 442.255C456.15 442.403 456.239 442.536 456.351 442.649C456.464 442.761 456.597 442.85 456.745 442.911C456.892 442.971 457.05 443.001 457.209 443C457.368 442.999 457.525 442.966 457.672 442.903C457.818 442.84 457.95 442.749 458.061 442.634L462.007 438.687L465.954 442.634C466.18 442.852 466.483 442.973 466.797 442.97C467.112 442.968 467.412 442.842 467.634 442.619C467.857 442.397 467.983 442.097 467.985 441.782C467.988 441.468 467.867 441.165 467.649 440.939L463.702 436.993L467.649 433.046C467.874 432.821 468 432.516 468 432.198C468 431.88 467.874 431.576 467.649 431.351Z" fill="#142735"/>
<path d="M485.062 442H482.145V432.545H485.192C486.109 432.545 486.894 432.735 487.546 433.113C488.199 433.489 488.699 434.029 489.047 434.734C489.394 435.435 489.568 436.276 489.568 437.254C489.568 438.239 489.393 439.087 489.042 439.798C488.691 440.506 488.18 441.051 487.509 441.432C486.838 441.811 486.023 442 485.062 442ZM483.29 440.984H484.989C485.77 440.984 486.418 440.834 486.932 440.532C487.446 440.23 487.829 439.801 488.082 439.244C488.334 438.687 488.46 438.024 488.46 437.254C488.46 436.491 488.336 435.834 488.086 435.283C487.837 434.729 487.465 434.304 486.969 434.009C486.474 433.71 485.857 433.561 485.118 433.561H483.29V440.984ZM494.222 442.148C493.581 442.148 493.02 441.995 492.537 441.691C492.056 441.386 491.681 440.96 491.41 440.412C491.142 439.864 491.009 439.224 491.009 438.491C491.009 437.753 491.142 437.108 491.41 436.557C491.681 436.006 492.056 435.578 492.537 435.274C493.02 434.969 493.581 434.817 494.222 434.817C494.862 434.817 495.422 434.969 495.902 435.274C496.385 435.578 496.761 436.006 497.028 436.557C497.299 437.108 497.435 437.753 497.435 438.491C497.435 439.224 497.299 439.864 497.028 440.412C496.761 440.96 496.385 441.386 495.902 441.691C495.422 441.995 494.862 442.148 494.222 442.148ZM494.222 441.169C494.708 441.169 495.108 441.044 495.422 440.795C495.736 440.546 495.968 440.218 496.119 439.812C496.27 439.406 496.345 438.965 496.345 438.491C496.345 438.018 496.27 437.576 496.119 437.167C495.968 436.757 495.736 436.426 495.422 436.174C495.108 435.922 494.708 435.795 494.222 435.795C493.735 435.795 493.335 435.922 493.021 436.174C492.707 436.426 492.475 436.757 492.324 437.167C492.173 437.576 492.098 438.018 492.098 438.491C492.098 438.965 492.173 439.406 492.324 439.812C492.475 440.218 492.707 440.546 493.021 440.795C493.335 441.044 493.735 441.169 494.222 441.169Z" fill="#142735"/>
<defs>
<clipPath id="clip0_123_3903">
<path d="M411 20C411 8.9543 402.046 0 391 0H20C8.95432 0 0 8.95431 0 20V404H411V20Z" fill="white"/>
</clipPath>
<clipPath id="clip1_123_3903">
<path d="M845 20C845 8.9543 836.046 0 825 0H454C442.954 0 434 8.95431 434 20V404H845V20Z" fill="white"/>
</clipPath>
</defs>
</svg>
