<svg width="845" height="461" viewBox="0 0 845 461" fill="none" xmlns="http://www.w3.org/2000/svg">
<g clip-path="url(#clip0_123_3942)">
<path d="M411 20C411 8.9543 402.046 0 391 0H20C8.95432 0 0 8.95431 0 20V404H411V20Z" fill="#F3F4F4"/>
<rect x="152" y="111" width="107" height="48" rx="2" fill="#055FD2"/>
<g clip-path="url(#clip1_123_3942)">
<path fill-rule="evenodd" clip-rule="evenodd" d="M187.809 132.024H180.872L185.938 123.116C186.389 122.322 185.367 121.517 184.701 122.141L170.861 135.098C170.333 135.591 170.683 136.475 171.405 136.475H178.341L173.276 145.384C172.825 146.177 173.846 146.982 174.512 146.359L188.353 133.402C188.88 132.908 188.531 132.024 187.809 132.024Z" fill="white"/>
</g>
<path d="M212.281 138.445V140H206.57V138.445H212.281ZM207.117 128.625V140H205.156V128.625H207.117ZM218.375 138.305V134.273C218.375 133.971 218.32 133.711 218.211 133.492C218.102 133.273 217.935 133.104 217.711 132.984C217.492 132.865 217.216 132.805 216.883 132.805C216.576 132.805 216.31 132.857 216.086 132.961C215.862 133.065 215.688 133.206 215.562 133.383C215.438 133.56 215.375 133.76 215.375 133.984H213.5C213.5 133.651 213.581 133.328 213.742 133.016C213.904 132.703 214.138 132.424 214.445 132.18C214.753 131.935 215.12 131.742 215.547 131.602C215.974 131.461 216.453 131.391 216.984 131.391C217.62 131.391 218.182 131.497 218.672 131.711C219.167 131.924 219.555 132.247 219.836 132.68C220.122 133.107 220.266 133.643 220.266 134.289V138.047C220.266 138.432 220.292 138.779 220.344 139.086C220.401 139.388 220.482 139.651 220.586 139.875V140H218.656C218.568 139.797 218.497 139.539 218.445 139.227C218.398 138.909 218.375 138.602 218.375 138.305ZM218.648 134.859L218.664 136.023H217.312C216.964 136.023 216.656 136.057 216.391 136.125C216.125 136.188 215.904 136.281 215.727 136.406C215.549 136.531 215.417 136.682 215.328 136.859C215.24 137.036 215.195 137.237 215.195 137.461C215.195 137.685 215.247 137.891 215.352 138.078C215.456 138.26 215.607 138.404 215.805 138.508C216.008 138.612 216.253 138.664 216.539 138.664C216.924 138.664 217.26 138.586 217.547 138.43C217.839 138.268 218.068 138.073 218.234 137.844C218.401 137.609 218.49 137.388 218.5 137.18L219.109 138.016C219.047 138.229 218.94 138.458 218.789 138.703C218.638 138.948 218.44 139.182 218.195 139.406C217.956 139.625 217.667 139.805 217.328 139.945C216.995 140.086 216.609 140.156 216.172 140.156C215.62 140.156 215.128 140.047 214.695 139.828C214.263 139.604 213.924 139.305 213.68 138.93C213.435 138.549 213.312 138.12 213.312 137.641C213.312 137.193 213.396 136.797 213.562 136.453C213.734 136.104 213.984 135.812 214.312 135.578C214.646 135.344 215.052 135.167 215.531 135.047C216.01 134.922 216.557 134.859 217.172 134.859H218.648ZM222.242 128H224.125V138.195L223.945 140H222.242V128ZM229.641 135.695V135.859C229.641 136.484 229.57 137.06 229.43 137.586C229.294 138.107 229.086 138.56 228.805 138.945C228.529 139.331 228.185 139.63 227.773 139.844C227.367 140.052 226.896 140.156 226.359 140.156C225.833 140.156 225.375 140.057 224.984 139.859C224.594 139.661 224.266 139.38 224 139.016C223.74 138.651 223.529 138.216 223.367 137.711C223.206 137.206 223.091 136.648 223.023 136.039V135.516C223.091 134.901 223.206 134.344 223.367 133.844C223.529 133.339 223.74 132.904 224 132.539C224.266 132.169 224.591 131.885 224.977 131.688C225.367 131.49 225.823 131.391 226.344 131.391C226.885 131.391 227.362 131.495 227.773 131.703C228.19 131.911 228.536 132.208 228.812 132.594C229.089 132.974 229.294 133.427 229.43 133.953C229.57 134.479 229.641 135.06 229.641 135.695ZM227.758 135.859V135.695C227.758 135.315 227.727 134.958 227.664 134.625C227.602 134.286 227.497 133.99 227.352 133.734C227.211 133.479 227.018 133.279 226.773 133.133C226.534 132.982 226.234 132.906 225.875 132.906C225.542 132.906 225.255 132.964 225.016 133.078C224.776 133.193 224.576 133.349 224.414 133.547C224.253 133.745 224.125 133.974 224.031 134.234C223.943 134.495 223.883 134.776 223.852 135.078V136.492C223.898 136.883 223.997 137.242 224.148 137.57C224.305 137.893 224.523 138.154 224.805 138.352C225.086 138.544 225.448 138.641 225.891 138.641C226.24 138.641 226.534 138.57 226.773 138.43C227.013 138.289 227.203 138.094 227.344 137.844C227.49 137.589 227.594 137.292 227.656 136.953C227.724 136.615 227.758 136.25 227.758 135.859ZM234.961 140.156C234.336 140.156 233.771 140.055 233.266 139.852C232.766 139.643 232.339 139.354 231.984 138.984C231.635 138.615 231.367 138.18 231.18 137.68C230.992 137.18 230.898 136.641 230.898 136.062V135.75C230.898 135.089 230.995 134.49 231.188 133.953C231.38 133.417 231.648 132.958 231.992 132.578C232.336 132.193 232.742 131.898 233.211 131.695C233.68 131.492 234.188 131.391 234.734 131.391C235.339 131.391 235.867 131.492 236.32 131.695C236.773 131.898 237.148 132.185 237.445 132.555C237.747 132.919 237.971 133.354 238.117 133.859C238.268 134.365 238.344 134.922 238.344 135.531V136.336H231.812V134.984H236.484V134.836C236.474 134.497 236.406 134.18 236.281 133.883C236.161 133.586 235.977 133.346 235.727 133.164C235.477 132.982 235.143 132.891 234.727 132.891C234.414 132.891 234.135 132.958 233.891 133.094C233.651 133.224 233.451 133.414 233.289 133.664C233.128 133.914 233.003 134.216 232.914 134.57C232.831 134.919 232.789 135.312 232.789 135.75V136.062C232.789 136.432 232.839 136.776 232.938 137.094C233.042 137.406 233.193 137.68 233.391 137.914C233.589 138.148 233.828 138.333 234.109 138.469C234.391 138.599 234.711 138.664 235.07 138.664C235.523 138.664 235.927 138.573 236.281 138.391C236.635 138.208 236.943 137.951 237.203 137.617L238.195 138.578C238.013 138.844 237.776 139.099 237.484 139.344C237.193 139.583 236.836 139.779 236.414 139.93C235.997 140.081 235.513 140.156 234.961 140.156ZM241.828 128V140H239.938V128H241.828Z" fill="white"/>
<path d="M184 166.5V147" stroke="#DB1F60" stroke-dasharray="2 2"/>
<path d="M161.852 181.619C161.29 181.619 160.788 181.523 160.348 181.33C159.911 181.136 159.563 180.868 159.304 180.524C159.048 180.178 158.909 179.776 158.886 179.318H159.96C159.983 179.599 160.08 179.842 160.25 180.047C160.42 180.249 160.643 180.405 160.919 180.516C161.195 180.626 161.5 180.682 161.835 180.682C162.21 180.682 162.543 180.616 162.832 180.486C163.122 180.355 163.349 180.173 163.514 179.94C163.679 179.707 163.761 179.438 163.761 179.131C163.761 178.81 163.682 178.527 163.523 178.283C163.364 178.036 163.131 177.842 162.824 177.703C162.517 177.564 162.142 177.494 161.699 177.494H161V176.557H161.699C162.045 176.557 162.349 176.494 162.611 176.369C162.875 176.244 163.081 176.068 163.229 175.841C163.379 175.614 163.455 175.347 163.455 175.04C163.455 174.744 163.389 174.487 163.259 174.268C163.128 174.05 162.943 173.879 162.705 173.757C162.469 173.635 162.19 173.574 161.869 173.574C161.568 173.574 161.284 173.629 161.017 173.74C160.753 173.848 160.537 174.006 160.369 174.213C160.202 174.418 160.111 174.665 160.097 174.955H159.074C159.091 174.497 159.229 174.097 159.487 173.753C159.746 173.406 160.084 173.136 160.501 172.943C160.922 172.75 161.384 172.653 161.886 172.653C162.426 172.653 162.889 172.763 163.276 172.982C163.662 173.197 163.959 173.483 164.166 173.838C164.374 174.193 164.477 174.577 164.477 174.989C164.477 175.48 164.348 175.899 164.089 176.246C163.834 176.592 163.486 176.832 163.045 176.966V177.034C163.597 177.125 164.027 177.359 164.337 177.737C164.646 178.112 164.801 178.577 164.801 179.131C164.801 179.605 164.672 180.031 164.413 180.409C164.158 180.784 163.808 181.08 163.365 181.295C162.922 181.511 162.418 181.619 161.852 181.619ZM169.442 181.619C169.084 181.614 168.726 181.545 168.368 181.415C168.01 181.284 167.683 181.064 167.388 180.754C167.092 180.442 166.855 180.02 166.676 179.489C166.497 178.955 166.408 178.284 166.408 177.477C166.408 176.705 166.48 176.02 166.625 175.423C166.77 174.824 166.98 174.32 167.256 173.911C167.531 173.499 167.864 173.186 168.253 172.973C168.645 172.76 169.087 172.653 169.578 172.653C170.067 172.653 170.501 172.751 170.882 172.947C171.266 173.141 171.578 173.411 171.82 173.757C172.061 174.104 172.217 174.503 172.288 174.955H171.249C171.152 174.562 170.964 174.237 170.686 173.979C170.408 173.72 170.038 173.591 169.578 173.591C168.902 173.591 168.369 173.885 167.98 174.473C167.594 175.061 167.399 175.886 167.396 176.949H167.464C167.624 176.707 167.812 176.501 168.031 176.331C168.253 176.158 168.497 176.024 168.764 175.93C169.031 175.837 169.314 175.79 169.612 175.79C170.112 175.79 170.57 175.915 170.984 176.165C171.399 176.412 171.732 176.754 171.982 177.192C172.232 177.626 172.357 178.125 172.357 178.688C172.357 179.227 172.236 179.722 171.994 180.17C171.753 180.616 171.413 180.972 170.976 181.236C170.541 181.497 170.03 181.625 169.442 181.619ZM169.442 180.682C169.8 180.682 170.121 180.592 170.405 180.413C170.692 180.234 170.918 179.994 171.082 179.693C171.25 179.392 171.334 179.057 171.334 178.688C171.334 178.327 171.253 177.999 171.091 177.703C170.932 177.405 170.712 177.168 170.43 176.991C170.152 176.815 169.834 176.727 169.476 176.727C169.206 176.727 168.955 176.781 168.722 176.889C168.489 176.994 168.284 177.139 168.108 177.324C167.935 177.509 167.798 177.72 167.699 177.959C167.599 178.195 167.55 178.443 167.55 178.705C167.55 179.051 167.631 179.375 167.793 179.676C167.957 179.977 168.182 180.22 168.466 180.405C168.753 180.589 169.078 180.682 169.442 180.682ZM179.163 179.932L174.356 175.125L175.004 174.477L179.811 179.284L179.163 179.932ZM175.004 179.932L174.356 179.284L179.163 174.477L179.811 175.125L175.004 179.932ZM184.891 181.619C184.329 181.619 183.827 181.523 183.387 181.33C182.95 181.136 182.602 180.868 182.343 180.524C182.087 180.178 181.948 179.776 181.925 179.318H182.999C183.022 179.599 183.119 179.842 183.289 180.047C183.46 180.249 183.683 180.405 183.958 180.516C184.234 180.626 184.539 180.682 184.874 180.682C185.249 180.682 185.582 180.616 185.871 180.486C186.161 180.355 186.388 180.173 186.553 179.94C186.718 179.707 186.8 179.438 186.8 179.131C186.8 178.81 186.721 178.527 186.562 178.283C186.403 178.036 186.17 177.842 185.863 177.703C185.556 177.564 185.181 177.494 184.738 177.494H184.039V176.557H184.738C185.085 176.557 185.388 176.494 185.65 176.369C185.914 176.244 186.12 176.068 186.268 175.841C186.418 175.614 186.494 175.347 186.494 175.04C186.494 174.744 186.428 174.487 186.298 174.268C186.167 174.05 185.982 173.879 185.744 173.757C185.508 173.635 185.229 173.574 184.908 173.574C184.607 173.574 184.323 173.629 184.056 173.74C183.792 173.848 183.576 174.006 183.408 174.213C183.241 174.418 183.15 174.665 183.136 174.955H182.113C182.13 174.497 182.268 174.097 182.526 173.753C182.785 173.406 183.123 173.136 183.54 172.943C183.961 172.75 184.423 172.653 184.925 172.653C185.465 172.653 185.928 172.763 186.315 172.982C186.701 173.197 186.998 173.483 187.205 173.838C187.413 174.193 187.516 174.577 187.516 174.989C187.516 175.48 187.387 175.899 187.129 176.246C186.873 176.592 186.525 176.832 186.085 176.966V177.034C186.636 177.125 187.066 177.359 187.376 177.737C187.685 178.112 187.84 178.577 187.84 179.131C187.84 179.605 187.711 180.031 187.452 180.409C187.197 180.784 186.847 181.08 186.404 181.295C185.961 181.511 185.457 181.619 184.891 181.619ZM192.481 181.619C192.123 181.614 191.765 181.545 191.407 181.415C191.049 181.284 190.722 181.064 190.427 180.754C190.131 180.442 189.894 180.02 189.715 179.489C189.536 178.955 189.447 178.284 189.447 177.477C189.447 176.705 189.519 176.02 189.664 175.423C189.809 174.824 190.019 174.32 190.295 173.911C190.57 173.499 190.903 173.186 191.292 172.973C191.684 172.76 192.126 172.653 192.617 172.653C193.106 172.653 193.54 172.751 193.921 172.947C194.305 173.141 194.617 173.411 194.859 173.757C195.1 174.104 195.256 174.503 195.327 174.955H194.288C194.191 174.562 194.004 174.237 193.725 173.979C193.447 173.72 193.077 173.591 192.617 173.591C191.941 173.591 191.408 173.885 191.019 174.473C190.633 175.061 190.438 175.886 190.435 176.949H190.504C190.663 176.707 190.852 176.501 191.07 176.331C191.292 176.158 191.536 176.024 191.803 175.93C192.07 175.837 192.353 175.79 192.651 175.79C193.151 175.79 193.609 175.915 194.023 176.165C194.438 176.412 194.771 176.754 195.021 177.192C195.271 177.626 195.396 178.125 195.396 178.688C195.396 179.227 195.275 179.722 195.033 180.17C194.792 180.616 194.452 180.972 194.015 181.236C193.58 181.497 193.069 181.625 192.481 181.619ZM192.481 180.682C192.839 180.682 193.16 180.592 193.444 180.413C193.731 180.234 193.957 179.994 194.121 179.693C194.289 179.392 194.373 179.057 194.373 178.688C194.373 178.327 194.292 177.999 194.13 177.703C193.971 177.405 193.751 177.168 193.469 176.991C193.191 176.815 192.873 176.727 192.515 176.727C192.245 176.727 191.994 176.781 191.761 176.889C191.528 176.994 191.323 177.139 191.147 177.324C190.974 177.509 190.837 177.72 190.738 177.959C190.638 178.195 190.589 178.443 190.589 178.705C190.589 179.051 190.67 179.375 190.832 179.676C190.996 179.977 191.221 180.22 191.505 180.405C191.792 180.589 192.117 180.682 192.481 180.682ZM197.088 183.955V174.955H198.06V175.994H198.179C198.253 175.881 198.355 175.736 198.486 175.56C198.62 175.381 198.81 175.222 199.057 175.082C199.307 174.94 199.645 174.869 200.071 174.869C200.623 174.869 201.108 175.007 201.529 175.283C201.949 175.558 202.277 175.949 202.513 176.455C202.749 176.96 202.867 177.557 202.867 178.244C202.867 178.938 202.749 179.538 202.513 180.047C202.277 180.553 201.951 180.945 201.533 181.223C201.115 181.499 200.634 181.636 200.088 181.636C199.668 181.636 199.331 181.567 199.078 181.428C198.826 181.286 198.631 181.125 198.495 180.946C198.358 180.764 198.253 180.614 198.179 180.494H198.094V183.955H197.088ZM198.077 178.227C198.077 178.722 198.15 179.158 198.294 179.536C198.439 179.911 198.651 180.205 198.929 180.418C199.208 180.628 199.549 180.733 199.952 180.733C200.373 180.733 200.723 180.622 201.005 180.401C201.289 180.176 201.502 179.875 201.644 179.497C201.789 179.116 201.861 178.693 201.861 178.227C201.861 177.767 201.79 177.352 201.648 176.983C201.509 176.611 201.297 176.317 201.013 176.101C200.732 175.882 200.378 175.773 199.952 175.773C199.543 175.773 199.199 175.876 198.921 176.084C198.642 176.288 198.432 176.575 198.29 176.945C198.148 177.311 198.077 177.739 198.077 178.227ZM204.881 174.955L206.45 177.631L208.018 174.955H209.177L207.063 178.227L209.177 181.5H208.018L206.45 178.96L204.881 181.5H203.722L205.802 178.227L203.722 174.955H204.881Z" fill="#374A58"/>
<rect x="164" y="219" width="87" height="48" rx="2" fill="#055FD2"/>
<g clip-path="url(#clip2_123_3942)">
<path fill-rule="evenodd" clip-rule="evenodd" d="M184.915 241.678H181.832L184.083 237.718C184.284 237.365 183.83 237.008 183.534 237.285L177.382 243.043C177.148 243.263 177.303 243.656 177.624 243.656H180.707L178.456 247.615C178.255 247.968 178.709 248.326 179.005 248.048L185.157 242.29C185.391 242.07 185.236 241.678 184.915 241.678Z" fill="white"/>
</g>
<path d="M204.281 246.445V248H198.57V246.445H204.281ZM199.117 236.625V248H197.156V236.625H199.117ZM210.375 246.305V242.273C210.375 241.971 210.32 241.711 210.211 241.492C210.102 241.273 209.935 241.104 209.711 240.984C209.492 240.865 209.216 240.805 208.883 240.805C208.576 240.805 208.31 240.857 208.086 240.961C207.862 241.065 207.688 241.206 207.562 241.383C207.438 241.56 207.375 241.76 207.375 241.984H205.5C205.5 241.651 205.581 241.328 205.742 241.016C205.904 240.703 206.138 240.424 206.445 240.18C206.753 239.935 207.12 239.742 207.547 239.602C207.974 239.461 208.453 239.391 208.984 239.391C209.62 239.391 210.182 239.497 210.672 239.711C211.167 239.924 211.555 240.247 211.836 240.68C212.122 241.107 212.266 241.643 212.266 242.289V246.047C212.266 246.432 212.292 246.779 212.344 247.086C212.401 247.388 212.482 247.651 212.586 247.875V248H210.656C210.568 247.797 210.497 247.539 210.445 247.227C210.398 246.909 210.375 246.602 210.375 246.305ZM210.648 242.859L210.664 244.023H209.312C208.964 244.023 208.656 244.057 208.391 244.125C208.125 244.188 207.904 244.281 207.727 244.406C207.549 244.531 207.417 244.682 207.328 244.859C207.24 245.036 207.195 245.237 207.195 245.461C207.195 245.685 207.247 245.891 207.352 246.078C207.456 246.26 207.607 246.404 207.805 246.508C208.008 246.612 208.253 246.664 208.539 246.664C208.924 246.664 209.26 246.586 209.547 246.43C209.839 246.268 210.068 246.073 210.234 245.844C210.401 245.609 210.49 245.388 210.5 245.18L211.109 246.016C211.047 246.229 210.94 246.458 210.789 246.703C210.638 246.948 210.44 247.182 210.195 247.406C209.956 247.625 209.667 247.805 209.328 247.945C208.995 248.086 208.609 248.156 208.172 248.156C207.62 248.156 207.128 248.047 206.695 247.828C206.263 247.604 205.924 247.305 205.68 246.93C205.435 246.549 205.312 246.12 205.312 245.641C205.312 245.193 205.396 244.797 205.562 244.453C205.734 244.104 205.984 243.812 206.312 243.578C206.646 243.344 207.052 243.167 207.531 243.047C208.01 242.922 208.557 242.859 209.172 242.859H210.648ZM214.242 236H216.125V246.195L215.945 248H214.242V236ZM221.641 243.695V243.859C221.641 244.484 221.57 245.06 221.43 245.586C221.294 246.107 221.086 246.56 220.805 246.945C220.529 247.331 220.185 247.63 219.773 247.844C219.367 248.052 218.896 248.156 218.359 248.156C217.833 248.156 217.375 248.057 216.984 247.859C216.594 247.661 216.266 247.38 216 247.016C215.74 246.651 215.529 246.216 215.367 245.711C215.206 245.206 215.091 244.648 215.023 244.039V243.516C215.091 242.901 215.206 242.344 215.367 241.844C215.529 241.339 215.74 240.904 216 240.539C216.266 240.169 216.591 239.885 216.977 239.688C217.367 239.49 217.823 239.391 218.344 239.391C218.885 239.391 219.362 239.495 219.773 239.703C220.19 239.911 220.536 240.208 220.812 240.594C221.089 240.974 221.294 241.427 221.43 241.953C221.57 242.479 221.641 243.06 221.641 243.695ZM219.758 243.859V243.695C219.758 243.315 219.727 242.958 219.664 242.625C219.602 242.286 219.497 241.99 219.352 241.734C219.211 241.479 219.018 241.279 218.773 241.133C218.534 240.982 218.234 240.906 217.875 240.906C217.542 240.906 217.255 240.964 217.016 241.078C216.776 241.193 216.576 241.349 216.414 241.547C216.253 241.745 216.125 241.974 216.031 242.234C215.943 242.495 215.883 242.776 215.852 243.078V244.492C215.898 244.883 215.997 245.242 216.148 245.57C216.305 245.893 216.523 246.154 216.805 246.352C217.086 246.544 217.448 246.641 217.891 246.641C218.24 246.641 218.534 246.57 218.773 246.43C219.013 246.289 219.203 246.094 219.344 245.844C219.49 245.589 219.594 245.292 219.656 244.953C219.724 244.615 219.758 244.25 219.758 243.859ZM226.961 248.156C226.336 248.156 225.771 248.055 225.266 247.852C224.766 247.643 224.339 247.354 223.984 246.984C223.635 246.615 223.367 246.18 223.18 245.68C222.992 245.18 222.898 244.641 222.898 244.062V243.75C222.898 243.089 222.995 242.49 223.188 241.953C223.38 241.417 223.648 240.958 223.992 240.578C224.336 240.193 224.742 239.898 225.211 239.695C225.68 239.492 226.188 239.391 226.734 239.391C227.339 239.391 227.867 239.492 228.32 239.695C228.773 239.898 229.148 240.185 229.445 240.555C229.747 240.919 229.971 241.354 230.117 241.859C230.268 242.365 230.344 242.922 230.344 243.531V244.336H223.812V242.984H228.484V242.836C228.474 242.497 228.406 242.18 228.281 241.883C228.161 241.586 227.977 241.346 227.727 241.164C227.477 240.982 227.143 240.891 226.727 240.891C226.414 240.891 226.135 240.958 225.891 241.094C225.651 241.224 225.451 241.414 225.289 241.664C225.128 241.914 225.003 242.216 224.914 242.57C224.831 242.919 224.789 243.312 224.789 243.75V244.062C224.789 244.432 224.839 244.776 224.938 245.094C225.042 245.406 225.193 245.68 225.391 245.914C225.589 246.148 225.828 246.333 226.109 246.469C226.391 246.599 226.711 246.664 227.07 246.664C227.523 246.664 227.927 246.573 228.281 246.391C228.635 246.208 228.943 245.951 229.203 245.617L230.195 246.578C230.013 246.844 229.776 247.099 229.484 247.344C229.193 247.583 228.836 247.779 228.414 247.93C227.997 248.081 227.513 248.156 226.961 248.156ZM233.828 236V248H231.938V236H233.828Z" fill="white"/>
<path d="M181 274.5V255" stroke="#DB1F60" stroke-dasharray="2 2"/>
<path d="M160.972 280.773V289.5H159.915V281.881H159.864L157.733 283.295V282.222L159.915 280.773H160.972ZM166.379 289.619C166.021 289.614 165.663 289.545 165.305 289.415C164.947 289.284 164.621 289.064 164.325 288.754C164.03 288.442 163.793 288.02 163.614 287.489C163.435 286.955 163.345 286.284 163.345 285.477C163.345 284.705 163.418 284.02 163.562 283.423C163.707 282.824 163.918 282.32 164.193 281.911C164.469 281.499 164.801 281.186 165.19 280.973C165.582 280.76 166.024 280.653 166.516 280.653C167.004 280.653 167.439 280.751 167.82 280.947C168.203 281.141 168.516 281.411 168.757 281.757C168.999 282.104 169.155 282.503 169.226 282.955H168.186C168.089 282.562 167.902 282.237 167.624 281.979C167.345 281.72 166.976 281.591 166.516 281.591C165.839 281.591 165.307 281.885 164.918 282.473C164.531 283.061 164.337 283.886 164.334 284.949H164.402C164.561 284.707 164.75 284.501 164.969 284.331C165.19 284.158 165.435 284.024 165.702 283.93C165.969 283.837 166.251 283.79 166.55 283.79C167.05 283.79 167.507 283.915 167.922 284.165C168.337 284.412 168.669 284.754 168.919 285.192C169.169 285.626 169.294 286.125 169.294 286.688C169.294 287.227 169.173 287.722 168.932 288.17C168.69 288.616 168.351 288.972 167.913 289.236C167.479 289.497 166.967 289.625 166.379 289.619ZM166.379 288.682C166.737 288.682 167.058 288.592 167.342 288.413C167.629 288.234 167.855 287.994 168.02 287.693C168.188 287.392 168.271 287.057 168.271 286.688C168.271 286.327 168.19 285.999 168.028 285.703C167.869 285.405 167.649 285.168 167.368 284.991C167.089 284.815 166.771 284.727 166.413 284.727C166.143 284.727 165.892 284.781 165.659 284.889C165.426 284.994 165.222 285.139 165.045 285.324C164.872 285.509 164.736 285.72 164.636 285.959C164.537 286.195 164.487 286.443 164.487 286.705C164.487 287.051 164.568 287.375 164.73 287.676C164.895 287.977 165.119 288.22 165.403 288.405C165.69 288.589 166.016 288.682 166.379 288.682ZM176.1 287.932L171.294 283.125L171.941 282.477L176.748 287.284L176.1 287.932ZM171.941 287.932L171.294 287.284L176.1 282.477L176.748 283.125L171.941 287.932ZM181.948 280.773V289.5H180.891V281.881H180.84L178.71 283.295V282.222L180.891 280.773H181.948ZM187.356 289.619C186.998 289.614 186.64 289.545 186.282 289.415C185.924 289.284 185.597 289.064 185.302 288.754C185.006 288.442 184.769 288.02 184.59 287.489C184.411 286.955 184.322 286.284 184.322 285.477C184.322 284.705 184.394 284.02 184.539 283.423C184.684 282.824 184.894 282.32 185.17 281.911C185.445 281.499 185.778 281.186 186.167 280.973C186.559 280.76 187.001 280.653 187.492 280.653C187.981 280.653 188.415 280.751 188.796 280.947C189.18 281.141 189.492 281.411 189.734 281.757C189.975 282.104 190.131 282.503 190.202 282.955H189.163C189.066 282.562 188.879 282.237 188.6 281.979C188.322 281.72 187.952 281.591 187.492 281.591C186.816 281.591 186.283 281.885 185.894 282.473C185.508 283.061 185.313 283.886 185.31 284.949H185.379C185.538 284.707 185.727 284.501 185.945 284.331C186.167 284.158 186.411 284.024 186.678 283.93C186.945 283.837 187.228 283.79 187.526 283.79C188.026 283.79 188.484 283.915 188.898 284.165C189.313 284.412 189.646 284.754 189.896 285.192C190.146 285.626 190.271 286.125 190.271 286.688C190.271 287.227 190.15 287.722 189.908 288.17C189.667 288.616 189.327 288.972 188.89 289.236C188.455 289.497 187.944 289.625 187.356 289.619ZM187.356 288.682C187.714 288.682 188.035 288.592 188.319 288.413C188.606 288.234 188.832 287.994 188.996 287.693C189.164 287.392 189.248 287.057 189.248 286.688C189.248 286.327 189.167 285.999 189.005 285.703C188.846 285.405 188.626 285.168 188.344 284.991C188.066 284.815 187.748 284.727 187.39 284.727C187.12 284.727 186.869 284.781 186.636 284.889C186.403 284.994 186.198 285.139 186.022 285.324C185.849 285.509 185.712 285.72 185.613 285.959C185.513 286.195 185.464 286.443 185.464 286.705C185.464 287.051 185.545 287.375 185.707 287.676C185.871 287.977 186.096 288.22 186.38 288.405C186.667 288.589 186.992 288.682 187.356 288.682ZM191.963 291.955V282.955H192.935V283.994H193.054C193.128 283.881 193.23 283.736 193.361 283.56C193.495 283.381 193.685 283.222 193.932 283.082C194.182 282.94 194.52 282.869 194.946 282.869C195.498 282.869 195.983 283.007 196.404 283.283C196.824 283.558 197.152 283.949 197.388 284.455C197.624 284.96 197.742 285.557 197.742 286.244C197.742 286.938 197.624 287.538 197.388 288.047C197.152 288.553 196.826 288.945 196.408 289.223C195.99 289.499 195.509 289.636 194.963 289.636C194.543 289.636 194.206 289.567 193.953 289.428C193.701 289.286 193.506 289.125 193.37 288.946C193.233 288.764 193.128 288.614 193.054 288.494H192.969V291.955H191.963ZM192.952 286.227C192.952 286.722 193.025 287.158 193.169 287.536C193.314 287.911 193.526 288.205 193.804 288.418C194.083 288.628 194.424 288.733 194.827 288.733C195.248 288.733 195.598 288.622 195.88 288.401C196.164 288.176 196.377 287.875 196.519 287.497C196.664 287.116 196.736 286.693 196.736 286.227C196.736 285.767 196.665 285.352 196.523 284.983C196.384 284.611 196.172 284.317 195.888 284.101C195.607 283.882 195.253 283.773 194.827 283.773C194.418 283.773 194.074 283.876 193.796 284.084C193.517 284.288 193.307 284.575 193.165 284.945C193.023 285.311 192.952 285.739 192.952 286.227ZM199.756 282.955L201.325 285.631L202.893 282.955H204.052L201.938 286.227L204.052 289.5H202.893L201.325 286.96L199.756 289.5H198.597L200.677 286.227L198.597 282.955H199.756Z" fill="#374A58"/>
</g>
<path d="M0 412H412V441C412 452.046 403.046 461 392 461H20C8.95431 461 0 452.046 0 441V412Z" fill="#E65454"/>
<path d="M33.6491 431.351C33.4243 431.126 33.1195 431 32.8017 431C32.4839 431 32.1791 431.126 31.9543 431.351L28.0075 435.298L24.0607 431.351C23.8346 431.133 23.5319 431.012 23.2176 431.015C22.9033 431.017 22.6027 431.143 22.3805 431.366C22.1583 431.588 22.0322 431.888 22.0295 432.203C22.0268 432.517 22.1476 432.82 22.3659 433.046L26.3127 436.993L22.3659 440.939C22.2514 441.05 22.1601 441.182 22.0973 441.328C22.0345 441.475 22.0014 441.632 22 441.791C21.9987 441.95 22.029 442.108 22.0893 442.255C22.1495 442.403 22.2385 442.536 22.351 442.649C22.4636 442.761 22.5974 442.85 22.7447 442.911C22.892 442.971 23.0498 443.001 23.209 443C23.3681 442.999 23.5254 442.966 23.6716 442.903C23.8178 442.84 23.9501 442.749 24.0607 442.634L28.0075 438.687L31.9543 442.634C32.1804 442.852 32.4831 442.973 32.7974 442.97C33.1116 442.968 33.4123 442.842 33.6345 442.619C33.8567 442.397 33.9828 442.097 33.9855 441.782C33.9882 441.468 33.8674 441.165 33.6491 440.939L29.7022 436.993L33.6491 433.046C33.8738 432.821 34 432.516 34 432.198C34 431.88 33.8738 431.576 33.6491 431.351Z" fill="#142735"/>
<path d="M51.0625 442H48.1449V432.545H51.1918C52.1089 432.545 52.8937 432.735 53.5462 433.113C54.1986 433.489 54.6987 434.029 55.0465 434.734C55.3943 435.435 55.5682 436.276 55.5682 437.254C55.5682 438.239 55.3928 439.087 55.0419 439.798C54.6911 440.506 54.1802 441.051 53.5092 441.432C52.8383 441.811 52.0227 442 51.0625 442ZM49.2898 440.984H50.9886C51.7704 440.984 52.4182 440.834 52.9322 440.532C53.4461 440.23 53.8293 439.801 54.0817 439.244C54.334 438.687 54.4602 438.024 54.4602 437.254C54.4602 436.491 54.3356 435.834 54.0863 435.283C53.837 434.729 53.4646 434.304 52.9691 434.009C52.4736 433.71 51.8565 433.561 51.1179 433.561H49.2898V440.984ZM60.2216 442.148C59.5814 442.148 59.0198 441.995 58.5366 441.691C58.0565 441.386 57.681 440.96 57.4102 440.412C57.1424 439.864 57.0085 439.224 57.0085 438.491C57.0085 437.753 57.1424 437.108 57.4102 436.557C57.681 436.006 58.0565 435.578 58.5366 435.274C59.0198 434.969 59.5814 434.817 60.2216 434.817C60.8617 434.817 61.4219 434.969 61.902 435.274C62.3852 435.578 62.7607 436.006 63.0284 436.557C63.2992 437.108 63.4347 437.753 63.4347 438.491C63.4347 439.224 63.2992 439.864 63.0284 440.412C62.7607 440.96 62.3852 441.386 61.902 441.691C61.4219 441.995 60.8617 442.148 60.2216 442.148ZM60.2216 441.169C60.7079 441.169 61.108 441.044 61.4219 440.795C61.7358 440.546 61.9682 440.218 62.119 439.812C62.2698 439.406 62.3452 438.965 62.3452 438.491C62.3452 438.018 62.2698 437.576 62.119 437.167C61.9682 436.757 61.7358 436.426 61.4219 436.174C61.108 435.922 60.7079 435.795 60.2216 435.795C59.7353 435.795 59.3352 435.922 59.0213 436.174C58.7074 436.426 58.475 436.757 58.3242 437.167C58.1734 437.576 58.098 438.018 58.098 438.491C58.098 438.965 58.1734 439.406 58.3242 439.812C58.475 440.218 58.7074 440.546 59.0213 440.795C59.3352 441.044 59.7353 441.169 60.2216 441.169ZM66.1872 437.734V442H65.0977V434.909H66.1503V436.017H66.2426C66.4088 435.657 66.6612 435.368 66.9997 435.149C67.3383 434.928 67.7753 434.817 68.3108 434.817C68.7909 434.817 69.211 434.915 69.5711 435.112C69.9312 435.306 70.2113 435.602 70.4113 435.999C70.6114 436.393 70.7114 436.891 70.7114 437.494V442H69.6219V437.568C69.6219 437.011 69.4772 436.577 69.1879 436.266C68.8986 435.952 68.5016 435.795 67.9969 435.795C67.6491 435.795 67.3383 435.871 67.0644 436.022C66.7935 436.172 66.5796 436.393 66.4227 436.682C66.2657 436.971 66.1872 437.322 66.1872 437.734ZM73.6625 432.545V433.376C73.6625 433.629 73.6163 433.898 73.524 434.184C73.4347 434.467 73.3024 434.743 73.127 435.011C72.9546 435.275 72.7453 435.506 72.4991 435.703L71.9082 435.223C72.1021 434.946 72.2698 434.658 72.4114 434.36C72.556 434.058 72.6284 433.737 72.6284 433.395V432.545H73.6625ZM78.3759 434.909V435.832H74.7012V434.909H78.3759ZM75.7722 433.21H76.8617V439.969C76.8617 440.277 76.9063 440.507 76.9956 440.661C77.0879 440.812 77.2048 440.914 77.3464 440.966C77.4911 441.015 77.6434 441.04 77.8034 441.04C77.9235 441.04 78.022 441.034 78.0989 441.021C78.1758 441.006 78.2374 440.994 78.2836 440.984L78.5051 441.963C78.4313 441.991 78.3282 442.018 78.1958 442.046C78.0635 442.077 77.8958 442.092 77.6926 442.092C77.3849 442.092 77.0833 442.026 76.7878 441.894C76.4954 441.761 76.2523 441.56 76.0584 441.289C75.8676 441.018 75.7722 440.677 75.7722 440.264V433.21Z" fill="#142735"/>
<g clip-path="url(#clip3_123_3942)">
<path d="M845 20C845 8.9543 836.046 0 825 0H454C442.954 0 434 8.95431 434 20V404H845V20Z" fill="#F3F4F4"/>
<rect x="595" y="189" width="95" height="48" rx="2" fill="#055FD2"/>
<g clip-path="url(#clip4_123_3942)">
<path fill-rule="evenodd" clip-rule="evenodd" d="M621.872 211.017H617.248L620.625 205.077C620.926 204.548 620.245 204.012 619.801 204.428L610.573 213.065C610.222 213.395 610.455 213.984 610.936 213.984H615.561L612.184 219.923C611.883 220.452 612.563 220.989 613.007 220.573L622.235 211.935C622.587 211.606 622.354 211.017 621.872 211.017Z" fill="white"/>
</g>
<path d="M643.281 216.445V218H637.57V216.445H643.281ZM638.117 206.625V218H636.156V206.625H638.117ZM649.375 216.305V212.273C649.375 211.971 649.32 211.711 649.211 211.492C649.102 211.273 648.935 211.104 648.711 210.984C648.492 210.865 648.216 210.805 647.883 210.805C647.576 210.805 647.31 210.857 647.086 210.961C646.862 211.065 646.688 211.206 646.562 211.383C646.438 211.56 646.375 211.76 646.375 211.984H644.5C644.5 211.651 644.581 211.328 644.742 211.016C644.904 210.703 645.138 210.424 645.445 210.18C645.753 209.935 646.12 209.742 646.547 209.602C646.974 209.461 647.453 209.391 647.984 209.391C648.62 209.391 649.182 209.497 649.672 209.711C650.167 209.924 650.555 210.247 650.836 210.68C651.122 211.107 651.266 211.643 651.266 212.289V216.047C651.266 216.432 651.292 216.779 651.344 217.086C651.401 217.388 651.482 217.651 651.586 217.875V218H649.656C649.568 217.797 649.497 217.539 649.445 217.227C649.398 216.909 649.375 216.602 649.375 216.305ZM649.648 212.859L649.664 214.023H648.312C647.964 214.023 647.656 214.057 647.391 214.125C647.125 214.188 646.904 214.281 646.727 214.406C646.549 214.531 646.417 214.682 646.328 214.859C646.24 215.036 646.195 215.237 646.195 215.461C646.195 215.685 646.247 215.891 646.352 216.078C646.456 216.26 646.607 216.404 646.805 216.508C647.008 216.612 647.253 216.664 647.539 216.664C647.924 216.664 648.26 216.586 648.547 216.43C648.839 216.268 649.068 216.073 649.234 215.844C649.401 215.609 649.49 215.388 649.5 215.18L650.109 216.016C650.047 216.229 649.94 216.458 649.789 216.703C649.638 216.948 649.44 217.182 649.195 217.406C648.956 217.625 648.667 217.805 648.328 217.945C647.995 218.086 647.609 218.156 647.172 218.156C646.62 218.156 646.128 218.047 645.695 217.828C645.263 217.604 644.924 217.305 644.68 216.93C644.435 216.549 644.312 216.12 644.312 215.641C644.312 215.193 644.396 214.797 644.562 214.453C644.734 214.104 644.984 213.812 645.312 213.578C645.646 213.344 646.052 213.167 646.531 213.047C647.01 212.922 647.557 212.859 648.172 212.859H649.648ZM653.242 206H655.125V216.195L654.945 218H653.242V206ZM660.641 213.695V213.859C660.641 214.484 660.57 215.06 660.43 215.586C660.294 216.107 660.086 216.56 659.805 216.945C659.529 217.331 659.185 217.63 658.773 217.844C658.367 218.052 657.896 218.156 657.359 218.156C656.833 218.156 656.375 218.057 655.984 217.859C655.594 217.661 655.266 217.38 655 217.016C654.74 216.651 654.529 216.216 654.367 215.711C654.206 215.206 654.091 214.648 654.023 214.039V213.516C654.091 212.901 654.206 212.344 654.367 211.844C654.529 211.339 654.74 210.904 655 210.539C655.266 210.169 655.591 209.885 655.977 209.688C656.367 209.49 656.823 209.391 657.344 209.391C657.885 209.391 658.362 209.495 658.773 209.703C659.19 209.911 659.536 210.208 659.812 210.594C660.089 210.974 660.294 211.427 660.43 211.953C660.57 212.479 660.641 213.06 660.641 213.695ZM658.758 213.859V213.695C658.758 213.315 658.727 212.958 658.664 212.625C658.602 212.286 658.497 211.99 658.352 211.734C658.211 211.479 658.018 211.279 657.773 211.133C657.534 210.982 657.234 210.906 656.875 210.906C656.542 210.906 656.255 210.964 656.016 211.078C655.776 211.193 655.576 211.349 655.414 211.547C655.253 211.745 655.125 211.974 655.031 212.234C654.943 212.495 654.883 212.776 654.852 213.078V214.492C654.898 214.883 654.997 215.242 655.148 215.57C655.305 215.893 655.523 216.154 655.805 216.352C656.086 216.544 656.448 216.641 656.891 216.641C657.24 216.641 657.534 216.57 657.773 216.43C658.013 216.289 658.203 216.094 658.344 215.844C658.49 215.589 658.594 215.292 658.656 214.953C658.724 214.615 658.758 214.25 658.758 213.859ZM665.961 218.156C665.336 218.156 664.771 218.055 664.266 217.852C663.766 217.643 663.339 217.354 662.984 216.984C662.635 216.615 662.367 216.18 662.18 215.68C661.992 215.18 661.898 214.641 661.898 214.062V213.75C661.898 213.089 661.995 212.49 662.188 211.953C662.38 211.417 662.648 210.958 662.992 210.578C663.336 210.193 663.742 209.898 664.211 209.695C664.68 209.492 665.188 209.391 665.734 209.391C666.339 209.391 666.867 209.492 667.32 209.695C667.773 209.898 668.148 210.185 668.445 210.555C668.747 210.919 668.971 211.354 669.117 211.859C669.268 212.365 669.344 212.922 669.344 213.531V214.336H662.812V212.984H667.484V212.836C667.474 212.497 667.406 212.18 667.281 211.883C667.161 211.586 666.977 211.346 666.727 211.164C666.477 210.982 666.143 210.891 665.727 210.891C665.414 210.891 665.135 210.958 664.891 211.094C664.651 211.224 664.451 211.414 664.289 211.664C664.128 211.914 664.003 212.216 663.914 212.57C663.831 212.919 663.789 213.312 663.789 213.75V214.062C663.789 214.432 663.839 214.776 663.938 215.094C664.042 215.406 664.193 215.68 664.391 215.914C664.589 216.148 664.828 216.333 665.109 216.469C665.391 216.599 665.711 216.664 666.07 216.664C666.523 216.664 666.927 216.573 667.281 216.391C667.635 216.208 667.943 215.951 668.203 215.617L669.195 216.578C669.013 216.844 668.776 217.099 668.484 217.344C668.193 217.583 667.836 217.779 667.414 217.93C666.997 218.081 666.513 218.156 665.961 218.156ZM672.828 206V218H670.938V206H672.828Z" fill="white"/>
<rect x="604" y="201" width="24" height="24" fill="#DB1F60" fill-opacity="0.4"/>
<path d="M615.5 244.5V225" stroke="#DB1F60" stroke-dasharray="2 2"/>
<path d="M590.903 259.5V258.733L593.784 255.58C594.122 255.21 594.401 254.889 594.619 254.616C594.838 254.341 595 254.082 595.105 253.841C595.213 253.597 595.267 253.341 595.267 253.074C595.267 252.767 595.193 252.501 595.045 252.277C594.901 252.053 594.702 251.879 594.449 251.757C594.196 251.635 593.912 251.574 593.597 251.574C593.261 251.574 592.969 251.643 592.719 251.783C592.472 251.919 592.28 252.111 592.143 252.358C592.01 252.605 591.943 252.895 591.943 253.227H590.938C590.938 252.716 591.055 252.267 591.291 251.881C591.527 251.494 591.848 251.193 592.254 250.977C592.663 250.761 593.122 250.653 593.631 250.653C594.142 250.653 594.595 250.761 594.99 250.977C595.385 251.193 595.695 251.484 595.919 251.851C596.143 252.217 596.256 252.625 596.256 253.074C596.256 253.395 596.197 253.709 596.081 254.016C595.967 254.32 595.768 254.659 595.484 255.034C595.203 255.406 594.812 255.861 594.312 256.398L592.352 258.494V258.562H596.409V259.5H590.903ZM597.777 257.71V256.841L601.612 250.773H602.243V252.119H601.817L598.919 256.705V256.773H604.084V257.71H597.777ZM601.885 259.5V257.446V257.041V250.773H602.891V259.5H601.885ZM610.811 257.932L606.005 253.125L606.652 252.477L611.459 257.284L610.811 257.932ZM606.652 257.932L606.005 257.284L610.811 252.477L611.459 253.125L606.652 257.932ZM613.591 259.5V258.733L616.472 255.58C616.81 255.21 617.088 254.889 617.307 254.616C617.526 254.341 617.688 254.082 617.793 253.841C617.901 253.597 617.955 253.341 617.955 253.074C617.955 252.767 617.881 252.501 617.733 252.277C617.588 252.053 617.389 251.879 617.136 251.757C616.884 251.635 616.599 251.574 616.284 251.574C615.949 251.574 615.656 251.643 615.406 251.783C615.159 251.919 614.967 252.111 614.831 252.358C614.697 252.605 614.631 252.895 614.631 253.227H613.625C613.625 252.716 613.743 252.267 613.979 251.881C614.214 251.494 614.536 251.193 614.942 250.977C615.351 250.761 615.81 250.653 616.318 250.653C616.83 250.653 617.283 250.761 617.678 250.977C618.072 251.193 618.382 251.484 618.607 251.851C618.831 252.217 618.943 252.625 618.943 253.074C618.943 253.395 618.885 253.709 618.768 254.016C618.655 254.32 618.456 254.659 618.172 255.034C617.891 255.406 617.5 255.861 617 256.398L615.04 258.494V258.562H619.097V259.5H613.591ZM620.464 257.71V256.841L624.3 250.773H624.93V252.119H624.504L621.607 256.705V256.773H626.771V257.71H620.464ZM624.572 259.5V257.446V257.041V250.773H625.578V259.5H624.572ZM628.385 261.955V252.955H629.357V253.994H629.476C629.55 253.881 629.652 253.736 629.783 253.56C629.917 253.381 630.107 253.222 630.354 253.082C630.604 252.94 630.942 252.869 631.368 252.869C631.919 252.869 632.405 253.007 632.826 253.283C633.246 253.558 633.574 253.949 633.81 254.455C634.046 254.96 634.164 255.557 634.164 256.244C634.164 256.938 634.046 257.538 633.81 258.047C633.574 258.553 633.248 258.945 632.83 259.223C632.412 259.499 631.931 259.636 631.385 259.636C630.965 259.636 630.628 259.567 630.375 259.428C630.123 259.286 629.928 259.125 629.792 258.946C629.655 258.764 629.55 258.614 629.476 258.494H629.391V261.955H628.385ZM629.374 256.227C629.374 256.722 629.446 257.158 629.591 257.536C629.736 257.911 629.948 258.205 630.226 258.418C630.505 258.628 630.846 258.733 631.249 258.733C631.669 258.733 632.02 258.622 632.301 258.401C632.586 258.176 632.799 257.875 632.941 257.497C633.086 257.116 633.158 256.693 633.158 256.227C633.158 255.767 633.087 255.352 632.945 254.983C632.806 254.611 632.594 254.317 632.31 254.101C632.029 253.882 631.675 253.773 631.249 253.773C630.84 253.773 630.496 253.876 630.218 254.084C629.939 254.288 629.729 254.575 629.587 254.945C629.445 255.311 629.374 255.739 629.374 256.227ZM636.178 252.955L637.746 255.631L639.315 252.955H640.474L638.36 256.227L640.474 259.5H639.315L637.746 256.96L636.178 259.5H635.019L637.099 256.227L635.019 252.955H636.178Z" fill="#374A58"/>
</g>
<path d="M434 412H845V441C845 452.046 836.046 461 825 461H454C442.954 461 434 452.046 434 441V412Z" fill="#A0E659"/>
<path d="M467.649 431.351C467.424 431.126 467.12 431 466.802 431C466.484 431 466.179 431.126 465.954 431.351L462.007 435.298L458.061 431.351C457.835 431.133 457.532 431.012 457.218 431.015C456.903 431.017 456.603 431.143 456.381 431.366C456.158 431.588 456.032 431.888 456.03 432.203C456.027 432.517 456.148 432.82 456.366 433.046L460.313 436.993L456.366 440.939C456.251 441.05 456.16 441.182 456.097 441.328C456.034 441.475 456.001 441.632 456 441.791C455.999 441.95 456.029 442.108 456.089 442.255C456.15 442.403 456.239 442.536 456.351 442.649C456.464 442.761 456.597 442.85 456.745 442.911C456.892 442.971 457.05 443.001 457.209 443C457.368 442.999 457.525 442.966 457.672 442.903C457.818 442.84 457.95 442.749 458.061 442.634L462.007 438.687L465.954 442.634C466.18 442.852 466.483 442.973 466.797 442.97C467.112 442.968 467.412 442.842 467.634 442.619C467.857 442.397 467.983 442.097 467.985 441.782C467.988 441.468 467.867 441.165 467.649 440.939L463.702 436.993L467.649 433.046C467.874 432.821 468 432.516 468 432.198C468 431.88 467.874 431.576 467.649 431.351Z" fill="#142735"/>
<path d="M485.062 442H482.145V432.545H485.192C486.109 432.545 486.894 432.735 487.546 433.113C488.199 433.489 488.699 434.029 489.047 434.734C489.394 435.435 489.568 436.276 489.568 437.254C489.568 438.239 489.393 439.087 489.042 439.798C488.691 440.506 488.18 441.051 487.509 441.432C486.838 441.811 486.023 442 485.062 442ZM483.29 440.984H484.989C485.77 440.984 486.418 440.834 486.932 440.532C487.446 440.23 487.829 439.801 488.082 439.244C488.334 438.687 488.46 438.024 488.46 437.254C488.46 436.491 488.336 435.834 488.086 435.283C487.837 434.729 487.465 434.304 486.969 434.009C486.474 433.71 485.857 433.561 485.118 433.561H483.29V440.984ZM494.222 442.148C493.581 442.148 493.02 441.995 492.537 441.691C492.056 441.386 491.681 440.96 491.41 440.412C491.142 439.864 491.009 439.224 491.009 438.491C491.009 437.753 491.142 437.108 491.41 436.557C491.681 436.006 492.056 435.578 492.537 435.274C493.02 434.969 493.581 434.817 494.222 434.817C494.862 434.817 495.422 434.969 495.902 435.274C496.385 435.578 496.761 436.006 497.028 436.557C497.299 437.108 497.435 437.753 497.435 438.491C497.435 439.224 497.299 439.864 497.028 440.412C496.761 440.96 496.385 441.386 495.902 441.691C495.422 441.995 494.862 442.148 494.222 442.148ZM494.222 441.169C494.708 441.169 495.108 441.044 495.422 440.795C495.736 440.546 495.968 440.218 496.119 439.812C496.27 439.406 496.345 438.965 496.345 438.491C496.345 438.018 496.27 437.576 496.119 437.167C495.968 436.757 495.736 436.426 495.422 436.174C495.108 435.922 494.708 435.795 494.222 435.795C493.735 435.795 493.335 435.922 493.021 436.174C492.707 436.426 492.475 436.757 492.324 437.167C492.173 437.576 492.098 438.018 492.098 438.491C492.098 438.965 492.173 439.406 492.324 439.812C492.475 440.218 492.707 440.546 493.021 440.795C493.335 441.044 493.735 441.169 494.222 441.169Z" fill="#142735"/>
<defs>
<clipPath id="clip0_123_3942">
<path d="M411 20C411 8.9543 402.046 0 391 0H20C8.95432 0 0 8.95431 0 20V404H411V20Z" fill="white"/>
</clipPath>
<clipPath id="clip1_123_3942">
<rect width="37" height="36" fill="white" transform="matrix(-1 0 0 1 197 117)"/>
</clipPath>
<clipPath id="clip2_123_3942">
<rect width="17" height="16" fill="white" transform="matrix(-1 0 0 1 189 235)"/>
</clipPath>
<clipPath id="clip3_123_3942">
<path d="M845 20C845 8.9543 836.046 0 825 0H454C442.954 0 434 8.95431 434 20V404H845V20Z" fill="white"/>
</clipPath>
<clipPath id="clip4_123_3942">
<rect width="25" height="24" fill="white" transform="matrix(-1 0 0 1 628 201)"/>
</clipPath>
</defs>
</svg>
