<svg width="845" height="461" viewBox="0 0 845 461" fill="none" xmlns="http://www.w3.org/2000/svg">
<g clip-path="url(#clip0_123_3985)">
<path d="M411 20C411 8.9543 402.046 0 391 0H20C8.95432 0 0 8.95431 0 20V404H411V20Z" fill="#F3F4F4"/>
<rect x="24" y="20" width="364" height="364" rx="11.6248" fill="white"/>
<rect x="278" y="100" width="84" height="24" rx="1.45309" fill="#055FD2"/>
<path d="M303.479 112.918H301.328V111.788H303.479C303.854 111.788 304.156 111.728 304.387 111.607C304.618 111.486 304.786 111.319 304.892 111.107C305.002 110.891 305.057 110.646 305.057 110.369C305.057 110.108 305.002 109.864 304.892 109.637C304.786 109.406 304.618 109.221 304.387 109.081C304.156 108.941 303.854 108.871 303.479 108.871H301.765V116H300.34V107.736H303.479C304.118 107.736 304.662 107.849 305.108 108.076C305.558 108.299 305.901 108.61 306.135 109.007C306.37 109.401 306.487 109.851 306.487 110.358C306.487 110.891 306.37 111.349 306.135 111.732C305.901 112.114 305.558 112.407 305.108 112.611C304.662 112.816 304.118 112.918 303.479 112.918ZM309.002 111.028V116H307.634V109.858H308.939L309.002 111.028ZM310.881 109.819L310.869 111.09C310.786 111.075 310.695 111.064 310.597 111.056C310.502 111.049 310.408 111.045 310.313 111.045C310.078 111.045 309.872 111.079 309.694 111.147C309.517 111.211 309.367 111.306 309.246 111.431C309.129 111.552 309.038 111.699 308.973 111.873C308.909 112.048 308.871 112.242 308.86 112.458L308.548 112.481C308.548 112.095 308.586 111.737 308.661 111.408C308.737 111.079 308.851 110.789 309.002 110.54C309.157 110.29 309.35 110.095 309.581 109.955C309.815 109.815 310.086 109.745 310.393 109.745C310.476 109.745 310.565 109.752 310.659 109.768C310.758 109.783 310.831 109.8 310.881 109.819ZM313.202 109.858V116H311.829V109.858H313.202ZM311.738 108.246C311.738 108.038 311.806 107.866 311.942 107.73C312.082 107.59 312.275 107.52 312.521 107.52C312.763 107.52 312.954 107.59 313.094 107.73C313.234 107.866 313.304 108.038 313.304 108.246C313.304 108.451 313.234 108.621 313.094 108.757C312.954 108.893 312.763 108.962 312.521 108.962C312.275 108.962 312.082 108.893 311.942 108.757C311.806 108.621 311.738 108.451 311.738 108.246ZM316.069 111.107V116H314.701V109.858H315.989L316.069 111.107ZM315.847 112.702L315.382 112.696C315.382 112.273 315.435 111.881 315.541 111.522C315.647 111.162 315.802 110.85 316.006 110.585C316.211 110.316 316.464 110.11 316.767 109.966C317.073 109.819 317.427 109.745 317.828 109.745C318.108 109.745 318.364 109.787 318.595 109.87C318.829 109.949 319.032 110.076 319.202 110.25C319.376 110.424 319.508 110.647 319.599 110.92C319.694 111.192 319.741 111.522 319.741 111.907V116H318.373V112.027C318.373 111.728 318.328 111.493 318.237 111.323C318.15 111.153 318.023 111.031 317.857 110.96C317.694 110.884 317.499 110.846 317.272 110.846C317.015 110.846 316.795 110.895 316.614 110.994C316.436 111.092 316.29 111.226 316.177 111.397C316.063 111.567 315.98 111.764 315.927 111.987C315.874 112.21 315.847 112.449 315.847 112.702ZM319.656 112.339L319.015 112.481C319.015 112.11 319.066 111.76 319.168 111.431C319.274 111.098 319.427 110.806 319.628 110.557C319.832 110.303 320.084 110.104 320.383 109.961C320.681 109.817 321.024 109.745 321.41 109.745C321.724 109.745 322.004 109.788 322.25 109.875C322.5 109.959 322.712 110.091 322.886 110.273C323.06 110.454 323.192 110.691 323.283 110.982C323.374 111.27 323.419 111.618 323.419 112.027V116H322.046V112.021C322.046 111.711 322 111.47 321.909 111.3C321.822 111.13 321.698 111.013 321.535 110.948C321.372 110.88 321.177 110.846 320.95 110.846C320.738 110.846 320.551 110.886 320.388 110.965C320.229 111.041 320.095 111.149 319.985 111.289C319.875 111.425 319.792 111.582 319.735 111.76C319.682 111.938 319.656 112.131 319.656 112.339ZM328.289 114.768V111.839C328.289 111.62 328.25 111.431 328.17 111.272C328.091 111.113 327.97 110.99 327.807 110.903C327.648 110.816 327.447 110.772 327.205 110.772C326.982 110.772 326.789 110.81 326.626 110.886C326.464 110.961 326.337 111.064 326.246 111.192C326.155 111.321 326.11 111.467 326.11 111.629H324.748C324.748 111.387 324.806 111.153 324.923 110.926C325.041 110.698 325.211 110.496 325.434 110.318C325.658 110.14 325.924 110 326.235 109.898C326.545 109.796 326.893 109.745 327.279 109.745C327.741 109.745 328.149 109.822 328.505 109.978C328.865 110.133 329.147 110.367 329.351 110.681C329.559 110.992 329.663 111.382 329.663 111.851V114.581C329.663 114.861 329.682 115.113 329.72 115.336C329.761 115.555 329.82 115.746 329.896 115.909V116H328.494C328.429 115.852 328.378 115.665 328.341 115.438C328.306 115.207 328.289 114.984 328.289 114.768ZM328.488 112.265L328.499 113.111H327.517C327.264 113.111 327.041 113.135 326.848 113.185C326.655 113.23 326.494 113.298 326.365 113.389C326.237 113.48 326.14 113.59 326.076 113.718C326.011 113.847 325.979 113.993 325.979 114.155C325.979 114.318 326.017 114.467 326.093 114.604C326.168 114.736 326.278 114.84 326.422 114.916C326.57 114.992 326.747 115.029 326.956 115.029C327.236 115.029 327.48 114.973 327.688 114.859C327.9 114.742 328.066 114.6 328.187 114.433C328.308 114.263 328.373 114.102 328.38 113.951L328.823 114.558C328.778 114.713 328.7 114.88 328.59 115.058C328.481 115.236 328.337 115.406 328.159 115.569C327.985 115.728 327.775 115.858 327.529 115.96C327.287 116.062 327.007 116.114 326.689 116.114C326.288 116.114 325.93 116.034 325.616 115.875C325.302 115.712 325.056 115.495 324.878 115.222C324.7 114.946 324.611 114.634 324.611 114.286C324.611 113.96 324.672 113.673 324.793 113.423C324.918 113.169 325.099 112.958 325.338 112.787C325.58 112.617 325.875 112.488 326.223 112.401C326.571 112.311 326.969 112.265 327.415 112.265H328.488ZM332.467 111.028V116H331.099V109.858H332.405L332.467 111.028ZM334.346 109.819L334.335 111.09C334.251 111.075 334.16 111.064 334.062 111.056C333.967 111.049 333.873 111.045 333.778 111.045C333.544 111.045 333.337 111.079 333.16 111.147C332.982 111.211 332.832 111.306 332.711 111.431C332.594 111.552 332.503 111.699 332.439 111.873C332.374 112.048 332.337 112.242 332.325 112.458L332.013 112.481C332.013 112.095 332.051 111.737 332.126 111.408C332.202 111.079 332.316 110.789 332.467 110.54C332.622 110.29 332.815 110.095 333.046 109.955C333.281 109.815 333.551 109.745 333.858 109.745C333.941 109.745 334.03 109.752 334.125 109.768C334.223 109.783 334.297 109.8 334.346 109.819ZM337.087 115.33L338.756 109.858H340.221L337.757 116.937C337.7 117.088 337.627 117.253 337.536 117.43C337.445 117.608 337.326 117.777 337.178 117.936C337.034 118.098 336.855 118.229 336.639 118.327C336.423 118.429 336.162 118.48 335.856 118.48C335.735 118.48 335.617 118.469 335.504 118.446C335.394 118.427 335.29 118.407 335.192 118.384L335.186 117.34C335.224 117.343 335.269 117.347 335.322 117.351C335.379 117.355 335.424 117.357 335.458 117.357C335.685 117.357 335.875 117.328 336.026 117.271C336.177 117.218 336.3 117.131 336.395 117.01C336.493 116.889 336.577 116.727 336.645 116.522L337.087 115.33ZM336.145 109.858L337.604 114.456L337.848 115.898L336.9 116.142L334.669 109.858H336.145Z" fill="white"/>
<rect x="59" y="115" width="42.8663" height="11.6248" rx="1.45309" fill="#E7E8EA"/>
<rect x="59" y="128.078" width="303" height="35" rx="1.45309" fill="#F3F4F4"/>
<rect x="59" y="179.062" width="42.8663" height="11.6248" rx="1.45309" fill="#E7E8EA"/>
<rect x="59" y="192.14" width="303" height="35" rx="1.45309" fill="#F3F4F4"/>
<rect x="59" y="46" width="122" height="12" rx="1.45309" fill="#303C4B"/>
<rect x="273" y="318" width="89" height="48" rx="2" fill="#055FD2"/>
<path d="M294.477 342.758H291.516V341.203H294.477C294.992 341.203 295.409 341.12 295.727 340.953C296.044 340.786 296.276 340.557 296.422 340.266C296.573 339.969 296.648 339.63 296.648 339.25C296.648 338.891 296.573 338.555 296.422 338.242C296.276 337.924 296.044 337.669 295.727 337.477C295.409 337.284 294.992 337.188 294.477 337.188H292.117V347H290.156V335.625H294.477C295.357 335.625 296.104 335.781 296.719 336.094C297.339 336.401 297.81 336.828 298.133 337.375C298.456 337.917 298.617 338.536 298.617 339.234C298.617 339.969 298.456 340.599 298.133 341.125C297.81 341.651 297.339 342.055 296.719 342.336C296.104 342.617 295.357 342.758 294.477 342.758ZM302.078 340.156V347H300.195V338.547H301.992L302.078 340.156ZM304.664 338.492L304.648 340.242C304.534 340.221 304.409 340.206 304.273 340.195C304.143 340.185 304.013 340.18 303.883 340.18C303.56 340.18 303.276 340.227 303.031 340.32C302.786 340.409 302.581 340.539 302.414 340.711C302.253 340.878 302.128 341.081 302.039 341.32C301.951 341.56 301.898 341.828 301.883 342.125L301.453 342.156C301.453 341.625 301.505 341.133 301.609 340.68C301.714 340.227 301.87 339.828 302.078 339.484C302.292 339.141 302.557 338.872 302.875 338.68C303.198 338.487 303.57 338.391 303.992 338.391C304.107 338.391 304.229 338.401 304.359 338.422C304.495 338.443 304.596 338.466 304.664 338.492ZM307.859 338.547V347H305.969V338.547H307.859ZM305.844 336.328C305.844 336.042 305.938 335.805 306.125 335.617C306.318 335.424 306.583 335.328 306.922 335.328C307.255 335.328 307.518 335.424 307.711 335.617C307.904 335.805 308 336.042 308 336.328C308 336.609 307.904 336.844 307.711 337.031C307.518 337.219 307.255 337.312 306.922 337.312C306.583 337.312 306.318 337.219 306.125 337.031C305.938 336.844 305.844 336.609 305.844 336.328ZM311.805 340.266V347H309.922V338.547H311.695L311.805 340.266ZM311.5 342.461L310.859 342.453C310.859 341.87 310.932 341.331 311.078 340.836C311.224 340.341 311.438 339.911 311.719 339.547C312 339.177 312.349 338.893 312.766 338.695C313.188 338.492 313.674 338.391 314.227 338.391C314.612 338.391 314.964 338.448 315.281 338.562C315.604 338.672 315.883 338.846 316.117 339.086C316.357 339.326 316.539 339.633 316.664 340.008C316.794 340.383 316.859 340.836 316.859 341.367V347H314.977V341.531C314.977 341.12 314.914 340.797 314.789 340.562C314.669 340.328 314.495 340.161 314.266 340.062C314.042 339.958 313.773 339.906 313.461 339.906C313.107 339.906 312.805 339.974 312.555 340.109C312.31 340.245 312.109 340.43 311.953 340.664C311.797 340.898 311.682 341.169 311.609 341.477C311.536 341.784 311.5 342.112 311.5 342.461ZM316.742 341.961L315.859 342.156C315.859 341.646 315.93 341.164 316.07 340.711C316.216 340.253 316.427 339.852 316.703 339.508C316.984 339.159 317.331 338.885 317.742 338.688C318.154 338.49 318.625 338.391 319.156 338.391C319.589 338.391 319.974 338.451 320.312 338.57C320.656 338.685 320.948 338.867 321.188 339.117C321.427 339.367 321.609 339.693 321.734 340.094C321.859 340.49 321.922 340.969 321.922 341.531V347H320.031V341.523C320.031 341.096 319.969 340.766 319.844 340.531C319.724 340.297 319.552 340.135 319.328 340.047C319.104 339.953 318.836 339.906 318.523 339.906C318.232 339.906 317.974 339.961 317.75 340.07C317.531 340.174 317.346 340.323 317.195 340.516C317.044 340.703 316.93 340.919 316.852 341.164C316.779 341.409 316.742 341.674 316.742 341.961ZM328.625 345.305V341.273C328.625 340.971 328.57 340.711 328.461 340.492C328.352 340.273 328.185 340.104 327.961 339.984C327.742 339.865 327.466 339.805 327.133 339.805C326.826 339.805 326.56 339.857 326.336 339.961C326.112 340.065 325.938 340.206 325.812 340.383C325.688 340.56 325.625 340.76 325.625 340.984H323.75C323.75 340.651 323.831 340.328 323.992 340.016C324.154 339.703 324.388 339.424 324.695 339.18C325.003 338.935 325.37 338.742 325.797 338.602C326.224 338.461 326.703 338.391 327.234 338.391C327.87 338.391 328.432 338.497 328.922 338.711C329.417 338.924 329.805 339.247 330.086 339.68C330.372 340.107 330.516 340.643 330.516 341.289V345.047C330.516 345.432 330.542 345.779 330.594 346.086C330.651 346.388 330.732 346.651 330.836 346.875V347H328.906C328.818 346.797 328.747 346.539 328.695 346.227C328.648 345.909 328.625 345.602 328.625 345.305ZM328.898 341.859L328.914 343.023H327.562C327.214 343.023 326.906 343.057 326.641 343.125C326.375 343.188 326.154 343.281 325.977 343.406C325.799 343.531 325.667 343.682 325.578 343.859C325.49 344.036 325.445 344.237 325.445 344.461C325.445 344.685 325.497 344.891 325.602 345.078C325.706 345.26 325.857 345.404 326.055 345.508C326.258 345.612 326.503 345.664 326.789 345.664C327.174 345.664 327.51 345.586 327.797 345.43C328.089 345.268 328.318 345.073 328.484 344.844C328.651 344.609 328.74 344.388 328.75 344.18L329.359 345.016C329.297 345.229 329.19 345.458 329.039 345.703C328.888 345.948 328.69 346.182 328.445 346.406C328.206 346.625 327.917 346.805 327.578 346.945C327.245 347.086 326.859 347.156 326.422 347.156C325.87 347.156 325.378 347.047 324.945 346.828C324.513 346.604 324.174 346.305 323.93 345.93C323.685 345.549 323.562 345.12 323.562 344.641C323.562 344.193 323.646 343.797 323.812 343.453C323.984 343.104 324.234 342.812 324.562 342.578C324.896 342.344 325.302 342.167 325.781 342.047C326.26 341.922 326.807 341.859 327.422 341.859H328.898ZM334.375 340.156V347H332.492V338.547H334.289L334.375 340.156ZM336.961 338.492L336.945 340.242C336.831 340.221 336.706 340.206 336.57 340.195C336.44 340.185 336.31 340.18 336.18 340.18C335.857 340.18 335.573 340.227 335.328 340.32C335.083 340.409 334.878 340.539 334.711 340.711C334.549 340.878 334.424 341.081 334.336 341.32C334.247 341.56 334.195 341.828 334.18 342.125L333.75 342.156C333.75 341.625 333.802 341.133 333.906 340.68C334.01 340.227 334.167 339.828 334.375 339.484C334.589 339.141 334.854 338.872 335.172 338.68C335.495 338.487 335.867 338.391 336.289 338.391C336.404 338.391 336.526 338.401 336.656 338.422C336.792 338.443 336.893 338.466 336.961 338.492ZM340.734 346.078L343.031 338.547H345.047L341.656 348.289C341.578 348.497 341.477 348.724 341.352 348.969C341.227 349.214 341.062 349.445 340.859 349.664C340.661 349.888 340.414 350.068 340.117 350.203C339.82 350.344 339.461 350.414 339.039 350.414C338.872 350.414 338.711 350.398 338.555 350.367C338.404 350.341 338.26 350.312 338.125 350.281L338.117 348.844C338.169 348.849 338.232 348.854 338.305 348.859C338.383 348.865 338.445 348.867 338.492 348.867C338.805 348.867 339.065 348.828 339.273 348.75C339.482 348.677 339.651 348.557 339.781 348.391C339.917 348.224 340.031 348 340.125 347.719L340.734 346.078ZM339.438 338.547L341.445 344.875L341.781 346.859L340.477 347.195L337.406 338.547H339.438Z" fill="white"/>
<rect x="176" y="318" width="89" height="48" rx="2" fill="#055FD2"/>
<path d="M197.477 342.758H194.516V341.203H197.477C197.992 341.203 198.409 341.12 198.727 340.953C199.044 340.786 199.276 340.557 199.422 340.266C199.573 339.969 199.648 339.63 199.648 339.25C199.648 338.891 199.573 338.555 199.422 338.242C199.276 337.924 199.044 337.669 198.727 337.477C198.409 337.284 197.992 337.188 197.477 337.188H195.117V347H193.156V335.625H197.477C198.357 335.625 199.104 335.781 199.719 336.094C200.339 336.401 200.81 336.828 201.133 337.375C201.456 337.917 201.617 338.536 201.617 339.234C201.617 339.969 201.456 340.599 201.133 341.125C200.81 341.651 200.339 342.055 199.719 342.336C199.104 342.617 198.357 342.758 197.477 342.758ZM205.078 340.156V347H203.195V338.547H204.992L205.078 340.156ZM207.664 338.492L207.648 340.242C207.534 340.221 207.409 340.206 207.273 340.195C207.143 340.185 207.013 340.18 206.883 340.18C206.56 340.18 206.276 340.227 206.031 340.32C205.786 340.409 205.581 340.539 205.414 340.711C205.253 340.878 205.128 341.081 205.039 341.32C204.951 341.56 204.898 341.828 204.883 342.125L204.453 342.156C204.453 341.625 204.505 341.133 204.609 340.68C204.714 340.227 204.87 339.828 205.078 339.484C205.292 339.141 205.557 338.872 205.875 338.68C206.198 338.487 206.57 338.391 206.992 338.391C207.107 338.391 207.229 338.401 207.359 338.422C207.495 338.443 207.596 338.466 207.664 338.492ZM210.859 338.547V347H208.969V338.547H210.859ZM208.844 336.328C208.844 336.042 208.938 335.805 209.125 335.617C209.318 335.424 209.583 335.328 209.922 335.328C210.255 335.328 210.518 335.424 210.711 335.617C210.904 335.805 211 336.042 211 336.328C211 336.609 210.904 336.844 210.711 337.031C210.518 337.219 210.255 337.312 209.922 337.312C209.583 337.312 209.318 337.219 209.125 337.031C208.938 336.844 208.844 336.609 208.844 336.328ZM214.805 340.266V347H212.922V338.547H214.695L214.805 340.266ZM214.5 342.461L213.859 342.453C213.859 341.87 213.932 341.331 214.078 340.836C214.224 340.341 214.438 339.911 214.719 339.547C215 339.177 215.349 338.893 215.766 338.695C216.188 338.492 216.674 338.391 217.227 338.391C217.612 338.391 217.964 338.448 218.281 338.562C218.604 338.672 218.883 338.846 219.117 339.086C219.357 339.326 219.539 339.633 219.664 340.008C219.794 340.383 219.859 340.836 219.859 341.367V347H217.977V341.531C217.977 341.12 217.914 340.797 217.789 340.562C217.669 340.328 217.495 340.161 217.266 340.062C217.042 339.958 216.773 339.906 216.461 339.906C216.107 339.906 215.805 339.974 215.555 340.109C215.31 340.245 215.109 340.43 214.953 340.664C214.797 340.898 214.682 341.169 214.609 341.477C214.536 341.784 214.5 342.112 214.5 342.461ZM219.742 341.961L218.859 342.156C218.859 341.646 218.93 341.164 219.07 340.711C219.216 340.253 219.427 339.852 219.703 339.508C219.984 339.159 220.331 338.885 220.742 338.688C221.154 338.49 221.625 338.391 222.156 338.391C222.589 338.391 222.974 338.451 223.312 338.57C223.656 338.685 223.948 338.867 224.188 339.117C224.427 339.367 224.609 339.693 224.734 340.094C224.859 340.49 224.922 340.969 224.922 341.531V347H223.031V341.523C223.031 341.096 222.969 340.766 222.844 340.531C222.724 340.297 222.552 340.135 222.328 340.047C222.104 339.953 221.836 339.906 221.523 339.906C221.232 339.906 220.974 339.961 220.75 340.07C220.531 340.174 220.346 340.323 220.195 340.516C220.044 340.703 219.93 340.919 219.852 341.164C219.779 341.409 219.742 341.674 219.742 341.961ZM231.625 345.305V341.273C231.625 340.971 231.57 340.711 231.461 340.492C231.352 340.273 231.185 340.104 230.961 339.984C230.742 339.865 230.466 339.805 230.133 339.805C229.826 339.805 229.56 339.857 229.336 339.961C229.112 340.065 228.938 340.206 228.812 340.383C228.688 340.56 228.625 340.76 228.625 340.984H226.75C226.75 340.651 226.831 340.328 226.992 340.016C227.154 339.703 227.388 339.424 227.695 339.18C228.003 338.935 228.37 338.742 228.797 338.602C229.224 338.461 229.703 338.391 230.234 338.391C230.87 338.391 231.432 338.497 231.922 338.711C232.417 338.924 232.805 339.247 233.086 339.68C233.372 340.107 233.516 340.643 233.516 341.289V345.047C233.516 345.432 233.542 345.779 233.594 346.086C233.651 346.388 233.732 346.651 233.836 346.875V347H231.906C231.818 346.797 231.747 346.539 231.695 346.227C231.648 345.909 231.625 345.602 231.625 345.305ZM231.898 341.859L231.914 343.023H230.562C230.214 343.023 229.906 343.057 229.641 343.125C229.375 343.188 229.154 343.281 228.977 343.406C228.799 343.531 228.667 343.682 228.578 343.859C228.49 344.036 228.445 344.237 228.445 344.461C228.445 344.685 228.497 344.891 228.602 345.078C228.706 345.26 228.857 345.404 229.055 345.508C229.258 345.612 229.503 345.664 229.789 345.664C230.174 345.664 230.51 345.586 230.797 345.43C231.089 345.268 231.318 345.073 231.484 344.844C231.651 344.609 231.74 344.388 231.75 344.18L232.359 345.016C232.297 345.229 232.19 345.458 232.039 345.703C231.888 345.948 231.69 346.182 231.445 346.406C231.206 346.625 230.917 346.805 230.578 346.945C230.245 347.086 229.859 347.156 229.422 347.156C228.87 347.156 228.378 347.047 227.945 346.828C227.513 346.604 227.174 346.305 226.93 345.93C226.685 345.549 226.562 345.12 226.562 344.641C226.562 344.193 226.646 343.797 226.812 343.453C226.984 343.104 227.234 342.812 227.562 342.578C227.896 342.344 228.302 342.167 228.781 342.047C229.26 341.922 229.807 341.859 230.422 341.859H231.898ZM237.375 340.156V347H235.492V338.547H237.289L237.375 340.156ZM239.961 338.492L239.945 340.242C239.831 340.221 239.706 340.206 239.57 340.195C239.44 340.185 239.31 340.18 239.18 340.18C238.857 340.18 238.573 340.227 238.328 340.32C238.083 340.409 237.878 340.539 237.711 340.711C237.549 340.878 237.424 341.081 237.336 341.32C237.247 341.56 237.195 341.828 237.18 342.125L236.75 342.156C236.75 341.625 236.802 341.133 236.906 340.68C237.01 340.227 237.167 339.828 237.375 339.484C237.589 339.141 237.854 338.872 238.172 338.68C238.495 338.487 238.867 338.391 239.289 338.391C239.404 338.391 239.526 338.401 239.656 338.422C239.792 338.443 239.893 338.466 239.961 338.492ZM243.734 346.078L246.031 338.547H248.047L244.656 348.289C244.578 348.497 244.477 348.724 244.352 348.969C244.227 349.214 244.062 349.445 243.859 349.664C243.661 349.888 243.414 350.068 243.117 350.203C242.82 350.344 242.461 350.414 242.039 350.414C241.872 350.414 241.711 350.398 241.555 350.367C241.404 350.341 241.26 350.312 241.125 350.281L241.117 348.844C241.169 348.849 241.232 348.854 241.305 348.859C241.383 348.865 241.445 348.867 241.492 348.867C241.805 348.867 242.065 348.828 242.273 348.75C242.482 348.677 242.651 348.557 242.781 348.391C242.917 348.224 243.031 348 243.125 347.719L243.734 346.078ZM242.438 338.547L244.445 344.875L244.781 346.859L243.477 347.195L240.406 338.547H242.438Z" fill="white"/>
<rect x="60" y="318" width="108" height="48" rx="2" fill="#D4E5F5"/>
<path d="M83.1406 344.07C83.1406 343.836 83.1042 343.628 83.0312 343.445C82.9635 343.263 82.8411 343.096 82.6641 342.945C82.487 342.794 82.237 342.648 81.9141 342.508C81.5964 342.362 81.1901 342.214 80.6953 342.062C80.1536 341.896 79.6536 341.711 79.1953 341.508C78.7422 341.299 78.3464 341.06 78.0078 340.789C77.6693 340.513 77.4062 340.198 77.2188 339.844C77.0312 339.484 76.9375 339.07 76.9375 338.602C76.9375 338.138 77.0339 337.716 77.2266 337.336C77.4245 336.956 77.7031 336.628 78.0625 336.352C78.4271 336.07 78.8568 335.854 79.3516 335.703C79.8464 335.547 80.3932 335.469 80.9922 335.469C81.8359 335.469 82.5625 335.625 83.1719 335.938C83.7865 336.25 84.2578 336.669 84.5859 337.195C84.9193 337.721 85.0859 338.302 85.0859 338.938H83.1406C83.1406 338.562 83.0599 338.232 82.8984 337.945C82.7422 337.654 82.5026 337.424 82.1797 337.258C81.862 337.091 81.4583 337.008 80.9688 337.008C80.5052 337.008 80.1198 337.078 79.8125 337.219C79.5052 337.359 79.276 337.549 79.125 337.789C78.974 338.029 78.8984 338.299 78.8984 338.602C78.8984 338.815 78.9479 339.01 79.0469 339.188C79.1458 339.359 79.2969 339.521 79.5 339.672C79.7031 339.818 79.9583 339.956 80.2656 340.086C80.5729 340.216 80.9349 340.341 81.3516 340.461C81.9818 340.648 82.5312 340.857 83 341.086C83.4688 341.31 83.8594 341.565 84.1719 341.852C84.4844 342.138 84.7188 342.464 84.875 342.828C85.0312 343.188 85.1094 343.596 85.1094 344.055C85.1094 344.534 85.013 344.966 84.8203 345.352C84.6276 345.732 84.3516 346.057 83.9922 346.328C83.638 346.594 83.2109 346.799 82.7109 346.945C82.2161 347.086 81.6641 347.156 81.0547 347.156C80.5078 347.156 79.9688 347.083 79.4375 346.938C78.9115 346.792 78.4323 346.57 78 346.273C77.5677 345.971 77.224 345.596 76.9688 345.148C76.7135 344.695 76.5859 344.167 76.5859 343.562H78.5469C78.5469 343.932 78.6094 344.247 78.7344 344.508C78.8646 344.768 79.0443 344.982 79.2734 345.148C79.5026 345.31 79.7682 345.43 80.0703 345.508C80.3776 345.586 80.7057 345.625 81.0547 345.625C81.513 345.625 81.8958 345.56 82.2031 345.43C82.5156 345.299 82.75 345.117 82.9062 344.883C83.0625 344.648 83.1406 344.378 83.1406 344.07ZM90.3828 347.156C89.7578 347.156 89.1927 347.055 88.6875 346.852C88.1875 346.643 87.7604 346.354 87.4062 345.984C87.0573 345.615 86.7891 345.18 86.6016 344.68C86.4141 344.18 86.3203 343.641 86.3203 343.062V342.75C86.3203 342.089 86.4167 341.49 86.6094 340.953C86.8021 340.417 87.0703 339.958 87.4141 339.578C87.7578 339.193 88.1641 338.898 88.6328 338.695C89.1016 338.492 89.6094 338.391 90.1562 338.391C90.7604 338.391 91.2891 338.492 91.7422 338.695C92.1953 338.898 92.5703 339.185 92.8672 339.555C93.1693 339.919 93.3932 340.354 93.5391 340.859C93.6901 341.365 93.7656 341.922 93.7656 342.531V343.336H87.2344V341.984H91.9062V341.836C91.8958 341.497 91.8281 341.18 91.7031 340.883C91.5833 340.586 91.3984 340.346 91.1484 340.164C90.8984 339.982 90.5651 339.891 90.1484 339.891C89.8359 339.891 89.5573 339.958 89.3125 340.094C89.0729 340.224 88.8724 340.414 88.7109 340.664C88.5495 340.914 88.4245 341.216 88.3359 341.57C88.2526 341.919 88.2109 342.312 88.2109 342.75V343.062C88.2109 343.432 88.2604 343.776 88.3594 344.094C88.4635 344.406 88.6146 344.68 88.8125 344.914C89.0104 345.148 89.25 345.333 89.5312 345.469C89.8125 345.599 90.1328 345.664 90.4922 345.664C90.9453 345.664 91.349 345.573 91.7031 345.391C92.0573 345.208 92.3646 344.951 92.625 344.617L93.6172 345.578C93.4349 345.844 93.1979 346.099 92.9062 346.344C92.6146 346.583 92.2578 346.779 91.8359 346.93C91.4193 347.081 90.9349 347.156 90.3828 347.156ZM98.6875 345.656C98.9948 345.656 99.2708 345.596 99.5156 345.477C99.7656 345.352 99.9661 345.18 100.117 344.961C100.273 344.742 100.359 344.49 100.375 344.203H102.148C102.138 344.75 101.977 345.247 101.664 345.695C101.352 346.143 100.938 346.5 100.422 346.766C99.9062 347.026 99.3359 347.156 98.7109 347.156C98.0651 347.156 97.5026 347.047 97.0234 346.828C96.5443 346.604 96.1458 346.297 95.8281 345.906C95.5104 345.516 95.2708 345.065 95.1094 344.555C94.9531 344.044 94.875 343.497 94.875 342.914V342.641C94.875 342.057 94.9531 341.51 95.1094 341C95.2708 340.484 95.5104 340.031 95.8281 339.641C96.1458 339.25 96.5443 338.945 97.0234 338.727C97.5026 338.503 98.0625 338.391 98.7031 338.391C99.3802 338.391 99.974 338.526 100.484 338.797C100.995 339.062 101.396 339.435 101.688 339.914C101.984 340.388 102.138 340.94 102.148 341.57H100.375C100.359 341.258 100.281 340.977 100.141 340.727C100.005 340.471 99.8125 340.268 99.5625 340.117C99.3177 339.966 99.0234 339.891 98.6797 339.891C98.2995 339.891 97.9844 339.969 97.7344 340.125C97.4844 340.276 97.2891 340.484 97.1484 340.75C97.0078 341.01 96.9062 341.305 96.8438 341.633C96.7865 341.956 96.7578 342.292 96.7578 342.641V342.914C96.7578 343.263 96.7865 343.602 96.8438 343.93C96.901 344.258 97 344.552 97.1406 344.812C97.2865 345.068 97.4844 345.273 97.7344 345.43C97.9844 345.581 98.3021 345.656 98.6875 345.656ZM103.234 342.867V342.688C103.234 342.078 103.323 341.513 103.5 340.992C103.677 340.466 103.932 340.01 104.266 339.625C104.604 339.234 105.016 338.932 105.5 338.719C105.99 338.5 106.542 338.391 107.156 338.391C107.776 338.391 108.328 338.5 108.812 338.719C109.302 338.932 109.716 339.234 110.055 339.625C110.393 340.01 110.651 340.466 110.828 340.992C111.005 341.513 111.094 342.078 111.094 342.688V342.867C111.094 343.477 111.005 344.042 110.828 344.562C110.651 345.083 110.393 345.539 110.055 345.93C109.716 346.315 109.305 346.617 108.82 346.836C108.336 347.049 107.786 347.156 107.172 347.156C106.552 347.156 105.997 347.049 105.508 346.836C105.023 346.617 104.612 346.315 104.273 345.93C103.935 345.539 103.677 345.083 103.5 344.562C103.323 344.042 103.234 343.477 103.234 342.867ZM105.117 342.688V342.867C105.117 343.247 105.156 343.607 105.234 343.945C105.312 344.284 105.435 344.581 105.602 344.836C105.768 345.091 105.982 345.292 106.242 345.438C106.503 345.583 106.812 345.656 107.172 345.656C107.521 345.656 107.823 345.583 108.078 345.438C108.339 345.292 108.552 345.091 108.719 344.836C108.885 344.581 109.008 344.284 109.086 343.945C109.169 343.607 109.211 343.247 109.211 342.867V342.688C109.211 342.312 109.169 341.958 109.086 341.625C109.008 341.286 108.883 340.987 108.711 340.727C108.544 340.466 108.331 340.263 108.07 340.117C107.815 339.966 107.51 339.891 107.156 339.891C106.802 339.891 106.495 339.966 106.234 340.117C105.979 340.263 105.768 340.466 105.602 340.727C105.435 340.987 105.312 341.286 105.234 341.625C105.156 341.958 105.117 342.312 105.117 342.688ZM114.539 340.352V347H112.656V338.547H114.43L114.539 340.352ZM114.203 342.461L113.594 342.453C113.599 341.854 113.682 341.305 113.844 340.805C114.01 340.305 114.24 339.875 114.531 339.516C114.828 339.156 115.182 338.88 115.594 338.688C116.005 338.49 116.464 338.391 116.969 338.391C117.375 338.391 117.742 338.448 118.07 338.562C118.404 338.672 118.688 338.852 118.922 339.102C119.161 339.352 119.344 339.677 119.469 340.078C119.594 340.474 119.656 340.961 119.656 341.539V347H117.766V341.531C117.766 341.125 117.706 340.805 117.586 340.57C117.471 340.331 117.302 340.161 117.078 340.062C116.859 339.958 116.586 339.906 116.258 339.906C115.935 339.906 115.646 339.974 115.391 340.109C115.135 340.245 114.919 340.43 114.742 340.664C114.57 340.898 114.438 341.169 114.344 341.477C114.25 341.784 114.203 342.112 114.203 342.461ZM126.734 345.25V335H128.625V347H126.914L126.734 345.25ZM121.234 342.867V342.703C121.234 342.062 121.31 341.479 121.461 340.953C121.612 340.422 121.831 339.966 122.117 339.586C122.404 339.201 122.753 338.906 123.164 338.703C123.576 338.495 124.039 338.391 124.555 338.391C125.065 338.391 125.513 338.49 125.898 338.688C126.284 338.885 126.612 339.169 126.883 339.539C127.154 339.904 127.37 340.341 127.531 340.852C127.693 341.357 127.807 341.919 127.875 342.539V343.062C127.807 343.667 127.693 344.219 127.531 344.719C127.37 345.219 127.154 345.651 126.883 346.016C126.612 346.38 126.281 346.661 125.891 346.859C125.505 347.057 125.055 347.156 124.539 347.156C124.029 347.156 123.568 347.049 123.156 346.836C122.75 346.622 122.404 346.323 122.117 345.938C121.831 345.552 121.612 345.099 121.461 344.578C121.31 344.052 121.234 343.482 121.234 342.867ZM123.117 342.703V342.867C123.117 343.253 123.151 343.612 123.219 343.945C123.292 344.279 123.404 344.573 123.555 344.828C123.706 345.078 123.901 345.276 124.141 345.422C124.385 345.562 124.677 345.633 125.016 345.633C125.443 345.633 125.794 345.539 126.07 345.352C126.346 345.164 126.562 344.911 126.719 344.594C126.88 344.271 126.99 343.911 127.047 343.516V342.102C127.016 341.794 126.951 341.508 126.852 341.242C126.758 340.977 126.63 340.745 126.469 340.547C126.307 340.344 126.107 340.188 125.867 340.078C125.633 339.964 125.354 339.906 125.031 339.906C124.688 339.906 124.396 339.979 124.156 340.125C123.917 340.271 123.719 340.471 123.562 340.727C123.411 340.982 123.299 341.279 123.227 341.617C123.154 341.956 123.117 342.318 123.117 342.703ZM135.359 345.305V341.273C135.359 340.971 135.305 340.711 135.195 340.492C135.086 340.273 134.919 340.104 134.695 339.984C134.477 339.865 134.201 339.805 133.867 339.805C133.56 339.805 133.294 339.857 133.07 339.961C132.846 340.065 132.672 340.206 132.547 340.383C132.422 340.56 132.359 340.76 132.359 340.984H130.484C130.484 340.651 130.565 340.328 130.727 340.016C130.888 339.703 131.122 339.424 131.43 339.18C131.737 338.935 132.104 338.742 132.531 338.602C132.958 338.461 133.438 338.391 133.969 338.391C134.604 338.391 135.167 338.497 135.656 338.711C136.151 338.924 136.539 339.247 136.82 339.68C137.107 340.107 137.25 340.643 137.25 341.289V345.047C137.25 345.432 137.276 345.779 137.328 346.086C137.385 346.388 137.466 346.651 137.57 346.875V347H135.641C135.552 346.797 135.482 346.539 135.43 346.227C135.383 345.909 135.359 345.602 135.359 345.305ZM135.633 341.859L135.648 343.023H134.297C133.948 343.023 133.641 343.057 133.375 343.125C133.109 343.188 132.888 343.281 132.711 343.406C132.534 343.531 132.401 343.682 132.312 343.859C132.224 344.036 132.18 344.237 132.18 344.461C132.18 344.685 132.232 344.891 132.336 345.078C132.44 345.26 132.591 345.404 132.789 345.508C132.992 345.612 133.237 345.664 133.523 345.664C133.909 345.664 134.245 345.586 134.531 345.43C134.823 345.268 135.052 345.073 135.219 344.844C135.385 344.609 135.474 344.388 135.484 344.18L136.094 345.016C136.031 345.229 135.924 345.458 135.773 345.703C135.622 345.948 135.424 346.182 135.18 346.406C134.94 346.625 134.651 346.805 134.312 346.945C133.979 347.086 133.594 347.156 133.156 347.156C132.604 347.156 132.112 347.047 131.68 346.828C131.247 346.604 130.909 346.305 130.664 345.93C130.419 345.549 130.297 345.12 130.297 344.641C130.297 344.193 130.38 343.797 130.547 343.453C130.719 343.104 130.969 342.812 131.297 342.578C131.63 342.344 132.036 342.167 132.516 342.047C132.995 341.922 133.542 341.859 134.156 341.859H135.633ZM141.109 340.156V347H139.227V338.547H141.023L141.109 340.156ZM143.695 338.492L143.68 340.242C143.565 340.221 143.44 340.206 143.305 340.195C143.174 340.185 143.044 340.18 142.914 340.18C142.591 340.18 142.307 340.227 142.062 340.32C141.818 340.409 141.612 340.539 141.445 340.711C141.284 340.878 141.159 341.081 141.07 341.32C140.982 341.56 140.93 341.828 140.914 342.125L140.484 342.156C140.484 341.625 140.536 341.133 140.641 340.68C140.745 340.227 140.901 339.828 141.109 339.484C141.323 339.141 141.589 338.872 141.906 338.68C142.229 338.487 142.602 338.391 143.023 338.391C143.138 338.391 143.26 338.401 143.391 338.422C143.526 338.443 143.628 338.466 143.695 338.492ZM147.469 346.078L149.766 338.547H151.781L148.391 348.289C148.312 348.497 148.211 348.724 148.086 348.969C147.961 349.214 147.797 349.445 147.594 349.664C147.396 349.888 147.148 350.068 146.852 350.203C146.555 350.344 146.195 350.414 145.773 350.414C145.607 350.414 145.445 350.398 145.289 350.367C145.138 350.341 144.995 350.312 144.859 350.281L144.852 348.844C144.904 348.849 144.966 348.854 145.039 348.859C145.117 348.865 145.18 348.867 145.227 348.867C145.539 348.867 145.799 348.828 146.008 348.75C146.216 348.677 146.385 348.557 146.516 348.391C146.651 348.224 146.766 348 146.859 347.719L147.469 346.078ZM146.172 338.547L148.18 344.875L148.516 346.859L147.211 347.195L144.141 338.547H146.172Z" fill="#555F6B"/>
</g>
<path d="M0 412H412V441C412 452.046 403.046 461 392 461H20C8.95431 461 0 452.046 0 441V412Z" fill="#E65454"/>
<path d="M33.6491 431.351C33.4243 431.126 33.1195 431 32.8017 431C32.4839 431 32.1791 431.126 31.9543 431.351L28.0075 435.298L24.0607 431.351C23.8346 431.133 23.5319 431.012 23.2176 431.015C22.9033 431.017 22.6027 431.143 22.3805 431.366C22.1583 431.588 22.0322 431.888 22.0295 432.203C22.0268 432.517 22.1476 432.82 22.3659 433.046L26.3127 436.993L22.3659 440.939C22.2514 441.05 22.1601 441.182 22.0973 441.328C22.0345 441.475 22.0014 441.632 22 441.791C21.9987 441.95 22.029 442.108 22.0893 442.255C22.1495 442.403 22.2385 442.536 22.351 442.649C22.4636 442.761 22.5974 442.85 22.7447 442.911C22.892 442.971 23.0498 443.001 23.209 443C23.3681 442.999 23.5254 442.966 23.6716 442.903C23.8178 442.84 23.9501 442.749 24.0607 442.634L28.0075 438.687L31.9543 442.634C32.1804 442.852 32.4831 442.973 32.7974 442.97C33.1116 442.968 33.4123 442.842 33.6345 442.619C33.8567 442.397 33.9828 442.097 33.9855 441.782C33.9882 441.468 33.8674 441.165 33.6491 440.939L29.7022 436.993L33.6491 433.046C33.8738 432.821 34 432.516 34 432.198C34 431.88 33.8738 431.576 33.6491 431.351Z" fill="#142735"/>
<path d="M51.0625 442H48.1449V432.545H51.1918C52.1089 432.545 52.8937 432.735 53.5462 433.113C54.1986 433.489 54.6987 434.029 55.0465 434.734C55.3943 435.435 55.5682 436.276 55.5682 437.254C55.5682 438.239 55.3928 439.087 55.0419 439.798C54.6911 440.506 54.1802 441.051 53.5092 441.432C52.8383 441.811 52.0227 442 51.0625 442ZM49.2898 440.984H50.9886C51.7704 440.984 52.4182 440.834 52.9322 440.532C53.4461 440.23 53.8293 439.801 54.0817 439.244C54.334 438.687 54.4602 438.024 54.4602 437.254C54.4602 436.491 54.3356 435.834 54.0863 435.283C53.837 434.729 53.4646 434.304 52.9691 434.009C52.4736 433.71 51.8565 433.561 51.1179 433.561H49.2898V440.984ZM60.2216 442.148C59.5814 442.148 59.0198 441.995 58.5366 441.691C58.0565 441.386 57.681 440.96 57.4102 440.412C57.1424 439.864 57.0085 439.224 57.0085 438.491C57.0085 437.753 57.1424 437.108 57.4102 436.557C57.681 436.006 58.0565 435.578 58.5366 435.274C59.0198 434.969 59.5814 434.817 60.2216 434.817C60.8617 434.817 61.4219 434.969 61.902 435.274C62.3852 435.578 62.7607 436.006 63.0284 436.557C63.2992 437.108 63.4347 437.753 63.4347 438.491C63.4347 439.224 63.2992 439.864 63.0284 440.412C62.7607 440.96 62.3852 441.386 61.902 441.691C61.4219 441.995 60.8617 442.148 60.2216 442.148ZM60.2216 441.169C60.7079 441.169 61.108 441.044 61.4219 440.795C61.7358 440.546 61.9682 440.218 62.119 439.812C62.2698 439.406 62.3452 438.965 62.3452 438.491C62.3452 438.018 62.2698 437.576 62.119 437.167C61.9682 436.757 61.7358 436.426 61.4219 436.174C61.108 435.922 60.7079 435.795 60.2216 435.795C59.7353 435.795 59.3352 435.922 59.0213 436.174C58.7074 436.426 58.475 436.757 58.3242 437.167C58.1734 437.576 58.098 438.018 58.098 438.491C58.098 438.965 58.1734 439.406 58.3242 439.812C58.475 440.218 58.7074 440.546 59.0213 440.795C59.3352 441.044 59.7353 441.169 60.2216 441.169ZM66.1872 437.734V442H65.0977V434.909H66.1503V436.017H66.2426C66.4088 435.657 66.6612 435.368 66.9997 435.149C67.3383 434.928 67.7753 434.817 68.3108 434.817C68.7909 434.817 69.211 434.915 69.5711 435.112C69.9312 435.306 70.2113 435.602 70.4113 435.999C70.6114 436.393 70.7114 436.891 70.7114 437.494V442H69.6219V437.568C69.6219 437.011 69.4772 436.577 69.1879 436.266C68.8986 435.952 68.5016 435.795 67.9969 435.795C67.6491 435.795 67.3383 435.871 67.0644 436.022C66.7935 436.172 66.5796 436.393 66.4227 436.682C66.2657 436.971 66.1872 437.322 66.1872 437.734ZM73.6625 432.545V433.376C73.6625 433.629 73.6163 433.898 73.524 434.184C73.4347 434.467 73.3024 434.743 73.127 435.011C72.9546 435.275 72.7453 435.506 72.4991 435.703L71.9082 435.223C72.1021 434.946 72.2698 434.658 72.4114 434.36C72.556 434.058 72.6284 433.737 72.6284 433.395V432.545H73.6625ZM78.3759 434.909V435.832H74.7012V434.909H78.3759ZM75.7722 433.21H76.8617V439.969C76.8617 440.277 76.9063 440.507 76.9956 440.661C77.0879 440.812 77.2048 440.914 77.3464 440.966C77.4911 441.015 77.6434 441.04 77.8034 441.04C77.9235 441.04 78.022 441.034 78.0989 441.021C78.1758 441.006 78.2374 440.994 78.2836 440.984L78.5051 441.963C78.4313 441.991 78.3282 442.018 78.1958 442.046C78.0635 442.077 77.8958 442.092 77.6926 442.092C77.3849 442.092 77.0833 442.026 76.7878 441.894C76.4954 441.761 76.2523 441.56 76.0584 441.289C75.8676 441.018 75.7722 440.677 75.7722 440.264V433.21Z" fill="#142735"/>
<g clip-path="url(#clip1_123_3985)">
<path d="M845 20C845 8.9543 836.046 0 825 0H454C442.954 0 434 8.95431 434 20V404H845V20Z" fill="#F3F4F4"/>
<rect x="458" y="20" width="364" height="364" rx="11.6248" fill="white"/>
<path d="M742.24 105.236V113.5H740.827V105.236H742.24ZM744.834 105.236V106.371H738.255V105.236H744.834ZM747.95 113.614C747.496 113.614 747.086 113.54 746.719 113.392C746.355 113.241 746.045 113.031 745.788 112.762C745.534 112.493 745.339 112.177 745.203 111.814C745.067 111.451 744.999 111.059 744.999 110.639V110.412C744.999 109.932 745.069 109.496 745.209 109.107C745.349 108.717 745.544 108.384 745.793 108.108C746.043 107.828 746.338 107.614 746.679 107.466C747.019 107.319 747.388 107.245 747.786 107.245C748.225 107.245 748.609 107.319 748.938 107.466C749.267 107.614 749.54 107.822 749.755 108.091C749.975 108.356 750.137 108.671 750.243 109.039C750.353 109.406 750.408 109.811 750.408 110.253V110.838H745.663V109.856H749.057V109.748C749.05 109.502 749 109.271 748.91 109.056C748.823 108.84 748.688 108.666 748.507 108.533C748.325 108.401 748.083 108.335 747.78 108.335C747.553 108.335 747.351 108.384 747.173 108.482C746.999 108.577 746.853 108.715 746.736 108.897C746.618 109.078 746.527 109.298 746.463 109.555C746.403 109.809 746.372 110.094 746.372 110.412V110.639C746.372 110.908 746.408 111.158 746.48 111.388C746.556 111.616 746.666 111.814 746.809 111.984C746.953 112.155 747.127 112.289 747.332 112.387C747.536 112.482 747.769 112.529 748.03 112.529C748.359 112.529 748.652 112.463 748.91 112.331C749.167 112.198 749.39 112.011 749.579 111.769L750.3 112.467C750.168 112.66 749.996 112.845 749.784 113.023C749.572 113.197 749.313 113.339 749.006 113.449C748.703 113.559 748.351 113.614 747.95 113.614ZM752.849 108.528V113.5H751.481V107.358H752.786L752.849 108.528ZM754.728 107.319L754.716 108.59C754.633 108.575 754.542 108.564 754.444 108.556C754.349 108.549 754.255 108.545 754.16 108.545C753.925 108.545 753.719 108.579 753.541 108.647C753.363 108.711 753.214 108.806 753.093 108.931C752.976 109.052 752.885 109.199 752.82 109.373C752.756 109.548 752.718 109.742 752.707 109.958L752.395 109.981C752.395 109.595 752.433 109.237 752.508 108.908C752.584 108.579 752.697 108.289 752.849 108.04C753.004 107.79 753.197 107.595 753.428 107.455C753.662 107.315 753.933 107.245 754.239 107.245C754.323 107.245 754.412 107.252 754.506 107.268C754.605 107.283 754.678 107.3 754.728 107.319ZM758.684 107.358V108.357H755.221V107.358H758.684ZM756.22 105.854H757.588V111.803C757.588 111.992 757.615 112.138 757.668 112.24C757.725 112.338 757.802 112.405 757.901 112.439C757.999 112.473 758.114 112.49 758.247 112.49C758.341 112.49 758.432 112.484 758.519 112.473C758.606 112.461 758.676 112.45 758.729 112.439L758.735 113.483C758.621 113.517 758.489 113.547 758.338 113.574C758.19 113.6 758.02 113.614 757.827 113.614C757.513 113.614 757.235 113.559 756.992 113.449C756.75 113.335 756.561 113.152 756.425 112.898C756.289 112.645 756.22 112.308 756.22 111.888V105.854ZM761.204 107.358V113.5H759.83V107.358H761.204ZM759.74 105.746C759.74 105.538 759.808 105.366 759.944 105.23C760.084 105.09 760.277 105.02 760.523 105.02C760.765 105.02 760.956 105.09 761.096 105.23C761.236 105.366 761.306 105.538 761.306 105.746C761.306 105.951 761.236 106.121 761.096 106.257C760.956 106.393 760.765 106.462 760.523 106.462C760.277 106.462 760.084 106.393 759.944 106.257C759.808 106.121 759.74 105.951 759.74 105.746ZM766.165 112.268V109.339C766.165 109.12 766.125 108.931 766.046 108.772C765.966 108.613 765.845 108.49 765.683 108.403C765.524 108.316 765.323 108.272 765.081 108.272C764.858 108.272 764.665 108.31 764.502 108.386C764.339 108.461 764.212 108.564 764.122 108.692C764.031 108.821 763.985 108.967 763.985 109.129H762.623C762.623 108.887 762.682 108.653 762.799 108.426C762.916 108.198 763.087 107.996 763.31 107.818C763.533 107.64 763.8 107.5 764.11 107.398C764.421 107.296 764.769 107.245 765.155 107.245C765.616 107.245 766.025 107.322 766.381 107.478C766.74 107.633 767.022 107.867 767.226 108.181C767.435 108.492 767.539 108.882 767.539 109.351V112.081C767.539 112.361 767.558 112.613 767.595 112.836C767.637 113.055 767.696 113.246 767.771 113.409V113.5H766.369C766.305 113.352 766.254 113.165 766.216 112.938C766.182 112.707 766.165 112.484 766.165 112.268ZM766.364 109.765L766.375 110.611H765.393C765.14 110.611 764.916 110.635 764.723 110.685C764.53 110.73 764.369 110.798 764.241 110.889C764.112 110.98 764.016 111.09 763.951 111.218C763.887 111.347 763.855 111.493 763.855 111.655C763.855 111.818 763.893 111.967 763.968 112.104C764.044 112.236 764.154 112.34 764.298 112.416C764.445 112.492 764.623 112.529 764.831 112.529C765.111 112.529 765.355 112.473 765.563 112.359C765.775 112.242 765.942 112.1 766.063 111.933C766.184 111.763 766.248 111.602 766.256 111.451L766.699 112.058C766.653 112.213 766.576 112.38 766.466 112.558C766.356 112.736 766.212 112.906 766.034 113.069C765.86 113.228 765.65 113.358 765.404 113.46C765.162 113.562 764.882 113.614 764.564 113.614C764.163 113.614 763.806 113.534 763.492 113.375C763.177 113.212 762.932 112.995 762.754 112.722C762.576 112.446 762.487 112.134 762.487 111.786C762.487 111.46 762.547 111.173 762.669 110.923C762.793 110.669 762.975 110.458 763.213 110.287C763.456 110.117 763.751 109.988 764.099 109.901C764.447 109.811 764.844 109.765 765.291 109.765H766.364ZM770.343 108.528V113.5H768.975V107.358H770.28L770.343 108.528ZM772.221 107.319L772.21 108.59C772.127 108.575 772.036 108.564 771.938 108.556C771.843 108.549 771.748 108.545 771.654 108.545C771.419 108.545 771.213 108.579 771.035 108.647C770.857 108.711 770.708 108.806 770.587 108.931C770.469 109.052 770.379 109.199 770.314 109.373C770.25 109.548 770.212 109.742 770.201 109.958L769.889 109.981C769.889 109.595 769.926 109.237 770.002 108.908C770.078 108.579 770.191 108.289 770.343 108.04C770.498 107.79 770.691 107.595 770.922 107.455C771.156 107.315 771.427 107.245 771.733 107.245C771.817 107.245 771.906 107.252 772 107.268C772.099 107.283 772.172 107.3 772.221 107.319ZM774.963 112.83L776.632 107.358H778.096L775.633 114.437C775.576 114.588 775.502 114.753 775.411 114.93C775.321 115.108 775.201 115.277 775.054 115.436C774.91 115.598 774.73 115.729 774.515 115.827C774.299 115.929 774.038 115.98 773.731 115.98C773.61 115.98 773.493 115.969 773.379 115.946C773.27 115.927 773.166 115.907 773.067 115.884L773.062 114.84C773.099 114.843 773.145 114.847 773.198 114.851C773.255 114.855 773.3 114.857 773.334 114.857C773.561 114.857 773.75 114.828 773.902 114.771C774.053 114.718 774.176 114.631 774.271 114.51C774.369 114.389 774.452 114.227 774.52 114.022L774.963 112.83ZM774.021 107.358L775.48 111.956L775.724 113.398L774.776 113.642L772.545 107.358H774.021Z" fill="#303C4B"/>
<rect x="493" y="115" width="42.8663" height="11.6248" rx="1.45309" fill="#E7E8EA"/>
<rect x="493" y="128.078" width="303" height="35" rx="1.45309" fill="#F3F4F4"/>
<rect x="493" y="179.062" width="42.8663" height="11.6248" rx="1.45309" fill="#E7E8EA"/>
<rect x="493" y="192.14" width="303" height="35" rx="1.45309" fill="#F3F4F4"/>
<rect x="493" y="46" width="122" height="12" rx="1.45309" fill="#303C4B"/>
<rect x="707" y="318" width="89" height="48" rx="2" fill="#055FD2"/>
<path d="M728.477 342.758H725.516V341.203H728.477C728.992 341.203 729.409 341.12 729.727 340.953C730.044 340.786 730.276 340.557 730.422 340.266C730.573 339.969 730.648 339.63 730.648 339.25C730.648 338.891 730.573 338.555 730.422 338.242C730.276 337.924 730.044 337.669 729.727 337.477C729.409 337.284 728.992 337.188 728.477 337.188H726.117V347H724.156V335.625H728.477C729.357 335.625 730.104 335.781 730.719 336.094C731.339 336.401 731.81 336.828 732.133 337.375C732.456 337.917 732.617 338.536 732.617 339.234C732.617 339.969 732.456 340.599 732.133 341.125C731.81 341.651 731.339 342.055 730.719 342.336C730.104 342.617 729.357 342.758 728.477 342.758ZM736.078 340.156V347H734.195V338.547H735.992L736.078 340.156ZM738.664 338.492L738.648 340.242C738.534 340.221 738.409 340.206 738.273 340.195C738.143 340.185 738.013 340.18 737.883 340.18C737.56 340.18 737.276 340.227 737.031 340.32C736.786 340.409 736.581 340.539 736.414 340.711C736.253 340.878 736.128 341.081 736.039 341.32C735.951 341.56 735.898 341.828 735.883 342.125L735.453 342.156C735.453 341.625 735.505 341.133 735.609 340.68C735.714 340.227 735.87 339.828 736.078 339.484C736.292 339.141 736.557 338.872 736.875 338.68C737.198 338.487 737.57 338.391 737.992 338.391C738.107 338.391 738.229 338.401 738.359 338.422C738.495 338.443 738.596 338.466 738.664 338.492ZM741.859 338.547V347H739.969V338.547H741.859ZM739.844 336.328C739.844 336.042 739.938 335.805 740.125 335.617C740.318 335.424 740.583 335.328 740.922 335.328C741.255 335.328 741.518 335.424 741.711 335.617C741.904 335.805 742 336.042 742 336.328C742 336.609 741.904 336.844 741.711 337.031C741.518 337.219 741.255 337.312 740.922 337.312C740.583 337.312 740.318 337.219 740.125 337.031C739.938 336.844 739.844 336.609 739.844 336.328ZM745.805 340.266V347H743.922V338.547H745.695L745.805 340.266ZM745.5 342.461L744.859 342.453C744.859 341.87 744.932 341.331 745.078 340.836C745.224 340.341 745.438 339.911 745.719 339.547C746 339.177 746.349 338.893 746.766 338.695C747.188 338.492 747.674 338.391 748.227 338.391C748.612 338.391 748.964 338.448 749.281 338.562C749.604 338.672 749.883 338.846 750.117 339.086C750.357 339.326 750.539 339.633 750.664 340.008C750.794 340.383 750.859 340.836 750.859 341.367V347H748.977V341.531C748.977 341.12 748.914 340.797 748.789 340.562C748.669 340.328 748.495 340.161 748.266 340.062C748.042 339.958 747.773 339.906 747.461 339.906C747.107 339.906 746.805 339.974 746.555 340.109C746.31 340.245 746.109 340.43 745.953 340.664C745.797 340.898 745.682 341.169 745.609 341.477C745.536 341.784 745.5 342.112 745.5 342.461ZM750.742 341.961L749.859 342.156C749.859 341.646 749.93 341.164 750.07 340.711C750.216 340.253 750.427 339.852 750.703 339.508C750.984 339.159 751.331 338.885 751.742 338.688C752.154 338.49 752.625 338.391 753.156 338.391C753.589 338.391 753.974 338.451 754.312 338.57C754.656 338.685 754.948 338.867 755.188 339.117C755.427 339.367 755.609 339.693 755.734 340.094C755.859 340.49 755.922 340.969 755.922 341.531V347H754.031V341.523C754.031 341.096 753.969 340.766 753.844 340.531C753.724 340.297 753.552 340.135 753.328 340.047C753.104 339.953 752.836 339.906 752.523 339.906C752.232 339.906 751.974 339.961 751.75 340.07C751.531 340.174 751.346 340.323 751.195 340.516C751.044 340.703 750.93 340.919 750.852 341.164C750.779 341.409 750.742 341.674 750.742 341.961ZM762.625 345.305V341.273C762.625 340.971 762.57 340.711 762.461 340.492C762.352 340.273 762.185 340.104 761.961 339.984C761.742 339.865 761.466 339.805 761.133 339.805C760.826 339.805 760.56 339.857 760.336 339.961C760.112 340.065 759.938 340.206 759.812 340.383C759.688 340.56 759.625 340.76 759.625 340.984H757.75C757.75 340.651 757.831 340.328 757.992 340.016C758.154 339.703 758.388 339.424 758.695 339.18C759.003 338.935 759.37 338.742 759.797 338.602C760.224 338.461 760.703 338.391 761.234 338.391C761.87 338.391 762.432 338.497 762.922 338.711C763.417 338.924 763.805 339.247 764.086 339.68C764.372 340.107 764.516 340.643 764.516 341.289V345.047C764.516 345.432 764.542 345.779 764.594 346.086C764.651 346.388 764.732 346.651 764.836 346.875V347H762.906C762.818 346.797 762.747 346.539 762.695 346.227C762.648 345.909 762.625 345.602 762.625 345.305ZM762.898 341.859L762.914 343.023H761.562C761.214 343.023 760.906 343.057 760.641 343.125C760.375 343.188 760.154 343.281 759.977 343.406C759.799 343.531 759.667 343.682 759.578 343.859C759.49 344.036 759.445 344.237 759.445 344.461C759.445 344.685 759.497 344.891 759.602 345.078C759.706 345.26 759.857 345.404 760.055 345.508C760.258 345.612 760.503 345.664 760.789 345.664C761.174 345.664 761.51 345.586 761.797 345.43C762.089 345.268 762.318 345.073 762.484 344.844C762.651 344.609 762.74 344.388 762.75 344.18L763.359 345.016C763.297 345.229 763.19 345.458 763.039 345.703C762.888 345.948 762.69 346.182 762.445 346.406C762.206 346.625 761.917 346.805 761.578 346.945C761.245 347.086 760.859 347.156 760.422 347.156C759.87 347.156 759.378 347.047 758.945 346.828C758.513 346.604 758.174 346.305 757.93 345.93C757.685 345.549 757.562 345.12 757.562 344.641C757.562 344.193 757.646 343.797 757.812 343.453C757.984 343.104 758.234 342.812 758.562 342.578C758.896 342.344 759.302 342.167 759.781 342.047C760.26 341.922 760.807 341.859 761.422 341.859H762.898ZM768.375 340.156V347H766.492V338.547H768.289L768.375 340.156ZM770.961 338.492L770.945 340.242C770.831 340.221 770.706 340.206 770.57 340.195C770.44 340.185 770.31 340.18 770.18 340.18C769.857 340.18 769.573 340.227 769.328 340.32C769.083 340.409 768.878 340.539 768.711 340.711C768.549 340.878 768.424 341.081 768.336 341.32C768.247 341.56 768.195 341.828 768.18 342.125L767.75 342.156C767.75 341.625 767.802 341.133 767.906 340.68C768.01 340.227 768.167 339.828 768.375 339.484C768.589 339.141 768.854 338.872 769.172 338.68C769.495 338.487 769.867 338.391 770.289 338.391C770.404 338.391 770.526 338.401 770.656 338.422C770.792 338.443 770.893 338.466 770.961 338.492ZM774.734 346.078L777.031 338.547H779.047L775.656 348.289C775.578 348.497 775.477 348.724 775.352 348.969C775.227 349.214 775.062 349.445 774.859 349.664C774.661 349.888 774.414 350.068 774.117 350.203C773.82 350.344 773.461 350.414 773.039 350.414C772.872 350.414 772.711 350.398 772.555 350.367C772.404 350.341 772.26 350.312 772.125 350.281L772.117 348.844C772.169 348.849 772.232 348.854 772.305 348.859C772.383 348.865 772.445 348.867 772.492 348.867C772.805 348.867 773.065 348.828 773.273 348.75C773.482 348.677 773.651 348.557 773.781 348.391C773.917 348.224 774.031 348 774.125 347.719L774.734 346.078ZM773.438 338.547L775.445 344.875L775.781 346.859L774.477 347.195L771.406 338.547H773.438Z" fill="white"/>
<rect x="591" y="318" width="108" height="48" rx="2" fill="#D4E5F5"/>
<path d="M614.141 344.07C614.141 343.836 614.104 343.628 614.031 343.445C613.964 343.263 613.841 343.096 613.664 342.945C613.487 342.794 613.237 342.648 612.914 342.508C612.596 342.362 612.19 342.214 611.695 342.062C611.154 341.896 610.654 341.711 610.195 341.508C609.742 341.299 609.346 341.06 609.008 340.789C608.669 340.513 608.406 340.198 608.219 339.844C608.031 339.484 607.938 339.07 607.938 338.602C607.938 338.138 608.034 337.716 608.227 337.336C608.424 336.956 608.703 336.628 609.062 336.352C609.427 336.07 609.857 335.854 610.352 335.703C610.846 335.547 611.393 335.469 611.992 335.469C612.836 335.469 613.562 335.625 614.172 335.938C614.786 336.25 615.258 336.669 615.586 337.195C615.919 337.721 616.086 338.302 616.086 338.938H614.141C614.141 338.562 614.06 338.232 613.898 337.945C613.742 337.654 613.503 337.424 613.18 337.258C612.862 337.091 612.458 337.008 611.969 337.008C611.505 337.008 611.12 337.078 610.812 337.219C610.505 337.359 610.276 337.549 610.125 337.789C609.974 338.029 609.898 338.299 609.898 338.602C609.898 338.815 609.948 339.01 610.047 339.188C610.146 339.359 610.297 339.521 610.5 339.672C610.703 339.818 610.958 339.956 611.266 340.086C611.573 340.216 611.935 340.341 612.352 340.461C612.982 340.648 613.531 340.857 614 341.086C614.469 341.31 614.859 341.565 615.172 341.852C615.484 342.138 615.719 342.464 615.875 342.828C616.031 343.188 616.109 343.596 616.109 344.055C616.109 344.534 616.013 344.966 615.82 345.352C615.628 345.732 615.352 346.057 614.992 346.328C614.638 346.594 614.211 346.799 613.711 346.945C613.216 347.086 612.664 347.156 612.055 347.156C611.508 347.156 610.969 347.083 610.438 346.938C609.911 346.792 609.432 346.57 609 346.273C608.568 345.971 608.224 345.596 607.969 345.148C607.714 344.695 607.586 344.167 607.586 343.562H609.547C609.547 343.932 609.609 344.247 609.734 344.508C609.865 344.768 610.044 344.982 610.273 345.148C610.503 345.31 610.768 345.43 611.07 345.508C611.378 345.586 611.706 345.625 612.055 345.625C612.513 345.625 612.896 345.56 613.203 345.43C613.516 345.299 613.75 345.117 613.906 344.883C614.062 344.648 614.141 344.378 614.141 344.07ZM621.383 347.156C620.758 347.156 620.193 347.055 619.688 346.852C619.188 346.643 618.76 346.354 618.406 345.984C618.057 345.615 617.789 345.18 617.602 344.68C617.414 344.18 617.32 343.641 617.32 343.062V342.75C617.32 342.089 617.417 341.49 617.609 340.953C617.802 340.417 618.07 339.958 618.414 339.578C618.758 339.193 619.164 338.898 619.633 338.695C620.102 338.492 620.609 338.391 621.156 338.391C621.76 338.391 622.289 338.492 622.742 338.695C623.195 338.898 623.57 339.185 623.867 339.555C624.169 339.919 624.393 340.354 624.539 340.859C624.69 341.365 624.766 341.922 624.766 342.531V343.336H618.234V341.984H622.906V341.836C622.896 341.497 622.828 341.18 622.703 340.883C622.583 340.586 622.398 340.346 622.148 340.164C621.898 339.982 621.565 339.891 621.148 339.891C620.836 339.891 620.557 339.958 620.312 340.094C620.073 340.224 619.872 340.414 619.711 340.664C619.549 340.914 619.424 341.216 619.336 341.57C619.253 341.919 619.211 342.312 619.211 342.75V343.062C619.211 343.432 619.26 343.776 619.359 344.094C619.464 344.406 619.615 344.68 619.812 344.914C620.01 345.148 620.25 345.333 620.531 345.469C620.812 345.599 621.133 345.664 621.492 345.664C621.945 345.664 622.349 345.573 622.703 345.391C623.057 345.208 623.365 344.951 623.625 344.617L624.617 345.578C624.435 345.844 624.198 346.099 623.906 346.344C623.615 346.583 623.258 346.779 622.836 346.93C622.419 347.081 621.935 347.156 621.383 347.156ZM629.688 345.656C629.995 345.656 630.271 345.596 630.516 345.477C630.766 345.352 630.966 345.18 631.117 344.961C631.273 344.742 631.359 344.49 631.375 344.203H633.148C633.138 344.75 632.977 345.247 632.664 345.695C632.352 346.143 631.938 346.5 631.422 346.766C630.906 347.026 630.336 347.156 629.711 347.156C629.065 347.156 628.503 347.047 628.023 346.828C627.544 346.604 627.146 346.297 626.828 345.906C626.51 345.516 626.271 345.065 626.109 344.555C625.953 344.044 625.875 343.497 625.875 342.914V342.641C625.875 342.057 625.953 341.51 626.109 341C626.271 340.484 626.51 340.031 626.828 339.641C627.146 339.25 627.544 338.945 628.023 338.727C628.503 338.503 629.062 338.391 629.703 338.391C630.38 338.391 630.974 338.526 631.484 338.797C631.995 339.062 632.396 339.435 632.688 339.914C632.984 340.388 633.138 340.94 633.148 341.57H631.375C631.359 341.258 631.281 340.977 631.141 340.727C631.005 340.471 630.812 340.268 630.562 340.117C630.318 339.966 630.023 339.891 629.68 339.891C629.299 339.891 628.984 339.969 628.734 340.125C628.484 340.276 628.289 340.484 628.148 340.75C628.008 341.01 627.906 341.305 627.844 341.633C627.786 341.956 627.758 342.292 627.758 342.641V342.914C627.758 343.263 627.786 343.602 627.844 343.93C627.901 344.258 628 344.552 628.141 344.812C628.286 345.068 628.484 345.273 628.734 345.43C628.984 345.581 629.302 345.656 629.688 345.656ZM634.234 342.867V342.688C634.234 342.078 634.323 341.513 634.5 340.992C634.677 340.466 634.932 340.01 635.266 339.625C635.604 339.234 636.016 338.932 636.5 338.719C636.99 338.5 637.542 338.391 638.156 338.391C638.776 338.391 639.328 338.5 639.812 338.719C640.302 338.932 640.716 339.234 641.055 339.625C641.393 340.01 641.651 340.466 641.828 340.992C642.005 341.513 642.094 342.078 642.094 342.688V342.867C642.094 343.477 642.005 344.042 641.828 344.562C641.651 345.083 641.393 345.539 641.055 345.93C640.716 346.315 640.305 346.617 639.82 346.836C639.336 347.049 638.786 347.156 638.172 347.156C637.552 347.156 636.997 347.049 636.508 346.836C636.023 346.617 635.612 346.315 635.273 345.93C634.935 345.539 634.677 345.083 634.5 344.562C634.323 344.042 634.234 343.477 634.234 342.867ZM636.117 342.688V342.867C636.117 343.247 636.156 343.607 636.234 343.945C636.312 344.284 636.435 344.581 636.602 344.836C636.768 345.091 636.982 345.292 637.242 345.438C637.503 345.583 637.812 345.656 638.172 345.656C638.521 345.656 638.823 345.583 639.078 345.438C639.339 345.292 639.552 345.091 639.719 344.836C639.885 344.581 640.008 344.284 640.086 343.945C640.169 343.607 640.211 343.247 640.211 342.867V342.688C640.211 342.312 640.169 341.958 640.086 341.625C640.008 341.286 639.883 340.987 639.711 340.727C639.544 340.466 639.331 340.263 639.07 340.117C638.815 339.966 638.51 339.891 638.156 339.891C637.802 339.891 637.495 339.966 637.234 340.117C636.979 340.263 636.768 340.466 636.602 340.727C636.435 340.987 636.312 341.286 636.234 341.625C636.156 341.958 636.117 342.312 636.117 342.688ZM645.539 340.352V347H643.656V338.547H645.43L645.539 340.352ZM645.203 342.461L644.594 342.453C644.599 341.854 644.682 341.305 644.844 340.805C645.01 340.305 645.24 339.875 645.531 339.516C645.828 339.156 646.182 338.88 646.594 338.688C647.005 338.49 647.464 338.391 647.969 338.391C648.375 338.391 648.742 338.448 649.07 338.562C649.404 338.672 649.688 338.852 649.922 339.102C650.161 339.352 650.344 339.677 650.469 340.078C650.594 340.474 650.656 340.961 650.656 341.539V347H648.766V341.531C648.766 341.125 648.706 340.805 648.586 340.57C648.471 340.331 648.302 340.161 648.078 340.062C647.859 339.958 647.586 339.906 647.258 339.906C646.935 339.906 646.646 339.974 646.391 340.109C646.135 340.245 645.919 340.43 645.742 340.664C645.57 340.898 645.438 341.169 645.344 341.477C645.25 341.784 645.203 342.112 645.203 342.461ZM657.734 345.25V335H659.625V347H657.914L657.734 345.25ZM652.234 342.867V342.703C652.234 342.062 652.31 341.479 652.461 340.953C652.612 340.422 652.831 339.966 653.117 339.586C653.404 339.201 653.753 338.906 654.164 338.703C654.576 338.495 655.039 338.391 655.555 338.391C656.065 338.391 656.513 338.49 656.898 338.688C657.284 338.885 657.612 339.169 657.883 339.539C658.154 339.904 658.37 340.341 658.531 340.852C658.693 341.357 658.807 341.919 658.875 342.539V343.062C658.807 343.667 658.693 344.219 658.531 344.719C658.37 345.219 658.154 345.651 657.883 346.016C657.612 346.38 657.281 346.661 656.891 346.859C656.505 347.057 656.055 347.156 655.539 347.156C655.029 347.156 654.568 347.049 654.156 346.836C653.75 346.622 653.404 346.323 653.117 345.938C652.831 345.552 652.612 345.099 652.461 344.578C652.31 344.052 652.234 343.482 652.234 342.867ZM654.117 342.703V342.867C654.117 343.253 654.151 343.612 654.219 343.945C654.292 344.279 654.404 344.573 654.555 344.828C654.706 345.078 654.901 345.276 655.141 345.422C655.385 345.562 655.677 345.633 656.016 345.633C656.443 345.633 656.794 345.539 657.07 345.352C657.346 345.164 657.562 344.911 657.719 344.594C657.88 344.271 657.99 343.911 658.047 343.516V342.102C658.016 341.794 657.951 341.508 657.852 341.242C657.758 340.977 657.63 340.745 657.469 340.547C657.307 340.344 657.107 340.188 656.867 340.078C656.633 339.964 656.354 339.906 656.031 339.906C655.688 339.906 655.396 339.979 655.156 340.125C654.917 340.271 654.719 340.471 654.562 340.727C654.411 340.982 654.299 341.279 654.227 341.617C654.154 341.956 654.117 342.318 654.117 342.703ZM666.359 345.305V341.273C666.359 340.971 666.305 340.711 666.195 340.492C666.086 340.273 665.919 340.104 665.695 339.984C665.477 339.865 665.201 339.805 664.867 339.805C664.56 339.805 664.294 339.857 664.07 339.961C663.846 340.065 663.672 340.206 663.547 340.383C663.422 340.56 663.359 340.76 663.359 340.984H661.484C661.484 340.651 661.565 340.328 661.727 340.016C661.888 339.703 662.122 339.424 662.43 339.18C662.737 338.935 663.104 338.742 663.531 338.602C663.958 338.461 664.438 338.391 664.969 338.391C665.604 338.391 666.167 338.497 666.656 338.711C667.151 338.924 667.539 339.247 667.82 339.68C668.107 340.107 668.25 340.643 668.25 341.289V345.047C668.25 345.432 668.276 345.779 668.328 346.086C668.385 346.388 668.466 346.651 668.57 346.875V347H666.641C666.552 346.797 666.482 346.539 666.43 346.227C666.383 345.909 666.359 345.602 666.359 345.305ZM666.633 341.859L666.648 343.023H665.297C664.948 343.023 664.641 343.057 664.375 343.125C664.109 343.188 663.888 343.281 663.711 343.406C663.534 343.531 663.401 343.682 663.312 343.859C663.224 344.036 663.18 344.237 663.18 344.461C663.18 344.685 663.232 344.891 663.336 345.078C663.44 345.26 663.591 345.404 663.789 345.508C663.992 345.612 664.237 345.664 664.523 345.664C664.909 345.664 665.245 345.586 665.531 345.43C665.823 345.268 666.052 345.073 666.219 344.844C666.385 344.609 666.474 344.388 666.484 344.18L667.094 345.016C667.031 345.229 666.924 345.458 666.773 345.703C666.622 345.948 666.424 346.182 666.18 346.406C665.94 346.625 665.651 346.805 665.312 346.945C664.979 347.086 664.594 347.156 664.156 347.156C663.604 347.156 663.112 347.047 662.68 346.828C662.247 346.604 661.909 346.305 661.664 345.93C661.419 345.549 661.297 345.12 661.297 344.641C661.297 344.193 661.38 343.797 661.547 343.453C661.719 343.104 661.969 342.812 662.297 342.578C662.63 342.344 663.036 342.167 663.516 342.047C663.995 341.922 664.542 341.859 665.156 341.859H666.633ZM672.109 340.156V347H670.227V338.547H672.023L672.109 340.156ZM674.695 338.492L674.68 340.242C674.565 340.221 674.44 340.206 674.305 340.195C674.174 340.185 674.044 340.18 673.914 340.18C673.591 340.18 673.307 340.227 673.062 340.32C672.818 340.409 672.612 340.539 672.445 340.711C672.284 340.878 672.159 341.081 672.07 341.32C671.982 341.56 671.93 341.828 671.914 342.125L671.484 342.156C671.484 341.625 671.536 341.133 671.641 340.68C671.745 340.227 671.901 339.828 672.109 339.484C672.323 339.141 672.589 338.872 672.906 338.68C673.229 338.487 673.602 338.391 674.023 338.391C674.138 338.391 674.26 338.401 674.391 338.422C674.526 338.443 674.628 338.466 674.695 338.492ZM678.469 346.078L680.766 338.547H682.781L679.391 348.289C679.312 348.497 679.211 348.724 679.086 348.969C678.961 349.214 678.797 349.445 678.594 349.664C678.396 349.888 678.148 350.068 677.852 350.203C677.555 350.344 677.195 350.414 676.773 350.414C676.607 350.414 676.445 350.398 676.289 350.367C676.138 350.341 675.995 350.312 675.859 350.281L675.852 348.844C675.904 348.849 675.966 348.854 676.039 348.859C676.117 348.865 676.18 348.867 676.227 348.867C676.539 348.867 676.799 348.828 677.008 348.75C677.216 348.677 677.385 348.557 677.516 348.391C677.651 348.224 677.766 348 677.859 347.719L678.469 346.078ZM677.172 338.547L679.18 344.875L679.516 346.859L678.211 347.195L675.141 338.547H677.172Z" fill="#555F6B"/>
<path d="M516.836 335.625V347H514.891V335.625H516.836ZM520.406 335.625V337.188H511.352V335.625H520.406ZM524.695 347.156C524.07 347.156 523.505 347.055 523 346.852C522.5 346.643 522.073 346.354 521.719 345.984C521.37 345.615 521.102 345.18 520.914 344.68C520.727 344.18 520.633 343.641 520.633 343.062V342.75C520.633 342.089 520.729 341.49 520.922 340.953C521.115 340.417 521.383 339.958 521.727 339.578C522.07 339.193 522.477 338.898 522.945 338.695C523.414 338.492 523.922 338.391 524.469 338.391C525.073 338.391 525.602 338.492 526.055 338.695C526.508 338.898 526.883 339.185 527.18 339.555C527.482 339.919 527.706 340.354 527.852 340.859C528.003 341.365 528.078 341.922 528.078 342.531V343.336H521.547V341.984H526.219V341.836C526.208 341.497 526.141 341.18 526.016 340.883C525.896 340.586 525.711 340.346 525.461 340.164C525.211 339.982 524.878 339.891 524.461 339.891C524.148 339.891 523.87 339.958 523.625 340.094C523.385 340.224 523.185 340.414 523.023 340.664C522.862 340.914 522.737 341.216 522.648 341.57C522.565 341.919 522.523 342.312 522.523 342.75V343.062C522.523 343.432 522.573 343.776 522.672 344.094C522.776 344.406 522.927 344.68 523.125 344.914C523.323 345.148 523.562 345.333 523.844 345.469C524.125 345.599 524.445 345.664 524.805 345.664C525.258 345.664 525.661 345.573 526.016 345.391C526.37 345.208 526.677 344.951 526.938 344.617L527.93 345.578C527.747 345.844 527.51 346.099 527.219 346.344C526.927 346.583 526.57 346.779 526.148 346.93C525.732 347.081 525.247 347.156 524.695 347.156ZM531.438 340.156V347H529.555V338.547H531.352L531.438 340.156ZM534.023 338.492L534.008 340.242C533.893 340.221 533.768 340.206 533.633 340.195C533.503 340.185 533.372 340.18 533.242 340.18C532.919 340.18 532.635 340.227 532.391 340.32C532.146 340.409 531.94 340.539 531.773 340.711C531.612 340.878 531.487 341.081 531.398 341.32C531.31 341.56 531.258 341.828 531.242 342.125L530.812 342.156C530.812 341.625 530.865 341.133 530.969 340.68C531.073 340.227 531.229 339.828 531.438 339.484C531.651 339.141 531.917 338.872 532.234 338.68C532.557 338.487 532.93 338.391 533.352 338.391C533.466 338.391 533.589 338.401 533.719 338.422C533.854 338.443 533.956 338.466 534.023 338.492ZM539.469 338.547V339.922H534.703V338.547H539.469ZM536.078 336.477H537.961V344.664C537.961 344.924 537.997 345.125 538.07 345.266C538.148 345.401 538.255 345.492 538.391 345.539C538.526 345.586 538.685 345.609 538.867 345.609C538.997 345.609 539.122 345.602 539.242 345.586C539.362 345.57 539.458 345.555 539.531 345.539L539.539 346.977C539.383 347.023 539.201 347.065 538.992 347.102C538.789 347.138 538.555 347.156 538.289 347.156C537.857 347.156 537.474 347.081 537.141 346.93C536.807 346.773 536.547 346.521 536.359 346.172C536.172 345.823 536.078 345.359 536.078 344.781V336.477ZM542.938 338.547V347H541.047V338.547H542.938ZM540.922 336.328C540.922 336.042 541.016 335.805 541.203 335.617C541.396 335.424 541.661 335.328 542 335.328C542.333 335.328 542.596 335.424 542.789 335.617C542.982 335.805 543.078 336.042 543.078 336.328C543.078 336.609 542.982 336.844 542.789 337.031C542.596 337.219 542.333 337.312 542 337.312C541.661 337.312 541.396 337.219 541.203 337.031C541.016 336.844 540.922 336.609 540.922 336.328ZM549.766 345.305V341.273C549.766 340.971 549.711 340.711 549.602 340.492C549.492 340.273 549.326 340.104 549.102 339.984C548.883 339.865 548.607 339.805 548.273 339.805C547.966 339.805 547.701 339.857 547.477 339.961C547.253 340.065 547.078 340.206 546.953 340.383C546.828 340.56 546.766 340.76 546.766 340.984H544.891C544.891 340.651 544.971 340.328 545.133 340.016C545.294 339.703 545.529 339.424 545.836 339.18C546.143 338.935 546.51 338.742 546.938 338.602C547.365 338.461 547.844 338.391 548.375 338.391C549.01 338.391 549.573 338.497 550.062 338.711C550.557 338.924 550.945 339.247 551.227 339.68C551.513 340.107 551.656 340.643 551.656 341.289V345.047C551.656 345.432 551.682 345.779 551.734 346.086C551.792 346.388 551.872 346.651 551.977 346.875V347H550.047C549.958 346.797 549.888 346.539 549.836 346.227C549.789 345.909 549.766 345.602 549.766 345.305ZM550.039 341.859L550.055 343.023H548.703C548.354 343.023 548.047 343.057 547.781 343.125C547.516 343.188 547.294 343.281 547.117 343.406C546.94 343.531 546.807 343.682 546.719 343.859C546.63 344.036 546.586 344.237 546.586 344.461C546.586 344.685 546.638 344.891 546.742 345.078C546.846 345.26 546.997 345.404 547.195 345.508C547.398 345.612 547.643 345.664 547.93 345.664C548.315 345.664 548.651 345.586 548.938 345.43C549.229 345.268 549.458 345.073 549.625 344.844C549.792 344.609 549.88 344.388 549.891 344.18L550.5 345.016C550.438 345.229 550.331 345.458 550.18 345.703C550.029 345.948 549.831 346.182 549.586 346.406C549.346 346.625 549.057 346.805 548.719 346.945C548.385 347.086 548 347.156 547.562 347.156C547.01 347.156 546.518 347.047 546.086 346.828C545.654 346.604 545.315 346.305 545.07 345.93C544.826 345.549 544.703 345.12 544.703 344.641C544.703 344.193 544.786 343.797 544.953 343.453C545.125 343.104 545.375 342.812 545.703 342.578C546.036 342.344 546.443 342.167 546.922 342.047C547.401 341.922 547.948 341.859 548.562 341.859H550.039ZM555.516 340.156V347H553.633V338.547H555.43L555.516 340.156ZM558.102 338.492L558.086 340.242C557.971 340.221 557.846 340.206 557.711 340.195C557.581 340.185 557.451 340.18 557.32 340.18C556.997 340.18 556.714 340.227 556.469 340.32C556.224 340.409 556.018 340.539 555.852 340.711C555.69 340.878 555.565 341.081 555.477 341.32C555.388 341.56 555.336 341.828 555.32 342.125L554.891 342.156C554.891 341.625 554.943 341.133 555.047 340.68C555.151 340.227 555.307 339.828 555.516 339.484C555.729 339.141 555.995 338.872 556.312 338.68C556.635 338.487 557.008 338.391 557.43 338.391C557.544 338.391 557.667 338.401 557.797 338.422C557.932 338.443 558.034 338.466 558.102 338.492ZM561.875 346.078L564.172 338.547H566.188L562.797 348.289C562.719 348.497 562.617 348.724 562.492 348.969C562.367 349.214 562.203 349.445 562 349.664C561.802 349.888 561.555 350.068 561.258 350.203C560.961 350.344 560.602 350.414 560.18 350.414C560.013 350.414 559.852 350.398 559.695 350.367C559.544 350.341 559.401 350.312 559.266 350.281L559.258 348.844C559.31 348.849 559.372 348.854 559.445 348.859C559.523 348.865 559.586 348.867 559.633 348.867C559.945 348.867 560.206 348.828 560.414 348.75C560.622 348.677 560.792 348.557 560.922 348.391C561.057 348.224 561.172 348 561.266 347.719L561.875 346.078ZM560.578 338.547L562.586 344.875L562.922 346.859L561.617 347.195L558.547 338.547H560.578Z" fill="#303C4B"/>
</g>
<path d="M434 412H845V441C845 452.046 836.046 461 825 461H454C442.954 461 434 452.046 434 441V412Z" fill="#A0E659"/>
<path d="M467.649 431.351C467.424 431.126 467.12 431 466.802 431C466.484 431 466.179 431.126 465.954 431.351L462.007 435.298L458.061 431.351C457.835 431.133 457.532 431.012 457.218 431.015C456.903 431.017 456.603 431.143 456.381 431.366C456.158 431.588 456.032 431.888 456.03 432.203C456.027 432.517 456.148 432.82 456.366 433.046L460.313 436.993L456.366 440.939C456.251 441.05 456.16 441.182 456.097 441.328C456.034 441.475 456.001 441.632 456 441.791C455.999 441.95 456.029 442.108 456.089 442.255C456.15 442.403 456.239 442.536 456.351 442.649C456.464 442.761 456.597 442.85 456.745 442.911C456.892 442.971 457.05 443.001 457.209 443C457.368 442.999 457.525 442.966 457.672 442.903C457.818 442.84 457.95 442.749 458.061 442.634L462.007 438.687L465.954 442.634C466.18 442.852 466.483 442.973 466.797 442.97C467.112 442.968 467.412 442.842 467.634 442.619C467.857 442.397 467.983 442.097 467.985 441.782C467.988 441.468 467.867 441.165 467.649 440.939L463.702 436.993L467.649 433.046C467.874 432.821 468 432.516 468 432.198C468 431.88 467.874 431.576 467.649 431.351Z" fill="#142735"/>
<path d="M485.062 442H482.145V432.545H485.192C486.109 432.545 486.894 432.735 487.546 433.113C488.199 433.489 488.699 434.029 489.047 434.734C489.394 435.435 489.568 436.276 489.568 437.254C489.568 438.239 489.393 439.087 489.042 439.798C488.691 440.506 488.18 441.051 487.509 441.432C486.838 441.811 486.023 442 485.062 442ZM483.29 440.984H484.989C485.77 440.984 486.418 440.834 486.932 440.532C487.446 440.23 487.829 439.801 488.082 439.244C488.334 438.687 488.46 438.024 488.46 437.254C488.46 436.491 488.336 435.834 488.086 435.283C487.837 434.729 487.465 434.304 486.969 434.009C486.474 433.71 485.857 433.561 485.118 433.561H483.29V440.984ZM494.222 442.148C493.581 442.148 493.02 441.995 492.537 441.691C492.056 441.386 491.681 440.96 491.41 440.412C491.142 439.864 491.009 439.224 491.009 438.491C491.009 437.753 491.142 437.108 491.41 436.557C491.681 436.006 492.056 435.578 492.537 435.274C493.02 434.969 493.581 434.817 494.222 434.817C494.862 434.817 495.422 434.969 495.902 435.274C496.385 435.578 496.761 436.006 497.028 436.557C497.299 437.108 497.435 437.753 497.435 438.491C497.435 439.224 497.299 439.864 497.028 440.412C496.761 440.96 496.385 441.386 495.902 441.691C495.422 441.995 494.862 442.148 494.222 442.148ZM494.222 441.169C494.708 441.169 495.108 441.044 495.422 440.795C495.736 440.546 495.968 440.218 496.119 439.812C496.27 439.406 496.345 438.965 496.345 438.491C496.345 438.018 496.27 437.576 496.119 437.167C495.968 436.757 495.736 436.426 495.422 436.174C495.108 435.922 494.708 435.795 494.222 435.795C493.735 435.795 493.335 435.922 493.021 436.174C492.707 436.426 492.475 436.757 492.324 437.167C492.173 437.576 492.098 438.018 492.098 438.491C492.098 438.965 492.173 439.406 492.324 439.812C492.475 440.218 492.707 440.546 493.021 440.795C493.335 441.044 493.735 441.169 494.222 441.169Z" fill="#142735"/>
<defs>
<clipPath id="clip0_123_3985">
<path d="M411 20C411 8.9543 402.046 0 391 0H20C8.95432 0 0 8.95431 0 20V404H411V20Z" fill="white"/>
</clipPath>
<clipPath id="clip1_123_3985">
<path d="M845 20C845 8.9543 836.046 0 825 0H454C442.954 0 434 8.95431 434 20V404H845V20Z" fill="white"/>
</clipPath>
</defs>
</svg>
