<svg width="845" height="461" viewBox="0 0 845 461" fill="none" xmlns="http://www.w3.org/2000/svg">
<g clip-path="url(#clip0_123_4055)">
<path d="M411 20C411 8.9543 402.046 0 391 0H20C8.95432 0 0 8.95431 0 20V404H411V20Z" fill="#F3F4F4"/>
<rect x="24" y="20" width="364" height="364" rx="11.6248" fill="white"/>
<path d="M308.24 105.236V113.5H306.827V105.236H308.24ZM310.834 105.236V106.371H304.255V105.236H310.834ZM313.95 113.614C313.496 113.614 313.086 113.54 312.719 113.392C312.355 113.241 312.045 113.031 311.788 112.762C311.534 112.493 311.339 112.177 311.203 111.814C311.067 111.451 310.999 111.059 310.999 110.639V110.412C310.999 109.932 311.069 109.496 311.209 109.107C311.349 108.717 311.544 108.384 311.793 108.108C312.043 107.828 312.338 107.614 312.679 107.466C313.019 107.319 313.388 107.245 313.786 107.245C314.225 107.245 314.609 107.319 314.938 107.466C315.267 107.614 315.54 107.822 315.755 108.091C315.975 108.356 316.137 108.671 316.243 109.039C316.353 109.406 316.408 109.811 316.408 110.253V110.838H311.663V109.856H315.057V109.748C315.05 109.502 315 109.271 314.91 109.056C314.823 108.84 314.688 108.666 314.507 108.533C314.325 108.401 314.083 108.335 313.78 108.335C313.553 108.335 313.351 108.384 313.173 108.482C312.999 108.577 312.853 108.715 312.736 108.897C312.618 109.078 312.527 109.298 312.463 109.555C312.403 109.809 312.372 110.094 312.372 110.412V110.639C312.372 110.908 312.408 111.158 312.48 111.388C312.556 111.616 312.666 111.814 312.809 111.984C312.953 112.155 313.127 112.289 313.332 112.387C313.536 112.482 313.769 112.529 314.03 112.529C314.359 112.529 314.652 112.463 314.91 112.331C315.167 112.198 315.39 112.011 315.579 111.769L316.3 112.467C316.168 112.66 315.996 112.845 315.784 113.023C315.572 113.197 315.313 113.339 315.006 113.449C314.703 113.559 314.351 113.614 313.95 113.614ZM318.849 108.528V113.5H317.481V107.358H318.786L318.849 108.528ZM320.728 107.319L320.716 108.59C320.633 108.575 320.542 108.564 320.444 108.556C320.349 108.549 320.255 108.545 320.16 108.545C319.925 108.545 319.719 108.579 319.541 108.647C319.363 108.711 319.214 108.806 319.093 108.931C318.976 109.052 318.885 109.199 318.82 109.373C318.756 109.548 318.718 109.742 318.707 109.958L318.395 109.981C318.395 109.595 318.433 109.237 318.508 108.908C318.584 108.579 318.697 108.289 318.849 108.04C319.004 107.79 319.197 107.595 319.428 107.455C319.662 107.315 319.933 107.245 320.239 107.245C320.323 107.245 320.412 107.252 320.506 107.268C320.605 107.283 320.678 107.3 320.728 107.319ZM324.684 107.358V108.357H321.221V107.358H324.684ZM322.22 105.854H323.588V111.803C323.588 111.992 323.615 112.138 323.668 112.24C323.725 112.338 323.802 112.405 323.901 112.439C323.999 112.473 324.114 112.49 324.247 112.49C324.341 112.49 324.432 112.484 324.519 112.473C324.606 112.461 324.676 112.45 324.729 112.439L324.735 113.483C324.621 113.517 324.489 113.547 324.338 113.574C324.19 113.6 324.02 113.614 323.827 113.614C323.513 113.614 323.235 113.559 322.992 113.449C322.75 113.335 322.561 113.152 322.425 112.898C322.289 112.645 322.22 112.308 322.22 111.888V105.854ZM327.204 107.358V113.5H325.83V107.358H327.204ZM325.74 105.746C325.74 105.538 325.808 105.366 325.944 105.23C326.084 105.09 326.277 105.02 326.523 105.02C326.765 105.02 326.956 105.09 327.096 105.23C327.236 105.366 327.306 105.538 327.306 105.746C327.306 105.951 327.236 106.121 327.096 106.257C326.956 106.393 326.765 106.462 326.523 106.462C326.277 106.462 326.084 106.393 325.944 106.257C325.808 106.121 325.74 105.951 325.74 105.746ZM332.165 112.268V109.339C332.165 109.12 332.125 108.931 332.046 108.772C331.966 108.613 331.845 108.49 331.683 108.403C331.524 108.316 331.323 108.272 331.081 108.272C330.858 108.272 330.665 108.31 330.502 108.386C330.339 108.461 330.212 108.564 330.122 108.692C330.031 108.821 329.985 108.967 329.985 109.129H328.623C328.623 108.887 328.682 108.653 328.799 108.426C328.916 108.198 329.087 107.996 329.31 107.818C329.533 107.64 329.8 107.5 330.11 107.398C330.421 107.296 330.769 107.245 331.155 107.245C331.616 107.245 332.025 107.322 332.381 107.478C332.74 107.633 333.022 107.867 333.226 108.181C333.435 108.492 333.539 108.882 333.539 109.351V112.081C333.539 112.361 333.558 112.613 333.595 112.836C333.637 113.055 333.696 113.246 333.771 113.409V113.5H332.369C332.305 113.352 332.254 113.165 332.216 112.938C332.182 112.707 332.165 112.484 332.165 112.268ZM332.364 109.765L332.375 110.611H331.393C331.14 110.611 330.916 110.635 330.723 110.685C330.53 110.73 330.369 110.798 330.241 110.889C330.112 110.98 330.016 111.09 329.951 111.218C329.887 111.347 329.855 111.493 329.855 111.655C329.855 111.818 329.893 111.967 329.968 112.104C330.044 112.236 330.154 112.34 330.298 112.416C330.445 112.492 330.623 112.529 330.831 112.529C331.111 112.529 331.355 112.473 331.563 112.359C331.775 112.242 331.942 112.1 332.063 111.933C332.184 111.763 332.248 111.602 332.256 111.451L332.699 112.058C332.653 112.213 332.576 112.38 332.466 112.558C332.356 112.736 332.212 112.906 332.034 113.069C331.86 113.228 331.65 113.358 331.404 113.46C331.162 113.562 330.882 113.614 330.564 113.614C330.163 113.614 329.806 113.534 329.492 113.375C329.177 113.212 328.932 112.995 328.754 112.722C328.576 112.446 328.487 112.134 328.487 111.786C328.487 111.46 328.547 111.173 328.669 110.923C328.793 110.669 328.975 110.458 329.213 110.287C329.456 110.117 329.751 109.988 330.099 109.901C330.447 109.811 330.844 109.765 331.291 109.765H332.364ZM336.343 108.528V113.5H334.975V107.358H336.28L336.343 108.528ZM338.221 107.319L338.21 108.59C338.127 108.575 338.036 108.564 337.938 108.556C337.843 108.549 337.748 108.545 337.654 108.545C337.419 108.545 337.213 108.579 337.035 108.647C336.857 108.711 336.708 108.806 336.587 108.931C336.469 109.052 336.379 109.199 336.314 109.373C336.25 109.548 336.212 109.742 336.201 109.958L335.889 109.981C335.889 109.595 335.926 109.237 336.002 108.908C336.078 108.579 336.191 108.289 336.343 108.04C336.498 107.79 336.691 107.595 336.922 107.455C337.156 107.315 337.427 107.245 337.733 107.245C337.817 107.245 337.906 107.252 338 107.268C338.099 107.283 338.172 107.3 338.221 107.319ZM340.963 112.83L342.632 107.358H344.096L341.633 114.437C341.576 114.588 341.502 114.753 341.411 114.93C341.321 115.108 341.201 115.277 341.054 115.436C340.91 115.598 340.73 115.729 340.515 115.827C340.299 115.929 340.038 115.98 339.731 115.98C339.61 115.98 339.493 115.969 339.379 115.946C339.27 115.927 339.166 115.907 339.067 115.884L339.062 114.84C339.099 114.843 339.145 114.847 339.198 114.851C339.255 114.855 339.3 114.857 339.334 114.857C339.561 114.857 339.75 114.828 339.902 114.771C340.053 114.718 340.176 114.631 340.271 114.51C340.369 114.389 340.452 114.227 340.52 114.022L340.963 112.83ZM340.021 107.358L341.48 111.956L341.724 113.398L340.776 113.642L338.545 107.358H340.021Z" fill="#303C4B"/>
<rect x="59" y="115" width="42.8663" height="11.6248" rx="1.45309" fill="#E7E8EA"/>
<rect x="59" y="128.078" width="303" height="35" rx="1.45309" fill="#F3F4F4"/>
<rect x="59" y="179.062" width="42.8663" height="11.6248" rx="1.45309" fill="#E7E8EA"/>
<rect x="59" y="192.14" width="303" height="35" rx="1.45309" fill="#F3F4F4"/>
<rect x="59" y="46" width="122" height="12" rx="1.45309" fill="#303C4B"/>
<rect x="273" y="318" width="89" height="48" rx="2" fill="#C60000"/>
<path d="M294.477 342.758H291.516V341.203H294.477C294.992 341.203 295.409 341.12 295.727 340.953C296.044 340.786 296.276 340.557 296.422 340.266C296.573 339.969 296.648 339.63 296.648 339.25C296.648 338.891 296.573 338.555 296.422 338.242C296.276 337.924 296.044 337.669 295.727 337.477C295.409 337.284 294.992 337.188 294.477 337.188H292.117V347H290.156V335.625H294.477C295.357 335.625 296.104 335.781 296.719 336.094C297.339 336.401 297.81 336.828 298.133 337.375C298.456 337.917 298.617 338.536 298.617 339.234C298.617 339.969 298.456 340.599 298.133 341.125C297.81 341.651 297.339 342.055 296.719 342.336C296.104 342.617 295.357 342.758 294.477 342.758ZM302.078 340.156V347H300.195V338.547H301.992L302.078 340.156ZM304.664 338.492L304.648 340.242C304.534 340.221 304.409 340.206 304.273 340.195C304.143 340.185 304.013 340.18 303.883 340.18C303.56 340.18 303.276 340.227 303.031 340.32C302.786 340.409 302.581 340.539 302.414 340.711C302.253 340.878 302.128 341.081 302.039 341.32C301.951 341.56 301.898 341.828 301.883 342.125L301.453 342.156C301.453 341.625 301.505 341.133 301.609 340.68C301.714 340.227 301.87 339.828 302.078 339.484C302.292 339.141 302.557 338.872 302.875 338.68C303.198 338.487 303.57 338.391 303.992 338.391C304.107 338.391 304.229 338.401 304.359 338.422C304.495 338.443 304.596 338.466 304.664 338.492ZM307.859 338.547V347H305.969V338.547H307.859ZM305.844 336.328C305.844 336.042 305.938 335.805 306.125 335.617C306.318 335.424 306.583 335.328 306.922 335.328C307.255 335.328 307.518 335.424 307.711 335.617C307.904 335.805 308 336.042 308 336.328C308 336.609 307.904 336.844 307.711 337.031C307.518 337.219 307.255 337.312 306.922 337.312C306.583 337.312 306.318 337.219 306.125 337.031C305.938 336.844 305.844 336.609 305.844 336.328ZM311.805 340.266V347H309.922V338.547H311.695L311.805 340.266ZM311.5 342.461L310.859 342.453C310.859 341.87 310.932 341.331 311.078 340.836C311.224 340.341 311.438 339.911 311.719 339.547C312 339.177 312.349 338.893 312.766 338.695C313.188 338.492 313.674 338.391 314.227 338.391C314.612 338.391 314.964 338.448 315.281 338.562C315.604 338.672 315.883 338.846 316.117 339.086C316.357 339.326 316.539 339.633 316.664 340.008C316.794 340.383 316.859 340.836 316.859 341.367V347H314.977V341.531C314.977 341.12 314.914 340.797 314.789 340.562C314.669 340.328 314.495 340.161 314.266 340.062C314.042 339.958 313.773 339.906 313.461 339.906C313.107 339.906 312.805 339.974 312.555 340.109C312.31 340.245 312.109 340.43 311.953 340.664C311.797 340.898 311.682 341.169 311.609 341.477C311.536 341.784 311.5 342.112 311.5 342.461ZM316.742 341.961L315.859 342.156C315.859 341.646 315.93 341.164 316.07 340.711C316.216 340.253 316.427 339.852 316.703 339.508C316.984 339.159 317.331 338.885 317.742 338.688C318.154 338.49 318.625 338.391 319.156 338.391C319.589 338.391 319.974 338.451 320.312 338.57C320.656 338.685 320.948 338.867 321.188 339.117C321.427 339.367 321.609 339.693 321.734 340.094C321.859 340.49 321.922 340.969 321.922 341.531V347H320.031V341.523C320.031 341.096 319.969 340.766 319.844 340.531C319.724 340.297 319.552 340.135 319.328 340.047C319.104 339.953 318.836 339.906 318.523 339.906C318.232 339.906 317.974 339.961 317.75 340.07C317.531 340.174 317.346 340.323 317.195 340.516C317.044 340.703 316.93 340.919 316.852 341.164C316.779 341.409 316.742 341.674 316.742 341.961ZM328.625 345.305V341.273C328.625 340.971 328.57 340.711 328.461 340.492C328.352 340.273 328.185 340.104 327.961 339.984C327.742 339.865 327.466 339.805 327.133 339.805C326.826 339.805 326.56 339.857 326.336 339.961C326.112 340.065 325.938 340.206 325.812 340.383C325.688 340.56 325.625 340.76 325.625 340.984H323.75C323.75 340.651 323.831 340.328 323.992 340.016C324.154 339.703 324.388 339.424 324.695 339.18C325.003 338.935 325.37 338.742 325.797 338.602C326.224 338.461 326.703 338.391 327.234 338.391C327.87 338.391 328.432 338.497 328.922 338.711C329.417 338.924 329.805 339.247 330.086 339.68C330.372 340.107 330.516 340.643 330.516 341.289V345.047C330.516 345.432 330.542 345.779 330.594 346.086C330.651 346.388 330.732 346.651 330.836 346.875V347H328.906C328.818 346.797 328.747 346.539 328.695 346.227C328.648 345.909 328.625 345.602 328.625 345.305ZM328.898 341.859L328.914 343.023H327.562C327.214 343.023 326.906 343.057 326.641 343.125C326.375 343.188 326.154 343.281 325.977 343.406C325.799 343.531 325.667 343.682 325.578 343.859C325.49 344.036 325.445 344.237 325.445 344.461C325.445 344.685 325.497 344.891 325.602 345.078C325.706 345.26 325.857 345.404 326.055 345.508C326.258 345.612 326.503 345.664 326.789 345.664C327.174 345.664 327.51 345.586 327.797 345.43C328.089 345.268 328.318 345.073 328.484 344.844C328.651 344.609 328.74 344.388 328.75 344.18L329.359 345.016C329.297 345.229 329.19 345.458 329.039 345.703C328.888 345.948 328.69 346.182 328.445 346.406C328.206 346.625 327.917 346.805 327.578 346.945C327.245 347.086 326.859 347.156 326.422 347.156C325.87 347.156 325.378 347.047 324.945 346.828C324.513 346.604 324.174 346.305 323.93 345.93C323.685 345.549 323.562 345.12 323.562 344.641C323.562 344.193 323.646 343.797 323.812 343.453C323.984 343.104 324.234 342.812 324.562 342.578C324.896 342.344 325.302 342.167 325.781 342.047C326.26 341.922 326.807 341.859 327.422 341.859H328.898ZM334.375 340.156V347H332.492V338.547H334.289L334.375 340.156ZM336.961 338.492L336.945 340.242C336.831 340.221 336.706 340.206 336.57 340.195C336.44 340.185 336.31 340.18 336.18 340.18C335.857 340.18 335.573 340.227 335.328 340.32C335.083 340.409 334.878 340.539 334.711 340.711C334.549 340.878 334.424 341.081 334.336 341.32C334.247 341.56 334.195 341.828 334.18 342.125L333.75 342.156C333.75 341.625 333.802 341.133 333.906 340.68C334.01 340.227 334.167 339.828 334.375 339.484C334.589 339.141 334.854 338.872 335.172 338.68C335.495 338.487 335.867 338.391 336.289 338.391C336.404 338.391 336.526 338.401 336.656 338.422C336.792 338.443 336.893 338.466 336.961 338.492ZM340.734 346.078L343.031 338.547H345.047L341.656 348.289C341.578 348.497 341.477 348.724 341.352 348.969C341.227 349.214 341.062 349.445 340.859 349.664C340.661 349.888 340.414 350.068 340.117 350.203C339.82 350.344 339.461 350.414 339.039 350.414C338.872 350.414 338.711 350.398 338.555 350.367C338.404 350.341 338.26 350.312 338.125 350.281L338.117 348.844C338.169 348.849 338.232 348.854 338.305 348.859C338.383 348.865 338.445 348.867 338.492 348.867C338.805 348.867 339.065 348.828 339.273 348.75C339.482 348.677 339.651 348.557 339.781 348.391C339.917 348.224 340.031 348 340.125 347.719L340.734 346.078ZM339.438 338.547L341.445 344.875L341.781 346.859L340.477 347.195L337.406 338.547H339.438Z" fill="white"/>
<rect x="157" y="318" width="108" height="48" rx="2" fill="#D4E5F5"/>
<path d="M180.141 344.07C180.141 343.836 180.104 343.628 180.031 343.445C179.964 343.263 179.841 343.096 179.664 342.945C179.487 342.794 179.237 342.648 178.914 342.508C178.596 342.362 178.19 342.214 177.695 342.062C177.154 341.896 176.654 341.711 176.195 341.508C175.742 341.299 175.346 341.06 175.008 340.789C174.669 340.513 174.406 340.198 174.219 339.844C174.031 339.484 173.938 339.07 173.938 338.602C173.938 338.138 174.034 337.716 174.227 337.336C174.424 336.956 174.703 336.628 175.062 336.352C175.427 336.07 175.857 335.854 176.352 335.703C176.846 335.547 177.393 335.469 177.992 335.469C178.836 335.469 179.562 335.625 180.172 335.938C180.786 336.25 181.258 336.669 181.586 337.195C181.919 337.721 182.086 338.302 182.086 338.938H180.141C180.141 338.562 180.06 338.232 179.898 337.945C179.742 337.654 179.503 337.424 179.18 337.258C178.862 337.091 178.458 337.008 177.969 337.008C177.505 337.008 177.12 337.078 176.812 337.219C176.505 337.359 176.276 337.549 176.125 337.789C175.974 338.029 175.898 338.299 175.898 338.602C175.898 338.815 175.948 339.01 176.047 339.188C176.146 339.359 176.297 339.521 176.5 339.672C176.703 339.818 176.958 339.956 177.266 340.086C177.573 340.216 177.935 340.341 178.352 340.461C178.982 340.648 179.531 340.857 180 341.086C180.469 341.31 180.859 341.565 181.172 341.852C181.484 342.138 181.719 342.464 181.875 342.828C182.031 343.188 182.109 343.596 182.109 344.055C182.109 344.534 182.013 344.966 181.82 345.352C181.628 345.732 181.352 346.057 180.992 346.328C180.638 346.594 180.211 346.799 179.711 346.945C179.216 347.086 178.664 347.156 178.055 347.156C177.508 347.156 176.969 347.083 176.438 346.938C175.911 346.792 175.432 346.57 175 346.273C174.568 345.971 174.224 345.596 173.969 345.148C173.714 344.695 173.586 344.167 173.586 343.562H175.547C175.547 343.932 175.609 344.247 175.734 344.508C175.865 344.768 176.044 344.982 176.273 345.148C176.503 345.31 176.768 345.43 177.07 345.508C177.378 345.586 177.706 345.625 178.055 345.625C178.513 345.625 178.896 345.56 179.203 345.43C179.516 345.299 179.75 345.117 179.906 344.883C180.062 344.648 180.141 344.378 180.141 344.07ZM187.383 347.156C186.758 347.156 186.193 347.055 185.688 346.852C185.188 346.643 184.76 346.354 184.406 345.984C184.057 345.615 183.789 345.18 183.602 344.68C183.414 344.18 183.32 343.641 183.32 343.062V342.75C183.32 342.089 183.417 341.49 183.609 340.953C183.802 340.417 184.07 339.958 184.414 339.578C184.758 339.193 185.164 338.898 185.633 338.695C186.102 338.492 186.609 338.391 187.156 338.391C187.76 338.391 188.289 338.492 188.742 338.695C189.195 338.898 189.57 339.185 189.867 339.555C190.169 339.919 190.393 340.354 190.539 340.859C190.69 341.365 190.766 341.922 190.766 342.531V343.336H184.234V341.984H188.906V341.836C188.896 341.497 188.828 341.18 188.703 340.883C188.583 340.586 188.398 340.346 188.148 340.164C187.898 339.982 187.565 339.891 187.148 339.891C186.836 339.891 186.557 339.958 186.312 340.094C186.073 340.224 185.872 340.414 185.711 340.664C185.549 340.914 185.424 341.216 185.336 341.57C185.253 341.919 185.211 342.312 185.211 342.75V343.062C185.211 343.432 185.26 343.776 185.359 344.094C185.464 344.406 185.615 344.68 185.812 344.914C186.01 345.148 186.25 345.333 186.531 345.469C186.812 345.599 187.133 345.664 187.492 345.664C187.945 345.664 188.349 345.573 188.703 345.391C189.057 345.208 189.365 344.951 189.625 344.617L190.617 345.578C190.435 345.844 190.198 346.099 189.906 346.344C189.615 346.583 189.258 346.779 188.836 346.93C188.419 347.081 187.935 347.156 187.383 347.156ZM195.688 345.656C195.995 345.656 196.271 345.596 196.516 345.477C196.766 345.352 196.966 345.18 197.117 344.961C197.273 344.742 197.359 344.49 197.375 344.203H199.148C199.138 344.75 198.977 345.247 198.664 345.695C198.352 346.143 197.938 346.5 197.422 346.766C196.906 347.026 196.336 347.156 195.711 347.156C195.065 347.156 194.503 347.047 194.023 346.828C193.544 346.604 193.146 346.297 192.828 345.906C192.51 345.516 192.271 345.065 192.109 344.555C191.953 344.044 191.875 343.497 191.875 342.914V342.641C191.875 342.057 191.953 341.51 192.109 341C192.271 340.484 192.51 340.031 192.828 339.641C193.146 339.25 193.544 338.945 194.023 338.727C194.503 338.503 195.062 338.391 195.703 338.391C196.38 338.391 196.974 338.526 197.484 338.797C197.995 339.062 198.396 339.435 198.688 339.914C198.984 340.388 199.138 340.94 199.148 341.57H197.375C197.359 341.258 197.281 340.977 197.141 340.727C197.005 340.471 196.812 340.268 196.562 340.117C196.318 339.966 196.023 339.891 195.68 339.891C195.299 339.891 194.984 339.969 194.734 340.125C194.484 340.276 194.289 340.484 194.148 340.75C194.008 341.01 193.906 341.305 193.844 341.633C193.786 341.956 193.758 342.292 193.758 342.641V342.914C193.758 343.263 193.786 343.602 193.844 343.93C193.901 344.258 194 344.552 194.141 344.812C194.286 345.068 194.484 345.273 194.734 345.43C194.984 345.581 195.302 345.656 195.688 345.656ZM200.234 342.867V342.688C200.234 342.078 200.323 341.513 200.5 340.992C200.677 340.466 200.932 340.01 201.266 339.625C201.604 339.234 202.016 338.932 202.5 338.719C202.99 338.5 203.542 338.391 204.156 338.391C204.776 338.391 205.328 338.5 205.812 338.719C206.302 338.932 206.716 339.234 207.055 339.625C207.393 340.01 207.651 340.466 207.828 340.992C208.005 341.513 208.094 342.078 208.094 342.688V342.867C208.094 343.477 208.005 344.042 207.828 344.562C207.651 345.083 207.393 345.539 207.055 345.93C206.716 346.315 206.305 346.617 205.82 346.836C205.336 347.049 204.786 347.156 204.172 347.156C203.552 347.156 202.997 347.049 202.508 346.836C202.023 346.617 201.612 346.315 201.273 345.93C200.935 345.539 200.677 345.083 200.5 344.562C200.323 344.042 200.234 343.477 200.234 342.867ZM202.117 342.688V342.867C202.117 343.247 202.156 343.607 202.234 343.945C202.312 344.284 202.435 344.581 202.602 344.836C202.768 345.091 202.982 345.292 203.242 345.438C203.503 345.583 203.812 345.656 204.172 345.656C204.521 345.656 204.823 345.583 205.078 345.438C205.339 345.292 205.552 345.091 205.719 344.836C205.885 344.581 206.008 344.284 206.086 343.945C206.169 343.607 206.211 343.247 206.211 342.867V342.688C206.211 342.312 206.169 341.958 206.086 341.625C206.008 341.286 205.883 340.987 205.711 340.727C205.544 340.466 205.331 340.263 205.07 340.117C204.815 339.966 204.51 339.891 204.156 339.891C203.802 339.891 203.495 339.966 203.234 340.117C202.979 340.263 202.768 340.466 202.602 340.727C202.435 340.987 202.312 341.286 202.234 341.625C202.156 341.958 202.117 342.312 202.117 342.688ZM211.539 340.352V347H209.656V338.547H211.43L211.539 340.352ZM211.203 342.461L210.594 342.453C210.599 341.854 210.682 341.305 210.844 340.805C211.01 340.305 211.24 339.875 211.531 339.516C211.828 339.156 212.182 338.88 212.594 338.688C213.005 338.49 213.464 338.391 213.969 338.391C214.375 338.391 214.742 338.448 215.07 338.562C215.404 338.672 215.688 338.852 215.922 339.102C216.161 339.352 216.344 339.677 216.469 340.078C216.594 340.474 216.656 340.961 216.656 341.539V347H214.766V341.531C214.766 341.125 214.706 340.805 214.586 340.57C214.471 340.331 214.302 340.161 214.078 340.062C213.859 339.958 213.586 339.906 213.258 339.906C212.935 339.906 212.646 339.974 212.391 340.109C212.135 340.245 211.919 340.43 211.742 340.664C211.57 340.898 211.438 341.169 211.344 341.477C211.25 341.784 211.203 342.112 211.203 342.461ZM223.734 345.25V335H225.625V347H223.914L223.734 345.25ZM218.234 342.867V342.703C218.234 342.062 218.31 341.479 218.461 340.953C218.612 340.422 218.831 339.966 219.117 339.586C219.404 339.201 219.753 338.906 220.164 338.703C220.576 338.495 221.039 338.391 221.555 338.391C222.065 338.391 222.513 338.49 222.898 338.688C223.284 338.885 223.612 339.169 223.883 339.539C224.154 339.904 224.37 340.341 224.531 340.852C224.693 341.357 224.807 341.919 224.875 342.539V343.062C224.807 343.667 224.693 344.219 224.531 344.719C224.37 345.219 224.154 345.651 223.883 346.016C223.612 346.38 223.281 346.661 222.891 346.859C222.505 347.057 222.055 347.156 221.539 347.156C221.029 347.156 220.568 347.049 220.156 346.836C219.75 346.622 219.404 346.323 219.117 345.938C218.831 345.552 218.612 345.099 218.461 344.578C218.31 344.052 218.234 343.482 218.234 342.867ZM220.117 342.703V342.867C220.117 343.253 220.151 343.612 220.219 343.945C220.292 344.279 220.404 344.573 220.555 344.828C220.706 345.078 220.901 345.276 221.141 345.422C221.385 345.562 221.677 345.633 222.016 345.633C222.443 345.633 222.794 345.539 223.07 345.352C223.346 345.164 223.562 344.911 223.719 344.594C223.88 344.271 223.99 343.911 224.047 343.516V342.102C224.016 341.794 223.951 341.508 223.852 341.242C223.758 340.977 223.63 340.745 223.469 340.547C223.307 340.344 223.107 340.188 222.867 340.078C222.633 339.964 222.354 339.906 222.031 339.906C221.688 339.906 221.396 339.979 221.156 340.125C220.917 340.271 220.719 340.471 220.562 340.727C220.411 340.982 220.299 341.279 220.227 341.617C220.154 341.956 220.117 342.318 220.117 342.703ZM232.359 345.305V341.273C232.359 340.971 232.305 340.711 232.195 340.492C232.086 340.273 231.919 340.104 231.695 339.984C231.477 339.865 231.201 339.805 230.867 339.805C230.56 339.805 230.294 339.857 230.07 339.961C229.846 340.065 229.672 340.206 229.547 340.383C229.422 340.56 229.359 340.76 229.359 340.984H227.484C227.484 340.651 227.565 340.328 227.727 340.016C227.888 339.703 228.122 339.424 228.43 339.18C228.737 338.935 229.104 338.742 229.531 338.602C229.958 338.461 230.438 338.391 230.969 338.391C231.604 338.391 232.167 338.497 232.656 338.711C233.151 338.924 233.539 339.247 233.82 339.68C234.107 340.107 234.25 340.643 234.25 341.289V345.047C234.25 345.432 234.276 345.779 234.328 346.086C234.385 346.388 234.466 346.651 234.57 346.875V347H232.641C232.552 346.797 232.482 346.539 232.43 346.227C232.383 345.909 232.359 345.602 232.359 345.305ZM232.633 341.859L232.648 343.023H231.297C230.948 343.023 230.641 343.057 230.375 343.125C230.109 343.188 229.888 343.281 229.711 343.406C229.534 343.531 229.401 343.682 229.312 343.859C229.224 344.036 229.18 344.237 229.18 344.461C229.18 344.685 229.232 344.891 229.336 345.078C229.44 345.26 229.591 345.404 229.789 345.508C229.992 345.612 230.237 345.664 230.523 345.664C230.909 345.664 231.245 345.586 231.531 345.43C231.823 345.268 232.052 345.073 232.219 344.844C232.385 344.609 232.474 344.388 232.484 344.18L233.094 345.016C233.031 345.229 232.924 345.458 232.773 345.703C232.622 345.948 232.424 346.182 232.18 346.406C231.94 346.625 231.651 346.805 231.312 346.945C230.979 347.086 230.594 347.156 230.156 347.156C229.604 347.156 229.112 347.047 228.68 346.828C228.247 346.604 227.909 346.305 227.664 345.93C227.419 345.549 227.297 345.12 227.297 344.641C227.297 344.193 227.38 343.797 227.547 343.453C227.719 343.104 227.969 342.812 228.297 342.578C228.63 342.344 229.036 342.167 229.516 342.047C229.995 341.922 230.542 341.859 231.156 341.859H232.633ZM238.109 340.156V347H236.227V338.547H238.023L238.109 340.156ZM240.695 338.492L240.68 340.242C240.565 340.221 240.44 340.206 240.305 340.195C240.174 340.185 240.044 340.18 239.914 340.18C239.591 340.18 239.307 340.227 239.062 340.32C238.818 340.409 238.612 340.539 238.445 340.711C238.284 340.878 238.159 341.081 238.07 341.32C237.982 341.56 237.93 341.828 237.914 342.125L237.484 342.156C237.484 341.625 237.536 341.133 237.641 340.68C237.745 340.227 237.901 339.828 238.109 339.484C238.323 339.141 238.589 338.872 238.906 338.68C239.229 338.487 239.602 338.391 240.023 338.391C240.138 338.391 240.26 338.401 240.391 338.422C240.526 338.443 240.628 338.466 240.695 338.492ZM244.469 346.078L246.766 338.547H248.781L245.391 348.289C245.312 348.497 245.211 348.724 245.086 348.969C244.961 349.214 244.797 349.445 244.594 349.664C244.396 349.888 244.148 350.068 243.852 350.203C243.555 350.344 243.195 350.414 242.773 350.414C242.607 350.414 242.445 350.398 242.289 350.367C242.138 350.341 241.995 350.312 241.859 350.281L241.852 348.844C241.904 348.849 241.966 348.854 242.039 348.859C242.117 348.865 242.18 348.867 242.227 348.867C242.539 348.867 242.799 348.828 243.008 348.75C243.216 348.677 243.385 348.557 243.516 348.391C243.651 348.224 243.766 348 243.859 347.719L244.469 346.078ZM243.172 338.547L245.18 344.875L245.516 346.859L244.211 347.195L241.141 338.547H243.172Z" fill="#555F6B"/>
<path d="M82.8359 335.625V347H80.8906V335.625H82.8359ZM86.4062 335.625V337.188H77.3516V335.625H86.4062ZM90.6953 347.156C90.0703 347.156 89.5052 347.055 89 346.852C88.5 346.643 88.0729 346.354 87.7188 345.984C87.3698 345.615 87.1016 345.18 86.9141 344.68C86.7266 344.18 86.6328 343.641 86.6328 343.062V342.75C86.6328 342.089 86.7292 341.49 86.9219 340.953C87.1146 340.417 87.3828 339.958 87.7266 339.578C88.0703 339.193 88.4766 338.898 88.9453 338.695C89.4141 338.492 89.9219 338.391 90.4688 338.391C91.0729 338.391 91.6016 338.492 92.0547 338.695C92.5078 338.898 92.8828 339.185 93.1797 339.555C93.4818 339.919 93.7057 340.354 93.8516 340.859C94.0026 341.365 94.0781 341.922 94.0781 342.531V343.336H87.5469V341.984H92.2188V341.836C92.2083 341.497 92.1406 341.18 92.0156 340.883C91.8958 340.586 91.7109 340.346 91.4609 340.164C91.2109 339.982 90.8776 339.891 90.4609 339.891C90.1484 339.891 89.8698 339.958 89.625 340.094C89.3854 340.224 89.1849 340.414 89.0234 340.664C88.862 340.914 88.737 341.216 88.6484 341.57C88.5651 341.919 88.5234 342.312 88.5234 342.75V343.062C88.5234 343.432 88.5729 343.776 88.6719 344.094C88.776 344.406 88.9271 344.68 89.125 344.914C89.3229 345.148 89.5625 345.333 89.8438 345.469C90.125 345.599 90.4453 345.664 90.8047 345.664C91.2578 345.664 91.6615 345.573 92.0156 345.391C92.3698 345.208 92.6771 344.951 92.9375 344.617L93.9297 345.578C93.7474 345.844 93.5104 346.099 93.2188 346.344C92.9271 346.583 92.5703 346.779 92.1484 346.93C91.7318 347.081 91.2474 347.156 90.6953 347.156ZM97.4375 340.156V347H95.5547V338.547H97.3516L97.4375 340.156ZM100.023 338.492L100.008 340.242C99.8932 340.221 99.7682 340.206 99.6328 340.195C99.5026 340.185 99.3724 340.18 99.2422 340.18C98.9193 340.18 98.6354 340.227 98.3906 340.32C98.1458 340.409 97.9401 340.539 97.7734 340.711C97.612 340.878 97.487 341.081 97.3984 341.32C97.3099 341.56 97.2578 341.828 97.2422 342.125L96.8125 342.156C96.8125 341.625 96.8646 341.133 96.9688 340.68C97.0729 340.227 97.2292 339.828 97.4375 339.484C97.651 339.141 97.9167 338.872 98.2344 338.68C98.5573 338.487 98.9297 338.391 99.3516 338.391C99.4661 338.391 99.5885 338.401 99.7188 338.422C99.8542 338.443 99.9557 338.466 100.023 338.492ZM105.469 338.547V339.922H100.703V338.547H105.469ZM102.078 336.477H103.961V344.664C103.961 344.924 103.997 345.125 104.07 345.266C104.148 345.401 104.255 345.492 104.391 345.539C104.526 345.586 104.685 345.609 104.867 345.609C104.997 345.609 105.122 345.602 105.242 345.586C105.362 345.57 105.458 345.555 105.531 345.539L105.539 346.977C105.383 347.023 105.201 347.065 104.992 347.102C104.789 347.138 104.555 347.156 104.289 347.156C103.857 347.156 103.474 347.081 103.141 346.93C102.807 346.773 102.547 346.521 102.359 346.172C102.172 345.823 102.078 345.359 102.078 344.781V336.477ZM108.938 338.547V347H107.047V338.547H108.938ZM106.922 336.328C106.922 336.042 107.016 335.805 107.203 335.617C107.396 335.424 107.661 335.328 108 335.328C108.333 335.328 108.596 335.424 108.789 335.617C108.982 335.805 109.078 336.042 109.078 336.328C109.078 336.609 108.982 336.844 108.789 337.031C108.596 337.219 108.333 337.312 108 337.312C107.661 337.312 107.396 337.219 107.203 337.031C107.016 336.844 106.922 336.609 106.922 336.328ZM115.766 345.305V341.273C115.766 340.971 115.711 340.711 115.602 340.492C115.492 340.273 115.326 340.104 115.102 339.984C114.883 339.865 114.607 339.805 114.273 339.805C113.966 339.805 113.701 339.857 113.477 339.961C113.253 340.065 113.078 340.206 112.953 340.383C112.828 340.56 112.766 340.76 112.766 340.984H110.891C110.891 340.651 110.971 340.328 111.133 340.016C111.294 339.703 111.529 339.424 111.836 339.18C112.143 338.935 112.51 338.742 112.938 338.602C113.365 338.461 113.844 338.391 114.375 338.391C115.01 338.391 115.573 338.497 116.062 338.711C116.557 338.924 116.945 339.247 117.227 339.68C117.513 340.107 117.656 340.643 117.656 341.289V345.047C117.656 345.432 117.682 345.779 117.734 346.086C117.792 346.388 117.872 346.651 117.977 346.875V347H116.047C115.958 346.797 115.888 346.539 115.836 346.227C115.789 345.909 115.766 345.602 115.766 345.305ZM116.039 341.859L116.055 343.023H114.703C114.354 343.023 114.047 343.057 113.781 343.125C113.516 343.188 113.294 343.281 113.117 343.406C112.94 343.531 112.807 343.682 112.719 343.859C112.63 344.036 112.586 344.237 112.586 344.461C112.586 344.685 112.638 344.891 112.742 345.078C112.846 345.26 112.997 345.404 113.195 345.508C113.398 345.612 113.643 345.664 113.93 345.664C114.315 345.664 114.651 345.586 114.938 345.43C115.229 345.268 115.458 345.073 115.625 344.844C115.792 344.609 115.88 344.388 115.891 344.18L116.5 345.016C116.438 345.229 116.331 345.458 116.18 345.703C116.029 345.948 115.831 346.182 115.586 346.406C115.346 346.625 115.057 346.805 114.719 346.945C114.385 347.086 114 347.156 113.562 347.156C113.01 347.156 112.518 347.047 112.086 346.828C111.654 346.604 111.315 346.305 111.07 345.93C110.826 345.549 110.703 345.12 110.703 344.641C110.703 344.193 110.786 343.797 110.953 343.453C111.125 343.104 111.375 342.812 111.703 342.578C112.036 342.344 112.443 342.167 112.922 342.047C113.401 341.922 113.948 341.859 114.562 341.859H116.039ZM121.516 340.156V347H119.633V338.547H121.43L121.516 340.156ZM124.102 338.492L124.086 340.242C123.971 340.221 123.846 340.206 123.711 340.195C123.581 340.185 123.451 340.18 123.32 340.18C122.997 340.18 122.714 340.227 122.469 340.32C122.224 340.409 122.018 340.539 121.852 340.711C121.69 340.878 121.565 341.081 121.477 341.32C121.388 341.56 121.336 341.828 121.32 342.125L120.891 342.156C120.891 341.625 120.943 341.133 121.047 340.68C121.151 340.227 121.307 339.828 121.516 339.484C121.729 339.141 121.995 338.872 122.312 338.68C122.635 338.487 123.008 338.391 123.43 338.391C123.544 338.391 123.667 338.401 123.797 338.422C123.932 338.443 124.034 338.466 124.102 338.492ZM127.875 346.078L130.172 338.547H132.188L128.797 348.289C128.719 348.497 128.617 348.724 128.492 348.969C128.367 349.214 128.203 349.445 128 349.664C127.802 349.888 127.555 350.068 127.258 350.203C126.961 350.344 126.602 350.414 126.18 350.414C126.013 350.414 125.852 350.398 125.695 350.367C125.544 350.341 125.401 350.312 125.266 350.281L125.258 348.844C125.31 348.849 125.372 348.854 125.445 348.859C125.523 348.865 125.586 348.867 125.633 348.867C125.945 348.867 126.206 348.828 126.414 348.75C126.622 348.677 126.792 348.557 126.922 348.391C127.057 348.224 127.172 348 127.266 347.719L127.875 346.078ZM126.578 338.547L128.586 344.875L128.922 346.859L127.617 347.195L124.547 338.547H126.578Z" fill="#303C4B"/>
</g>
<path d="M0 412H412V441C412 452.046 403.046 461 392 461H20C8.95431 461 0 452.046 0 441V412Z" fill="#E65454"/>
<path d="M33.6491 431.351C33.4243 431.126 33.1195 431 32.8017 431C32.4839 431 32.1791 431.126 31.9543 431.351L28.0075 435.298L24.0607 431.351C23.8346 431.133 23.5319 431.012 23.2176 431.015C22.9033 431.017 22.6027 431.143 22.3805 431.366C22.1583 431.588 22.0322 431.888 22.0295 432.203C22.0268 432.517 22.1476 432.82 22.3659 433.046L26.3127 436.993L22.3659 440.939C22.2514 441.05 22.1601 441.182 22.0973 441.328C22.0345 441.475 22.0014 441.632 22 441.791C21.9987 441.95 22.029 442.108 22.0893 442.255C22.1495 442.403 22.2385 442.536 22.351 442.649C22.4636 442.761 22.5974 442.85 22.7447 442.911C22.892 442.971 23.0498 443.001 23.209 443C23.3681 442.999 23.5254 442.966 23.6716 442.903C23.8178 442.84 23.9501 442.749 24.0607 442.634L28.0075 438.687L31.9543 442.634C32.1804 442.852 32.4831 442.973 32.7974 442.97C33.1116 442.968 33.4123 442.842 33.6345 442.619C33.8567 442.397 33.9828 442.097 33.9855 441.782C33.9882 441.468 33.8674 441.165 33.6491 440.939L29.7022 436.993L33.6491 433.046C33.8738 432.821 34 432.516 34 432.198C34 431.88 33.8738 431.576 33.6491 431.351Z" fill="#142735"/>
<path d="M51.0625 442H48.1449V432.545H51.1918C52.1089 432.545 52.8937 432.735 53.5462 433.113C54.1986 433.489 54.6987 434.029 55.0465 434.734C55.3943 435.435 55.5682 436.276 55.5682 437.254C55.5682 438.239 55.3928 439.087 55.0419 439.798C54.6911 440.506 54.1802 441.051 53.5092 441.432C52.8383 441.811 52.0227 442 51.0625 442ZM49.2898 440.984H50.9886C51.7704 440.984 52.4182 440.834 52.9322 440.532C53.4461 440.23 53.8293 439.801 54.0817 439.244C54.334 438.687 54.4602 438.024 54.4602 437.254C54.4602 436.491 54.3356 435.834 54.0863 435.283C53.837 434.729 53.4646 434.304 52.9691 434.009C52.4736 433.71 51.8565 433.561 51.1179 433.561H49.2898V440.984ZM60.2216 442.148C59.5814 442.148 59.0198 441.995 58.5366 441.691C58.0565 441.386 57.681 440.96 57.4102 440.412C57.1424 439.864 57.0085 439.224 57.0085 438.491C57.0085 437.753 57.1424 437.108 57.4102 436.557C57.681 436.006 58.0565 435.578 58.5366 435.274C59.0198 434.969 59.5814 434.817 60.2216 434.817C60.8617 434.817 61.4219 434.969 61.902 435.274C62.3852 435.578 62.7607 436.006 63.0284 436.557C63.2992 437.108 63.4347 437.753 63.4347 438.491C63.4347 439.224 63.2992 439.864 63.0284 440.412C62.7607 440.96 62.3852 441.386 61.902 441.691C61.4219 441.995 60.8617 442.148 60.2216 442.148ZM60.2216 441.169C60.7079 441.169 61.108 441.044 61.4219 440.795C61.7358 440.546 61.9682 440.218 62.119 439.812C62.2698 439.406 62.3452 438.965 62.3452 438.491C62.3452 438.018 62.2698 437.576 62.119 437.167C61.9682 436.757 61.7358 436.426 61.4219 436.174C61.108 435.922 60.7079 435.795 60.2216 435.795C59.7353 435.795 59.3352 435.922 59.0213 436.174C58.7074 436.426 58.475 436.757 58.3242 437.167C58.1734 437.576 58.098 438.018 58.098 438.491C58.098 438.965 58.1734 439.406 58.3242 439.812C58.475 440.218 58.7074 440.546 59.0213 440.795C59.3352 441.044 59.7353 441.169 60.2216 441.169ZM66.1872 437.734V442H65.0977V434.909H66.1503V436.017H66.2426C66.4088 435.657 66.6612 435.368 66.9997 435.149C67.3383 434.928 67.7753 434.817 68.3108 434.817C68.7909 434.817 69.211 434.915 69.5711 435.112C69.9312 435.306 70.2113 435.602 70.4113 435.999C70.6114 436.393 70.7114 436.891 70.7114 437.494V442H69.6219V437.568C69.6219 437.011 69.4772 436.577 69.1879 436.266C68.8986 435.952 68.5016 435.795 67.9969 435.795C67.6491 435.795 67.3383 435.871 67.0644 436.022C66.7935 436.172 66.5796 436.393 66.4227 436.682C66.2657 436.971 66.1872 437.322 66.1872 437.734ZM73.6625 432.545V433.376C73.6625 433.629 73.6163 433.898 73.524 434.184C73.4347 434.467 73.3024 434.743 73.127 435.011C72.9546 435.275 72.7453 435.506 72.4991 435.703L71.9082 435.223C72.1021 434.946 72.2698 434.658 72.4114 434.36C72.556 434.058 72.6284 433.737 72.6284 433.395V432.545H73.6625ZM78.3759 434.909V435.832H74.7012V434.909H78.3759ZM75.7722 433.21H76.8617V439.969C76.8617 440.277 76.9063 440.507 76.9956 440.661C77.0879 440.812 77.2048 440.914 77.3464 440.966C77.4911 441.015 77.6434 441.04 77.8034 441.04C77.9235 441.04 78.022 441.034 78.0989 441.021C78.1758 441.006 78.2374 440.994 78.2836 440.984L78.5051 441.963C78.4313 441.991 78.3282 442.018 78.1958 442.046C78.0635 442.077 77.8958 442.092 77.6926 442.092C77.3849 442.092 77.0833 442.026 76.7878 441.894C76.4954 441.761 76.2523 441.56 76.0584 441.289C75.8676 441.018 75.7722 440.677 75.7722 440.264V433.21Z" fill="#142735"/>
<g clip-path="url(#clip1_123_4055)">
<path d="M845 20C845 8.9543 836.046 0 825 0H454C442.954 0 434 8.95431 434 20V404H845V20Z" fill="#F3F4F4"/>
<rect x="458" y="20" width="364" height="364" rx="11.6248" fill="white"/>
<rect x="712.5" y="100.5" width="83" height="23" rx="0.953094" fill="white"/>
<path d="M740.241 116H738.476L738.487 114.87H740.241C740.752 114.87 741.18 114.759 741.524 114.536C741.872 114.312 742.133 113.993 742.307 113.576C742.485 113.16 742.574 112.664 742.574 112.089V111.641C742.574 111.194 742.523 110.799 742.421 110.454C742.322 110.11 742.175 109.821 741.978 109.586C741.785 109.351 741.547 109.173 741.263 109.052C740.983 108.931 740.659 108.871 740.292 108.871H738.442V107.736H740.292C740.841 107.736 741.342 107.828 741.796 108.014C742.25 108.195 742.642 108.458 742.971 108.803C743.304 109.147 743.56 109.559 743.738 110.04C743.915 110.521 744.004 111.058 744.004 111.652V112.089C744.004 112.683 743.915 113.221 743.738 113.701C743.56 114.182 743.304 114.594 742.971 114.939C742.638 115.279 742.241 115.542 741.779 115.728C741.321 115.909 740.809 116 740.241 116ZM739.265 107.736V116H737.84V107.736H739.265ZM748.006 116.114C747.552 116.114 747.141 116.04 746.774 115.892C746.411 115.741 746.101 115.531 745.843 115.262C745.59 114.993 745.395 114.677 745.259 114.314C745.123 113.951 745.054 113.559 745.054 113.139V112.912C745.054 112.432 745.124 111.996 745.264 111.607C745.404 111.217 745.599 110.884 745.849 110.608C746.099 110.328 746.394 110.114 746.735 109.966C747.075 109.819 747.444 109.745 747.841 109.745C748.28 109.745 748.664 109.819 748.994 109.966C749.323 110.114 749.595 110.322 749.811 110.591C750.031 110.856 750.193 111.171 750.299 111.539C750.409 111.906 750.464 112.311 750.464 112.753V113.338H745.719V112.356H749.113V112.248C749.105 112.002 749.056 111.771 748.965 111.556C748.878 111.34 748.744 111.166 748.562 111.033C748.381 110.901 748.138 110.835 747.836 110.835C747.609 110.835 747.406 110.884 747.228 110.982C747.054 111.077 746.909 111.215 746.791 111.397C746.674 111.578 746.583 111.798 746.519 112.055C746.458 112.309 746.428 112.594 746.428 112.912V113.139C746.428 113.408 746.464 113.658 746.536 113.888C746.612 114.116 746.721 114.314 746.865 114.484C747.009 114.655 747.183 114.789 747.387 114.887C747.592 114.982 747.824 115.029 748.086 115.029C748.415 115.029 748.708 114.963 748.965 114.831C749.223 114.698 749.446 114.511 749.635 114.269L750.356 114.967C750.224 115.16 750.051 115.345 749.839 115.523C749.628 115.697 749.368 115.839 749.062 115.949C748.759 116.059 748.407 116.114 748.006 116.114ZM752.995 107.281V116H751.622V107.281H752.995ZM757.201 116.114C756.747 116.114 756.337 116.04 755.97 115.892C755.606 115.741 755.296 115.531 755.039 115.262C754.785 114.993 754.59 114.677 754.454 114.314C754.318 113.951 754.25 113.559 754.25 113.139V112.912C754.25 112.432 754.32 111.996 754.46 111.607C754.6 111.217 754.795 110.884 755.044 110.608C755.294 110.328 755.589 110.114 755.93 109.966C756.271 109.819 756.639 109.745 757.037 109.745C757.476 109.745 757.86 109.819 758.189 109.966C758.518 110.114 758.791 110.322 759.006 110.591C759.226 110.856 759.389 111.171 759.495 111.539C759.604 111.906 759.659 112.311 759.659 112.753V113.338H754.914V112.356H758.308V112.248C758.301 112.002 758.251 111.771 758.161 111.556C758.074 111.34 757.939 111.166 757.758 111.033C757.576 110.901 757.334 110.835 757.031 110.835C756.804 110.835 756.602 110.884 756.424 110.982C756.25 111.077 756.104 111.215 755.987 111.397C755.869 111.578 755.779 111.798 755.714 112.055C755.654 112.309 755.623 112.594 755.623 112.912V113.139C755.623 113.408 755.659 113.658 755.731 113.888C755.807 114.116 755.917 114.314 756.061 114.484C756.204 114.655 756.378 114.789 756.583 114.887C756.787 114.982 757.02 115.029 757.281 115.029C757.61 115.029 757.903 114.963 758.161 114.831C758.418 114.698 758.641 114.511 758.83 114.269L759.551 114.967C759.419 115.16 759.247 115.345 759.035 115.523C758.823 115.697 758.564 115.839 758.257 115.949C757.954 116.059 757.603 116.114 757.201 116.114ZM763.542 109.858V110.857H760.079V109.858H763.542ZM761.078 108.354H762.446V114.303C762.446 114.492 762.473 114.638 762.526 114.74C762.582 114.838 762.66 114.905 762.758 114.939C762.857 114.973 762.972 114.99 763.105 114.99C763.199 114.99 763.29 114.984 763.377 114.973C763.464 114.961 763.534 114.95 763.587 114.939L763.593 115.983C763.479 116.017 763.347 116.047 763.195 116.074C763.048 116.1 762.878 116.114 762.685 116.114C762.37 116.114 762.092 116.059 761.85 115.949C761.608 115.835 761.419 115.652 761.283 115.398C761.146 115.145 761.078 114.808 761.078 114.388V108.354ZM767.305 116.114C766.851 116.114 766.44 116.04 766.073 115.892C765.71 115.741 765.4 115.531 765.142 115.262C764.889 114.993 764.694 114.677 764.558 114.314C764.421 113.951 764.353 113.559 764.353 113.139V112.912C764.353 112.432 764.423 111.996 764.563 111.607C764.703 111.217 764.898 110.884 765.148 110.608C765.398 110.328 765.693 110.114 766.033 109.966C766.374 109.819 766.743 109.745 767.14 109.745C767.579 109.745 767.963 109.819 768.293 109.966C768.622 110.114 768.894 110.322 769.11 110.591C769.329 110.856 769.492 111.171 769.598 111.539C769.708 111.906 769.763 112.311 769.763 112.753V113.338H765.017V112.356H768.412V112.248C768.404 112.002 768.355 111.771 768.264 111.556C768.177 111.34 768.043 111.166 767.861 111.033C767.68 110.901 767.437 110.835 767.135 110.835C766.908 110.835 766.705 110.884 766.527 110.982C766.353 111.077 766.208 111.215 766.09 111.397C765.973 111.578 765.882 111.798 765.818 112.055C765.757 112.309 765.727 112.594 765.727 112.912V113.139C765.727 113.408 765.763 113.658 765.835 113.888C765.911 114.116 766.02 114.314 766.164 114.484C766.308 114.655 766.482 114.789 766.686 114.887C766.891 114.982 767.123 115.029 767.384 115.029C767.714 115.029 768.007 114.963 768.264 114.831C768.522 114.698 768.745 114.511 768.934 114.269L769.655 114.967C769.522 115.16 769.35 115.345 769.138 115.523C768.926 115.697 768.667 115.839 768.361 115.949C768.058 116.059 767.706 116.114 767.305 116.114Z" fill="#C60000"/>
<rect x="712.5" y="100.5" width="83" height="23" rx="0.953094" stroke="#C60000"/>
<rect x="493" y="115" width="42.8663" height="11.6248" rx="1.45309" fill="#E7E8EA"/>
<rect x="493" y="128.078" width="303" height="35" rx="1.45309" fill="#F3F4F4"/>
<rect x="493" y="179.062" width="42.8663" height="11.6248" rx="1.45309" fill="#E7E8EA"/>
<rect x="493" y="192.14" width="303" height="35" rx="1.45309" fill="#F3F4F4"/>
<rect x="493" y="46" width="122" height="12" rx="1.45309" fill="#303C4B"/>
<rect x="707" y="318" width="89" height="48" rx="2" fill="#055FD2"/>
<path d="M728.477 342.758H725.516V341.203H728.477C728.992 341.203 729.409 341.12 729.727 340.953C730.044 340.786 730.276 340.557 730.422 340.266C730.573 339.969 730.648 339.63 730.648 339.25C730.648 338.891 730.573 338.555 730.422 338.242C730.276 337.924 730.044 337.669 729.727 337.477C729.409 337.284 728.992 337.188 728.477 337.188H726.117V347H724.156V335.625H728.477C729.357 335.625 730.104 335.781 730.719 336.094C731.339 336.401 731.81 336.828 732.133 337.375C732.456 337.917 732.617 338.536 732.617 339.234C732.617 339.969 732.456 340.599 732.133 341.125C731.81 341.651 731.339 342.055 730.719 342.336C730.104 342.617 729.357 342.758 728.477 342.758ZM736.078 340.156V347H734.195V338.547H735.992L736.078 340.156ZM738.664 338.492L738.648 340.242C738.534 340.221 738.409 340.206 738.273 340.195C738.143 340.185 738.013 340.18 737.883 340.18C737.56 340.18 737.276 340.227 737.031 340.32C736.786 340.409 736.581 340.539 736.414 340.711C736.253 340.878 736.128 341.081 736.039 341.32C735.951 341.56 735.898 341.828 735.883 342.125L735.453 342.156C735.453 341.625 735.505 341.133 735.609 340.68C735.714 340.227 735.87 339.828 736.078 339.484C736.292 339.141 736.557 338.872 736.875 338.68C737.198 338.487 737.57 338.391 737.992 338.391C738.107 338.391 738.229 338.401 738.359 338.422C738.495 338.443 738.596 338.466 738.664 338.492ZM741.859 338.547V347H739.969V338.547H741.859ZM739.844 336.328C739.844 336.042 739.938 335.805 740.125 335.617C740.318 335.424 740.583 335.328 740.922 335.328C741.255 335.328 741.518 335.424 741.711 335.617C741.904 335.805 742 336.042 742 336.328C742 336.609 741.904 336.844 741.711 337.031C741.518 337.219 741.255 337.312 740.922 337.312C740.583 337.312 740.318 337.219 740.125 337.031C739.938 336.844 739.844 336.609 739.844 336.328ZM745.805 340.266V347H743.922V338.547H745.695L745.805 340.266ZM745.5 342.461L744.859 342.453C744.859 341.87 744.932 341.331 745.078 340.836C745.224 340.341 745.438 339.911 745.719 339.547C746 339.177 746.349 338.893 746.766 338.695C747.188 338.492 747.674 338.391 748.227 338.391C748.612 338.391 748.964 338.448 749.281 338.562C749.604 338.672 749.883 338.846 750.117 339.086C750.357 339.326 750.539 339.633 750.664 340.008C750.794 340.383 750.859 340.836 750.859 341.367V347H748.977V341.531C748.977 341.12 748.914 340.797 748.789 340.562C748.669 340.328 748.495 340.161 748.266 340.062C748.042 339.958 747.773 339.906 747.461 339.906C747.107 339.906 746.805 339.974 746.555 340.109C746.31 340.245 746.109 340.43 745.953 340.664C745.797 340.898 745.682 341.169 745.609 341.477C745.536 341.784 745.5 342.112 745.5 342.461ZM750.742 341.961L749.859 342.156C749.859 341.646 749.93 341.164 750.07 340.711C750.216 340.253 750.427 339.852 750.703 339.508C750.984 339.159 751.331 338.885 751.742 338.688C752.154 338.49 752.625 338.391 753.156 338.391C753.589 338.391 753.974 338.451 754.312 338.57C754.656 338.685 754.948 338.867 755.188 339.117C755.427 339.367 755.609 339.693 755.734 340.094C755.859 340.49 755.922 340.969 755.922 341.531V347H754.031V341.523C754.031 341.096 753.969 340.766 753.844 340.531C753.724 340.297 753.552 340.135 753.328 340.047C753.104 339.953 752.836 339.906 752.523 339.906C752.232 339.906 751.974 339.961 751.75 340.07C751.531 340.174 751.346 340.323 751.195 340.516C751.044 340.703 750.93 340.919 750.852 341.164C750.779 341.409 750.742 341.674 750.742 341.961ZM762.625 345.305V341.273C762.625 340.971 762.57 340.711 762.461 340.492C762.352 340.273 762.185 340.104 761.961 339.984C761.742 339.865 761.466 339.805 761.133 339.805C760.826 339.805 760.56 339.857 760.336 339.961C760.112 340.065 759.938 340.206 759.812 340.383C759.688 340.56 759.625 340.76 759.625 340.984H757.75C757.75 340.651 757.831 340.328 757.992 340.016C758.154 339.703 758.388 339.424 758.695 339.18C759.003 338.935 759.37 338.742 759.797 338.602C760.224 338.461 760.703 338.391 761.234 338.391C761.87 338.391 762.432 338.497 762.922 338.711C763.417 338.924 763.805 339.247 764.086 339.68C764.372 340.107 764.516 340.643 764.516 341.289V345.047C764.516 345.432 764.542 345.779 764.594 346.086C764.651 346.388 764.732 346.651 764.836 346.875V347H762.906C762.818 346.797 762.747 346.539 762.695 346.227C762.648 345.909 762.625 345.602 762.625 345.305ZM762.898 341.859L762.914 343.023H761.562C761.214 343.023 760.906 343.057 760.641 343.125C760.375 343.188 760.154 343.281 759.977 343.406C759.799 343.531 759.667 343.682 759.578 343.859C759.49 344.036 759.445 344.237 759.445 344.461C759.445 344.685 759.497 344.891 759.602 345.078C759.706 345.26 759.857 345.404 760.055 345.508C760.258 345.612 760.503 345.664 760.789 345.664C761.174 345.664 761.51 345.586 761.797 345.43C762.089 345.268 762.318 345.073 762.484 344.844C762.651 344.609 762.74 344.388 762.75 344.18L763.359 345.016C763.297 345.229 763.19 345.458 763.039 345.703C762.888 345.948 762.69 346.182 762.445 346.406C762.206 346.625 761.917 346.805 761.578 346.945C761.245 347.086 760.859 347.156 760.422 347.156C759.87 347.156 759.378 347.047 758.945 346.828C758.513 346.604 758.174 346.305 757.93 345.93C757.685 345.549 757.562 345.12 757.562 344.641C757.562 344.193 757.646 343.797 757.812 343.453C757.984 343.104 758.234 342.812 758.562 342.578C758.896 342.344 759.302 342.167 759.781 342.047C760.26 341.922 760.807 341.859 761.422 341.859H762.898ZM768.375 340.156V347H766.492V338.547H768.289L768.375 340.156ZM770.961 338.492L770.945 340.242C770.831 340.221 770.706 340.206 770.57 340.195C770.44 340.185 770.31 340.18 770.18 340.18C769.857 340.18 769.573 340.227 769.328 340.32C769.083 340.409 768.878 340.539 768.711 340.711C768.549 340.878 768.424 341.081 768.336 341.32C768.247 341.56 768.195 341.828 768.18 342.125L767.75 342.156C767.75 341.625 767.802 341.133 767.906 340.68C768.01 340.227 768.167 339.828 768.375 339.484C768.589 339.141 768.854 338.872 769.172 338.68C769.495 338.487 769.867 338.391 770.289 338.391C770.404 338.391 770.526 338.401 770.656 338.422C770.792 338.443 770.893 338.466 770.961 338.492ZM774.734 346.078L777.031 338.547H779.047L775.656 348.289C775.578 348.497 775.477 348.724 775.352 348.969C775.227 349.214 775.062 349.445 774.859 349.664C774.661 349.888 774.414 350.068 774.117 350.203C773.82 350.344 773.461 350.414 773.039 350.414C772.872 350.414 772.711 350.398 772.555 350.367C772.404 350.341 772.26 350.312 772.125 350.281L772.117 348.844C772.169 348.849 772.232 348.854 772.305 348.859C772.383 348.865 772.445 348.867 772.492 348.867C772.805 348.867 773.065 348.828 773.273 348.75C773.482 348.677 773.651 348.557 773.781 348.391C773.917 348.224 774.031 348 774.125 347.719L774.734 346.078ZM773.438 338.547L775.445 344.875L775.781 346.859L774.477 347.195L771.406 338.547H773.438Z" fill="white"/>
<rect x="591" y="318" width="108" height="48" rx="2" fill="#D4E5F5"/>
<path d="M614.141 344.07C614.141 343.836 614.104 343.628 614.031 343.445C613.964 343.263 613.841 343.096 613.664 342.945C613.487 342.794 613.237 342.648 612.914 342.508C612.596 342.362 612.19 342.214 611.695 342.062C611.154 341.896 610.654 341.711 610.195 341.508C609.742 341.299 609.346 341.06 609.008 340.789C608.669 340.513 608.406 340.198 608.219 339.844C608.031 339.484 607.938 339.07 607.938 338.602C607.938 338.138 608.034 337.716 608.227 337.336C608.424 336.956 608.703 336.628 609.062 336.352C609.427 336.07 609.857 335.854 610.352 335.703C610.846 335.547 611.393 335.469 611.992 335.469C612.836 335.469 613.562 335.625 614.172 335.938C614.786 336.25 615.258 336.669 615.586 337.195C615.919 337.721 616.086 338.302 616.086 338.938H614.141C614.141 338.562 614.06 338.232 613.898 337.945C613.742 337.654 613.503 337.424 613.18 337.258C612.862 337.091 612.458 337.008 611.969 337.008C611.505 337.008 611.12 337.078 610.812 337.219C610.505 337.359 610.276 337.549 610.125 337.789C609.974 338.029 609.898 338.299 609.898 338.602C609.898 338.815 609.948 339.01 610.047 339.188C610.146 339.359 610.297 339.521 610.5 339.672C610.703 339.818 610.958 339.956 611.266 340.086C611.573 340.216 611.935 340.341 612.352 340.461C612.982 340.648 613.531 340.857 614 341.086C614.469 341.31 614.859 341.565 615.172 341.852C615.484 342.138 615.719 342.464 615.875 342.828C616.031 343.188 616.109 343.596 616.109 344.055C616.109 344.534 616.013 344.966 615.82 345.352C615.628 345.732 615.352 346.057 614.992 346.328C614.638 346.594 614.211 346.799 613.711 346.945C613.216 347.086 612.664 347.156 612.055 347.156C611.508 347.156 610.969 347.083 610.438 346.938C609.911 346.792 609.432 346.57 609 346.273C608.568 345.971 608.224 345.596 607.969 345.148C607.714 344.695 607.586 344.167 607.586 343.562H609.547C609.547 343.932 609.609 344.247 609.734 344.508C609.865 344.768 610.044 344.982 610.273 345.148C610.503 345.31 610.768 345.43 611.07 345.508C611.378 345.586 611.706 345.625 612.055 345.625C612.513 345.625 612.896 345.56 613.203 345.43C613.516 345.299 613.75 345.117 613.906 344.883C614.062 344.648 614.141 344.378 614.141 344.07ZM621.383 347.156C620.758 347.156 620.193 347.055 619.688 346.852C619.188 346.643 618.76 346.354 618.406 345.984C618.057 345.615 617.789 345.18 617.602 344.68C617.414 344.18 617.32 343.641 617.32 343.062V342.75C617.32 342.089 617.417 341.49 617.609 340.953C617.802 340.417 618.07 339.958 618.414 339.578C618.758 339.193 619.164 338.898 619.633 338.695C620.102 338.492 620.609 338.391 621.156 338.391C621.76 338.391 622.289 338.492 622.742 338.695C623.195 338.898 623.57 339.185 623.867 339.555C624.169 339.919 624.393 340.354 624.539 340.859C624.69 341.365 624.766 341.922 624.766 342.531V343.336H618.234V341.984H622.906V341.836C622.896 341.497 622.828 341.18 622.703 340.883C622.583 340.586 622.398 340.346 622.148 340.164C621.898 339.982 621.565 339.891 621.148 339.891C620.836 339.891 620.557 339.958 620.312 340.094C620.073 340.224 619.872 340.414 619.711 340.664C619.549 340.914 619.424 341.216 619.336 341.57C619.253 341.919 619.211 342.312 619.211 342.75V343.062C619.211 343.432 619.26 343.776 619.359 344.094C619.464 344.406 619.615 344.68 619.812 344.914C620.01 345.148 620.25 345.333 620.531 345.469C620.812 345.599 621.133 345.664 621.492 345.664C621.945 345.664 622.349 345.573 622.703 345.391C623.057 345.208 623.365 344.951 623.625 344.617L624.617 345.578C624.435 345.844 624.198 346.099 623.906 346.344C623.615 346.583 623.258 346.779 622.836 346.93C622.419 347.081 621.935 347.156 621.383 347.156ZM629.688 345.656C629.995 345.656 630.271 345.596 630.516 345.477C630.766 345.352 630.966 345.18 631.117 344.961C631.273 344.742 631.359 344.49 631.375 344.203H633.148C633.138 344.75 632.977 345.247 632.664 345.695C632.352 346.143 631.938 346.5 631.422 346.766C630.906 347.026 630.336 347.156 629.711 347.156C629.065 347.156 628.503 347.047 628.023 346.828C627.544 346.604 627.146 346.297 626.828 345.906C626.51 345.516 626.271 345.065 626.109 344.555C625.953 344.044 625.875 343.497 625.875 342.914V342.641C625.875 342.057 625.953 341.51 626.109 341C626.271 340.484 626.51 340.031 626.828 339.641C627.146 339.25 627.544 338.945 628.023 338.727C628.503 338.503 629.062 338.391 629.703 338.391C630.38 338.391 630.974 338.526 631.484 338.797C631.995 339.062 632.396 339.435 632.688 339.914C632.984 340.388 633.138 340.94 633.148 341.57H631.375C631.359 341.258 631.281 340.977 631.141 340.727C631.005 340.471 630.812 340.268 630.562 340.117C630.318 339.966 630.023 339.891 629.68 339.891C629.299 339.891 628.984 339.969 628.734 340.125C628.484 340.276 628.289 340.484 628.148 340.75C628.008 341.01 627.906 341.305 627.844 341.633C627.786 341.956 627.758 342.292 627.758 342.641V342.914C627.758 343.263 627.786 343.602 627.844 343.93C627.901 344.258 628 344.552 628.141 344.812C628.286 345.068 628.484 345.273 628.734 345.43C628.984 345.581 629.302 345.656 629.688 345.656ZM634.234 342.867V342.688C634.234 342.078 634.323 341.513 634.5 340.992C634.677 340.466 634.932 340.01 635.266 339.625C635.604 339.234 636.016 338.932 636.5 338.719C636.99 338.5 637.542 338.391 638.156 338.391C638.776 338.391 639.328 338.5 639.812 338.719C640.302 338.932 640.716 339.234 641.055 339.625C641.393 340.01 641.651 340.466 641.828 340.992C642.005 341.513 642.094 342.078 642.094 342.688V342.867C642.094 343.477 642.005 344.042 641.828 344.562C641.651 345.083 641.393 345.539 641.055 345.93C640.716 346.315 640.305 346.617 639.82 346.836C639.336 347.049 638.786 347.156 638.172 347.156C637.552 347.156 636.997 347.049 636.508 346.836C636.023 346.617 635.612 346.315 635.273 345.93C634.935 345.539 634.677 345.083 634.5 344.562C634.323 344.042 634.234 343.477 634.234 342.867ZM636.117 342.688V342.867C636.117 343.247 636.156 343.607 636.234 343.945C636.312 344.284 636.435 344.581 636.602 344.836C636.768 345.091 636.982 345.292 637.242 345.438C637.503 345.583 637.812 345.656 638.172 345.656C638.521 345.656 638.823 345.583 639.078 345.438C639.339 345.292 639.552 345.091 639.719 344.836C639.885 344.581 640.008 344.284 640.086 343.945C640.169 343.607 640.211 343.247 640.211 342.867V342.688C640.211 342.312 640.169 341.958 640.086 341.625C640.008 341.286 639.883 340.987 639.711 340.727C639.544 340.466 639.331 340.263 639.07 340.117C638.815 339.966 638.51 339.891 638.156 339.891C637.802 339.891 637.495 339.966 637.234 340.117C636.979 340.263 636.768 340.466 636.602 340.727C636.435 340.987 636.312 341.286 636.234 341.625C636.156 341.958 636.117 342.312 636.117 342.688ZM645.539 340.352V347H643.656V338.547H645.43L645.539 340.352ZM645.203 342.461L644.594 342.453C644.599 341.854 644.682 341.305 644.844 340.805C645.01 340.305 645.24 339.875 645.531 339.516C645.828 339.156 646.182 338.88 646.594 338.688C647.005 338.49 647.464 338.391 647.969 338.391C648.375 338.391 648.742 338.448 649.07 338.562C649.404 338.672 649.688 338.852 649.922 339.102C650.161 339.352 650.344 339.677 650.469 340.078C650.594 340.474 650.656 340.961 650.656 341.539V347H648.766V341.531C648.766 341.125 648.706 340.805 648.586 340.57C648.471 340.331 648.302 340.161 648.078 340.062C647.859 339.958 647.586 339.906 647.258 339.906C646.935 339.906 646.646 339.974 646.391 340.109C646.135 340.245 645.919 340.43 645.742 340.664C645.57 340.898 645.438 341.169 645.344 341.477C645.25 341.784 645.203 342.112 645.203 342.461ZM657.734 345.25V335H659.625V347H657.914L657.734 345.25ZM652.234 342.867V342.703C652.234 342.062 652.31 341.479 652.461 340.953C652.612 340.422 652.831 339.966 653.117 339.586C653.404 339.201 653.753 338.906 654.164 338.703C654.576 338.495 655.039 338.391 655.555 338.391C656.065 338.391 656.513 338.49 656.898 338.688C657.284 338.885 657.612 339.169 657.883 339.539C658.154 339.904 658.37 340.341 658.531 340.852C658.693 341.357 658.807 341.919 658.875 342.539V343.062C658.807 343.667 658.693 344.219 658.531 344.719C658.37 345.219 658.154 345.651 657.883 346.016C657.612 346.38 657.281 346.661 656.891 346.859C656.505 347.057 656.055 347.156 655.539 347.156C655.029 347.156 654.568 347.049 654.156 346.836C653.75 346.622 653.404 346.323 653.117 345.938C652.831 345.552 652.612 345.099 652.461 344.578C652.31 344.052 652.234 343.482 652.234 342.867ZM654.117 342.703V342.867C654.117 343.253 654.151 343.612 654.219 343.945C654.292 344.279 654.404 344.573 654.555 344.828C654.706 345.078 654.901 345.276 655.141 345.422C655.385 345.562 655.677 345.633 656.016 345.633C656.443 345.633 656.794 345.539 657.07 345.352C657.346 345.164 657.562 344.911 657.719 344.594C657.88 344.271 657.99 343.911 658.047 343.516V342.102C658.016 341.794 657.951 341.508 657.852 341.242C657.758 340.977 657.63 340.745 657.469 340.547C657.307 340.344 657.107 340.188 656.867 340.078C656.633 339.964 656.354 339.906 656.031 339.906C655.688 339.906 655.396 339.979 655.156 340.125C654.917 340.271 654.719 340.471 654.562 340.727C654.411 340.982 654.299 341.279 654.227 341.617C654.154 341.956 654.117 342.318 654.117 342.703ZM666.359 345.305V341.273C666.359 340.971 666.305 340.711 666.195 340.492C666.086 340.273 665.919 340.104 665.695 339.984C665.477 339.865 665.201 339.805 664.867 339.805C664.56 339.805 664.294 339.857 664.07 339.961C663.846 340.065 663.672 340.206 663.547 340.383C663.422 340.56 663.359 340.76 663.359 340.984H661.484C661.484 340.651 661.565 340.328 661.727 340.016C661.888 339.703 662.122 339.424 662.43 339.18C662.737 338.935 663.104 338.742 663.531 338.602C663.958 338.461 664.438 338.391 664.969 338.391C665.604 338.391 666.167 338.497 666.656 338.711C667.151 338.924 667.539 339.247 667.82 339.68C668.107 340.107 668.25 340.643 668.25 341.289V345.047C668.25 345.432 668.276 345.779 668.328 346.086C668.385 346.388 668.466 346.651 668.57 346.875V347H666.641C666.552 346.797 666.482 346.539 666.43 346.227C666.383 345.909 666.359 345.602 666.359 345.305ZM666.633 341.859L666.648 343.023H665.297C664.948 343.023 664.641 343.057 664.375 343.125C664.109 343.188 663.888 343.281 663.711 343.406C663.534 343.531 663.401 343.682 663.312 343.859C663.224 344.036 663.18 344.237 663.18 344.461C663.18 344.685 663.232 344.891 663.336 345.078C663.44 345.26 663.591 345.404 663.789 345.508C663.992 345.612 664.237 345.664 664.523 345.664C664.909 345.664 665.245 345.586 665.531 345.43C665.823 345.268 666.052 345.073 666.219 344.844C666.385 344.609 666.474 344.388 666.484 344.18L667.094 345.016C667.031 345.229 666.924 345.458 666.773 345.703C666.622 345.948 666.424 346.182 666.18 346.406C665.94 346.625 665.651 346.805 665.312 346.945C664.979 347.086 664.594 347.156 664.156 347.156C663.604 347.156 663.112 347.047 662.68 346.828C662.247 346.604 661.909 346.305 661.664 345.93C661.419 345.549 661.297 345.12 661.297 344.641C661.297 344.193 661.38 343.797 661.547 343.453C661.719 343.104 661.969 342.812 662.297 342.578C662.63 342.344 663.036 342.167 663.516 342.047C663.995 341.922 664.542 341.859 665.156 341.859H666.633ZM672.109 340.156V347H670.227V338.547H672.023L672.109 340.156ZM674.695 338.492L674.68 340.242C674.565 340.221 674.44 340.206 674.305 340.195C674.174 340.185 674.044 340.18 673.914 340.18C673.591 340.18 673.307 340.227 673.062 340.32C672.818 340.409 672.612 340.539 672.445 340.711C672.284 340.878 672.159 341.081 672.07 341.32C671.982 341.56 671.93 341.828 671.914 342.125L671.484 342.156C671.484 341.625 671.536 341.133 671.641 340.68C671.745 340.227 671.901 339.828 672.109 339.484C672.323 339.141 672.589 338.872 672.906 338.68C673.229 338.487 673.602 338.391 674.023 338.391C674.138 338.391 674.26 338.401 674.391 338.422C674.526 338.443 674.628 338.466 674.695 338.492ZM678.469 346.078L680.766 338.547H682.781L679.391 348.289C679.312 348.497 679.211 348.724 679.086 348.969C678.961 349.214 678.797 349.445 678.594 349.664C678.396 349.888 678.148 350.068 677.852 350.203C677.555 350.344 677.195 350.414 676.773 350.414C676.607 350.414 676.445 350.398 676.289 350.367C676.138 350.341 675.995 350.312 675.859 350.281L675.852 348.844C675.904 348.849 675.966 348.854 676.039 348.859C676.117 348.865 676.18 348.867 676.227 348.867C676.539 348.867 676.799 348.828 677.008 348.75C677.216 348.677 677.385 348.557 677.516 348.391C677.651 348.224 677.766 348 677.859 347.719L678.469 346.078ZM677.172 338.547L679.18 344.875L679.516 346.859L678.211 347.195L675.141 338.547H677.172Z" fill="#555F6B"/>
</g>
<path d="M434 412H845V441C845 452.046 836.046 461 825 461H454C442.954 461 434 452.046 434 441V412Z" fill="#A0E659"/>
<path d="M467.649 431.351C467.424 431.126 467.12 431 466.802 431C466.484 431 466.179 431.126 465.954 431.351L462.007 435.298L458.061 431.351C457.835 431.133 457.532 431.012 457.218 431.015C456.903 431.017 456.603 431.143 456.381 431.366C456.158 431.588 456.032 431.888 456.03 432.203C456.027 432.517 456.148 432.82 456.366 433.046L460.313 436.993L456.366 440.939C456.251 441.05 456.16 441.182 456.097 441.328C456.034 441.475 456.001 441.632 456 441.791C455.999 441.95 456.029 442.108 456.089 442.255C456.15 442.403 456.239 442.536 456.351 442.649C456.464 442.761 456.597 442.85 456.745 442.911C456.892 442.971 457.05 443.001 457.209 443C457.368 442.999 457.525 442.966 457.672 442.903C457.818 442.84 457.95 442.749 458.061 442.634L462.007 438.687L465.954 442.634C466.18 442.852 466.483 442.973 466.797 442.97C467.112 442.968 467.412 442.842 467.634 442.619C467.857 442.397 467.983 442.097 467.985 441.782C467.988 441.468 467.867 441.165 467.649 440.939L463.702 436.993L467.649 433.046C467.874 432.821 468 432.516 468 432.198C468 431.88 467.874 431.576 467.649 431.351Z" fill="#142735"/>
<path d="M485.062 442H482.145V432.545H485.192C486.109 432.545 486.894 432.735 487.546 433.113C488.199 433.489 488.699 434.029 489.047 434.734C489.394 435.435 489.568 436.276 489.568 437.254C489.568 438.239 489.393 439.087 489.042 439.798C488.691 440.506 488.18 441.051 487.509 441.432C486.838 441.811 486.023 442 485.062 442ZM483.29 440.984H484.989C485.77 440.984 486.418 440.834 486.932 440.532C487.446 440.23 487.829 439.801 488.082 439.244C488.334 438.687 488.46 438.024 488.46 437.254C488.46 436.491 488.336 435.834 488.086 435.283C487.837 434.729 487.465 434.304 486.969 434.009C486.474 433.71 485.857 433.561 485.118 433.561H483.29V440.984ZM494.222 442.148C493.581 442.148 493.02 441.995 492.537 441.691C492.056 441.386 491.681 440.96 491.41 440.412C491.142 439.864 491.009 439.224 491.009 438.491C491.009 437.753 491.142 437.108 491.41 436.557C491.681 436.006 492.056 435.578 492.537 435.274C493.02 434.969 493.581 434.817 494.222 434.817C494.862 434.817 495.422 434.969 495.902 435.274C496.385 435.578 496.761 436.006 497.028 436.557C497.299 437.108 497.435 437.753 497.435 438.491C497.435 439.224 497.299 439.864 497.028 440.412C496.761 440.96 496.385 441.386 495.902 441.691C495.422 441.995 494.862 442.148 494.222 442.148ZM494.222 441.169C494.708 441.169 495.108 441.044 495.422 440.795C495.736 440.546 495.968 440.218 496.119 439.812C496.27 439.406 496.345 438.965 496.345 438.491C496.345 438.018 496.27 437.576 496.119 437.167C495.968 436.757 495.736 436.426 495.422 436.174C495.108 435.922 494.708 435.795 494.222 435.795C493.735 435.795 493.335 435.922 493.021 436.174C492.707 436.426 492.475 436.757 492.324 437.167C492.173 437.576 492.098 438.018 492.098 438.491C492.098 438.965 492.173 439.406 492.324 439.812C492.475 440.218 492.707 440.546 493.021 440.795C493.335 441.044 493.735 441.169 494.222 441.169Z" fill="#142735"/>
<defs>
<clipPath id="clip0_123_4055">
<path d="M411 20C411 8.9543 402.046 0 391 0H20C8.95432 0 0 8.95431 0 20V404H411V20Z" fill="white"/>
</clipPath>
<clipPath id="clip1_123_4055">
<path d="M845 20C845 8.9543 836.046 0 825 0H454C442.954 0 434 8.95431 434 20V404H845V20Z" fill="white"/>
</clipPath>
</defs>
</svg>
