<svg width="411" height="185" viewBox="0 0 411 185" fill="none" xmlns="http://www.w3.org/2000/svg">
<rect width="409.009" height="15.3105" transform="translate(1)" fill="white"/>
<rect x="7.12402" y="4.59326" width="85.7389" height="6.12421" rx="0.765526" fill="#C2C6CA"/>
<rect x="108.174" y="4.59326" width="76.2184" height="6.12421" rx="0.765526" fill="#C2C6CA"/>
<rect x="199.702" y="4.59326" width="76.2184" height="6.12421" rx="0.765526" fill="#C2C6CA"/>
<rect x="291.231" y="4.59326" width="76.2184" height="6.12421" rx="0.765526" fill="#C2C6CA"/>
<rect x="382.761" y="4.59326" width="15" height="6" rx="0.765526" fill="#C2C6CA"/>
<rect x="0.808618" y="15.1192" width="409.392" height="15.6933" fill="white"/>
<rect x="7.12402" y="19.9038" width="85.7389" height="6.12421" rx="0.765526" fill="#C2C6CA"/>
<rect x="108.174" y="19.9038" width="76.2184" height="6.12421" rx="0.765526" fill="#E7E8EA"/>
<rect x="199.702" y="19.9038" width="76.2184" height="6.12421" rx="0.765526" fill="#E7E8EA"/>
<rect x="291.231" y="19.9038" width="76.2184" height="6.12421" rx="0.765526" fill="#E7E8EA"/>
<rect x="382.761" y="19.9038" width="15" height="6" rx="0.765526" fill="#E7E8EA"/>
<rect x="0.808618" y="15.1192" width="409.392" height="15.6933" stroke="#E8E9EB" stroke-width="0.382763"/>
<rect x="0.808618" y="30.4297" width="409.392" height="15.6933" fill="white"/>
<rect x="7.12402" y="35.2144" width="85.7389" height="6.12421" rx="0.765526" fill="#C2C6CA"/>
<rect x="108.174" y="35.2144" width="76.2184" height="6.12421" rx="0.765526" fill="#E7E8EA"/>
<rect x="199.702" y="35.2144" width="76.2184" height="6.12421" rx="0.765526" fill="#E7E8EA"/>
<rect x="291.231" y="35.2144" width="76.2184" height="6.12421" rx="0.765526" fill="#E7E8EA"/>
<rect x="382.761" y="35.2144" width="15" height="6" rx="0.765526" fill="#E7E8EA"/>
<rect x="0.808618" y="30.4297" width="409.392" height="15.6933" stroke="#E8E9EB" stroke-width="0.382763"/>
<rect x="0.808618" y="45.7403" width="409.392" height="15.6933" fill="white"/>
<rect x="7.12402" y="50.5249" width="85.7389" height="6.12421" rx="0.765526" fill="#C2C6CA"/>
<rect x="108.174" y="50.5249" width="76.2184" height="6.12421" rx="0.765526" fill="#E7E8EA"/>
<rect x="199.702" y="50.5249" width="76.2184" height="6.12421" rx="0.765526" fill="#E7E8EA"/>
<rect x="291.231" y="50.5249" width="76.2184" height="6.12421" rx="0.765526" fill="#E7E8EA"/>
<rect x="382.761" y="50.5249" width="15" height="6" rx="0.765526" fill="#E7E8EA"/>
<rect x="0.808618" y="45.7403" width="409.392" height="15.6933" stroke="#E8E9EB" stroke-width="0.382763"/>
<rect x="0.808618" y="61.0508" width="409.392" height="15.6933" fill="white"/>
<rect x="7.12402" y="65.8354" width="85.7389" height="6.12421" rx="0.765526" fill="#C2C6CA"/>
<rect x="108.174" y="65.8354" width="76.2184" height="6.12421" rx="0.765526" fill="#E7E8EA"/>
<rect x="199.702" y="65.8354" width="76.2184" height="6.12421" rx="0.765526" fill="#E7E8EA"/>
<rect x="291.231" y="65.8354" width="76.2184" height="6.12421" rx="0.765526" fill="#E7E8EA"/>
<rect x="382.761" y="65.8354" width="15" height="6" rx="0.765526" fill="#E7E8EA"/>
<rect x="0.808618" y="61.0508" width="409.392" height="15.6933" stroke="#E8E9EB" stroke-width="0.382763"/>
<rect x="0.808618" y="76.3614" width="409.392" height="15.6933" fill="white"/>
<rect x="7.12402" y="81.146" width="85.7389" height="6.12421" rx="0.765526" fill="#C2C6CA"/>
<rect x="108.174" y="81.146" width="76.2184" height="6.12421" rx="0.765526" fill="#E7E8EA"/>
<rect x="199.702" y="81.146" width="76.2184" height="6.12421" rx="0.765526" fill="#E7E8EA"/>
<rect x="291.231" y="81.146" width="76.2184" height="6.12421" rx="0.765526" fill="#E7E8EA"/>
<rect x="382.761" y="81.146" width="15" height="6" rx="0.765526" fill="#E7E8EA"/>
<rect x="0.808618" y="76.3614" width="409.392" height="15.6933" stroke="#E8E9EB" stroke-width="0.382763"/>
<rect x="0.808618" y="91.6719" width="409.392" height="15.6933" fill="white"/>
<rect x="7.12402" y="96.4565" width="85.7389" height="6.12421" rx="0.765526" fill="#C2C6CA"/>
<rect x="108.174" y="96.4565" width="76.2184" height="6.12421" rx="0.765526" fill="#E7E8EA"/>
<rect x="199.702" y="96.4565" width="76.2184" height="6.12421" rx="0.765526" fill="#E7E8EA"/>
<rect x="291.231" y="96.4565" width="76.2184" height="6.12421" rx="0.765526" fill="#E7E8EA"/>
<rect x="382.761" y="96.4565" width="15" height="6" rx="0.765526" fill="#E7E8EA"/>
<rect x="0.808618" y="91.6719" width="409.392" height="15.6933" stroke="#E8E9EB" stroke-width="0.382763"/>
<rect x="0.808618" y="106.982" width="409.392" height="15.6933" fill="white"/>
<rect x="7.12402" y="111.767" width="85.7389" height="6.12421" rx="0.765526" fill="#C2C6CA"/>
<rect x="108.174" y="111.767" width="76.2184" height="6.12421" rx="0.765526" fill="#E7E8EA"/>
<rect x="199.702" y="111.767" width="76.2184" height="6.12421" rx="0.765526" fill="#E7E8EA"/>
<rect x="291.231" y="111.767" width="76.2184" height="6.12421" rx="0.765526" fill="#E7E8EA"/>
<rect x="382.761" y="111.767" width="15" height="6" rx="0.765526" fill="#E7E8EA"/>
<rect x="0.808618" y="106.982" width="409.392" height="15.6933" stroke="#E8E9EB" stroke-width="0.382763"/>
<rect x="0.808618" y="122.293" width="409.392" height="15.6933" fill="white"/>
<rect x="7.12402" y="127.078" width="85.7389" height="6.12421" rx="0.765526" fill="#C2C6CA"/>
<rect x="108.174" y="127.078" width="76.2184" height="6.12421" rx="0.765526" fill="#E7E8EA"/>
<rect x="199.702" y="127.078" width="76.2184" height="6.12421" rx="0.765526" fill="#E7E8EA"/>
<rect x="291.231" y="127.078" width="76.2184" height="6.12421" rx="0.765526" fill="#E7E8EA"/>
<rect x="382.761" y="127.078" width="15" height="6" rx="0.765526" fill="#E7E8EA"/>
<rect x="0.808618" y="122.293" width="409.392" height="15.6933" stroke="#E8E9EB" stroke-width="0.382763"/>
<rect x="0.808618" y="137.604" width="409.392" height="15.6933" fill="white"/>
<rect x="7.12402" y="142.388" width="85.7389" height="6.12421" rx="0.765526" fill="#C2C6CA"/>
<rect x="108.174" y="142.388" width="76.2184" height="6.12421" rx="0.765526" fill="#E7E8EA"/>
<rect x="199.702" y="142.388" width="76.2184" height="6.12421" rx="0.765526" fill="#E7E8EA"/>
<rect x="291.231" y="142.388" width="76.2184" height="6.12421" rx="0.765526" fill="#E7E8EA"/>
<rect x="382.761" y="142.388" width="15" height="6" rx="0.765526" fill="#E7E8EA"/>
<rect x="0.808618" y="137.604" width="409.392" height="15.6933" stroke="#E8E9EB" stroke-width="0.382763"/>
<rect x="0.808618" y="152.914" width="409.392" height="15.6933" fill="white"/>
<rect x="7.12402" y="157.699" width="85.7389" height="6.12421" rx="0.765526" fill="#C2C6CA"/>
<rect x="108.174" y="157.699" width="76.2184" height="6.12421" rx="0.765526" fill="#E7E8EA"/>
<rect x="199.702" y="157.699" width="76.2184" height="6.12421" rx="0.765526" fill="#E7E8EA"/>
<rect x="291.231" y="157.699" width="76.2184" height="6.12421" rx="0.765526" fill="#E7E8EA"/>
<rect x="382.761" y="157.699" width="15" height="6" rx="0.765526" fill="#E7E8EA"/>
<rect x="0.808618" y="152.914" width="409.392" height="15.6933" stroke="#E8E9EB" stroke-width="0.382763"/>
<rect x="0.808618" y="168.224" width="409.392" height="15.6933" fill="white"/>
<rect x="7.12402" y="173.009" width="85.7389" height="6.12421" rx="0.765526" fill="#C2C6CA"/>
<rect x="108.174" y="173.009" width="76.2184" height="6.12421" rx="0.765526" fill="#E7E8EA"/>
<rect x="199.702" y="173.009" width="76.2184" height="6.12421" rx="0.765526" fill="#E7E8EA"/>
<rect x="291.231" y="173.009" width="76.2184" height="6.12421" rx="0.765526" fill="#E7E8EA"/>
<rect x="382.761" y="173.009" width="15" height="6" rx="0.765526" fill="#E7E8EA"/>
<rect x="0.808618" y="168.224" width="409.392" height="15.6933" stroke="#E8E9EB" stroke-width="0.382763"/>
</svg>
